<?xml version="1.0" standalone="no"?>
<!DOCTYPE svg PUBLIC "-//W3C//DTD SVG 1.1//EN" "http://www.w3.org/Graphics/SVG/1.1/DTD/svg11.dtd" >
<svg xmlns="http://www.w3.org/2000/svg" xmlns:xlink="http://www.w3.org/1999/xlink" version="1.1">
<metadata>
Created by FontForge 20170731 at Mon Aug 20 19:26:00 2018
 By Aleksey,,,
Copyright 2016 Google Inc. &#38; Colophon Foundry. Copyright 2017 Florian Karsten. All rights reserved.
</metadata>
<defs>
<font id="SpaceGrotesk-Bold" horiz-adv-x="620" >
  <font-face 
    font-family="Space Grotesk Bold"
    font-weight="700"
    font-stretch="normal"
    units-per-em="1000"
    panose-1="0 0 8 0 0 0 0 0 0 0"
    ascent="800"
    descent="-200"
    x-height="496"
    cap-height="700"
    bbox="-680 -351 958 1000"
    underline-thickness="50"
    underline-position="-200"
    unicode-range="U+0020-E133"
  />
<missing-glyph horiz-adv-x="910" 
d="M95 620q0 97 51.5 148.5t142.5 51.5h332q91 0 142.5 -51.5t51.5 -148.5v-550q0 -97 -51.5 -148.5t-142.5 -51.5h-332q-91 0 -142.5 51.5t-51.5 148.5v550zM197 600v-510q0 -124 114 -124h288q114 0 114 124v510q0 124 -114 124h-288q-114 0 -114 -124zM286 445
q0 67 49.5 107.5t124.5 40.5q73 0 120.5 -38.5t47.5 -100.5v-3q0 -53 -27.5 -82.5t-72.5 -48.5l-12 -5q-20 -8 -20 -36v-15h-92v22q0 68 60 93l12 5q32 14 47 28.5t15 37.5q0 27 -21.5 43.5t-56.5 16.5q-37 0 -60.5 -18t-23.5 -51v-16h-90v20zM387 171q0 28 18.5 45.5
t46.5 17.5t46.5 -17.5t18.5 -45.5t-18.5 -45.5t-46.5 -17.5t-46.5 17.5t-18.5 45.5z" />
    <glyph glyph-name="f_f.liga" unicode="ff" horiz-adv-x="722" 
d="M574 496h130v-108h-130v-388h-126v388h-180v-388h-126v388h-126v108h126v102q0 44 28.5 73t71.5 29h130v-108h-76q-28 0 -28 -30v-66h180v104q0 44 28 72t72 28h130v-108h-76q-28 0 -28 -30v-66z" />
    <glyph glyph-name="f_f_i.liga" unicode="ffi" horiz-adv-x="936" 
d="M817 726q38 0 63.5 -24t25.5 -62t-25.5 -62t-63.5 -24t-63.5 24t-25.5 62t25.5 62t63.5 24zM574 496h306v-496h-126v388h-180v-388h-126v388h-180v-388h-126v388h-126v108h126v102q0 44 28.5 73t71.5 29h130v-108h-76q-28 0 -28 -30v-66h180v104q0 44 28 72t72 28h116
v-108h-62q-28 0 -28 -30v-66z" />
    <glyph glyph-name="f_f_j.liga" unicode="ffj" horiz-adv-x="936" 
d="M817 726q38 0 63.5 -24t25.5 -62t-25.5 -62t-63.5 -24t-63.5 24t-25.5 62t25.5 62t63.5 24zM574 496h306v-600q0 -42 -28 -69t-70 -27h-142v106h86q28 0 28 30v452h-180v-388h-126v388h-180v-388h-126v388h-126v108h126v102q0 44 28.5 73t71.5 29h130v-108h-76
q-28 0 -28 -30v-66h180v104q0 44 28 72t72 28h116v-108h-62q-28 0 -28 -30v-66z" />
    <glyph glyph-name="f_i.liga" unicode="fi" horiz-adv-x="630" 
d="M511 726q38 0 63.5 -24t25.5 -62t-25.5 -62t-63.5 -24t-63.5 24t-25.5 62t25.5 62t63.5 24zM268 496h306v-496h-126v388h-180v-388h-126v388h-126v108h126v102q0 44 28.5 73t71.5 29h116v-108h-62q-28 0 -28 -30v-66z" />
    <glyph glyph-name="f_j.liga" unicode="fj" horiz-adv-x="630" 
d="M511 726q38 0 63.5 -24t25.5 -62t-25.5 -62t-63.5 -24t-63.5 24t-25.5 62t25.5 62t63.5 24zM268 496h306v-600q0 -42 -28 -69t-70 -27h-142v106h86q28 0 28 30v452h-180v-388h-126v388h-126v108h126v102q0 44 28.5 73t71.5 29h116v-108h-62q-28 0 -28 -30v-66z" />
    <glyph glyph-name="f_l.liga" unicode="fl" horiz-adv-x="630" 
d="M16 496h126v102q0 44 28.5 73t71.5 29h120v-108h-66q-28 0 -28 -30v-66h116v-108h-116v-388h-126v388h-126v108zM448 700h126v-700h-126v700z" />
    <glyph glyph-name="f_lcaron.liga" unicode="f&#x13e;" horiz-adv-x="732" 
d="M16 496h126v102q0 44 28.5 73t71.5 29h120v-108h-66q-28 0 -28 -30v-66h116v-108h-116v-388h-126v388h-126v108zM574 700v-700h-126v700h126zM629 700h128l-58 -182h-80z" />
    <glyph glyph-name=".notdef" horiz-adv-x="910" 
d="M95 620q0 97 51.5 148.5t142.5 51.5h332q91 0 142.5 -51.5t51.5 -148.5v-550q0 -97 -51.5 -148.5t-142.5 -51.5h-332q-91 0 -142.5 51.5t-51.5 148.5v550zM197 600v-510q0 -124 114 -124h288q114 0 114 124v510q0 124 -114 124h-288q-114 0 -114 -124zM286 445
q0 67 49.5 107.5t124.5 40.5q73 0 120.5 -38.5t47.5 -100.5v-3q0 -53 -27.5 -82.5t-72.5 -48.5l-12 -5q-20 -8 -20 -36v-15h-92v22q0 68 60 93l12 5q32 14 47 28.5t15 37.5q0 27 -21.5 43.5t-56.5 16.5q-37 0 -60.5 -18t-23.5 -51v-16h-90v20zM387 171q0 28 18.5 45.5
t46.5 17.5t46.5 -17.5t18.5 -45.5t-18.5 -45.5t-46.5 -17.5t-46.5 17.5t-18.5 45.5z" />
    <glyph glyph-name=".null" horiz-adv-x="0" 
 />
    <glyph glyph-name="nonmarkingreturn" horiz-adv-x="333" 
 />
    <glyph glyph-name="space" unicode=" " horiz-adv-x="270" 
 />
    <glyph glyph-name="exclam" unicode="!" horiz-adv-x="282" 
d="M75 700h132v-482h-132v482zM46 81q0 42 27 68.5t68 26.5t68 -26.5t27 -68.5t-27 -68.5t-68 -26.5t-68 26.5t-27 68.5z" />
    <glyph glyph-name="quotedbl" unicode="&#x22;" horiz-adv-x="492" 
d="M46 619q0 42 27 69t68 27t68 -26.5t27 -67.5v-127q0 -38 -25.5 -64t-63.5 -26h-95v68h77q29 0 29 28v32q-8 -2 -19 -2q-40 0 -66.5 25t-26.5 64zM256 619q0 42 27 69t68 27t68 -26.5t27 -67.5v-127q0 -38 -25.5 -64t-63.5 -26h-95v68h77q29 0 29 28v32q-8 -2 -19 -2
q-40 0 -66.5 25t-26.5 64z" />
    <glyph glyph-name="numbersign" unicode="#" 
d="M32 516h108v184h116v-184h108v184h116v-184h108v-112h-108v-108h108v-112h-108v-184h-116v184h-108v-184h-116v184h-108v112h108v108h-108v112zM256 404v-108h108v108h-108z" />
    <glyph glyph-name="dollar" unicode="$" horiz-adv-x="608" 
d="M372 411q101 -24 150.5 -70.5t49.5 -128.5v-10q0 -87 -54.5 -142t-145.5 -69v-107h-120v106q-105 14 -164.5 79.5t-59.5 172.5v22h132v-16q0 -104 92 -130v190q-100 24 -149 70.5t-49 129.5v6q0 80 55 132.5t143 64.5v105h120v-109q87 -17 138.5 -73.5t51.5 -141.5v-30
h-132v20q0 71 -58 96v-167zM188 512q0 -29 16 -46t48 -28v146q-30 -9 -47 -28t-17 -44zM372 118q32 11 49 33.5t17 50.5q0 54 -66 77v-161z" />
    <glyph glyph-name="percent" unicode="%" horiz-adv-x="757" 
d="M410 462l164 255l103 -77l-203 -226zM36 554q0 74 43.5 116t120.5 42q75 0 119.5 -42.5t44.5 -115.5v-19q0 -74 -43.5 -115.5t-120.5 -41.5t-120.5 41.5t-43.5 115.5v19zM140 559v-28q0 -67 60 -67t60 67v28q0 67 -60 67t-60 -67zM393 164q0 74 43.5 116t120.5 42
q75 0 119.5 -42.5t44.5 -115.5v-19q0 -74 -43.5 -115.5t-120.5 -41.5t-120.5 41.5t-43.5 115.5v19zM342 240l-164 -255l-103 77l203 226zM497 169v-28q0 -67 60 -67t60 67v28q0 67 -60 67t-60 -67z" />
    <glyph glyph-name="ampersand" unicode="&#x26;" horiz-adv-x="700" 
d="M34 202q0 108 94 181v17q-40 57 -40 115v6q0 84 61 138.5t157 54.5q97 0 157.5 -56t60.5 -146v-16h-134v13q0 38 -22 61.5t-64 23.5q-39 0 -60.5 -21.5t-21.5 -53.5v-4q0 -24 17 -51.5t32.5 -44t63.5 -64.5l96 -96h19l92 148h142l-148 -235v-18l154 -154h-168l-56 56h-16
q-74 -71 -178 -71q-107 0 -172.5 63t-65.5 154zM168 210q0 -41 32.5 -72t79.5 -31q50 0 85 32v18l-141 140h-17q-39 -32 -39 -83v-4z" />
    <glyph glyph-name="quotesingle" unicode="'" horiz-adv-x="282" 
d="M46 619q0 42 27 69t68 27t68 -26.5t27 -67.5v-127q0 -38 -25.5 -64t-63.5 -26h-95v68h77q29 0 29 28v32q-8 -2 -19 -2q-40 0 -66.5 25t-26.5 64z" />
    <glyph glyph-name="parenleft" unicode="(" horiz-adv-x="422" 
d="M110 50v460q0 152 77.5 225t214.5 73v-116q-166 -4 -166 -194v-436q0 -190 166 -194v-116q-137 0 -214.5 73t-77.5 225z" />
    <glyph glyph-name="parenright" unicode=")" horiz-adv-x="422" 
d="M312 50q0 -152 -77.5 -225t-214.5 -73v116q166 4 166 194v436q0 190 -166 194v116q137 0 214.5 -73t77.5 -225v-460z" />
    <glyph glyph-name="asterisk" unicode="*" 
d="M62 500h106l73 -28l7 16l-74 33l-73 73l67 67l73 -73l33 -74l16 7l-28 73v106h96v-106l-28 -73l16 -7l33 74l73 73l67 -67l-73 -73l-74 -33l7 -16l73 28h106v-96h-106l-73 28l-7 -16l74 -33l73 -73l-67 -67l-73 73l-33 74l-16 -7l28 -73v-106h-96v106l28 73l-16 7
l-33 -74l-73 -73l-67 67l73 73l74 33l-7 16l-73 -28h-106v96z" />
    <glyph glyph-name="plus" unicode="+" 
d="M101 407h150v152h118v-152h150v-114h-150v-152h-118v152h-150v114z" />
    <glyph glyph-name="comma" unicode="," horiz-adv-x="282" 
d="M46 80q0 42 27 69t68 27t68 -26.5t27 -67.5v-127q0 -38 -25.5 -64t-63.5 -26h-95v68h77q29 0 29 28v32q-8 -2 -19 -2q-40 0 -66.5 25t-26.5 64z" />
    <glyph glyph-name="hyphen" unicode="-" horiz-adv-x="460" 
d="M82 198v114h296v-114h-296z" />
    <glyph glyph-name="period" unicode="." horiz-adv-x="282" 
d="M46 81q0 42 27 68.5t68 26.5t68 -26.5t27 -68.5t-27 -68.5t-68 -26.5t-68 26.5t-27 68.5z" />
    <glyph glyph-name="slash" unicode="/" horiz-adv-x="504" 
d="M334 700h126l-294 -900h-126z" />
    <glyph glyph-name="zero" unicode="0" horiz-adv-x="596" 
d="M30 432q0 132 73 207t195 75t195 -75t73 -207v-164q0 -135 -72.5 -208.5t-195.5 -73.5t-195.5 73.5t-72.5 208.5v164zM162 438v-176q0 -76 34.5 -117t101.5 -41q68 0 102 42t34 116v176q0 73 -37 115.5t-99 42.5q-63 0 -99.5 -43.5t-36.5 -114.5z" />
    <glyph glyph-name="one" unicode="1" horiz-adv-x="438" 
d="M180 700h200v-700h-132v560h-12l-98 -176h-138z" />
    <glyph glyph-name="two" unicode="2" horiz-adv-x="568" 
d="M28 466q0 118 75.5 183t187.5 65q106 0 179.5 -63.5t73.5 -168.5q0 -99 -57 -154.5t-173 -84.5q-82 -21 -116 -43t-34 -68v-12h376v-120h-508v120q0 90 57.5 142.5t162.5 81.5q82 22 121 53t39 89q0 51 -32.5 80.5t-86.5 29.5q-58 0 -95.5 -33.5t-37.5 -98.5v-22h-132v24
z" />
    <glyph glyph-name="three" unicode="3" horiz-adv-x="572" 
d="M38 700h496v-116l-194 -158v-12h26q77 0 130.5 -51.5t53.5 -142.5q0 -106 -73 -170t-191 -64q-123 0 -195.5 66t-72.5 172v28h132v-24q0 -53 36 -88.5t100 -35.5q61 0 96.5 32.5t35.5 83.5q0 49 -31 74.5t-83 25.5h-122v118l173 142h-317v120z" />
    <glyph glyph-name="four" unicode="4" horiz-adv-x="606" 
d="M280 700h206v-442h114v-120h-114v-138h-132v138h-348v116zM342 586l-198 -328h210v328h-12z" />
    <glyph glyph-name="five" unicode="5" horiz-adv-x="568" 
d="M46 700h476v-120h-344v-182h12q52 74 151 74q86 0 146.5 -61t60.5 -162q0 -118 -72 -190.5t-188 -72.5q-119 0 -192.5 67t-73.5 177v18h132v-10q0 -61 34 -97.5t96 -36.5q61 0 96.5 37.5t35.5 101.5q0 54 -30.5 85.5t-78.5 31.5q-64 0 -88 -48h-173v388z" />
    <glyph glyph-name="six" unicode="6" horiz-adv-x="566" 
d="M546 230q0 -108 -72.5 -174.5t-187.5 -68.5q-111 -2 -183.5 64t-72.5 168v245q0 120 73 185t189 65q111 0 179.5 -59.5t68.5 -162.5h-134q0 47 -29.5 75.5t-84.5 28.5q-62 0 -96 -32t-34 -92v-80h12q47 66 150 66q96 0 159 -64.5t63 -163.5zM288 355q-57 0 -91.5 -34
t-34.5 -91q0 -58 35 -91.5t91 -33.5q55 0 90.5 34.5t35.5 90.5q0 57 -34.5 91t-91.5 34z" />
    <glyph glyph-name="seven" unicode="7" horiz-adv-x="528" 
d="M4 700h520v-116l-272 -584h-146l268 580h-370v120z" />
    <glyph glyph-name="eight" unicode="8" horiz-adv-x="568" 
d="M32 523q0 83 70 137t182 54t182 -54t70 -137q0 -109 -112 -156v-12q49 -14 85.5 -57.5t36.5 -108.5q0 -91 -73.5 -147t-188.5 -56t-188.5 56t-73.5 147q0 65 36.5 108.5t85.5 57.5v12q-112 47 -112 156zM164 507q0 -41 33 -65t87 -24t87 24t33 65t-33 65t-87 24t-87 -24
t-33 -65zM154 202q0 -44 34 -71t96 -27t96 27t34 71t-34 71t-96 27t-96 -27t-34 -71z" />
    <glyph glyph-name="nine" unicode="9" horiz-adv-x="568" 
d="M22 471q0 108 72.5 174.5t187.5 68.5q111 2 183.5 -64t72.5 -168v-245q0 -120 -73 -185t-189 -65q-111 0 -179.5 59.5t-68.5 162.5h134q0 -46 29.5 -75t84.5 -29q62 0 96 32t34 92v80h-12q-47 -66 -150 -66q-96 0 -159 64.5t-63 163.5zM280 346q57 0 91.5 34t34.5 91
q0 58 -35 91.5t-91 33.5q-55 0 -90.5 -34.5t-35.5 -90.5q0 -57 34.5 -91t91.5 -34z" />
    <glyph glyph-name="colon" unicode=":" horiz-adv-x="282" 
d="M46 415q0 42 27 68.5t68 26.5t68 -26.5t27 -68.5t-27 -68.5t-68 -26.5t-68 26.5t-27 68.5zM46 81q0 42 27 68.5t68 26.5t68 -26.5t27 -68.5t-27 -68.5t-68 -26.5t-68 26.5t-27 68.5z" />
    <glyph glyph-name="semicolon" unicode=";" horiz-adv-x="282" 
d="M46 415q0 42 27 68.5t68 26.5t68 -26.5t27 -68.5t-27 -68.5t-68 -26.5t-68 26.5t-27 68.5zM46 80q0 42 27 69t68 27t68 -26.5t27 -67.5v-127q0 -38 -25.5 -64t-63.5 -26h-95v68h77q29 0 29 28v32q-8 -2 -19 -2q-40 0 -66.5 25t-26.5 64z" />
    <glyph glyph-name="less" unicode="&#x3c;" 
d="M100 272v156l420 142v-120l-298 -91v-18l298 -91v-120z" />
    <glyph glyph-name="equal" unicode="=" 
d="M101 380v114h418v-114h-418zM101 206v114h418v-114h-418z" />
    <glyph glyph-name="greater" unicode="&#x3e;" 
d="M520 272l-420 -142v120l298 91v18l-298 91v120l420 -142v-156z" />
    <glyph glyph-name="question" unicode="?" horiz-adv-x="592" 
d="M40 492q0 101 73.5 161.5t184.5 60.5q108 0 178 -58t70 -150v-4q0 -55 -23.5 -96.5t-52.5 -61.5t-71 -39l-18 -8q-18 -8 -25 -19.5t-7 -33.5v-26h-132v36q0 52 20.5 85t66.5 54l18 8q49 22 70.5 43t21.5 56q0 41 -32 65.5t-84 24.5q-56 0 -91 -27t-35 -77v-24h-132v30z
M188 81q0 42 27 68.5t68 26.5t68 -26.5t27 -68.5t-27 -68.5t-68 -26.5t-68 26.5t-27 68.5z" />
    <glyph glyph-name="at" unicode="@" horiz-adv-x="1040" 
d="M82 8v484q0 98 55 153t153 55h480q92 0 140 -47.5t48 -138.5v-422q0 -41 -25 -66.5t-67 -25.5h-158q-34 0 -55.5 19t-21.5 51v2h-18q-31 -86 -124 -86q-92 0 -147.5 72.5t-55.5 179.5v16q0 108 53 180t140 72q51 0 78.5 -19.5t46.5 -54.5h18v60h122v-350q0 -30 27 -30h36
q27 0 27 30v372q0 34 -19 53t-53 19h-444q-112 0 -112 -112v-448q0 -112 112 -112h630v-114h-658q-98 0 -153 55t-55 153zM410 240q0 -63 28 -100.5t77 -37.5t78 37.5t29 100.5v12q0 63 -29 100.5t-78 37.5t-77 -37.5t-28 -100.5v-12z" />
    <glyph glyph-name="A" unicode="A" horiz-adv-x="604" 
d="M196 700h212l194 -700h-136l-42 156h-244l-42 -156h-136zM211 276h182l-85 314h-12z" />
    <glyph glyph-name="B" unicode="B" horiz-adv-x="614" 
d="M58 700h319q93 0 150 -50t57 -138q0 -61 -32 -100.5t-86 -54.5v-12q54 -15 86 -55t32 -101q0 -86 -58 -137.5t-149 -51.5h-319v700zM190 580v-169h174q43 0 68.5 21.5t25.5 63.5t-25.5 63t-68.5 21h-174zM190 291v-171h174q43 0 68.5 21.5t25.5 63.5t-25.5 64t-68.5 22
h-174z" />
    <glyph glyph-name="C" unicode="C" horiz-adv-x="622" 
d="M30 430q0 130 78.5 207t211.5 77q131 0 203.5 -68t72.5 -186v-24h-132v26q0 62 -37 98t-107 36q-72 0 -115 -46t-43 -114v-172q0 -74 41 -117t117 -43q144 0 144 134v26h132v-24q0 -119 -70 -186.5t-206 -67.5q-132 0 -211 74t-79 210v160z" />
    <glyph glyph-name="D" unicode="D" horiz-adv-x="616" 
d="M58 700h240q288 0 288 -284v-132q0 -284 -288 -284h-240v700zM190 580v-460h110q82 0 118 40t36 120v140q0 80 -36 120t-118 40h-110z" />
    <glyph glyph-name="E" unicode="E" horiz-adv-x="552" 
d="M58 700h460v-120h-328v-167h300v-120h-300v-173h334v-120h-466v700z" />
    <glyph glyph-name="F" unicode="F" horiz-adv-x="524" 
d="M58 700h446v-120h-314v-169h294v-120h-294v-291h-132v700z" />
    <glyph glyph-name="G" unicode="G" horiz-adv-x="628" 
d="M30 270v160q0 130 78.5 207t211.5 77q132 0 205 -68.5t73 -191.5v-8h-132v10q0 64 -38 102t-108 38q-72 0 -115 -46t-43 -114v-172q0 -74 41 -117t117 -43q146 0 146 135v7h-170v116h302v-116q0 -126 -71.5 -193t-206.5 -67q-132 0 -211 74t-79 210z" />
    <glyph glyph-name="H" unicode="H" horiz-adv-x="644" 
d="M58 700h132v-289h264v289h132v-700h-132v291h-264v-291h-132v700z" />
    <glyph glyph-name="I" unicode="I" horiz-adv-x="248" 
d="M58 700h132v-700h-132v700z" />
    <glyph glyph-name="J" unicode="J" horiz-adv-x="536" 
d="M482 700v-490q0 -108 -58.5 -166t-162.5 -58q-109 0 -172 59.5t-63 164.5v66h132v-66q0 -49 26 -76.5t73 -27.5q44 0 68.5 27.5t24.5 76.5v490h132z" />
    <glyph glyph-name="K" unicode="K" horiz-adv-x="649" 
d="M661 700l-305 -290l295 -410h-162l-225 322l-74 -70v-252h-132v700h132v-276h12l281 276h178z" />
    <glyph glyph-name="L" unicode="L" horiz-adv-x="526" 
d="M58 700h132v-580h324v-120h-456v700z" />
    <glyph glyph-name="M" unicode="M" horiz-adv-x="880" 
d="M58 700h228l148 -562h12l148 562h228v-700h-128v560h-12l-145 -560h-194l-145 560h-12v-560h-128v700z" />
    <glyph glyph-name="N" unicode="N" horiz-adv-x="654" 
d="M58 700h234l160 -576h12v576h132v-700h-234l-160 576h-12v-576h-132v700z" />
    <glyph glyph-name="O" unicode="O" horiz-adv-x="636" 
d="M30 424q0 134 77 212t211 78t211 -78t77 -212v-148q0 -137 -76.5 -213.5t-211.5 -76.5t-211.5 76.5t-76.5 213.5v148zM162 430v-160q0 -78 39 -122t117 -44q79 0 117.5 45t38.5 121v160q0 75 -41.5 120.5t-114.5 45.5q-74 0 -115 -46t-41 -120z" />
    <glyph glyph-name="P" unicode="P" horiz-adv-x="582" 
d="M58 700h288q100 0 162 -61t62 -161q0 -99 -63 -160.5t-161 -61.5h-156v-256h-132v700zM190 580v-204h143q47 0 76 28t29 74t-29 74t-76 28h-143z" />
    <glyph glyph-name="Q" unicode="Q" horiz-adv-x="636" 
d="M318 714q134 0 211 -78t77 -212v-148q0 -119 -58.5 -193t-163.5 -92v-27q0 -30 28 -30h53v-114h-115q-42 0 -70 27t-28 69v75q-105 18 -163.5 92t-58.5 193v148q0 134 77 212t211 78zM474 270v160q0 75 -41.5 120.5t-114.5 45.5q-74 0 -115 -46t-41 -120v-160
q0 -78 39 -122t117 -44q79 0 117.5 45t38.5 121z" />
    <glyph glyph-name="R" unicode="R" horiz-adv-x="616" 
d="M590 479q0 -78 -40.5 -133t-109.5 -76l142 -270h-146l-129 259h-117v-259h-132v699h308q100 0 162 -60.5t62 -159.5zM190 579v-200h163q47 0 76 27t29 73t-29 73t-76 27h-163z" />
    <glyph glyph-name="S" unicode="S" horiz-adv-x="604" 
d="M297 714q115 0 187 -59.5t72 -162.5v-30h-128v21q0 115 -131 115q-52 0 -82.5 -23t-30.5 -60q0 -16 4 -28.5t16 -22t20.5 -15.5t31.5 -12.5t33 -9t41 -9.5l9 -2q116 -26 172.5 -73t56.5 -137q0 -103 -72 -161.5t-187 -58.5q-130 0 -205.5 67t-75.5 189v22h130v-18
q0 -67 39 -105.5t116 -38.5q61 0 93 27.5t32 69.5q0 43 -33.5 63.5t-110.5 37.5l-9 2q-117 26 -174 72.5t-57 136.5q0 92 69.5 147.5t173.5 55.5z" />
    <glyph glyph-name="T" unicode="T" horiz-adv-x="572" 
d="M8 700h556v-120h-212v-580h-132v580h-212v120z" />
    <glyph glyph-name="U" unicode="U" horiz-adv-x="656" 
d="M54 700h132v-458q0 -64 37 -101t105 -37t105 37t37 101v458h132v-452q0 -121 -72 -191.5t-202 -70.5t-202 70.5t-72 191.5v452z" />
    <glyph glyph-name="V" unicode="V" horiz-adv-x="600" 
d="M2 700h136l156 -583h12l156 583h136l-195 -700h-206z" />
    <glyph glyph-name="W" unicode="W" horiz-adv-x="896" 
d="M10 700h132l84 -572h12l107 572h206l107 -572h12l84 572h132l-110 -700h-215l-107 572h-12l-107 -572h-215z" />
    <glyph glyph-name="X" unicode="X" horiz-adv-x="624" 
d="M14 700h146l145 -250h14l145 250h146l-195 -340v-14l197 -346h-146l-147 256h-14l-147 -256h-146l197 346v14z" />
    <glyph glyph-name="Y" unicode="Y" horiz-adv-x="612" 
d="M-6 700h150l153 -298h18l153 298h150l-246 -463v-237h-132v237z" />
    <glyph glyph-name="Z" unicode="Z" horiz-adv-x="570" 
d="M38 700h502v-114l-346 -468h348v-118h-514v114l346 468h-336v118z" />
    <glyph glyph-name="bracketleft" unicode="[" horiz-adv-x="358" 
d="M110 704q0 45 28.5 73.5t73.5 28.5h126v-116h-75q-27 0 -27 -30v-760q0 -30 27 -30h75v-116h-126q-45 0 -73.5 28.5t-28.5 73.5v848z" />
    <glyph glyph-name="backslash" unicode="\" horiz-adv-x="506" 
d="M172 700l294 -900h-126l-294 900h126z" />
    <glyph glyph-name="bracketright" unicode="]" horiz-adv-x="358" 
d="M248 704v-848q0 -45 -28.5 -73.5t-73.5 -28.5h-126v116h75q27 0 27 30v760q0 30 -27 30h-75v116h126q45 0 73.5 -28.5t28.5 -73.5z" />
    <glyph glyph-name="asciicircum" unicode="^" 
d="M404 700l146 -276h-140l-91 196h-18l-91 -196h-140l146 276h188z" />
    <glyph glyph-name="underscore" unicode="_" 
d="M65 -162v114h490v-114h-490z" />
    <glyph glyph-name="grave" unicode="`" horiz-adv-x="276" 
d="M182 700l54 -130h-108l-88 130h142z" />
    <glyph glyph-name="a" unicode="a" horiz-adv-x="560" 
d="M40 382q50 63 106.5 95.5t140.5 32.5q101 0 162 -53t61 -140v-317h-124v70h-14q-41 -84 -156 -84q-84 0 -135 42t-51 113q0 58 45.5 97t118.5 47l190 21v12q0 37 -27.5 60.5t-76.5 23.5q-87 0 -138 -86zM162 148q0 -26 22 -42t63 -16q64 0 100.5 33.5t36.5 86.5v8
l-152 -18q-70 -9 -70 -52z" />
    <glyph glyph-name="b" unicode="b" horiz-adv-x="606" 
d="M56 700h126v-274h12q52 84 158 84q94 0 161 -75t67 -187t-67 -187t-161 -75q-106 0 -158 84h-14v-70h-124v700zM318 398q-60 0 -98 -40.5t-38 -109.5t38 -109.5t98 -40.5q59 0 97.5 40t38.5 110t-38.5 110t-97.5 40z" />
    <glyph glyph-name="c" unicode="c" horiz-adv-x="556" 
d="M26 248q0 114 74.5 188t183.5 74q101 0 165.5 -51.5t84.5 -138.5l-124 -32q-7 48 -38.5 79t-85.5 31q-58 0 -96 -41.5t-38 -108.5q0 -68 36.5 -109t97.5 -41q102 0 124 109l124 -31q-19 -87 -83.5 -138.5t-166.5 -51.5q-109 0 -183.5 74t-74.5 188z" />
    <glyph glyph-name="d" unicode="d" horiz-adv-x="606" 
d="M550 700v-700h-124v70h-14q-52 -84 -158 -84q-94 0 -161 75t-67 187t67 187t161 75q106 0 158 -84h12v274h126zM288 398q-59 0 -97.5 -40t-38.5 -110t38.5 -110t97.5 -40q60 0 98 40.5t38 109.5t-38 109.5t-98 40.5z" />
    <glyph glyph-name="e" unicode="e" horiz-adv-x="538" 
d="M26 252q0 113 70 185.5t179 72.5q108 0 174.5 -69t66.5 -181v-49h-361q4 -51 37.5 -84t86.5 -33q88 0 124 74l103 -60q-16 -24 -32 -42t-42.5 -38t-65 -31t-85.5 -11q-111 0 -183 75t-72 191zM156 299h232q-7 48 -36.5 75.5t-77.5 27.5q-101 0 -118 -103z" />
    <glyph glyph-name="f" unicode="f" horiz-adv-x="416" 
d="M16 496h126v102q0 44 28.5 73t71.5 29h130v-108h-76q-28 0 -28 -30v-66h130v-108h-130v-388h-126v388h-126v108z" />
    <glyph glyph-name="g" unicode="g" horiz-adv-x="606" 
d="M426 496h124v-479q0 -103 -69.5 -167t-185.5 -64q-173 0 -263 140l106 66q50 -98 149 -98q62 0 99.5 32.5t37.5 95.5v64h-12q-52 -84 -158 -84q-95 0 -161.5 72.5t-66.5 181.5t66.5 181.5t161.5 72.5q106 0 158 -84h14v70zM288 114q60 0 98 38t38 104t-38 104t-98 38
q-59 0 -97.5 -37.5t-38.5 -104.5t38.5 -104.5t97.5 -37.5z" />
    <glyph glyph-name="h" unicode="h" horiz-adv-x="594" 
d="M56 700h126v-284h12q38 88 157 88q84 0 138.5 -56.5t54.5 -151.5v-296h-126v284q0 52 -29 81t-83 29q-60 0 -92 -36t-32 -102v-256h-126v700z" />
    <glyph glyph-name="i" unicode="i" horiz-adv-x="238" 
d="M30 640q0 38 25.5 62t63.5 24t63.5 -24t25.5 -62t-25.5 -62t-63.5 -24t-63.5 24t-25.5 62zM182 496v-496h-126v496h126z" />
    <glyph glyph-name="j" unicode="j" horiz-adv-x="242" 
d="M34 640q0 38 25.5 62t63.5 24t63.5 -24t25.5 -62t-25.5 -62t-63.5 -24t-63.5 24t-25.5 62zM186 496v-600q0 -42 -28 -69t-70 -27h-142v106h86q28 0 28 30v560h126z" />
    <glyph glyph-name="k" unicode="k" horiz-adv-x="574" 
d="M572 496l-225 -187l217 -309h-146l-160 234l-76 -63v-171h-126v700h126v-374h12l202 170h176z" />
    <glyph glyph-name="l" unicode="l" horiz-adv-x="238" 
d="M182 700v-700h-126v700h126z" />
    <glyph glyph-name="m" unicode="m" horiz-adv-x="826" 
d="M56 496h124v-74h14q36 82 131 82q47 0 81.5 -22.5t50.5 -61.5h14q40 84 141 84q70 0 117 -48t47 -124v-332h-126v322q0 34 -22 53t-59 19q-41 0 -65.5 -23.5t-24.5 -68.5v-302h-126v322q0 34 -22 53t-59 19q-41 0 -65.5 -23.5t-24.5 -68.5v-302h-126v496z" />
    <glyph glyph-name="n" unicode="n" horiz-adv-x="594" 
d="M56 496h124v-80h14q38 88 157 88q84 0 138.5 -56.5t54.5 -151.5v-296h-126v284q0 52 -29 81t-83 29q-60 0 -92 -36t-32 -102v-256h-126v496z" />
    <glyph glyph-name="o" unicode="o" horiz-adv-x="572" 
d="M26 248q0 115 74.5 188.5t185.5 73.5t185.5 -73.5t74.5 -188.5t-74.5 -188.5t-185.5 -73.5t-185.5 73.5t-74.5 188.5zM152 248q0 -67 37 -108.5t97 -41.5t97 41.5t37 108.5t-37 108.5t-97 41.5t-97 -41.5t-37 -108.5z" />
    <glyph glyph-name="p" unicode="p" horiz-adv-x="606" 
d="M56 -200v696h124v-70h14q52 84 158 84q94 0 161 -75t67 -187t-67 -187t-161 -75q-106 0 -158 84h-12v-270h-126zM318 98q59 0 97.5 40t38.5 110t-38.5 110t-97.5 40q-60 0 -98 -40.5t-38 -109.5t38 -109.5t98 -40.5z" />
    <glyph glyph-name="q" unicode="q" horiz-adv-x="606" 
d="M550 -200h-126v270h-12q-52 -84 -158 -84q-94 0 -161 75t-67 187t67 187t161 75q106 0 158 -84h14v70h124v-696zM288 98q60 0 98 40.5t38 109.5t-38 109.5t-98 40.5q-59 0 -97.5 -40t-38.5 -110t38.5 -110t97.5 -40z" />
    <glyph glyph-name="r" unicode="r" horiz-adv-x="374" 
d="M180 496v-72h14q26 74 124 74h48v-114h-74q-50 0 -80 -26.5t-30 -77.5v-280h-126v496h124z" />
    <glyph glyph-name="s" unicode="s" horiz-adv-x="508" 
d="M40 356q0 68 56 111t143 43q131 0 241 -115l-91 -72q-72 85 -154 85q-35 0 -54 -13.5t-19 -36.5q0 -25 22 -35.5t67 -15.5l17 -2q119 -14 168.5 -48.5t49.5 -102.5q0 -73 -62.5 -120.5t-160.5 -47.5q-167 0 -259 140l100 63q22 -47 67 -73t95 -26q40 0 69 16.5t29 44.5
q0 13 -8 22.5t-25 14.5t-32 7.5t-40 5.5l-17 2q-105 12 -153.5 48.5t-48.5 104.5z" />
    <glyph glyph-name="t" unicode="t" horiz-adv-x="420" 
d="M4 496h126v154h126v-154h136v-108h-136v-250q0 -30 28 -30h80v-108h-136q-42 0 -70 27t-28 69v292h-126v108z" />
    <glyph glyph-name="u" unicode="u" horiz-adv-x="594" 
d="M538 0h-124v80h-14q-38 -88 -157 -88q-84 0 -138.5 56.5t-54.5 151.5v296h126v-284q0 -52 29 -81t83 -29q60 0 92 36t32 102v256h126v-496z" />
    <glyph glyph-name="v" unicode="v" horiz-adv-x="532" 
d="M2 496h136l122 -386h12l122 386h136l-171 -496h-186z" />
    <glyph glyph-name="w" unicode="w" horiz-adv-x="744" 
d="M10 496h126l59 -388h12l78 388h174l78 -388h12l59 388h126l-98 -496h-180l-78 388h-12l-78 -388h-180z" />
    <glyph glyph-name="x" unicode="x" horiz-adv-x="568" 
d="M16 496h146l116 -170h12l116 170h146l-174 -246l176 -250h-149l-115 172h-12l-115 -172h-149l176 250z" />
    <glyph glyph-name="y" unicode="y" horiz-adv-x="548" 
d="M410 496h136l-272 -696h-136l70 168l-206 528h136l130 -356h12z" />
    <glyph glyph-name="z" unicode="z" horiz-adv-x="528" 
d="M52 496h432v-98l-274 -290h282v-108h-450v98l274 290h-264v108z" />
    <glyph glyph-name="braceleft" unicode="{" horiz-adv-x="404" 
d="M60 348h69q27 0 27 29v327q0 45 28.5 73.5t73.5 28.5h126v-116h-75q-27 0 -27 -30v-293q0 -34 -21.5 -57t-56.5 -23h-16v-14h16q35 0 56.5 -23t21.5 -57v-293q0 -30 27 -30h75v-116h-126q-45 0 -73.5 28.5t-28.5 73.5v327q0 29 -27 29h-69v136z" />
    <glyph glyph-name="bar" unicode="|" horiz-adv-x="242" 
d="M184 806v-1052h-126v1052h126z" />
    <glyph glyph-name="braceright" unicode="}" horiz-adv-x="404" 
d="M344 348v-136h-69q-27 0 -27 -29v-327q0 -45 -28.5 -73.5t-73.5 -28.5h-126v116h75q27 0 27 30v293q0 34 21.5 57t56.5 23h16v14h-16q-35 0 -56.5 23t-21.5 57v293q0 30 -27 30h-75v116h126q45 0 73.5 -28.5t28.5 -73.5v-327q0 -29 27 -29h69z" />
    <glyph glyph-name="asciitilde" unicode="~" 
d="M339 376q13 -21 20.5 -28t21.5 -7q17 0 39 19l86 63l70 -93l-121 -92q-42 -35 -89 -35q-62 0 -86 41q-13 21 -20.5 28t-21.5 7q-17 0 -39 -19l-86 -63l-70 93l121 92q42 35 89 35q62 0 86 -41z" />
    <glyph glyph-name="exclamdown" unicode="&#xa1;" horiz-adv-x="282" 
d="M46 415q0 42 27 68.5t68 26.5t68 -26.5t27 -68.5t-27 -68.5t-68 -26.5t-68 26.5t-27 68.5zM75 -200v478h132v-478h-132z" />
    <glyph glyph-name="cent" unicode="&#xa2;" horiz-adv-x="586" 
d="M560 436h-132v18q0 97 -67 128v-465q67 27 67 129v18h132v-24q0 -104 -50 -169.5t-149 -80.5v-106h-120v107q-100 16 -155.5 88t-55.5 193v156q0 116 55 190t156 91v107h120v-107q95 -16 147 -81t52 -168v-24zM162 262q0 -116 79 -146v467q-79 -36 -79 -145v-176z" />
    <glyph glyph-name="sterling" unicode="&#xa3;" horiz-adv-x="638" 
d="M56 392h70v98q0 108 58.5 166t162.5 58q110 0 172.5 -60t62.5 -164v-58h-126v62q0 47 -28.5 73.5t-76.5 26.5q-45 0 -72 -26.5t-27 -73.5v-102h100v-110h-100v-162h334v-120h-534v120h74v162h-70v110z" />
    <glyph glyph-name="currency" unicode="&#xa4;" 
d="M38 545l77 77l61 -61q63 39 134 39t134 -39l61 61l77 -77l-61 -61q39 -63 39 -134t-39 -134l61 -61l-77 -77l-61 61q-61 -39 -134 -39t-134 39l-61 -61l-77 77l61 61q-39 61 -39 134t39 134zM168 350q0 -59 41 -100.5t101 -41.5q59 0 100.5 41t41.5 101q0 59 -41 100.5
t-101 41.5q-59 0 -100.5 -41t-41.5 -101z" />
    <glyph glyph-name="yen" unicode="&#xa5;" 
d="M622 700l-179 -336h94v-104h-161v-50h161v-104h-161v-106h-132v106h-161v104h161v50h-161v104h94l-179 336h150l153 -298h18l153 298h150z" />
    <glyph glyph-name="brokenbar" unicode="&#xa6;" horiz-adv-x="242" 
d="M184 366h-126v440h126v-440zM58 194h126v-440h-126v440z" />
    <glyph glyph-name="section" unicode="&#xa7;" horiz-adv-x="474" 
d="M52 556q0 73 50 115.5t130 42.5q86 0 140 -45t54 -121v-22h-108v12q0 33 -20.5 53.5t-62.5 20.5q-34 0 -53.5 -15t-19.5 -41q0 -30 26 -45t75 -24q89 -16 130 -56t41 -107q0 -50 -18 -86q18 -32 18 -74v-8q0 -77 -51.5 -123.5t-142.5 -46.5q-97 0 -153.5 54t-56.5 144v14
h108v-12q0 -46 25.5 -72t75.5 -26q85 0 85 64q0 31 -20.5 47t-72.5 26q-179 32 -179 165q0 45 21 82q-21 33 -21 78v6zM263 323q36 -6 57 -14q1 2 1 11q0 28 -19.5 44t-70.5 25q-29 5 -65 17q-3 -6 -3 -16q0 -29 26 -43.5t74 -23.5z" />
    <glyph glyph-name="dieresis" unicode="&#xa8;" horiz-adv-x="468" 
d="M40 640q0 38 25.5 62t63.5 24t63.5 -24t25.5 -62t-25.5 -62t-63.5 -24t-63.5 24t-25.5 62zM250 640q0 38 25.5 62t63.5 24t63.5 -24t25.5 -62t-25.5 -62t-63.5 -24t-63.5 24t-25.5 62z" />
    <glyph glyph-name="copyright" unicode="&#xa9;" horiz-adv-x="724" 
d="M58 500q0 97 51.5 148.5t142.5 51.5h220q91 0 142.5 -51.5t51.5 -148.5v-300q0 -97 -51.5 -148.5t-142.5 -51.5h-220q-91 0 -142.5 51.5t-51.5 148.5v300zM160 480v-260q0 -124 114 -124h176q114 0 114 124v260q0 124 -114 124h-176q-114 0 -114 -124zM224 398
q0 71 37.5 110.5t102.5 39.5q69 0 103.5 -37.5t34.5 -102.5v-14h-94v20q0 44 -44 44t-44 -44v-126q0 -44 44 -44t44 44v20h94v-14q0 -65 -34.5 -102.5t-103.5 -37.5q-65 0 -102.5 39.5t-37.5 110.5v94z" />
    <glyph glyph-name="guillemotleft" unicode="&#xab;" horiz-adv-x="780" 
d="M58 314l314 176h6v-136l-192 -97v-18l192 -97v-136h-6l-314 176v132zM398 314l314 176h6v-136l-192 -97v-18l192 -97v-136h-6l-314 176v132z" />
    <glyph glyph-name="logicalnot" unicode="&#xac;" 
d="M101 293v114h418v-245h-114v131h-304z" />
    <glyph glyph-name="registered" unicode="&#xae;" 
d="M100 506q0 91 59.5 149.5t150.5 58.5t150.5 -58.5t59.5 -149.5t-59.5 -149.5t-150.5 -58.5t-150.5 58.5t-59.5 149.5zM144 506q0 -75 45.5 -120.5t120.5 -45.5t120.5 45.5t45.5 120.5t-45.5 120.5t-120.5 45.5t-120.5 -45.5t-45.5 -120.5zM238 619h85q35 0 55 -18t20 -44
q0 -42 -40 -56v-6q32 -3 32 -34v-64h-42v60q0 21 -21 21h-47v-81h-42v222zM280 581v-65h43q16 0 24.5 9.5t8.5 23.5q0 32 -33 32h-43z" />
    <glyph glyph-name="macron" unicode="&#xaf;" horiz-adv-x="374" 
d="M334 672v-102h-294v102h294z" />
    <glyph glyph-name="degree" unicode="&#xb0;" horiz-adv-x="398" 
d="M44 566q0 65 45 107.5t110 42.5t110 -42.5t45 -107.5t-45 -107.5t-110 -42.5t-110 42.5t-45 107.5zM144 566q0 -24 15.5 -39t39.5 -15t39.5 15t15.5 39t-15.5 39t-39.5 15t-39.5 -15t-15.5 -39z" />
    <glyph glyph-name="plusminus" unicode="&#xb1;" 
d="M101 293v114h152v152h114v-152h152v-114h-152v-131h-114v131h-152zM101 0v114h418v-114h-418z" />
    <glyph glyph-name="acute" unicode="&#xb4;" horiz-adv-x="276" 
d="M94 700h142l-88 -130h-108z" />
    <glyph glyph-name="uni00B5" unicode="&#xb5;" horiz-adv-x="594" 
d="M56 -200v696h126v-288q0 -52 29 -81t83 -29q60 0 92 36t32 102v260h126v-496h-124v74h-14q-12 -38 -42 -63t-75 -25q-54 0 -93 34h-14v-220h-126z" />
    <glyph glyph-name="paragraph" unicode="&#xb6;" horiz-adv-x="606" 
d="M16 498q0 90 61 146t157 56h314v-700h-108v598h-78v-598h-108v284h-26q-93 0 -152.5 57t-59.5 145v12zM124 495v-6q0 -46 28 -74.5t70 -28.5h32v212h-32q-43 0 -70.5 -28.5t-27.5 -74.5z" />
    <glyph glyph-name="periodcentered" unicode="&#xb7;" horiz-adv-x="282" 
d="M46 350q0 42 27 68.5t68 26.5t68 -26.5t27 -68.5t-27 -68.5t-68 -26.5t-68 26.5t-27 68.5z" />
    <glyph glyph-name="cedilla" unicode="&#xb8;" horiz-adv-x="301" 
d="M67 32h70l-17 -90h12q18 22 52 22q31 0 54 -20.5t23 -59.5q0 -45 -31 -71.5t-79 -26.5q-46 0 -84 20l26 68q23 -14 50 -14q34 0 34 26q0 22 -20 22q-17 0 -20 -14h-97v12z" />
    <glyph glyph-name="guillemotright" unicode="&#xbb;" horiz-adv-x="780" 
d="M378 314v-132l-314 -176h-6v136l192 97v18l-192 97v136h6zM718 314v-132l-314 -176h-6v136l192 97v18l-192 97v136h6z" />
    <glyph glyph-name="onequarter" unicode="&#xbc;" horiz-adv-x="704" 
d="M350 461l164 255l103 -77l-203 -226zM69 700h151v-350h-100v246h-10l-18 -52h-88v10zM480 350h162v-203h60v-76h-60v-71h-100v71h-200v70zM282 239l-164 -255l-103 77l203 226zM533 278l-87 -131h96v131h-9z" />
    <glyph glyph-name="onehalf" unicode="&#xbd;" horiz-adv-x="710" 
d="M350 461l164 255l103 -77l-203 -226zM69 700h151v-350h-100v246h-10l-18 -52h-88v10zM541 362q65 0 107 -33t42 -88q0 -53 -34.5 -80t-104.5 -42q-69 -14 -71 -39h208v-80h-308v44q0 60 31.5 94t99.5 50q43 10 61 22t18 32q0 19 -14 29.5t-36 10.5q-25 0 -41.5 -14
t-16.5 -40h-98q1 64 44.5 99t112.5 35zM282 239l-164 -255l-103 77l203 226z" />
    <glyph glyph-name="threequarters" unicode="&#xbe;" horiz-adv-x="782" 
d="M428 461l164 255l103 -77l-203 -226zM20 700h308v-68l-102 -61v-10q45 -2 74.5 -27t29.5 -71q0 -54 -44 -89.5t-111 -35.5q-71 0 -114.5 35.5t-46.5 99.5h98q2 -23 18.5 -38t41.5 -15q26 0 42 14t16 33q0 43 -58 43h-66v62l82 48h-168v80zM558 350h162v-203h60v-76h-60
v-71h-100v71h-200v70zM360 239l-164 -255l-103 77l203 226zM611 278l-87 -131h96v131h-9z" />
    <glyph glyph-name="questiondown" unicode="&#xbf;" horiz-adv-x="592" 
d="M214 415q0 42 27 68.5t68 26.5t68 -26.5t27 -68.5t-27 -68.5t-68 -26.5t-68 26.5t-27 68.5zM552 6q0 -101 -73.5 -161.5t-184.5 -60.5q-108 0 -178 58t-70 150v4q0 55 23.5 96.5t52.5 61.5t71 39l18 8q18 8 25 19.5t7 33.5v24h132v-34q0 -52 -20.5 -85t-66.5 -54l-18 -8
q-49 -22 -70.5 -43t-21.5 -56q0 -41 32 -65.5t84 -24.5q56 0 91 27t35 77v24h132v-30z" />
    <glyph glyph-name="Agrave" unicode="&#xc0;" horiz-adv-x="604" 
d="M324 880l54 -120h-108l-88 120h142zM196 700h212l194 -700h-136l-42 156h-244l-42 -156h-136zM211 276h182l-85 314h-12z" />
    <glyph glyph-name="Aacute" unicode="&#xc1;" horiz-adv-x="604" 
d="M280 880h142l-88 -120h-108zM196 700h212l194 -700h-136l-42 156h-244l-42 -156h-136zM211 276h182l-85 314h-12z" />
    <glyph glyph-name="Acircumflex" unicode="&#xc2;" horiz-adv-x="604" 
d="M351 760l-43 60h-12l-43 -60h-123l94 120h156l94 -120h-123zM196 700h212l194 -700h-136l-42 156h-244l-42 -156h-136zM211 276h182l-85 314h-12z" />
    <glyph glyph-name="Atilde" unicode="&#xc3;" horiz-adv-x="604" 
d="M102 795l56 72q34 44 82 44q44 0 78 -38l4 -4t4 -4.5t3.5 -4t4.5 -4t4.5 -3t5 -2.5t6 -1.5t6.5 -0.5q21 0 39 24l30 38l77 -61l-56 -72q-35 -44 -82 -44q-44 0 -78 38l-4 4t-4 4.5t-3.5 4t-4.5 4t-4.5 3t-5 2.5t-6 1.5t-6.5 0.5q-21 0 -39 -24l-30 -38zM196 700h212
l194 -700h-136l-42 156h-244l-42 -156h-136zM211 276h182l-85 314h-12z" />
    <glyph glyph-name="Adieresis" unicode="&#xc4;" horiz-adv-x="604" 
d="M105 822q0 38 25.5 62t63.5 24t63.5 -24t25.5 -62t-25.5 -62t-63.5 -24t-63.5 24t-25.5 62zM321 822q0 38 25.5 62t63.5 24t63.5 -24t25.5 -62t-25.5 -62t-63.5 -24t-63.5 24t-25.5 62zM196 700h212l194 -700h-136l-42 156h-244l-42 -156h-136zM211 276h182l-85 314h-12z
" />
    <glyph glyph-name="Aring" unicode="&#xc5;" horiz-adv-x="604" 
d="M194 840q0 44 31 74t77 30t77 -29.5t31 -74.5q0 -46 -32 -75t-76 -29q-45 0 -76.5 30t-31.5 74zM272 840q0 -13 8.5 -21.5t21.5 -8.5t21.5 8.5t8.5 21.5t-8.5 21.5t-21.5 8.5t-21.5 -8.5t-8.5 -21.5zM196 700h212l194 -700h-136l-42 156h-244l-42 -156h-136zM211 276h182
l-85 314h-12z" />
    <glyph glyph-name="AE" unicode="&#xc6;" horiz-adv-x="548" 
d="M398 124h122v-124h-254v154h-98l-32 -154h-134l159 700h353v-124h-116v-163h90v-124h-90v-165zM266 276v300h-12l-61 -300h73z" />
    <glyph glyph-name="Ccedilla" unicode="&#xc7;" horiz-adv-x="622" 
d="M596 436h-132v26q0 62 -37 98t-107 36q-72 0 -115 -46t-43 -114v-172q0 -74 41 -117t117 -43q144 0 144 134v26h132v-24q0 -113 -62.5 -179.5t-184.5 -73.5l-8 -45h12q18 22 52 22q31 0 54 -20.5t23 -59.5q0 -45 -31 -71.5t-79 -26.5q-46 0 -84 20l26 68q23 -14 50 -14
q34 0 34 26q0 22 -20 22q-17 0 -20 -14h-97v12l18 82q-115 12 -182 84.5t-67 197.5v160q0 130 78.5 207t211.5 77q131 0 203.5 -68t72.5 -186v-24z" />
    <glyph glyph-name="Egrave" unicode="&#xc8;" horiz-adv-x="552" 
d="M315 880l54 -120h-108l-88 120h142zM58 700h460v-120h-328v-167h300v-120h-300v-173h334v-120h-466v700z" />
    <glyph glyph-name="Eacute" unicode="&#xc9;" horiz-adv-x="552" 
d="M271 880h142l-88 -120h-108zM58 700h460v-120h-328v-167h300v-120h-300v-173h334v-120h-466v700z" />
    <glyph glyph-name="Ecircumflex" unicode="&#xca;" horiz-adv-x="552" 
d="M342 760l-43 60h-12l-43 -60h-123l94 120h156l94 -120h-123zM58 700h460v-120h-328v-167h300v-120h-300v-173h334v-120h-466v700z" />
    <glyph glyph-name="Edieresis" unicode="&#xcb;" horiz-adv-x="552" 
d="M96 822q0 38 25.5 62t63.5 24t63.5 -24t25.5 -62t-25.5 -62t-63.5 -24t-63.5 24t-25.5 62zM312 822q0 38 25.5 62t63.5 24t63.5 -24t25.5 -62t-25.5 -62t-63.5 -24t-63.5 24t-25.5 62zM58 700h460v-120h-328v-167h300v-120h-300v-173h334v-120h-466v700z" />
    <glyph glyph-name="Igrave" unicode="&#xcc;" horiz-adv-x="248" 
d="M146 880l54 -120h-108l-88 120h142zM58 700h132v-700h-132v700z" />
    <glyph glyph-name="Iacute" unicode="&#xcd;" horiz-adv-x="248" 
d="M102 880h142l-88 -120h-108zM58 700h132v-700h-132v700z" />
    <glyph glyph-name="Icircumflex" unicode="&#xce;" horiz-adv-x="248" 
d="M173 760l-43 60h-12l-43 -60h-123l94 120h156l94 -120h-123zM58 700h132v-700h-132v700z" />
    <glyph glyph-name="Idieresis" unicode="&#xcf;" horiz-adv-x="248" 
d="M-73 822q0 38 25.5 62t63.5 24t63.5 -24t25.5 -62t-25.5 -62t-63.5 -24t-63.5 24t-25.5 62zM143 822q0 38 25.5 62t63.5 24t63.5 -24t25.5 -62t-25.5 -62t-63.5 -24t-63.5 24t-25.5 62zM58 700h132v-700h-132v700z" />
    <glyph glyph-name="Eth" unicode="&#xd0;" horiz-adv-x="616" 
d="M298 700q288 0 288 -284v-132q0 -284 -288 -284h-240v296h-82v110h82v294h240zM454 280v140q0 80 -36 120t-118 40h-110v-174h134v-110h-134v-176h110q82 0 118 40t36 120z" />
    <glyph glyph-name="Ntilde" unicode="&#xd1;" horiz-adv-x="654" 
d="M126 795l56 72q34 44 82 44q44 0 78 -38l4 -4t4 -4.5t3.5 -4t4.5 -4t4.5 -3t5 -2.5t6 -1.5t6.5 -0.5q21 0 39 24l30 38l77 -61l-56 -72q-35 -44 -82 -44q-44 0 -78 38l-4 4t-4 4.5t-3.5 4t-4.5 4t-4.5 3t-5 2.5t-6 1.5t-6.5 0.5q-21 0 -39 -24l-30 -38zM58 700h234
l160 -576h12v576h132v-700h-234l-160 576h-12v-576h-132v700z" />
    <glyph glyph-name="Ograve" unicode="&#xd2;" horiz-adv-x="636" 
d="M340 880l54 -120h-108l-88 120h142zM30 424q0 134 77 212t211 78t211 -78t77 -212v-148q0 -137 -76.5 -213.5t-211.5 -76.5t-211.5 76.5t-76.5 213.5v148zM162 430v-160q0 -78 39 -122t117 -44q79 0 117.5 45t38.5 121v160q0 75 -41.5 120.5t-114.5 45.5q-74 0 -115 -46
t-41 -120z" />
    <glyph glyph-name="Oacute" unicode="&#xd3;" horiz-adv-x="636" 
d="M296 880h142l-88 -120h-108zM30 424q0 134 77 212t211 78t211 -78t77 -212v-148q0 -137 -76.5 -213.5t-211.5 -76.5t-211.5 76.5t-76.5 213.5v148zM162 430v-160q0 -78 39 -122t117 -44q79 0 117.5 45t38.5 121v160q0 75 -41.5 120.5t-114.5 45.5q-74 0 -115 -46
t-41 -120z" />
    <glyph glyph-name="Ocircumflex" unicode="&#xd4;" horiz-adv-x="636" 
d="M367 760l-43 60h-12l-43 -60h-123l94 120h156l94 -120h-123zM30 424q0 134 77 212t211 78t211 -78t77 -212v-148q0 -137 -76.5 -213.5t-211.5 -76.5t-211.5 76.5t-76.5 213.5v148zM162 430v-160q0 -78 39 -122t117 -44q79 0 117.5 45t38.5 121v160q0 75 -41.5 120.5
t-114.5 45.5q-74 0 -115 -46t-41 -120z" />
    <glyph glyph-name="Otilde" unicode="&#xd5;" horiz-adv-x="636" 
d="M118 795l56 72q34 44 82 44q44 0 78 -38l4 -4t4 -4.5t3.5 -4t4.5 -4t4.5 -3t5 -2.5t6 -1.5t6.5 -0.5q21 0 39 24l30 38l77 -61l-56 -72q-35 -44 -82 -44q-44 0 -78 38l-4 4t-4 4.5t-3.5 4t-4.5 4t-4.5 3t-5 2.5t-6 1.5t-6.5 0.5q-21 0 -39 -24l-30 -38zM30 424
q0 134 77 212t211 78t211 -78t77 -212v-148q0 -137 -76.5 -213.5t-211.5 -76.5t-211.5 76.5t-76.5 213.5v148zM162 430v-160q0 -78 39 -122t117 -44q79 0 117.5 45t38.5 121v160q0 75 -41.5 120.5t-114.5 45.5q-74 0 -115 -46t-41 -120z" />
    <glyph glyph-name="Odieresis" unicode="&#xd6;" horiz-adv-x="636" 
d="M121 822q0 38 25.5 62t63.5 24t63.5 -24t25.5 -62t-25.5 -62t-63.5 -24t-63.5 24t-25.5 62zM337 822q0 38 25.5 62t63.5 24t63.5 -24t25.5 -62t-25.5 -62t-63.5 -24t-63.5 24t-25.5 62zM30 424q0 134 77 212t211 78t211 -78t77 -212v-148q0 -137 -76.5 -213.5
t-211.5 -76.5t-211.5 76.5t-76.5 213.5v148zM162 430v-160q0 -78 39 -122t117 -44q79 0 117.5 45t38.5 121v160q0 75 -41.5 120.5t-114.5 45.5q-74 0 -115 -46t-41 -120z" />
    <glyph glyph-name="multiply" unicode="&#xd7;" 
d="M96 481l81 81l133 -131l133 131l81 -81l-132 -131l132 -131l-81 -81l-133 131l-133 -131l-81 81l132 131z" />
    <glyph glyph-name="Oslash" unicode="&#xd8;" horiz-adv-x="636" 
d="M487 670q119 -75 119 -246v-148q0 -137 -76.5 -213.5t-211.5 -76.5q-33 0 -57 4l-27 -83l-110 34l28 86q-122 72 -122 249v148q0 134 77 212t211 78q29 0 61 -5l24 72l109 -34zM162 270q0 -72 33 -115l146 440q-7 1 -23 1q-74 0 -115 -46t-41 -120v-160zM474 270v160
q0 65 -31 108l-144 -433q6 -1 19 -1q79 0 117.5 45t38.5 121z" />
    <glyph glyph-name="Ugrave" unicode="&#xd9;" horiz-adv-x="656" 
d="M350 880l54 -120h-108l-88 120h142zM54 700h132v-458q0 -64 37 -101t105 -37t105 37t37 101v458h132v-452q0 -121 -72 -191.5t-202 -70.5t-202 70.5t-72 191.5v452z" />
    <glyph glyph-name="Uacute" unicode="&#xda;" horiz-adv-x="656" 
d="M306 880h142l-88 -120h-108zM54 700h132v-458q0 -64 37 -101t105 -37t105 37t37 101v458h132v-452q0 -121 -72 -191.5t-202 -70.5t-202 70.5t-72 191.5v452z" />
    <glyph glyph-name="Ucircumflex" unicode="&#xdb;" horiz-adv-x="656" 
d="M377 760l-43 60h-12l-43 -60h-123l94 120h156l94 -120h-123zM54 700h132v-458q0 -64 37 -101t105 -37t105 37t37 101v458h132v-452q0 -121 -72 -191.5t-202 -70.5t-202 70.5t-72 191.5v452z" />
    <glyph glyph-name="Udieresis" unicode="&#xdc;" horiz-adv-x="656" 
d="M131 822q0 38 25.5 62t63.5 24t63.5 -24t25.5 -62t-25.5 -62t-63.5 -24t-63.5 24t-25.5 62zM347 822q0 38 25.5 62t63.5 24t63.5 -24t25.5 -62t-25.5 -62t-63.5 -24t-63.5 24t-25.5 62zM54 700h132v-458q0 -64 37 -101t105 -37t105 37t37 101v458h132v-452
q0 -121 -72 -191.5t-202 -70.5t-202 70.5t-72 191.5v452z" />
    <glyph glyph-name="Yacute" unicode="&#xdd;" horiz-adv-x="612" 
d="M284 880h142l-88 -120h-108zM-6 700h150l153 -298h18l153 298h150l-246 -463v-237h-132v237z" />
    <glyph glyph-name="Thorn" unicode="&#xde;" horiz-adv-x="582" 
d="M58 700h132v-118h156q100 0 162 -61t62 -161q0 -99 -63 -160.5t-161 -61.5h-156v-138h-132v700zM190 458v-196h143q47 0 76 26.5t29 71.5t-29 71.5t-76 26.5h-143z" />
    <glyph glyph-name="germandbls" unicode="&#xdf;" horiz-adv-x="621" 
d="M50 0v430q0 133 73 208.5t193 75.5q93 0 154.5 -47.5t61.5 -119.5q0 -59 -28 -96t-78 -69q-17 -11 -17 -22q0 -14 26 -23l25 -9q71 -25 109 -62.5t38 -101.5q0 -77 -54 -127.5t-147 -50.5q-117 0 -203 95l82 78q53 -71 121 -71q35 0 56 20t21 51q0 47 -76 74l-42 15
q-85 30 -85 99q0 33 15.5 55.5t49.5 47.5q63 45 63 93q0 29 -26 48t-66 19q-57 0 -98.5 -43t-41.5 -133v-434h-126z" />
    <glyph glyph-name="agrave" unicode="&#xe0;" horiz-adv-x="560" 
d="M303 700l54 -130h-108l-88 130h142zM40 382q50 63 106.5 95.5t140.5 32.5q101 0 162 -53t61 -140v-317h-124v70h-14q-41 -84 -156 -84q-84 0 -135 42t-51 113q0 58 45.5 97t118.5 47l190 21v12q0 37 -27.5 60.5t-76.5 23.5q-87 0 -138 -86zM162 148q0 -26 22 -42t63 -16
q64 0 100.5 33.5t36.5 86.5v8l-152 -18q-70 -9 -70 -52z" />
    <glyph glyph-name="aacute" unicode="&#xe1;" horiz-adv-x="560" 
d="M259 700h142l-88 -130h-108zM40 382q50 63 106.5 95.5t140.5 32.5q101 0 162 -53t61 -140v-317h-124v70h-14q-41 -84 -156 -84q-84 0 -135 42t-51 113q0 58 45.5 97t118.5 47l190 21v12q0 37 -27.5 60.5t-76.5 23.5q-87 0 -138 -86zM162 148q0 -26 22 -42t63 -16
q64 0 100.5 33.5t36.5 86.5v8l-152 -18q-70 -9 -70 -52z" />
    <glyph glyph-name="acircumflex" unicode="&#xe2;" horiz-adv-x="560" 
d="M330 570l-43 64h-12l-43 -64h-123l94 130h156l94 -130h-123zM40 382q50 63 106.5 95.5t140.5 32.5q101 0 162 -53t61 -140v-317h-124v70h-14q-41 -84 -156 -84q-84 0 -135 42t-51 113q0 58 45.5 97t118.5 47l190 21v12q0 37 -27.5 60.5t-76.5 23.5q-87 0 -138 -86z
M162 148q0 -26 22 -42t63 -16q64 0 100.5 33.5t36.5 86.5v8l-152 -18q-70 -9 -70 -52z" />
    <glyph glyph-name="atilde" unicode="&#xe3;" horiz-adv-x="560" 
d="M81 617l56 72q34 44 86 44q39 0 74 -38l4 -4t4 -4.5t3.5 -4t4.5 -4t4.5 -3t5 -2.5t6 -1.5t6.5 -0.5q21 0 39 24l30 38l77 -61l-56 -72q-34 -44 -86 -44q-39 0 -74 38l-4 4t-4 4.5t-3.5 4t-4.5 4t-4.5 3t-5 2.5t-6 1.5t-6.5 0.5q-21 0 -39 -24l-30 -38zM40 382
q50 63 106.5 95.5t140.5 32.5q101 0 162 -53t61 -140v-317h-124v70h-14q-41 -84 -156 -84q-84 0 -135 42t-51 113q0 58 45.5 97t118.5 47l190 21v12q0 37 -27.5 60.5t-76.5 23.5q-87 0 -138 -86zM162 148q0 -26 22 -42t63 -16q64 0 100.5 33.5t36.5 86.5v8l-152 -18
q-70 -9 -70 -52z" />
    <glyph glyph-name="adieresis" unicode="&#xe4;" horiz-adv-x="560" 
d="M87 640q0 38 25.5 62t63.5 24t63.5 -24t25.5 -62t-25.5 -62t-63.5 -24t-63.5 24t-25.5 62zM297 640q0 38 25.5 62t63.5 24t63.5 -24t25.5 -62t-25.5 -62t-63.5 -24t-63.5 24t-25.5 62zM40 382q50 63 106.5 95.5t140.5 32.5q101 0 162 -53t61 -140v-317h-124v70h-14
q-41 -84 -156 -84q-84 0 -135 42t-51 113q0 58 45.5 97t118.5 47l190 21v12q0 37 -27.5 60.5t-76.5 23.5q-87 0 -138 -86zM162 148q0 -26 22 -42t63 -16q64 0 100.5 33.5t36.5 86.5v8l-152 -18q-70 -9 -70 -52z" />
    <glyph glyph-name="aring" unicode="&#xe5;" horiz-adv-x="560" 
d="M173 639q0 44 31 74t77 30t77 -29.5t31 -74.5q0 -46 -32 -75t-76 -29q-45 0 -76.5 30t-31.5 74zM251 639q0 -13 8.5 -21.5t21.5 -8.5t21.5 8.5t8.5 21.5t-8.5 21.5t-21.5 8.5t-21.5 -8.5t-8.5 -21.5zM40 382q50 63 106.5 95.5t140.5 32.5q101 0 162 -53t61 -140v-317
h-124v70h-14q-41 -84 -156 -84q-84 0 -135 42t-51 113q0 58 45.5 97t118.5 47l190 21v12q0 37 -27.5 60.5t-76.5 23.5q-87 0 -138 -86zM162 148q0 -26 22 -42t63 -16q64 0 100.5 33.5t36.5 86.5v8l-152 -18q-70 -9 -70 -52z" />
    <glyph glyph-name="ae" unicode="&#xe6;" horiz-adv-x="594" 
d="M572 211h-220v-110q65 13 100 69l91 -77q-95 -107 -254 -107q-115 0 -187 45.5t-72 123.5q0 70 53 107t129 37h22v97q-29 -2 -61 -22t-50 -45l-81 76q105 105 249 105q129 0 205 -71.5t76 -188.5v-39zM442 299q-11 75 -90 94v-94h90zM214 98h20v113h-20q-26 0 -44 -15.5
t-18 -40.5t18.5 -41t43.5 -16z" />
    <glyph glyph-name="ccedilla" unicode="&#xe7;" horiz-adv-x="556" 
d="M286 98q102 0 124 109l124 -31q-17 -78 -71.5 -128t-140.5 -60l-9 -46h12q18 22 52 22q31 0 54 -20.5t23 -59.5q0 -45 -31 -71.5t-79 -26.5q-46 0 -84 20l26 68q23 -14 50 -14q34 0 34 26q0 22 -20 22q-17 0 -20 -14h-97v12l18 82q-98 11 -161.5 83t-63.5 177
q0 114 74.5 188t183.5 74q101 0 165.5 -51.5t84.5 -138.5l-124 -32q-7 48 -38.5 79t-85.5 31q-58 0 -96 -41.5t-38 -108.5q0 -68 36.5 -109t97.5 -41z" />
    <glyph glyph-name="egrave" unicode="&#xe8;" horiz-adv-x="538" 
d="M297 700l54 -130h-108l-88 130h142zM26 252q0 113 70 185.5t179 72.5q108 0 174.5 -69t66.5 -181v-49h-361q4 -51 37.5 -84t86.5 -33q88 0 124 74l103 -60q-16 -24 -32 -42t-42.5 -38t-65 -31t-85.5 -11q-111 0 -183 75t-72 191zM156 299h232q-7 48 -36.5 75.5
t-77.5 27.5q-101 0 -118 -103z" />
    <glyph glyph-name="eacute" unicode="&#xe9;" horiz-adv-x="538" 
d="M253 700h142l-88 -130h-108zM26 252q0 113 70 185.5t179 72.5q108 0 174.5 -69t66.5 -181v-49h-361q4 -51 37.5 -84t86.5 -33q88 0 124 74l103 -60q-16 -24 -32 -42t-42.5 -38t-65 -31t-85.5 -11q-111 0 -183 75t-72 191zM156 299h232q-7 48 -36.5 75.5t-77.5 27.5
q-101 0 -118 -103z" />
    <glyph glyph-name="ecircumflex" unicode="&#xea;" horiz-adv-x="538" 
d="M324 570l-43 64h-12l-43 -64h-123l94 130h156l94 -130h-123zM26 252q0 113 70 185.5t179 72.5q108 0 174.5 -69t66.5 -181v-49h-361q4 -51 37.5 -84t86.5 -33q88 0 124 74l103 -60q-16 -24 -32 -42t-42.5 -38t-65 -31t-85.5 -11q-111 0 -183 75t-72 191zM156 299h232
q-7 48 -36.5 75.5t-77.5 27.5q-101 0 -118 -103z" />
    <glyph glyph-name="edieresis" unicode="&#xeb;" horiz-adv-x="538" 
d="M81 640q0 38 25.5 62t63.5 24t63.5 -24t25.5 -62t-25.5 -62t-63.5 -24t-63.5 24t-25.5 62zM291 640q0 38 25.5 62t63.5 24t63.5 -24t25.5 -62t-25.5 -62t-63.5 -24t-63.5 24t-25.5 62zM26 252q0 113 70 185.5t179 72.5q108 0 174.5 -69t66.5 -181v-49h-361
q4 -51 37.5 -84t86.5 -33q88 0 124 74l103 -60q-16 -24 -32 -42t-42.5 -38t-65 -31t-85.5 -11q-111 0 -183 75t-72 191zM156 299h232q-7 48 -36.5 75.5t-77.5 27.5q-101 0 -118 -103z" />
    <glyph glyph-name="igrave" unicode="&#xec;" horiz-adv-x="238" 
d="M141 700l54 -130h-108l-88 130h142zM182 496v-496h-126v496h126z" />
    <glyph glyph-name="iacute" unicode="&#xed;" horiz-adv-x="238" 
d="M97 700h142l-88 -130h-108zM182 496v-496h-126v496h126z" />
    <glyph glyph-name="icircumflex" unicode="&#xee;" horiz-adv-x="238" 
d="M168 570l-43 64h-12l-43 -64h-123l94 130h156l94 -130h-123zM182 496v-496h-126v496h126z" />
    <glyph glyph-name="idieresis" unicode="&#xef;" horiz-adv-x="238" 
d="M-75 640q0 38 25.5 62t63.5 24t63.5 -24t25.5 -62t-25.5 -62t-63.5 -24t-63.5 24t-25.5 62zM135 640q0 38 25.5 62t63.5 24t63.5 -24t25.5 -62t-25.5 -62t-63.5 -24t-63.5 24t-25.5 62zM182 496v-496h-126v496h126z" />
    <glyph glyph-name="eth" unicode="&#xf0;" horiz-adv-x="581" 
d="M111 621l20 114q56 -6 101 -21l16 48l98 -29l-17 -52q220 -118 220 -410q0 -132 -75 -208.5t-189 -76.5q-110 0 -184.5 73.5t-74.5 188.5q0 114 66 186t159 72q92 0 141 -56h12q-25 78 -110 120l-15 -46l-98 29l16 50q-28 8 -86 18zM152 248q0 -66 37 -106t97 -40t97 40
t37 106t-37 106t-97 40t-97 -40t-37 -106z" />
    <glyph glyph-name="ntilde" unicode="&#xf1;" horiz-adv-x="594" 
d="M93 617l56 72q34 44 86 44q39 0 74 -38l4 -4t4 -4.5t3.5 -4t4.5 -4t4.5 -3t5 -2.5t6 -1.5t6.5 -0.5q21 0 39 24l30 38l77 -61l-56 -72q-34 -44 -86 -44q-39 0 -74 38l-4 4t-4 4.5t-3.5 4t-4.5 4t-4.5 3t-5 2.5t-6 1.5t-6.5 0.5q-21 0 -39 -24l-30 -38zM56 496h124v-80h14
q38 88 157 88q84 0 138.5 -56.5t54.5 -151.5v-296h-126v284q0 52 -29 81t-83 29q-60 0 -92 -36t-32 -102v-256h-126v496z" />
    <glyph glyph-name="ograve" unicode="&#xf2;" horiz-adv-x="572" 
d="M308 700l54 -130h-108l-88 130h142zM26 248q0 115 74.5 188.5t185.5 73.5t185.5 -73.5t74.5 -188.5t-74.5 -188.5t-185.5 -73.5t-185.5 73.5t-74.5 188.5zM152 248q0 -67 37 -108.5t97 -41.5t97 41.5t37 108.5t-37 108.5t-97 41.5t-97 -41.5t-37 -108.5z" />
    <glyph glyph-name="oacute" unicode="&#xf3;" horiz-adv-x="572" 
d="M264 700h142l-88 -130h-108zM26 248q0 115 74.5 188.5t185.5 73.5t185.5 -73.5t74.5 -188.5t-74.5 -188.5t-185.5 -73.5t-185.5 73.5t-74.5 188.5zM152 248q0 -67 37 -108.5t97 -41.5t97 41.5t37 108.5t-37 108.5t-97 41.5t-97 -41.5t-37 -108.5z" />
    <glyph glyph-name="ocircumflex" unicode="&#xf4;" horiz-adv-x="572" 
d="M335 570l-43 64h-12l-43 -64h-123l94 130h156l94 -130h-123zM26 248q0 115 74.5 188.5t185.5 73.5t185.5 -73.5t74.5 -188.5t-74.5 -188.5t-185.5 -73.5t-185.5 73.5t-74.5 188.5zM152 248q0 -67 37 -108.5t97 -41.5t97 41.5t37 108.5t-37 108.5t-97 41.5t-97 -41.5
t-37 -108.5z" />
    <glyph glyph-name="otilde" unicode="&#xf5;" horiz-adv-x="572" 
d="M86 617l56 72q34 44 86 44q39 0 74 -38l4 -4t4 -4.5t3.5 -4t4.5 -4t4.5 -3t5 -2.5t6 -1.5t6.5 -0.5q21 0 39 24l30 38l77 -61l-56 -72q-34 -44 -86 -44q-39 0 -74 38l-4 4t-4 4.5t-3.5 4t-4.5 4t-4.5 3t-5 2.5t-6 1.5t-6.5 0.5q-21 0 -39 -24l-30 -38zM26 248
q0 115 74.5 188.5t185.5 73.5t185.5 -73.5t74.5 -188.5t-74.5 -188.5t-185.5 -73.5t-185.5 73.5t-74.5 188.5zM152 248q0 -67 37 -108.5t97 -41.5t97 41.5t37 108.5t-37 108.5t-97 41.5t-97 -41.5t-37 -108.5z" />
    <glyph glyph-name="odieresis" unicode="&#xf6;" horiz-adv-x="572" 
d="M92 640q0 38 25.5 62t63.5 24t63.5 -24t25.5 -62t-25.5 -62t-63.5 -24t-63.5 24t-25.5 62zM302 640q0 38 25.5 62t63.5 24t63.5 -24t25.5 -62t-25.5 -62t-63.5 -24t-63.5 24t-25.5 62zM26 248q0 115 74.5 188.5t185.5 73.5t185.5 -73.5t74.5 -188.5t-74.5 -188.5
t-185.5 -73.5t-185.5 73.5t-74.5 188.5zM152 248q0 -67 37 -108.5t97 -41.5t97 41.5t37 108.5t-37 108.5t-97 41.5t-97 -41.5t-37 -108.5z" />
    <glyph glyph-name="divide" unicode="&#xf7;" 
d="M224 541q0 35 25 60.5t61 25.5t61 -25.5t25 -60.5t-25 -60.5t-61 -25.5t-61 25.5t-25 60.5zM101 407h418v-114h-418v114zM224 159q0 35 25 60.5t61 25.5t61 -25.5t25 -60.5t-25 -60.5t-61 -25.5t-61 25.5t-25 60.5z" />
    <glyph glyph-name="oslash" unicode="&#xf8;" horiz-adv-x="572" 
d="M434 467q52 -35 82 -91.5t30 -127.5q0 -115 -74.5 -188.5t-185.5 -73.5q-13 0 -37 2l-32 -83l-110 40l32 83q-53 34 -83 91.5t-30 128.5q0 115 74.5 188.5t185.5 73.5q20 0 39 -3l31 80l109 -40zM152 248q0 -61 32 -103l99 253q-59 -2 -95 -43t-36 -107zM292 98
q58 2 93 43t35 107q0 62 -31 102z" />
    <glyph glyph-name="ugrave" unicode="&#xf9;" horiz-adv-x="594" 
d="M317 700l54 -130h-108l-88 130h142zM538 0h-124v80h-14q-38 -88 -157 -88q-84 0 -138.5 56.5t-54.5 151.5v296h126v-284q0 -52 29 -81t83 -29q60 0 92 36t32 102v256h126v-496z" />
    <glyph glyph-name="uacute" unicode="&#xfa;" horiz-adv-x="594" 
d="M273 700h142l-88 -130h-108zM538 0h-124v80h-14q-38 -88 -157 -88q-84 0 -138.5 56.5t-54.5 151.5v296h126v-284q0 -52 29 -81t83 -29q60 0 92 36t32 102v256h126v-496z" />
    <glyph glyph-name="ucircumflex" unicode="&#xfb;" horiz-adv-x="594" 
d="M344 570l-43 64h-12l-43 -64h-123l94 130h156l94 -130h-123zM538 0h-124v80h-14q-38 -88 -157 -88q-84 0 -138.5 56.5t-54.5 151.5v296h126v-284q0 -52 29 -81t83 -29q60 0 92 36t32 102v256h126v-496z" />
    <glyph glyph-name="udieresis" unicode="&#xfc;" horiz-adv-x="594" 
d="M101 640q0 38 25.5 62t63.5 24t63.5 -24t25.5 -62t-25.5 -62t-63.5 -24t-63.5 24t-25.5 62zM311 640q0 38 25.5 62t63.5 24t63.5 -24t25.5 -62t-25.5 -62t-63.5 -24t-63.5 24t-25.5 62zM538 0h-124v80h-14q-38 -88 -157 -88q-84 0 -138.5 56.5t-54.5 151.5v296h126v-284
q0 -52 29 -81t83 -29q60 0 92 36t32 102v256h126v-496z" />
    <glyph glyph-name="yacute" unicode="&#xfd;" horiz-adv-x="548" 
d="M394 700l-88 -130h-108l54 130h142zM410 496h136l-272 -696h-136l70 168l-206 528h136l130 -356h12z" />
    <glyph glyph-name="thorn" unicode="&#xfe;" horiz-adv-x="606" 
d="M56 -200v900h126v-274h12q52 84 158 84q94 0 161 -75t67 -187t-67 -187t-161 -75q-106 0 -158 84h-12v-270h-126zM318 98q59 0 97.5 40t38.5 110t-38.5 110t-97.5 40q-60 0 -98 -40.5t-38 -109.5t38 -109.5t98 -40.5z" />
    <glyph glyph-name="ydieresis" unicode="&#xff;" horiz-adv-x="548" 
d="M169 554q-38 0 -63.5 24t-25.5 62t25.5 62t63.5 24t63.5 -24t25.5 -62t-25.5 -62t-63.5 -24zM379 554q-38 0 -63.5 24t-25.5 62t25.5 62t63.5 24t63.5 -24t25.5 -62t-25.5 -62t-63.5 -24zM410 496h136l-272 -696h-136l70 168l-206 528h136l130 -356h12z" />
    <glyph glyph-name="Amacron" unicode="&#x100;" horiz-adv-x="604" 
d="M449 862v-102h-294v102h294zM196 700h212l194 -700h-136l-42 156h-244l-42 -156h-136zM211 276h182l-85 314h-12z" />
    <glyph glyph-name="amacron" unicode="&#x101;" horiz-adv-x="560" 
d="M428 672v-102h-294v102h294zM40 382q50 63 106.5 95.5t140.5 32.5q101 0 162 -53t61 -140v-317h-124v70h-14q-41 -84 -156 -84q-84 0 -135 42t-51 113q0 58 45.5 97t118.5 47l190 21v12q0 37 -27.5 60.5t-76.5 23.5q-87 0 -138 -86zM162 148q0 -26 22 -42t63 -16
q64 0 100.5 33.5t36.5 86.5v8l-152 -18q-70 -9 -70 -52z" />
    <glyph glyph-name="Abreve" unicode="&#x102;" horiz-adv-x="604" 
d="M344 880h90v-8q0 -56 -36 -89t-96 -33t-96 33t-36 89v8h90v-2q0 -40 42 -40t42 40v2zM196 700h212l194 -700h-136l-42 156h-244l-42 -156h-136zM211 276h182l-85 314h-12z" />
    <glyph glyph-name="abreve" unicode="&#x103;" horiz-adv-x="560" 
d="M323 700h90v-20q0 -56 -36 -89t-96 -33t-96 33t-36 89v20h90v-12q0 -19 11 -30.5t31 -11.5t31 11.5t11 30.5v12zM40 382q50 63 106.5 95.5t140.5 32.5q101 0 162 -53t61 -140v-317h-124v70h-14q-41 -84 -156 -84q-84 0 -135 42t-51 113q0 58 45.5 97t118.5 47l190 21v12
q0 37 -27.5 60.5t-76.5 23.5q-87 0 -138 -86zM162 148q0 -26 22 -42t63 -16q64 0 100.5 33.5t36.5 86.5v8l-152 -18q-70 -9 -70 -52z" />
    <glyph glyph-name="Aogonek" unicode="&#x104;" horiz-adv-x="604" 
d="M593 -86h46v-84h-80q-32 0 -56 20t-24 55q0 9 3 23l16 72h-32l-42 156h-244l-42 -156h-136l194 700h212l194 -700h-18l-13 -56q-1 -3 -1 -8q0 -22 23 -22zM211 276h182l-85 314h-12z" />
    <glyph glyph-name="aogonek" unicode="&#x105;" horiz-adv-x="560" 
d="M499 -86h46v-84h-80q-32 0 -56 20t-24 55q0 9 3 23l16 72h-18v70h-14q-41 -84 -156 -84q-84 0 -135 42t-51 113q0 58 45.5 97t118.5 47l190 21v12q0 37 -27.5 60.5t-76.5 23.5q-87 0 -138 -86l-102 66q50 63 106.5 95.5t140.5 32.5q101 0 162 -53t61 -140v-317h-20
l-13 -56q-1 -3 -1 -8q0 -22 23 -22zM384 210v8l-152 -18q-70 -9 -70 -52q0 -26 22 -42t63 -16q64 0 100.5 33.5t36.5 86.5z" />
    <glyph glyph-name="Cacute" unicode="&#x106;" horiz-adv-x="622" 
d="M296 880h142l-88 -120h-108zM30 430q0 130 78.5 207t211.5 77q131 0 203.5 -68t72.5 -186v-24h-132v26q0 62 -37 98t-107 36q-72 0 -115 -46t-43 -114v-172q0 -74 41 -117t117 -43q144 0 144 134v26h132v-24q0 -119 -70 -186.5t-206 -67.5q-132 0 -211 74t-79 210v160z
" />
    <glyph glyph-name="cacute" unicode="&#x107;" horiz-adv-x="556" 
d="M266 700h142l-88 -130h-108zM26 248q0 114 74.5 188t183.5 74q101 0 165.5 -51.5t84.5 -138.5l-124 -32q-7 48 -38.5 79t-85.5 31q-58 0 -96 -41.5t-38 -108.5q0 -68 36.5 -109t97.5 -41q102 0 124 109l124 -31q-19 -87 -83.5 -138.5t-166.5 -51.5q-109 0 -183.5 74
t-74.5 188z" />
    <glyph glyph-name="Cdotaccent" unicode="&#x10a;" horiz-adv-x="622" 
d="M229 822q0 38 25.5 62t63.5 24t63.5 -24t25.5 -62t-25.5 -62t-63.5 -24t-63.5 24t-25.5 62zM30 430q0 130 78.5 207t211.5 77q131 0 203.5 -68t72.5 -186v-24h-132v26q0 62 -37 98t-107 36q-72 0 -115 -46t-43 -114v-172q0 -74 41 -117t117 -43q144 0 144 134v26h132v-24
q0 -119 -70 -186.5t-206 -67.5q-132 0 -211 74t-79 210v160z" />
    <glyph glyph-name="cdotaccent" unicode="&#x10b;" horiz-adv-x="556" 
d="M199 640q0 38 25.5 62t63.5 24t63.5 -24t25.5 -62t-25.5 -62t-63.5 -24t-63.5 24t-25.5 62zM26 248q0 114 74.5 188t183.5 74q101 0 165.5 -51.5t84.5 -138.5l-124 -32q-7 48 -38.5 79t-85.5 31q-58 0 -96 -41.5t-38 -108.5q0 -68 36.5 -109t97.5 -41q102 0 124 109
l124 -31q-19 -87 -83.5 -138.5t-166.5 -51.5q-109 0 -183.5 74t-74.5 188z" />
    <glyph glyph-name="Ccaron" unicode="&#x10c;" horiz-adv-x="622" 
d="M367 884h123l-94 -120h-156l-94 120h123l43 -60h12zM30 430q0 130 78.5 207t211.5 77q131 0 203.5 -68t72.5 -186v-24h-132v26q0 62 -37 98t-107 36q-72 0 -115 -46t-43 -114v-172q0 -74 41 -117t117 -43q144 0 144 134v26h132v-24q0 -119 -70 -186.5t-206 -67.5
q-132 0 -211 74t-79 210v160z" />
    <glyph glyph-name="ccaron" unicode="&#x10d;" horiz-adv-x="556" 
d="M337 700h123l-94 -130h-156l-94 130h123l43 -64h12zM26 248q0 114 74.5 188t183.5 74q101 0 165.5 -51.5t84.5 -138.5l-124 -32q-7 48 -38.5 79t-85.5 31q-58 0 -96 -41.5t-38 -108.5q0 -68 36.5 -109t97.5 -41q102 0 124 109l124 -31q-19 -87 -83.5 -138.5t-166.5 -51.5
q-109 0 -183.5 74t-74.5 188z" />
    <glyph glyph-name="Dcaron" unicode="&#x10e;" horiz-adv-x="616" 
d="M352 884h123l-94 -120h-156l-94 120h123l43 -60h12zM58 700h240q288 0 288 -284v-132q0 -284 -288 -284h-240v700zM190 580v-460h110q82 0 118 40t36 120v140q0 80 -36 120t-118 40h-110z" />
    <glyph glyph-name="dcaron" unicode="&#x10f;" horiz-adv-x="709" 
d="M550 700v-700h-124v70h-14q-52 -84 -158 -84q-94 0 -161 75t-67 187t67 187t161 75q106 0 158 -84h12v274h126zM606 700h128l-58 -182h-80zM288 398q-59 0 -97.5 -40t-38.5 -110t38.5 -110t97.5 -40q60 0 98 40.5t38 109.5t-38 109.5t-98 40.5z" />
    <glyph glyph-name="Dcroat" unicode="&#x110;" horiz-adv-x="616" 
d="M298 700q288 0 288 -284v-132q0 -284 -288 -284h-240v296h-82v110h82v294h240zM454 280v140q0 80 -36 120t-118 40h-110v-174h134v-110h-134v-176h110q82 0 118 40t36 120z" />
    <glyph glyph-name="dcroat" unicode="&#x111;" horiz-adv-x="606" 
d="M612 636v-84h-62v-552h-124v70h-14q-52 -84 -158 -84q-94 0 -161 75t-67 187t67 187t161 75q106 0 158 -84h12v126h-108v84h108v64h126v-64h62zM288 98q60 0 98 40.5t38 109.5t-38 109.5t-98 40.5q-59 0 -97.5 -40t-38.5 -110t38.5 -110t97.5 -40z" />
    <glyph glyph-name="Emacron" unicode="&#x112;" horiz-adv-x="552" 
d="M440 862v-102h-294v102h294zM58 700h460v-120h-328v-167h300v-120h-300v-173h334v-120h-466v700z" />
    <glyph glyph-name="emacron" unicode="&#x113;" horiz-adv-x="538" 
d="M422 672v-102h-294v102h294zM26 252q0 113 70 185.5t179 72.5q108 0 174.5 -69t66.5 -181v-49h-361q4 -51 37.5 -84t86.5 -33q88 0 124 74l103 -60q-16 -24 -32 -42t-42.5 -38t-65 -31t-85.5 -11q-111 0 -183 75t-72 191zM156 299h232q-7 48 -36.5 75.5t-77.5 27.5
q-101 0 -118 -103z" />
    <glyph glyph-name="Edotaccent" unicode="&#x116;" horiz-adv-x="552" 
d="M204 822q0 38 25.5 62t63.5 24t63.5 -24t25.5 -62t-25.5 -62t-63.5 -24t-63.5 24t-25.5 62zM58 700h460v-120h-328v-167h300v-120h-300v-173h334v-120h-466v700z" />
    <glyph glyph-name="edotaccent" unicode="&#x117;" horiz-adv-x="538" 
d="M186 640q0 38 25.5 62t63.5 24t63.5 -24t25.5 -62t-25.5 -62t-63.5 -24t-63.5 24t-25.5 62zM26 252q0 113 70 185.5t179 72.5q108 0 174.5 -69t66.5 -181v-49h-361q4 -51 37.5 -84t86.5 -33q88 0 124 74l103 -60q-16 -24 -32 -42t-42.5 -38t-65 -31t-85.5 -11
q-111 0 -183 75t-72 191zM156 299h232q-7 48 -36.5 75.5t-77.5 27.5q-101 0 -118 -103z" />
    <glyph glyph-name="Eogonek" unicode="&#x118;" horiz-adv-x="552" 
d="M343 0l-13 -56q-1 -3 -1 -8q0 -22 23 -22h46v-84h-80q-32 0 -56 20t-24 55q0 9 3 23l16 72h-199v700h460v-120h-328v-167h300v-120h-300v-173h334v-120h-181z" />
    <glyph glyph-name="eogonek" unicode="&#x119;" horiz-adv-x="538" 
d="M516 260v-49h-361q4 -51 37.5 -84t86.5 -33q88 0 124 74l103 -60q-72 -109 -191 -120l-10 -44q-1 -3 -1 -8q0 -22 23 -22h46v-84h-80q-32 0 -56 20t-24 55q0 9 3 23l14 63q-91 17 -147.5 88.5t-56.5 172.5q0 113 70 185.5t179 72.5q108 0 174.5 -69t66.5 -181zM156 299
h232q-7 48 -36.5 75.5t-77.5 27.5q-101 0 -118 -103z" />
    <glyph glyph-name="Ecaron" unicode="&#x11a;" horiz-adv-x="552" 
d="M342 884h123l-94 -120h-156l-94 120h123l43 -60h12zM58 700h460v-120h-328v-167h300v-120h-300v-173h334v-120h-466v700z" />
    <glyph glyph-name="ecaron" unicode="&#x11b;" horiz-adv-x="538" 
d="M324 700h123l-94 -130h-156l-94 130h123l43 -64h12zM26 252q0 113 70 185.5t179 72.5q108 0 174.5 -69t66.5 -181v-49h-361q4 -51 37.5 -84t86.5 -33q88 0 124 74l103 -60q-16 -24 -32 -42t-42.5 -38t-65 -31t-85.5 -11q-111 0 -183 75t-72 191zM156 299h232
q-7 48 -36.5 75.5t-77.5 27.5q-101 0 -118 -103z" />
    <glyph glyph-name="Gbreve" unicode="&#x11e;" horiz-adv-x="628" 
d="M360 880h90v-8q0 -56 -36 -89t-96 -33t-96 33t-36 89v8h90v-2q0 -40 42 -40t42 40v2zM30 270v160q0 130 78.5 207t211.5 77q132 0 205 -68.5t73 -191.5v-8h-132v10q0 64 -38 102t-108 38q-72 0 -115 -46t-43 -114v-172q0 -74 41 -117t117 -43q146 0 146 135v7h-170v116
h302v-116q0 -126 -71.5 -193t-206.5 -67q-132 0 -211 74t-79 210z" />
    <glyph glyph-name="gbreve" unicode="&#x11f;" horiz-adv-x="606" 
d="M306 558q-60 0 -96 33t-36 89v20h90v-12q0 -19 11 -30.5t31 -11.5t31 11.5t11 30.5v12h90v-20q0 -56 -36 -89t-96 -33zM426 496h124v-479q0 -103 -69.5 -167t-185.5 -64q-173 0 -263 140l106 66q50 -98 149 -98q62 0 99.5 32.5t37.5 95.5v64h-12q-52 -84 -158 -84
q-95 0 -161.5 72.5t-66.5 181.5t66.5 181.5t161.5 72.5q106 0 158 -84h14v70zM288 114q60 0 98 38t38 104t-38 104t-98 38q-59 0 -97.5 -37.5t-38.5 -104.5t38.5 -104.5t97.5 -37.5z" />
    <glyph glyph-name="Gdotaccent" unicode="&#x120;" horiz-adv-x="628" 
d="M229 822q0 38 25.5 62t63.5 24t63.5 -24t25.5 -62t-25.5 -62t-63.5 -24t-63.5 24t-25.5 62zM30 270v160q0 130 78.5 207t211.5 77q132 0 205 -68.5t73 -191.5v-8h-132v10q0 64 -38 102t-108 38q-72 0 -115 -46t-43 -114v-172q0 -74 41 -117t117 -43q146 0 146 135v7h-170
v116h302v-116q0 -126 -71.5 -193t-206.5 -67q-132 0 -211 74t-79 210z" />
    <glyph glyph-name="gdotaccent" unicode="&#x121;" horiz-adv-x="606" 
d="M306 554q-38 0 -63.5 24t-25.5 62t25.5 62t63.5 24t63.5 -24t25.5 -62t-25.5 -62t-63.5 -24zM426 496h124v-479q0 -103 -69.5 -167t-185.5 -64q-173 0 -263 140l106 66q50 -98 149 -98q62 0 99.5 32.5t37.5 95.5v64h-12q-52 -84 -158 -84q-95 0 -161.5 72.5t-66.5 181.5
t66.5 181.5t161.5 72.5q106 0 158 -84h14v70zM288 114q60 0 98 38t38 104t-38 104t-98 38q-59 0 -97.5 -37.5t-38.5 -104.5t38.5 -104.5t97.5 -37.5z" />
    <glyph glyph-name="uni0122" unicode="&#x122;" horiz-adv-x="628" 
d="M30 270v160q0 130 78.5 207t211.5 77q132 0 205 -68.5t73 -191.5v-8h-132v10q0 64 -38 102t-108 38q-72 0 -115 -46t-43 -114v-172q0 -74 41 -117t117 -43q146 0 146 135v7h-170v116h302v-116q0 -126 -71.5 -193t-206.5 -67q-132 0 -211 74t-79 210zM223 -146q0 42 27 69
t68 27t68 -26.5t27 -67.5v-117q0 -38 -25.5 -64t-63.5 -26h-95v68h77q29 0 29 28v20q-8 -2 -19 -2q-39 0 -66 26t-27 65z" />
    <glyph glyph-name="uni0123" unicode="&#x123;" horiz-adv-x="606" 
d="M306 545q-41 0 -68 26.5t-27 67.5v117q0 38 25.5 64t63.5 26h95v-68h-77q-29 0 -29 -28v-20q8 2 19 2q39 0 66 -26t27 -65q0 -42 -27 -69t-68 -27zM426 496h124v-479q0 -103 -69.5 -167t-185.5 -64q-173 0 -263 140l106 66q50 -98 149 -98q62 0 99.5 32.5t37.5 95.5v64
h-12q-52 -84 -158 -84q-95 0 -161.5 72.5t-66.5 181.5t66.5 181.5t161.5 72.5q106 0 158 -84h14v70zM288 114q60 0 98 38t38 104t-38 104t-98 38q-59 0 -97.5 -37.5t-38.5 -104.5t38.5 -104.5t97.5 -37.5z" />
    <glyph glyph-name="Hbar" unicode="&#x126;" horiz-adv-x="644" 
d="M642 606v-110h-56v-496h-132v291h-264v-291h-132v496h-56v110h56v94h132v-94h264v94h132v-94h56zM454 411v85h-264v-85h264z" />
    <glyph glyph-name="hbar" unicode="&#x127;" horiz-adv-x="594" 
d="M351 504q84 0 138.5 -56.5t54.5 -151.5v-296h-126v284q0 52 -29 81t-83 29q-60 0 -92 -36t-32 -102v-256h-126v552h-62v84h62v64h126v-64h108v-84h-108v-136h12q38 88 157 88z" />
    <glyph glyph-name="Imacron" unicode="&#x12a;" horiz-adv-x="248" 
d="M271 862v-102h-294v102h294zM58 700h132v-700h-132v700z" />
    <glyph glyph-name="imacron" unicode="&#x12b;" horiz-adv-x="238" 
d="M266 672v-102h-294v102h294zM182 496v-496h-126v496h126z" />
    <glyph glyph-name="Iogonek" unicode="&#x12e;" horiz-adv-x="248" 
d="M174 -86h46v-84h-80q-32 0 -56 20t-24 55q0 9 3 23l16 72h-21v700h132v-700h-25l-13 -56q-1 -3 -1 -8q0 -22 23 -22z" />
    <glyph glyph-name="iogonek" unicode="&#x12f;" horiz-adv-x="238" 
d="M208 640q0 -38 -25.5 -62t-63.5 -24t-63.5 24t-25.5 62t25.5 62t63.5 24t63.5 -24t25.5 -62zM169 -86h46v-84h-80q-32 0 -56 20t-24 55q0 9 3 23l16 72h-18v496h126v-496h-22l-13 -56q-1 -3 -1 -8q0 -22 23 -22z" />
    <glyph glyph-name="Idotaccent" unicode="&#x130;" horiz-adv-x="248" 
d="M35 822q0 38 25.5 62t63.5 24t63.5 -24t25.5 -62t-25.5 -62t-63.5 -24t-63.5 24t-25.5 62zM58 700h132v-700h-132v700z" />
    <glyph glyph-name="dotlessi" unicode="&#x131;" horiz-adv-x="238" 
d="M182 496v-496h-126v496h126z" />
    <glyph glyph-name="IJ" unicode="&#x132;" horiz-adv-x="568" 
d="M54 700h132v-358h-132v358zM382 700h132v-490q0 -108 -59 -166t-164 -58q-110 0 -173.5 59.5t-63.5 164.5v36h132v-36q0 -48 26 -74t75 -26q46 0 70.5 26t24.5 74v490z" />
    <glyph glyph-name="ij" unicode="&#x133;" horiz-adv-x="480" 
d="M30 640q0 38 25.5 62t63.5 24t63.5 -24t25.5 -62t-25.5 -62t-63.5 -24t-63.5 24t-25.5 62zM272 640q0 38 25.5 62t63.5 24t63.5 -24t25.5 -62t-25.5 -62t-63.5 -24t-63.5 24t-25.5 62zM182 496v-496h-126v496h126zM424 496v-600q0 -42 -28 -69t-70 -27h-142v106h86
q28 0 28 30v560h126z" />
    <glyph glyph-name="uni0136" unicode="&#x136;" horiz-adv-x="649" 
d="M661 700l-305 -290l295 -410h-162l-225 322l-74 -70v-252h-132v700h132v-276h12l281 276h178zM327 -50q41 0 68 -26.5t27 -67.5v-117q0 -38 -25.5 -64t-63.5 -26h-95v68h77q29 0 29 28v20q-8 -2 -19 -2q-39 0 -66 26t-27 65q0 42 27 69t68 27z" />
    <glyph glyph-name="uni0137" unicode="&#x137;" horiz-adv-x="574" 
d="M572 496l-225 -187l217 -309h-146l-160 234l-76 -63v-171h-126v700h126v-374h12l202 170h176zM297 -50q41 0 68 -26.5t27 -67.5v-117q0 -38 -25.5 -64t-63.5 -26h-95v68h77q29 0 29 28v20q-8 -2 -19 -2q-39 0 -66 26t-27 65q0 42 27 69t68 27z" />
    <glyph glyph-name="Lacute" unicode="&#x139;" horiz-adv-x="526" 
d="M102 880h142l-88 -120h-108zM58 700h132v-580h324v-120h-456v700z" />
    <glyph glyph-name="lacute" unicode="&#x13a;" horiz-adv-x="238" 
d="M97 880h142l-88 -120h-108zM182 700v-700h-126v700h126z" />
    <glyph glyph-name="uni013B" unicode="&#x13b;" horiz-adv-x="526" 
d="M58 700h132v-580h324v-120h-456v700zM191 -146q0 42 27 69t68 27t68 -26.5t27 -67.5v-117q0 -38 -25.5 -64t-63.5 -26h-95v68h77q29 0 29 28v20q-8 -2 -19 -2q-39 0 -66 26t-27 65z" />
    <glyph glyph-name="uni013C" unicode="&#x13c;" horiz-adv-x="238" 
d="M182 700v-700h-126v700h126zM24 -146q0 42 27 69t68 27t68 -26.5t27 -67.5v-117q0 -38 -25.5 -64t-63.5 -26h-95v68h77q29 0 29 28v20q-8 -2 -19 -2q-39 0 -66 26t-27 65z" />
    <glyph glyph-name="Lcaron" unicode="&#x13d;" horiz-adv-x="526" 
d="M58 700h132v-580h324v-120h-456v700zM255 700h128l-58 -182h-80z" />
    <glyph glyph-name="lcaron" unicode="&#x13e;" horiz-adv-x="340" 
d="M182 700v-700h-126v700h126zM237 700h128l-58 -182h-80z" />
    <glyph glyph-name="Ldot" unicode="&#x13f;" horiz-adv-x="526" 
d="M58 700h132v-580h324v-120h-456v700zM299 350q0 42 27 68.5t68 26.5t68 -26.5t27 -68.5t-27 -68.5t-68 -26.5t-68 26.5t-27 68.5z" />
    <glyph glyph-name="ldot" unicode="&#x140;" horiz-adv-x="436" 
d="M182 700v-700h-126v700h126zM246 260q0 42 27 68.5t68 26.5t68 -26.5t27 -68.5t-27 -68.5t-68 -26.5t-68 26.5t-27 68.5z" />
    <glyph glyph-name="Lslash" unicode="&#x141;" 
d="M96 700h132v-265l53 27l54 -107l-107 -54v-175h318v-126h-450v234l-38 -19l-54 107l92 46v332z" />
    <glyph glyph-name="lslash" unicode="&#x142;" horiz-adv-x="348" 
d="M338 365l-101 -44v-321h-126v265l-60 -26l-41 85l101 44v332h126v-276l60 26z" />
    <glyph glyph-name="Nacute" unicode="&#x143;" horiz-adv-x="654" 
d="M304 880h142l-88 -120h-108zM58 700h234l160 -576h12v576h132v-700h-234l-160 576h-12v-576h-132v700z" />
    <glyph glyph-name="nacute" unicode="&#x144;" horiz-adv-x="594" 
d="M271 700h142l-88 -130h-108zM56 496h124v-80h14q38 88 157 88q84 0 138.5 -56.5t54.5 -151.5v-296h-126v284q0 52 -29 81t-83 29q-60 0 -92 -36t-32 -102v-256h-126v496z" />
    <glyph glyph-name="uni0145" unicode="&#x145;" horiz-adv-x="654" 
d="M58 700h234l160 -576h12v576h132v-700h-234l-160 576h-12v-576h-132v700zM233 -146q0 42 27 69t68 27t68 -26.5t27 -67.5v-117q0 -38 -25.5 -64t-63.5 -26h-95v68h77q29 0 29 28v20q-8 -2 -19 -2q-39 0 -66 26t-27 65z" />
    <glyph glyph-name="uni0146" unicode="&#x146;" horiz-adv-x="594" 
d="M56 496h124v-80h14q38 88 157 88q84 0 138.5 -56.5t54.5 -151.5v-296h-126v284q0 52 -29 81t-83 29q-60 0 -92 -36t-32 -102v-256h-126v496zM206 -146q0 42 27 69t68 27t68 -26.5t27 -67.5v-117q0 -38 -25.5 -64t-63.5 -26h-95v68h77q29 0 29 28v20q-8 -2 -19 -2
q-39 0 -66 26t-27 65z" />
    <glyph glyph-name="Ncaron" unicode="&#x147;" horiz-adv-x="654" 
d="M375 884h123l-94 -120h-156l-94 120h123l43 -60h12zM58 700h234l160 -576h12v576h132v-700h-234l-160 576h-12v-576h-132v700z" />
    <glyph glyph-name="ncaron" unicode="&#x148;" horiz-adv-x="594" 
d="M342 700h123l-94 -130h-156l-94 130h123l43 -64h12zM56 496h124v-80h14q38 88 157 88q84 0 138.5 -56.5t54.5 -151.5v-296h-126v284q0 52 -29 81t-83 29q-60 0 -92 -36t-32 -102v-256h-126v496z" />
    <glyph glyph-name="Eng" unicode="&#x14a;" horiz-adv-x="654" 
d="M464 700h132v-798q0 -50 -27 -76t-74 -26h-206v112h145q30 0 30 33v55h-102l-160 576h-12v-576h-132v700h234l160 -576h12v576z" />
    <glyph glyph-name="eng" unicode="&#x14b;" horiz-adv-x="594" 
d="M351 510q87 0 140 -53t53 -147v-408q0 -50 -27 -76t-74 -26h-139v114h84q30 0 30 33v345q0 52 -29 79t-83 27q-61 0 -92.5 -36.5t-31.5 -101.5v-260h-126v496h124v-74h14q38 88 157 88z" />
    <glyph glyph-name="Omacron" unicode="&#x14c;" horiz-adv-x="636" 
d="M465 862v-102h-294v102h294zM30 424q0 134 77 212t211 78t211 -78t77 -212v-148q0 -137 -76.5 -213.5t-211.5 -76.5t-211.5 76.5t-76.5 213.5v148zM162 430v-160q0 -78 39 -122t117 -44q79 0 117.5 45t38.5 121v160q0 75 -41.5 120.5t-114.5 45.5q-74 0 -115 -46
t-41 -120z" />
    <glyph glyph-name="omacron" unicode="&#x14d;" horiz-adv-x="572" 
d="M433 672v-102h-294v102h294zM26 248q0 115 74.5 188.5t185.5 73.5t185.5 -73.5t74.5 -188.5t-74.5 -188.5t-185.5 -73.5t-185.5 73.5t-74.5 188.5zM152 248q0 -67 37 -108.5t97 -41.5t97 41.5t37 108.5t-37 108.5t-97 41.5t-97 -41.5t-37 -108.5z" />
    <glyph glyph-name="Ohungarumlaut" unicode="&#x150;" horiz-adv-x="636" 
d="M223 880h138l-88 -120h-104zM389 880h138l-87 -120h-104zM30 424q0 134 77 212t211 78t211 -78t77 -212v-148q0 -137 -76.5 -213.5t-211.5 -76.5t-211.5 76.5t-76.5 213.5v148zM162 430v-160q0 -78 39 -122t117 -44q79 0 117.5 45t38.5 121v160q0 75 -41.5 120.5
t-114.5 45.5q-74 0 -115 -46t-41 -120z" />
    <glyph glyph-name="ohungarumlaut" unicode="&#x151;" horiz-adv-x="572" 
d="M187 700h138l-88 -130h-104zM354 700h138l-88 -130h-104zM26 248q0 115 74.5 188.5t185.5 73.5t185.5 -73.5t74.5 -188.5t-74.5 -188.5t-185.5 -73.5t-185.5 73.5t-74.5 188.5zM152 248q0 -67 37 -108.5t97 -41.5t97 41.5t37 108.5t-37 108.5t-97 41.5t-97 -41.5
t-37 -108.5z" />
    <glyph glyph-name="OE" unicode="&#x152;" horiz-adv-x="552" 
d="M402 120h122v-120h-254q-114 0 -177 73.5t-63 212.5v128q0 136 63.5 211t176.5 75h248v-120h-116v-169h90v-120h-90v-171zM270 118v464q-108 0 -108 -158v-148q0 -78 24.5 -118t83.5 -40z" />
    <glyph glyph-name="oe" unicode="&#x153;" horiz-adv-x="617" 
d="M595 211h-220v-110q65 13 100 69l91 -77q-18 -21 -35.5 -36t-47 -33t-71 -28t-92.5 -10q-133 0 -213.5 72.5t-80.5 189.5t80 189.5t210 72.5q129 0 204 -71t75 -189v-39zM465 299q-11 75 -90 94v-94h90zM152 248q0 -55 27 -93t78 -52v290q-51 -14 -78 -52t-27 -93z" />
    <glyph glyph-name="Racute" unicode="&#x154;" horiz-adv-x="616" 
d="M417 880l-88 -120h-108l54 120h142zM590 479q0 -78 -40.5 -133t-109.5 -76l142 -270h-146l-129 259h-117v-259h-132v699h308q100 0 162 -60.5t62 -159.5zM190 579v-200h163q47 0 76 27t29 73t-29 73t-76 27h-163z" />
    <glyph glyph-name="racute" unicode="&#x155;" horiz-adv-x="374" 
d="M180 700h142l-88 -130h-108zM180 496v-72h14q26 74 124 74h48v-114h-74q-50 0 -80 -26.5t-30 -77.5v-280h-126v496h124z" />
    <glyph glyph-name="uni0156" unicode="&#x156;" horiz-adv-x="616" 
d="M590 479q0 -78 -40.5 -133t-109.5 -76l142 -270h-146l-129 259h-117v-259h-132v699h308q100 0 162 -60.5t62 -159.5zM190 579v-200h163q47 0 76 27t29 73t-29 73t-76 27h-163zM307 -50q41 0 68 -26.5t27 -67.5v-117q0 -38 -25.5 -64t-63.5 -26h-95v68h77q29 0 29 28v20
q-8 -2 -19 -2q-39 0 -66 26t-27 65q0 42 27 69t68 27z" />
    <glyph glyph-name="uni0157" unicode="&#x157;" horiz-adv-x="374" 
d="M180 496v-72h14q26 74 124 74h48v-114h-74q-50 0 -80 -26.5t-30 -77.5v-280h-126v496h124zM26 -146q0 42 27 69t68 27t68 -26.5t27 -67.5v-117q0 -38 -25.5 -64t-63.5 -26h-95v68h77q29 0 29 28v20q-8 -2 -19 -2q-39 0 -66 26t-27 65z" />
    <glyph glyph-name="Rcaron" unicode="&#x158;" horiz-adv-x="616" 
d="M375 764h-156l-94 120h123l43 -60h12l43 60h123zM590 479q0 -78 -40.5 -133t-109.5 -76l142 -270h-146l-129 259h-117v-259h-132v699h308q100 0 162 -60.5t62 -159.5zM190 579v-200h163q47 0 76 27t29 73t-29 73t-76 27h-163z" />
    <glyph glyph-name="rcaron" unicode="&#x159;" horiz-adv-x="374" 
d="M251 700h123l-94 -130h-156l-94 130h123l43 -64h12zM180 496v-72h14q26 74 124 74h48v-114h-74q-50 0 -80 -26.5t-30 -77.5v-280h-126v496h124z" />
    <glyph glyph-name="Sacute" unicode="&#x15a;" horiz-adv-x="604" 
d="M275 880h142l-88 -120h-108zM297 714q115 0 187 -59.5t72 -162.5v-30h-128v21q0 115 -131 115q-52 0 -82.5 -23t-30.5 -60q0 -16 4 -28.5t16 -22t20.5 -15.5t31.5 -12.5t33 -9t41 -9.5l9 -2q116 -26 172.5 -73t56.5 -137q0 -103 -72 -161.5t-187 -58.5q-130 0 -205.5 67
t-75.5 189v22h130v-18q0 -67 39 -105.5t116 -38.5q61 0 93 27.5t32 69.5q0 43 -33.5 63.5t-110.5 37.5l-9 2q-117 26 -174 72.5t-57 136.5q0 92 69.5 147.5t173.5 55.5z" />
    <glyph glyph-name="sacute" unicode="&#x15b;" horiz-adv-x="508" 
d="M232 700h142l-88 -130h-108zM40 356q0 68 56 111t143 43q131 0 241 -115l-91 -72q-72 85 -154 85q-35 0 -54 -13.5t-19 -36.5q0 -25 22 -35.5t67 -15.5l17 -2q119 -14 168.5 -48.5t49.5 -102.5q0 -73 -62.5 -120.5t-160.5 -47.5q-167 0 -259 140l100 63q22 -47 67 -73
t95 -26q40 0 69 16.5t29 44.5q0 13 -8 22.5t-25 14.5t-32 7.5t-40 5.5l-17 2q-105 12 -153.5 48.5t-48.5 104.5z" />
    <glyph glyph-name="Scedilla" unicode="&#x15e;" horiz-adv-x="604" 
d="M568 206q0 -95 -62 -153t-163 -66l-9 -45h12q18 22 52 22q31 0 54 -20.5t23 -59.5q0 -45 -31 -71.5t-79 -26.5q-46 0 -84 20l26 68q23 -14 50 -14q34 0 34 26q0 22 -20 22q-17 0 -20 -14h-97v12l17 82q-113 9 -178 75t-65 179v22h130v-18q0 -67 39 -105.5t116 -38.5
q61 0 93 27.5t32 69.5q0 43 -33.5 63.5t-110.5 37.5l-9 2q-117 26 -174 72.5t-57 136.5q0 92 69.5 147.5t173.5 55.5q115 0 187 -59.5t72 -162.5v-30h-128v21q0 115 -131 115q-52 0 -82.5 -23t-30.5 -60q0 -16 4 -28.5t16 -22t20.5 -15.5t31.5 -12.5t33 -9t41 -9.5l9 -2
q116 -26 172.5 -73t56.5 -137z" />
    <glyph glyph-name="scedilla" unicode="&#x15f;" horiz-adv-x="508" 
d="M486 154q0 -67 -52 -112.5t-137 -53.5l-9 -46h12q18 22 52 22q31 0 54 -20.5t23 -59.5q0 -45 -31 -71.5t-79 -26.5q-46 0 -84 20l26 68q23 -14 50 -14q34 0 34 26q0 22 -20 22q-17 0 -20 -14h-97v12l18 82q-139 13 -222 138l100 63q22 -47 67 -73t95 -26q40 0 69 16.5
t29 44.5q0 13 -8 22.5t-25 14.5t-32 7.5t-40 5.5l-17 2q-105 12 -153.5 48.5t-48.5 104.5t56 111t143 43q131 0 241 -115l-91 -72q-72 85 -154 85q-35 0 -54 -13.5t-19 -36.5q0 -25 22 -35.5t67 -15.5l17 -2q119 -14 168.5 -48.5t49.5 -102.5z" />
    <glyph glyph-name="Scaron" unicode="&#x160;" horiz-adv-x="604" 
d="M346 884h123l-94 -120h-156l-94 120h123l43 -60h12zM297 714q115 0 187 -59.5t72 -162.5v-30h-128v21q0 115 -131 115q-52 0 -82.5 -23t-30.5 -60q0 -16 4 -28.5t16 -22t20.5 -15.5t31.5 -12.5t33 -9t41 -9.5l9 -2q116 -26 172.5 -73t56.5 -137q0 -103 -72 -161.5
t-187 -58.5q-130 0 -205.5 67t-75.5 189v22h130v-18q0 -67 39 -105.5t116 -38.5q61 0 93 27.5t32 69.5q0 43 -33.5 63.5t-110.5 37.5l-9 2q-117 26 -174 72.5t-57 136.5q0 92 69.5 147.5t173.5 55.5z" />
    <glyph glyph-name="scaron" unicode="&#x161;" horiz-adv-x="508" 
d="M303 700h123l-94 -130h-156l-94 130h123l43 -64h12zM40 356q0 68 56 111t143 43q131 0 241 -115l-91 -72q-72 85 -154 85q-35 0 -54 -13.5t-19 -36.5q0 -25 22 -35.5t67 -15.5l17 -2q119 -14 168.5 -48.5t49.5 -102.5q0 -73 -62.5 -120.5t-160.5 -47.5q-167 0 -259 140
l100 63q22 -47 67 -73t95 -26q40 0 69 16.5t29 44.5q0 13 -8 22.5t-25 14.5t-32 7.5t-40 5.5l-17 2q-105 12 -153.5 48.5t-48.5 104.5z" />
    <glyph glyph-name="uni0162" unicode="&#x162;" horiz-adv-x="572" 
d="M352 0h-32l-11 -58h12q18 22 52 22q31 0 54 -20.5t23 -59.5q0 -45 -31 -71.5t-79 -26.5q-46 0 -84 20l26 68q23 -14 50 -14q34 0 34 26q0 22 -20 22q-17 0 -20 -14h-97v12l20 94h-29v580h-212v120h556v-120h-212v-580z" />
    <glyph glyph-name="uni0163" unicode="&#x163;" horiz-adv-x="420" 
d="M392 388h-136v-250q0 -30 28 -30h80v-108h-118l-11 -58h12q18 22 52 22q31 0 54 -20.5t23 -59.5q0 -45 -31 -71.5t-79 -26.5q-46 0 -84 20l26 68q23 -14 50 -14q34 0 34 26q0 22 -20 22q-17 0 -20 -14h-97v12l23 106q-48 26 -48 84v292h-126v108h126v154h126v-154h136
v-108z" />
    <glyph glyph-name="Tcaron" unicode="&#x164;" horiz-adv-x="572" 
d="M335 884h123l-94 -120h-156l-94 120h123l43 -60h12zM8 700h556v-120h-212v-580h-132v580h-212v120z" />
    <glyph glyph-name="tcaron" unicode="&#x165;" horiz-adv-x="420" 
d="M331 745h128l-58 -182h-80zM4 496h126v154h126v-154h136v-108h-136v-250q0 -30 28 -30h80v-108h-136q-42 0 -70 27t-28 69v292h-126v108z" />
    <glyph glyph-name="Tbar" unicode="&#x166;" horiz-adv-x="572" 
d="M564 580h-212v-174h108v-110h-108v-296h-132v296h-108v110h108v174h-212v120h556v-120z" />
    <glyph glyph-name="tbar" unicode="&#x167;" horiz-adv-x="420" 
d="M392 388h-136v-82h136v-108h-136v-60q0 -30 28 -30h80v-108h-136q-42 0 -70 27t-28 69v102h-126v108h126v82h-126v108h126v204h126v-204h136v-108z" />
    <glyph glyph-name="Umacron" unicode="&#x16a;" horiz-adv-x="656" 
d="M475 862v-102h-294v102h294zM54 700h132v-458q0 -64 37 -101t105 -37t105 37t37 101v458h132v-452q0 -121 -72 -191.5t-202 -70.5t-202 70.5t-72 191.5v452z" />
    <glyph glyph-name="umacron" unicode="&#x16b;" horiz-adv-x="594" 
d="M442 672v-102h-294v102h294zM538 0h-124v80h-14q-38 -88 -157 -88q-84 0 -138.5 56.5t-54.5 151.5v296h126v-284q0 -52 29 -81t83 -29q60 0 92 36t32 102v256h126v-496z" />
    <glyph glyph-name="Ubreve" unicode="&#x16c;" horiz-adv-x="656" 
d="M370 880h90v-8q0 -56 -36 -89t-96 -33t-96 33t-36 89v8h90v-2q0 -40 42 -40t42 40v2zM54 700h132v-458q0 -64 37 -101t105 -37t105 37t37 101v458h132v-452q0 -121 -72 -191.5t-202 -70.5t-202 70.5t-72 191.5v452z" />
    <glyph glyph-name="ubreve" unicode="&#x16d;" horiz-adv-x="594" 
d="M337 700h90v-20q0 -56 -36 -89t-96 -33t-96 33t-36 89v20h90v-12q0 -19 11 -30.5t31 -11.5t31 11.5t11 30.5v12zM538 0h-124v80h-14q-38 -88 -157 -88q-84 0 -138.5 56.5t-54.5 151.5v296h126v-284q0 -52 29 -81t83 -29q60 0 92 36t32 102v256h126v-496z" />
    <glyph glyph-name="Uring" unicode="&#x16e;" horiz-adv-x="656" 
d="M220 840q0 44 31 74t77 30t77 -29.5t31 -74.5q0 -46 -32 -75t-76 -29q-45 0 -76.5 30t-31.5 74zM298 840q0 -13 8.5 -21.5t21.5 -8.5t21.5 8.5t8.5 21.5t-8.5 21.5t-21.5 8.5t-21.5 -8.5t-8.5 -21.5zM54 700h132v-458q0 -64 37 -101t105 -37t105 37t37 101v458h132v-452
q0 -121 -72 -191.5t-202 -70.5t-202 70.5t-72 191.5v452z" />
    <glyph glyph-name="uring" unicode="&#x16f;" horiz-adv-x="594" 
d="M187 639q0 44 31 74t77 30t77 -29.5t31 -74.5q0 -46 -32 -75t-76 -29q-45 0 -76.5 30t-31.5 74zM265 639q0 -13 8.5 -21.5t21.5 -8.5t21.5 8.5t8.5 21.5t-8.5 21.5t-21.5 8.5t-21.5 -8.5t-8.5 -21.5zM538 0h-124v80h-14q-38 -88 -157 -88q-84 0 -138.5 56.5t-54.5 151.5
v296h126v-284q0 -52 29 -81t83 -29q60 0 92 36t32 102v256h126v-496z" />
    <glyph glyph-name="Uhungarumlaut" unicode="&#x170;" horiz-adv-x="656" 
d="M233 880h138l-88 -120h-104zM399 880h138l-87 -120h-104zM54 700h132v-458q0 -64 37 -101t105 -37t105 37t37 101v458h132v-452q0 -121 -72 -191.5t-202 -70.5t-202 70.5t-72 191.5v452z" />
    <glyph glyph-name="uhungarumlaut" unicode="&#x171;" horiz-adv-x="594" 
d="M196 700h138l-88 -130h-104zM363 700h138l-88 -130h-104zM538 0h-124v80h-14q-38 -88 -157 -88q-84 0 -138.5 56.5t-54.5 151.5v296h126v-284q0 -52 29 -81t83 -29q60 0 92 36t32 102v256h126v-496z" />
    <glyph glyph-name="Uogonek" unicode="&#x172;" horiz-adv-x="656" 
d="M470 700h132v-452q0 -112 -62 -181t-174 -79l-10 -44q-1 -3 -1 -8q0 -22 23 -22h46v-84h-80q-32 0 -56 20t-24 55q0 9 3 23l14 61q-109 13 -168 81t-59 178v452h132v-458q0 -64 37 -101t105 -37t105 37t37 101v458z" />
    <glyph glyph-name="uogonek" unicode="&#x173;" horiz-adv-x="594" 
d="M526 -86h46v-84h-80q-32 0 -56 20t-24 55q0 9 3 23l16 72h-17v80h-14q-38 -88 -157 -88q-84 0 -138.5 56.5t-54.5 151.5v296h126v-284q0 -52 29 -81t83 -29q60 0 92 36t32 102v256h126v-496h-21l-13 -56q-1 -3 -1 -8q0 -22 23 -22z" />
    <glyph glyph-name="Wcircumflex" unicode="&#x174;" horiz-adv-x="896" 
d="M497 760l-43 60h-12l-43 -60h-123l94 120h156l94 -120h-123zM10 700h132l84 -572h12l107 572h206l107 -572h12l84 572h132l-110 -700h-215l-107 572h-12l-107 -572h-215z" />
    <glyph glyph-name="wcircumflex" unicode="&#x175;" horiz-adv-x="744" 
d="M421 570l-43 64h-12l-43 -64h-123l94 130h156l94 -130h-123zM10 496h126l59 -388h12l78 388h174l78 -388h12l59 388h126l-98 -496h-180l-78 388h-12l-78 -388h-180z" />
    <glyph glyph-name="Ycircumflex" unicode="&#x176;" horiz-adv-x="612" 
d="M355 760l-43 60h-12l-43 -60h-123l94 120h156l94 -120h-123zM-6 700h150l153 -298h18l153 298h150l-246 -463v-237h-132v237z" />
    <glyph glyph-name="ycircumflex" unicode="&#x177;" horiz-adv-x="548" 
d="M268 634l-43 -64h-123l94 130h156l94 -130h-123l-43 64h-12zM410 496h136l-272 -696h-136l70 168l-206 528h136l130 -356h12z" />
    <glyph glyph-name="Ydieresis" unicode="&#x178;" horiz-adv-x="612" 
d="M109 822q0 38 25.5 62t63.5 24t63.5 -24t25.5 -62t-25.5 -62t-63.5 -24t-63.5 24t-25.5 62zM325 822q0 38 25.5 62t63.5 24t63.5 -24t25.5 -62t-25.5 -62t-63.5 -24t-63.5 24t-25.5 62zM-6 700h150l153 -298h18l153 298h150l-246 -463v-237h-132v237z" />
    <glyph glyph-name="Zacute" unicode="&#x179;" horiz-adv-x="570" 
d="M274 880h142l-88 -120h-108zM38 700h502v-114l-346 -468h348v-118h-514v114l346 468h-336v118z" />
    <glyph glyph-name="zacute" unicode="&#x17a;" horiz-adv-x="528" 
d="M243 700h142l-88 -130h-108zM52 496h432v-98l-274 -290h282v-108h-450v98l274 290h-264v108z" />
    <glyph glyph-name="Zdotaccent" unicode="&#x17b;" horiz-adv-x="570" 
d="M207 822q0 38 25.5 62t63.5 24t63.5 -24t25.5 -62t-25.5 -62t-63.5 -24t-63.5 24t-25.5 62zM38 700h502v-114l-346 -468h348v-118h-514v114l346 468h-336v118z" />
    <glyph glyph-name="zdotaccent" unicode="&#x17c;" horiz-adv-x="528" 
d="M176 640q0 38 25.5 62t63.5 24t63.5 -24t25.5 -62t-25.5 -62t-63.5 -24t-63.5 24t-25.5 62zM52 496h432v-98l-274 -290h282v-108h-450v98l274 290h-264v108z" />
    <glyph glyph-name="Zcaron" unicode="&#x17d;" horiz-adv-x="570" 
d="M345 884h123l-94 -120h-156l-94 120h123l43 -60h12zM38 700h502v-114l-346 -468h348v-118h-514v114l346 468h-336v118z" />
    <glyph glyph-name="zcaron" unicode="&#x17e;" horiz-adv-x="528" 
d="M314 700h123l-94 -130h-156l-94 130h123l43 -64h12zM52 496h432v-98l-274 -290h282v-108h-450v98l274 290h-264v108z" />
    <glyph glyph-name="florin" unicode="&#x192;" 
d="M105 462h141v136q0 43 29 72.5t72 29.5h222v-120h-170q-27 0 -27 -30v-88h145v-120h-145v-240q0 -43 -29 -72.5t-72 -29.5h-207v120h155q27 0 27 30v192h-141v120z" />
    <glyph glyph-name="Aringacute" unicode="&#x1fa;" horiz-adv-x="604" 
d="M302 736q-45 0 -76.5 30t-31.5 74q0 43 28.5 72t72.5 32l25 56h142l-72 -98q20 -26 20 -62q0 -46 -32 -75t-76 -29zM302 810q13 0 21.5 8.5t8.5 21.5t-8.5 21.5t-21.5 8.5t-21.5 -8.5t-8.5 -21.5t8.5 -21.5t21.5 -8.5zM408 700l194 -700h-136l-42 156h-244l-42 -156h-136
l194 700h212zM211 276h182l-85 314h-12z" />
    <glyph glyph-name="aringacute" unicode="&#x1fb;" horiz-adv-x="560" 
d="M281 535q-45 0 -76.5 30t-31.5 74q0 41 27.5 70t68.5 33l36 88h142l-83 -123q25 -27 25 -68q0 -46 -32 -75t-76 -29zM281 669q-13 0 -21.5 -8.5t-8.5 -21.5t8.5 -21.5t21.5 -8.5t21.5 8.5t8.5 21.5t-8.5 21.5t-21.5 8.5zM287 510q101 0 162 -53t61 -140v-317h-124v70h-14
q-41 -84 -156 -84q-84 0 -135 42t-51 113q0 58 45.5 97t118.5 47l190 21v12q0 37 -27.5 60.5t-76.5 23.5q-87 0 -138 -86l-102 66q50 63 106.5 95.5t140.5 32.5zM384 210v8l-152 -18q-70 -9 -70 -52q0 -26 22 -42t63 -16q64 0 100.5 33.5t36.5 86.5z" />
    <glyph glyph-name="AEacute" unicode="&#x1fc;" horiz-adv-x="548" 
d="M436 880l-88 -120h-108l54 120h142zM398 124h122v-124h-254v154h-98l-32 -154h-134l159 700h353v-124h-116v-163h90v-124h-90v-165zM266 276v300h-12l-61 -300h73z" />
    <glyph glyph-name="aeacute" unicode="&#x1fd;" horiz-adv-x="594" 
d="M413 700l-88 -130h-108l54 130h142zM572 211h-220v-110q65 13 100 69l91 -77q-95 -107 -254 -107q-115 0 -187 45.5t-72 123.5q0 70 53 107t129 37h22v97q-29 -2 -61 -22t-50 -45l-81 76q105 105 249 105q129 0 205 -71.5t76 -188.5v-39zM442 299q-11 75 -90 94v-94h90z
M214 98h20v113h-20q-26 0 -44 -15.5t-18 -40.5t18.5 -41t43.5 -16z" />
    <glyph glyph-name="Oslashacute" unicode="&#x1fe;" horiz-adv-x="636" 
d="M438 880l-88 -120h-108l54 120h142zM487 670q119 -75 119 -246v-148q0 -137 -76.5 -213.5t-211.5 -76.5q-33 0 -57 4l-27 -83l-110 34l28 86q-122 72 -122 249v148q0 134 77 212t211 78q29 0 61 -5l24 72l109 -34zM162 270q0 -72 33 -115l146 440q-7 1 -23 1
q-74 0 -115 -46t-41 -120v-160zM474 270v160q0 65 -31 108l-144 -433q6 -1 19 -1q79 0 117.5 45t38.5 121z" />
    <glyph glyph-name="oslashacute" unicode="&#x1ff;" horiz-adv-x="572" 
d="M406 700l-88 -130h-108l54 130h142zM434 467q52 -35 82 -91.5t30 -127.5q0 -115 -74.5 -188.5t-185.5 -73.5q-13 0 -37 2l-32 -83l-110 40l32 83q-53 34 -83 91.5t-30 128.5q0 115 74.5 188.5t185.5 73.5q20 0 39 -3l31 80l109 -40zM152 248q0 -61 32 -103l99 253
q-59 -2 -95 -43t-36 -107zM292 98q58 2 93 43t35 107q0 62 -31 102z" />
    <glyph glyph-name="uni0218" unicode="&#x218;" horiz-adv-x="604" 
d="M297 714q115 0 187 -59.5t72 -162.5v-30h-128v21q0 115 -131 115q-52 0 -82.5 -23t-30.5 -60q0 -16 4 -28.5t16 -22t20.5 -15.5t31.5 -12.5t33 -9t41 -9.5l9 -2q116 -26 172.5 -73t56.5 -137q0 -103 -72 -161.5t-187 -58.5q-130 0 -205.5 67t-75.5 189v22h130v-18
q0 -67 39 -105.5t116 -38.5q61 0 93 27.5t32 69.5q0 43 -33.5 63.5t-110.5 37.5l-9 2q-117 26 -174 72.5t-57 136.5q0 92 69.5 147.5t173.5 55.5zM216 -146q0 42 27 69t68 27t68 -26.5t27 -67.5v-117q0 -38 -25.5 -64t-63.5 -26h-95v68h77q29 0 29 28v20q-8 -2 -19 -2
q-39 0 -66 26t-27 65z" />
    <glyph glyph-name="uni0219" unicode="&#x219;" horiz-adv-x="508" 
d="M40 356q0 68 56 111t143 43q131 0 241 -115l-91 -72q-72 85 -154 85q-35 0 -54 -13.5t-19 -36.5q0 -25 22 -35.5t67 -15.5l17 -2q119 -14 168.5 -48.5t49.5 -102.5q0 -73 -62.5 -120.5t-160.5 -47.5q-167 0 -259 140l100 63q22 -47 67 -73t95 -26q40 0 69 16.5t29 44.5
q0 13 -8 22.5t-25 14.5t-32 7.5t-40 5.5l-17 2q-105 12 -153.5 48.5t-48.5 104.5zM170 -146q0 42 27 69t68 27t68 -26.5t27 -67.5v-117q0 -38 -25.5 -64t-63.5 -26h-95v68h77q29 0 29 28v20q-8 -2 -19 -2q-39 0 -66 26t-27 65z" />
    <glyph glyph-name="uni021A" unicode="&#x21a;" horiz-adv-x="572" 
d="M8 700h556v-120h-212v-580h-132v580h-212v120zM191 -146q0 42 27 69t68 27t68 -26.5t27 -67.5v-117q0 -38 -25.5 -64t-63.5 -26h-95v68h77q29 0 29 28v20q-8 -2 -19 -2q-39 0 -66 26t-27 65z" />
    <glyph glyph-name="uni021B" unicode="&#x21b;" horiz-adv-x="420" 
d="M4 496h126v154h126v-154h136v-108h-136v-250q0 -30 28 -30h80v-108h-136q-42 0 -70 27t-28 69v292h-126v108zM117 -146q0 42 27 69t68 27t68 -26.5t27 -67.5v-117q0 -38 -25.5 -64t-63.5 -26h-95v68h77q29 0 29 28v20q-8 -2 -19 -2q-39 0 -66 26t-27 65z" />
    <glyph glyph-name="uni0237" unicode="&#x237;" horiz-adv-x="242" 
d="M186 496v-600q0 -42 -28 -69t-70 -27h-142v106h86q28 0 28 30v560h126z" />
    <glyph glyph-name="circumflex" unicode="&#x2c6;" horiz-adv-x="424" 
d="M261 570l-43 64h-12l-43 -64h-123l94 130h156l94 -130h-123z" />
    <glyph glyph-name="caron" unicode="&#x2c7;" horiz-adv-x="424" 
d="M261 700h123l-94 -130h-156l-94 130h123l43 -64h12z" />
    <glyph glyph-name="breve" unicode="&#x2d8;" horiz-adv-x="344" 
d="M214 700h90v-20q0 -56 -36 -89t-96 -33t-96 33t-36 89v20h90v-12q0 -19 11 -30.5t31 -11.5t31 11.5t11 30.5v12z" />
    <glyph glyph-name="dotaccent" unicode="&#x2d9;" horiz-adv-x="258" 
d="M40 640q0 38 25.5 62t63.5 24t63.5 -24t25.5 -62t-25.5 -62t-63.5 -24t-63.5 24t-25.5 62z" />
    <glyph glyph-name="ring" unicode="&#x2da;" horiz-adv-x="296" 
d="M40 639q0 44 31 74t77 30t77 -29.5t31 -74.5q0 -46 -32 -75t-76 -29q-45 0 -76.5 30t-31.5 74zM118 639q0 -13 8.5 -21.5t21.5 -8.5t21.5 8.5t8.5 21.5t-8.5 21.5t-21.5 8.5t-21.5 -8.5t-8.5 -21.5z" />
    <glyph glyph-name="ogonek" unicode="&#x2db;" horiz-adv-x="240" 
d="M66 30h86l-20 -86q-1 -3 -1 -8q0 -22 23 -22h46v-84h-80q-32 0 -56 20t-24 55q0 9 3 23z" />
    <glyph glyph-name="tilde" unicode="&#x2dc;" horiz-adv-x="480" 
d="M40 617l56 72q34 44 86 44q39 0 74 -38l4 -4t4 -4.5t3.5 -4t4.5 -4t4.5 -3t5 -2.5t6 -1.5t6.5 -0.5q21 0 39 24l30 38l77 -61l-56 -72q-34 -44 -86 -44q-39 0 -74 38l-4 4t-4 4.5t-3.5 4t-4.5 4t-4.5 3t-5 2.5t-6 1.5t-6.5 0.5q-21 0 -39 -24l-30 -38z" />
    <glyph glyph-name="hungarumlaut" unicode="&#x2dd;" horiz-adv-x="439" 
d="M94 700h138l-88 -130h-104zM261 700h138l-88 -130h-104z" />
    <glyph glyph-name="gravecomb" unicode="&#x300;" horiz-adv-x="0" 
d="M-94 700l54 -130h-108l-88 130h142z" />
    <glyph glyph-name="acutecomb" unicode="&#x301;" horiz-adv-x="0" 
d="M-182 700h142l-88 -130h-108z" />
    <glyph glyph-name="uni0302" unicode="&#x302;" horiz-adv-x="0" 
d="M-163 570l-43 64h-12l-43 -64h-123l94 130h156l94 -130h-123z" />
    <glyph glyph-name="tildecomb" unicode="&#x303;" horiz-adv-x="0" 
d="M-440 617l56 72q34 44 86 44q39 0 74 -38l4 -4t4 -4.5t3.5 -4t4.5 -4t4.5 -3t5 -2.5t6 -1.5t6.5 -0.5q21 0 39 24l30 38l77 -61l-56 -72q-34 -44 -86 -44q-39 0 -74 38l-4 4t-4 4.5t-3.5 4t-4.5 4t-4.5 3t-5 2.5t-6 1.5t-6.5 0.5q-21 0 -39 -24l-30 -38z" />
    <glyph glyph-name="uni0304" unicode="&#x304;" horiz-adv-x="0" 
d="M-40 672v-102h-294v102h294z" />
    <glyph glyph-name="uni0306" unicode="&#x306;" horiz-adv-x="0" 
d="M-130 700h90v-20q0 -56 -36 -89t-96 -33t-96 33t-36 89v20h90v-12q0 -19 11 -30.5t31 -11.5t31 11.5t11 30.5v12z" />
    <glyph glyph-name="uni0307" unicode="&#x307;" horiz-adv-x="0" 
d="M-218 640q0 38 25.5 62t63.5 24t63.5 -24t25.5 -62t-25.5 -62t-63.5 -24t-63.5 24t-25.5 62z" />
    <glyph glyph-name="uni0308" unicode="&#x308;" horiz-adv-x="0" 
d="M-428 640q0 38 25.5 62t63.5 24t63.5 -24t25.5 -62t-25.5 -62t-63.5 -24t-63.5 24t-25.5 62zM-218 640q0 38 25.5 62t63.5 24t63.5 -24t25.5 -62t-25.5 -62t-63.5 -24t-63.5 24t-25.5 62z" />
    <glyph glyph-name="uni030A" unicode="&#x30a;" horiz-adv-x="0" 
d="M-256 639q0 44 31 74t77 30t77 -29.5t31 -74.5q0 -46 -32 -75t-76 -29q-45 0 -76.5 30t-31.5 74zM-178 639q0 -13 8.5 -21.5t21.5 -8.5t21.5 8.5t8.5 21.5t-8.5 21.5t-21.5 8.5t-21.5 -8.5t-8.5 -21.5z" />
    <glyph glyph-name="uni030B" unicode="&#x30b;" horiz-adv-x="0" 
d="M-345 700h138l-88 -130h-104zM-178 700h138l-88 -130h-104z" />
    <glyph glyph-name="uni030C" unicode="&#x30c;" horiz-adv-x="0" 
d="M-163 700h123l-94 -130h-156l-94 130h123l43 -64h12z" />
    <glyph glyph-name="uni0312" unicode="&#x312;" horiz-adv-x="0" 
d="M-40 641q0 -42 -27 -69t-68 -27t-68 26.5t-27 67.5v117q0 38 25.5 64t63.5 26h95v-68h-77q-29 0 -29 -28v-20q8 2 19 2q39 0 66 -26t27 -65z" />
    <glyph glyph-name="uni0326" unicode="&#x326;" horiz-adv-x="0" 
d="M-230 -146q0 42 27 69t68 27t68 -26.5t27 -67.5v-117q0 -38 -25.5 -64t-63.5 -26h-95v68h77q29 0 29 28v20q-8 -2 -19 -2q-39 0 -66 26t-27 65z" />
    <glyph glyph-name="uni0327" unicode="&#x327;" horiz-adv-x="0" 
d="M-234 32h70l-17 -90h12q18 22 52 22q31 0 54 -20.5t23 -59.5q0 -45 -31 -71.5t-79 -26.5q-46 0 -84 20l26 68q23 -14 50 -14q34 0 34 26q0 22 -20 22q-17 0 -20 -14h-97v12z" />
    <glyph glyph-name="uni0328" unicode="&#x328;" horiz-adv-x="0" 
d="M-174 30h86l-20 -86q-1 -3 -1 -8q0 -22 23 -22h46v-84h-80q-32 0 -56 20t-24 55q0 9 3 23z" />
    <glyph glyph-name="uni0335" unicode="&#x335;" horiz-adv-x="0" 
d="M-336 636h296v-84h-296v84z" />
    <glyph glyph-name="uni0336" unicode="&#x336;" horiz-adv-x="0" 
d="M-40 606v-110h-640v110h640z" />
    <glyph glyph-name="uni0337" unicode="&#x337;" horiz-adv-x="0" 
d="M-149 587l109 -40l-248 -642l-110 40z" />
    <glyph glyph-name="uni0338" unicode="&#x338;" horiz-adv-x="0" 
d="M-149 781l109 -34l-278 -840l-110 34z" />
    <glyph glyph-name="pi" unicode="&#x3c0;" 
d="M258 0h-126v376h-78v120h514v-120h-78v-226q0 -30 27 -30h51v-120h-108q-42 0 -69 27t-27 69v280h-106v-376z" />
    <glyph glyph-name="Wgrave" unicode="&#x1e80;" horiz-adv-x="896" 
d="M470 880l54 -120h-108l-88 120h142zM10 700h132l84 -572h12l107 572h206l107 -572h12l84 572h132l-110 -700h-215l-107 572h-12l-107 -572h-215z" />
    <glyph glyph-name="wgrave" unicode="&#x1e81;" horiz-adv-x="744" 
d="M394 700l54 -130h-108l-88 130h142zM10 496h126l59 -388h12l78 388h174l78 -388h12l59 388h126l-98 -496h-180l-78 388h-12l-78 -388h-180z" />
    <glyph glyph-name="Wacute" unicode="&#x1e82;" horiz-adv-x="896" 
d="M426 880h142l-88 -120h-108zM10 700h132l84 -572h12l107 572h206l107 -572h12l84 572h132l-110 -700h-215l-107 572h-12l-107 -572h-215z" />
    <glyph glyph-name="wacute" unicode="&#x1e83;" horiz-adv-x="744" 
d="M350 700h142l-88 -130h-108zM10 496h126l59 -388h12l78 388h174l78 -388h12l59 388h126l-98 -496h-180l-78 388h-12l-78 -388h-180z" />
    <glyph glyph-name="Wdieresis" unicode="&#x1e84;" horiz-adv-x="896" 
d="M251 822q0 38 25.5 62t63.5 24t63.5 -24t25.5 -62t-25.5 -62t-63.5 -24t-63.5 24t-25.5 62zM467 822q0 38 25.5 62t63.5 24t63.5 -24t25.5 -62t-25.5 -62t-63.5 -24t-63.5 24t-25.5 62zM10 700h132l84 -572h12l107 572h206l107 -572h12l84 572h132l-110 -700h-215
l-107 572h-12l-107 -572h-215z" />
    <glyph glyph-name="wdieresis" unicode="&#x1e85;" horiz-adv-x="744" 
d="M178 640q0 38 25.5 62t63.5 24t63.5 -24t25.5 -62t-25.5 -62t-63.5 -24t-63.5 24t-25.5 62zM388 640q0 38 25.5 62t63.5 24t63.5 -24t25.5 -62t-25.5 -62t-63.5 -24t-63.5 24t-25.5 62zM10 496h126l59 -388h12l78 388h174l78 -388h12l59 388h126l-98 -496h-180l-78 388
h-12l-78 -388h-180z" />
    <glyph glyph-name="uni1E9E" unicode="&#x1e9e;" horiz-adv-x="637" 
d="M54 0v416q0 133 74.5 208.5t197.5 75.5h260v-104l-150 -202q-11 -14 -11 -23q0 -12 26 -24l37 -16q61 -27 94 -65.5t33 -104.5q0 -77 -51 -126t-144 -49q-94 0 -149 51t-55 131h134q0 -29 20 -46.5t50 -17.5t47.5 15.5t17.5 39.5t-16.5 38t-47.5 27l-48 20
q-80 33 -80 111q0 31 14.5 58t45.5 66l80 101h-107q-58 0 -99 -37.5t-41 -122.5v-420h-132z" />
    <glyph glyph-name="Ygrave" unicode="&#x1ef2;" horiz-adv-x="612" 
d="M328 880l54 -120h-108l-88 120h142zM-6 700h150l153 -298h18l153 298h150l-246 -463v-237h-132v237z" />
    <glyph glyph-name="ygrave" unicode="&#x1ef3;" horiz-adv-x="548" 
d="M350 570h-108l-88 130h142zM410 496h136l-272 -696h-136l70 168l-206 528h136l130 -356h12z" />
    <glyph glyph-name="endash" unicode="&#x2013;" horiz-adv-x="612" 
d="M82 198v114h448v-114h-448z" />
    <glyph glyph-name="emdash" unicode="&#x2014;" horiz-adv-x="916" 
d="M82 198v114h752v-114h-752z" />
    <glyph glyph-name="quoteleft" unicode="&#x2018;" horiz-adv-x="282" 
d="M236 500q0 -42 -27 -69t-68 -27t-68 26.5t-27 67.5v127q0 38 25.5 64t63.5 26h95v-68h-77q-29 0 -29 -28v-32q8 2 19 2q40 0 66.5 -25t26.5 -64z" />
    <glyph glyph-name="quoteright" unicode="&#x2019;" horiz-adv-x="282" 
d="M46 619q0 42 27 69t68 27t68 -26.5t27 -67.5v-127q0 -38 -25.5 -64t-63.5 -26h-95v68h77q29 0 29 28v32q-8 -2 -19 -2q-40 0 -66.5 25t-26.5 64z" />
    <glyph glyph-name="quotesinglbase" unicode="&#x201a;" horiz-adv-x="282" 
d="M46 80q0 42 27 69t68 27t68 -26.5t27 -67.5v-127q0 -38 -25.5 -64t-63.5 -26h-95v68h77q29 0 29 28v32q-8 -2 -19 -2q-40 0 -66.5 25t-26.5 64z" />
    <glyph glyph-name="quotedblleft" unicode="&#x201c;" horiz-adv-x="492" 
d="M236 500q0 -42 -27 -69t-68 -27t-68 26.5t-27 67.5v127q0 38 25.5 64t63.5 26h95v-68h-77q-29 0 -29 -28v-32q8 2 19 2q40 0 66.5 -25t26.5 -64zM446 500q0 -42 -27 -69t-68 -27t-68 26.5t-27 67.5v127q0 38 25.5 64t63.5 26h95v-68h-77q-29 0 -29 -28v-32q8 2 19 2
q40 0 66.5 -25t26.5 -64z" />
    <glyph glyph-name="quotedblright" unicode="&#x201d;" horiz-adv-x="492" 
d="M46 619q0 42 27 69t68 27t68 -26.5t27 -67.5v-127q0 -38 -25.5 -64t-63.5 -26h-95v68h77q29 0 29 28v32q-8 -2 -19 -2q-40 0 -66.5 25t-26.5 64zM256 619q0 42 27 69t68 27t68 -26.5t27 -67.5v-127q0 -38 -25.5 -64t-63.5 -26h-95v68h77q29 0 29 28v32q-8 -2 -19 -2
q-40 0 -66.5 25t-26.5 64z" />
    <glyph glyph-name="quotedblbase" unicode="&#x201e;" horiz-adv-x="492" 
d="M46 80q0 42 27 69t68 27t68 -26.5t27 -67.5v-127q0 -38 -25.5 -64t-63.5 -26h-95v68h77q29 0 29 28v32q-8 -2 -19 -2q-40 0 -66.5 25t-26.5 64zM256 80q0 42 27 69t68 27t68 -26.5t27 -67.5v-127q0 -38 -25.5 -64t-63.5 -26h-95v68h77q29 0 29 28v32q-8 -2 -19 -2
q-40 0 -66.5 25t-26.5 64z" />
    <glyph glyph-name="dagger" unicode="&#x2020;" 
d="M84 408v124h160v168h132v-168h160v-124h-160v-408h-132v408h-160z" />
    <glyph glyph-name="daggerdbl" unicode="&#x2021;" 
d="M84 168v124h160v116h-160v124h160v168h132v-168h160v-124h-160v-116h160v-124h-160v-168h-132v168h-160z" />
    <glyph glyph-name="bullet" unicode="&#x2022;" horiz-adv-x="310" 
d="M11 350q0 59 42 101.5t102 42.5t102 -42t42 -102t-43.5 -102t-100.5 -42q-58 0 -101 43t-43 101z" />
    <glyph glyph-name="ellipsis" unicode="&#x2026;" horiz-adv-x="682" 
d="M46 81q0 42 27 68.5t68 26.5t68 -26.5t27 -68.5t-27 -68.5t-68 -26.5t-68 26.5t-27 68.5zM246 81q0 42 27 68.5t68 26.5t68 -26.5t27 -68.5t-27 -68.5t-68 -26.5t-68 26.5t-27 68.5zM446 81q0 42 27 68.5t68 26.5t68 -26.5t27 -68.5t-27 -68.5t-68 -26.5t-68 26.5
t-27 68.5z" />
    <glyph glyph-name="perthousand" unicode="&#x2030;" horiz-adv-x="981" 
d="M677 640l-203 -226l-64 48l164 255zM200 712q75 0 119.5 -42.5t44.5 -115.5v-19q0 -74 -43.5 -115.5t-120.5 -41.5t-120.5 41.5t-43.5 115.5v19q0 74 43.5 116t120.5 42zM260 531v28q0 67 -60 67t-60 -67v-28q0 -67 60 -67t60 67zM786 322q72 0 115.5 -42.5t43.5 -115.5
v-19q0 -73 -42.5 -115t-116.5 -42q-76 0 -117 47q-41 -47 -117 -47q-74 0 -116.5 42t-42.5 115v19q0 73 42.5 115.5t116.5 42.5q76 0 116 -48q40 48 118 48zM75 62l203 226l64 -48l-164 -255zM617 141v28q0 67 -60 67q-30 0 -46 -18t-16 -49v-28q0 -31 16 -49t46 -18
q60 0 60 67zM841 141v28q0 67 -60 67t-60 -67v-28q0 -67 60 -67t60 67z" />
    <glyph glyph-name="prime" unicode="&#x2032;" horiz-adv-x="310" 
d="M95 700h135l-57 -280h-88z" />
    <glyph glyph-name="primedbl" unicode="&#x2033;" horiz-adv-x="440" 
d="M80 700h135l-57 -280h-88zM240 700h135l-57 -280h-88z" />
    <glyph glyph-name="guilsinglleft" unicode="&#x2039;" horiz-adv-x="480" 
d="M58 320l354 170h6v-136l-234 -97v-18l234 -97v-136h-6l-354 170v144z" />
    <glyph glyph-name="guilsinglright" unicode="&#x203a;" horiz-adv-x="480" 
d="M422 320v-144l-354 -170h-6v136l234 97v18l-234 97v136h6z" />
    <glyph glyph-name="fraction" unicode="&#x2044;" horiz-adv-x="632" 
d="M350 461l164 255l103 -77l-203 -226zM282 239l-164 -255l-103 77l203 226z" />
    <glyph glyph-name="Euro" unicode="&#x20ac;" horiz-adv-x="662" 
d="M636 436h-132v18q0 65 -32.5 102.5t-95.5 37.5q-55 0 -89 -30t-44 -80h133v-104h-138v-50h138v-104h-136q16 -120 136 -120q128 0 128 140v18h132v-24q0 -119 -66 -186.5t-194 -67.5q-115 0 -185.5 62t-82.5 178h-66v104h64v50h-64v104h68q14 108 83.5 169t182.5 61
q124 0 192 -68t68 -186v-24z" />
    <glyph glyph-name="trademark" unicode="&#x2122;" 
d="M66 700h190v-38h-74v-184h-42v184h-74v38zM286 700h75l50 -184h4l50 184h75v-222h-42v184h-4l-50 -184h-62l-50 184h-4v-184h-42v222z" />
    <glyph glyph-name="oneeighth" unicode="&#x215b;" horiz-adv-x="714" 
d="M350 461l164 255l103 -77l-203 -226zM69 700h151v-350h-100v246h-10l-18 -52h-88v10zM384 264q0 43 43 70.5t111 27.5t111 -27.5t43 -70.5v-3q0 -53 -57 -74v-10q22 -5 42.5 -26.5t20.5 -57.5v-2q0 -45 -43.5 -74t-116.5 -29t-116.5 29t-43.5 74v2q0 38 20 58.5t43 25.5
v10q-57 21 -57 74v3zM282 239l-164 -255l-103 77l203 226zM484 252q0 -15 14.5 -24.5t39.5 -9.5t39.5 9.5t14.5 24.5q0 32 -54 32t-54 -32zM478 104q0 -38 60 -38t60 38t-60 38t-60 -38z" />
    <glyph glyph-name="threeeighths" unicode="&#x215c;" horiz-adv-x="792" 
d="M428 461l164 255l103 -77l-203 -226zM20 700h308v-68l-102 -61v-10q45 -2 74.5 -27t29.5 -71q0 -54 -44 -89.5t-111 -35.5q-71 0 -114.5 35.5t-46.5 99.5h98q2 -23 18.5 -38t41.5 -15q26 0 42 14t16 33q0 43 -58 43h-66v62l82 48h-168v80zM462 264q0 43 43 70.5t111 27.5
t111 -27.5t43 -70.5v-3q0 -53 -57 -74v-10q22 -5 42.5 -26.5t20.5 -57.5v-2q0 -45 -43.5 -74t-116.5 -29t-116.5 29t-43.5 74v2q0 38 20 58.5t43 25.5v10q-57 21 -57 74v3zM360 239l-164 -255l-103 77l203 226zM562 252q0 -15 14.5 -24.5t39.5 -9.5t39.5 9.5t14.5 24.5
q0 32 -54 32t-54 -32zM556 104q0 -38 60 -38t60 38t-60 38t-60 -38z" />
    <glyph glyph-name="fiveeighths" unicode="&#x215d;" horiz-adv-x="796" 
d="M432 461l164 255l103 -77l-203 -226zM30 700h294v-80h-196v-61h10q36 23 80 23q50 0 84 -30.5t34 -80.5v-7q0 -54 -43.5 -90t-114.5 -36q-65 0 -107 33t-53 91h98q14 -44 62 -44q26 0 42 13t16 34t-13.5 32.5t-33.5 11.5q-23 0 -44 -18h-115v209zM466 264q0 43 43 70.5
t111 27.5t111 -27.5t43 -70.5v-3q0 -53 -57 -74v-10q22 -5 42.5 -26.5t20.5 -57.5v-2q0 -45 -43.5 -74t-116.5 -29t-116.5 29t-43.5 74v2q0 38 20 58.5t43 25.5v10q-57 21 -57 74v3zM364 239l-164 -255l-103 77l203 226zM566 252q0 -15 14.5 -24.5t39.5 -9.5t39.5 9.5
t14.5 24.5q0 32 -54 32t-54 -32zM560 104q0 -38 60 -38t60 38t-60 38t-60 -38z" />
    <glyph glyph-name="seveneighths" unicode="&#x215e;" horiz-adv-x="728" 
d="M364 461l164 255l103 -77l-203 -226zM2 700h310v-76l-139 -274h-108l139 270h-202v80zM398 264q0 43 43 70.5t111 27.5t111 -27.5t43 -70.5v-3q0 -53 -57 -74v-10q22 -5 42.5 -26.5t20.5 -57.5v-2q0 -45 -43.5 -74t-116.5 -29t-116.5 29t-43.5 74v2q0 38 20 58.5t43 25.5
v10q-57 21 -57 74v3zM296 239l-164 -255l-103 77l203 226zM498 252q0 -15 14.5 -24.5t39.5 -9.5t39.5 9.5t14.5 24.5q0 32 -54 32t-54 -32zM492 104q0 -38 60 -38t60 38t-60 38t-60 -38z" />
    <glyph glyph-name="arrowleft" unicode="&#x2190;" horiz-adv-x="800" 
d="M279 535l84 -84l-108 -108l-33 -22l3 -9l40 4h485v-122h-485l-40 4l-3 -9l33 -22l108 -108l-84 -84l-229 229v102z" />
    <glyph glyph-name="arrowup" unicode="&#x2191;" 
d="M30 477l229 229h102l229 -229l-84 -84l-106 106l-22 33l-9 -3l4 -40v-489h-126v489l4 40l-9 3l-22 -33l-106 -106z" />
    <glyph glyph-name="arrowright" unicode="&#x2192;" horiz-adv-x="800" 
d="M521 535l229 -229v-102l-229 -229l-84 84l108 108l33 22l-3 9l-40 -4h-485v122h485l40 -4l3 9l-33 22l-108 108z" />
    <glyph glyph-name="arrowdown" unicode="&#x2193;" 
d="M30 223l84 84l106 -106l22 -33l9 3l-4 40v489h126v-489l-4 -40l9 -3l22 33l106 106l84 -84l-229 -229h-102z" />
    <glyph glyph-name="arrowboth" unicode="&#x2194;" horiz-adv-x="800" 
d="M531 525l219 -219v-102l-219 -219l-84 84l98 98l33 22l-3 9l-40 -4h-270l-40 4l-3 -9l33 -22l98 -98l-84 -84l-219 219v102l219 219l84 -84l-98 -98l-33 -22l3 -9l40 4h270l40 -4l3 9l-33 22l-98 98z" />
    <glyph glyph-name="arrowupdn" unicode="&#x2195;" 
d="M400 201l106 106l84 -84l-229 -229h-102l-229 229l84 84l106 -106l22 -33l9 3l-4 40v278l4 40l-9 3l-22 -33l-106 -106l-84 84l229 229h102l229 -229l-84 -84l-106 106l-22 33l-9 -3l4 -40v-278l-4 -40l9 -3z" />
    <glyph glyph-name="uni2196" unicode="&#x2196;" 
d="M463 496v-116h-149l-39 8l-5 -9l32 -25l278 -280l-89 -89l-279 279l-25 32l-9 -5l8 -39v-149h-116v324l69 69h324z" />
    <glyph glyph-name="uni2197" unicode="&#x2197;" 
d="M157 496h324l69 -69v-324h-116v149l8 39l-9 5l-25 -32l-279 -279l-89 89l278 280l32 25l-5 9l-39 -8h-149v116z" />
    <glyph glyph-name="uni2198" unicode="&#x2198;" 
d="M157 0v116h149l39 -8l5 9l-32 25l-278 280l89 89l279 -279l25 -32l9 5l-8 39v149h116v-324l-69 -69h-324z" />
    <glyph glyph-name="uni2199" unicode="&#x2199;" 
d="M463 0h-324l-69 69v324h116v-149l-8 -39l9 -5l25 32l279 279l89 -89l-278 -280l-32 -25l5 -9l39 8h149v-116z" />
    <glyph glyph-name="partialdiff" unicode="&#x2202;" 
d="M51 254q0 110 61.5 183t158.5 73q85 0 124 -46h18q-49 125 -262 150l20 114q194 -20 296 -131.5t102 -305.5q0 -139 -70 -222t-194 -83q-111 0 -182.5 72.5t-71.5 183.5v12zM306 106q60 0 95 37.5t35 110.5q0 62 -36 99t-94 37t-93.5 -38t-35.5 -101v-6q0 -65 35 -102
t94 -37z" />
    <glyph glyph-name="emptyset" unicode="&#x2205;" horiz-adv-x="640" 
d="M478 465q52 -34 82 -89t30 -124v-8q0 -114 -77 -186t-193 -72q-28 0 -48 4l-42 -97l-108 46l40 92q-52 34 -82 89t-30 124v8q0 114 77 186t193 72q28 0 48 -4l42 97l108 -46zM176 241q0 -54 37 -93l105 242q-61 -1 -101.5 -39t-40.5 -96v-14zM464 241v14q0 54 -37 93
l-105 -242q61 1 101.5 39t40.5 96z" />
    <glyph glyph-name="product" unicode="&#x220f;" 
d="M65 0v700h490v-700h-132v574h-226v-574h-132z" />
    <glyph glyph-name="summation" unicode="&#x2211;" 
d="M64 580v120h492v-124h-292v-18l152 -158v-100l-152 -158v-18h292v-124h-492v120l214 221v18z" />
    <glyph glyph-name="minus" unicode="&#x2212;" 
d="M101 407h418v-114h-418v114z" />
    <glyph glyph-name="radical" unicode="&#x221a;" 
d="M28 298v114h210l63 -298h18l147 742h126l-175 -856h-216l-63 298h-110z" />
    <glyph glyph-name="infinity" unicode="&#x221e;" 
d="M38 350q0 68 47 115.5t111 47.5q72 0 105 -48h18q33 48 105 48q65 0 111.5 -48t46.5 -115q0 -68 -47 -115.5t-111 -47.5q-72 0 -105 48h-18q-33 -48 -105 -48q-65 0 -111.5 48.5t-46.5 114.5zM256 350q0 23 -16 39t-39 16t-39 -16t-16 -39t16 -39t39 -16t39 16t16 39z
M364 350q0 -23 16 -39t39 -16t39 16t16 39t-16 39t-39 16t-39 -16t-16 -39z" />
    <glyph glyph-name="integral" unicode="&#x222b;" 
d="M373 550v-648q0 -43 -29 -72.5t-72 -29.5h-139v120h87q27 0 27 30v648q0 43 29 72.5t72 29.5h139v-120h-87q-27 0 -27 -30z" />
    <glyph glyph-name="approxequal" unicode="&#x2248;" 
d="M341 510q13 -21 20.5 -28t21.5 -7q17 0 39 19l70 51l70 -93l-105 -80q-42 -35 -89 -35q-62 0 -86 41q-13 21 -20.5 28t-21.5 7q-17 0 -39 -19l-70 -51l-70 93l105 80q42 35 89 35q62 0 86 -41zM341 284q13 -21 20.5 -28t21.5 -7q17 0 39 19l70 51l70 -93l-105 -80
q-42 -35 -89 -35q-62 0 -86 41q-13 21 -20.5 28t-21.5 7q-17 0 -39 -19l-73 -53l-70 93l108 82q42 35 89 35q62 0 86 -41z" />
    <glyph glyph-name="notequal" unicode="&#x2260;" 
d="M101 380v114h194l33 99l113 -35l-21 -64h99v-114h-137l-20 -60h157v-114h-195l-32 -99l-113 35l21 64h-99v114h136l20 60h-156z" />
    <glyph glyph-name="lessequal" unicode="&#x2264;" 
d="M100 272v156l420 142v-120l-298 -91v-18l298 -91v-120zM101 0v108h418v-108h-418z" />
    <glyph glyph-name="greaterequal" unicode="&#x2265;" 
d="M520 272l-420 -142v120l298 91v18l-298 91v120l420 -142v-156zM519 0h-418v108h418v-108z" />
    <glyph glyph-name="lozenge" unicode="&#x25ca;" 
d="M43 350l166 350h202l166 -350l-166 -350h-202zM184 350l117 -252h18l117 252l-117 252h-18z" />
    <glyph glyph-name="uniE132" unicode="&#xe132;" horiz-adv-x="480" 
d="M97 700h142l-88 -130h-108zM339 700h142l-88 -130h-108zM182 496v-496h-126v496h126zM424 496v-600q0 -42 -28 -69t-70 -27h-142v106h86q28 0 28 30v560h126z" />
    <glyph glyph-name="uniE133" unicode="&#xe133;" horiz-adv-x="566" 
d="M97 880h142l-88 -120h-108zM425 880h142l-88 -120h-108zM53 700h132v-358h-132v358zM381 700h132v-490q0 -108 -59 -166t-164 -58q-110 0 -173.5 59.5t-63.5 164.5v36h132v-36q0 -48 26.5 -74t74.5 -26q46 0 70.5 26t24.5 74v490z" />
    <glyph glyph-name="A.ss03" horiz-adv-x="604" 
d="M179 700h246l175 -700h-136l-36 154h-252l-36 -154h-136zM205 276h194l-91 384h-12z" />
    <glyph glyph-name="Aacute.ss03" horiz-adv-x="604" 
d="M280 880h142l-88 -120h-108zM179 700h246l175 -700h-136l-36 154h-252l-36 -154h-136zM205 276h194l-91 384h-12z" />
    <glyph glyph-name="Abreve.ss03" horiz-adv-x="604" 
d="M344 880h90v-8q0 -56 -36 -89t-96 -33t-96 33t-36 89v8h90v-2q0 -40 42 -40t42 40v2zM179 700h246l175 -700h-136l-36 154h-252l-36 -154h-136zM205 276h194l-91 384h-12z" />
    <glyph glyph-name="Acircumflex.ss03" horiz-adv-x="604" 
d="M351 760l-43 60h-12l-43 -60h-123l94 120h156l94 -120h-123zM179 700h246l175 -700h-136l-36 154h-252l-36 -154h-136zM205 276h194l-91 384h-12z" />
    <glyph glyph-name="Adieresis.ss03" horiz-adv-x="604" 
d="M105 822q0 38 25.5 62t63.5 24t63.5 -24t25.5 -62t-25.5 -62t-63.5 -24t-63.5 24t-25.5 62zM321 822q0 38 25.5 62t63.5 24t63.5 -24t25.5 -62t-25.5 -62t-63.5 -24t-63.5 24t-25.5 62zM179 700h246l175 -700h-136l-36 154h-252l-36 -154h-136zM205 276h194l-91 384h-12z
" />
    <glyph glyph-name="Agrave.ss03" horiz-adv-x="604" 
d="M324 880l54 -120h-108l-88 120h142zM179 700h246l175 -700h-136l-36 154h-252l-36 -154h-136zM205 276h194l-91 384h-12z" />
    <glyph glyph-name="Amacron.ss03" horiz-adv-x="604" 
d="M449 862v-102h-294v102h294zM179 700h246l175 -700h-136l-36 154h-252l-36 -154h-136zM205 276h194l-91 384h-12z" />
    <glyph glyph-name="Aogonek.ss03" horiz-adv-x="604" 
d="M593 -86h46v-84h-80q-32 0 -56 20t-24 55q0 9 3 23l16 72h-34l-36 154h-252l-36 -154h-136l175 700h246l175 -700h-16l-13 -56q-1 -3 -1 -8q0 -22 23 -22zM205 276h194l-91 384h-12z" />
    <glyph glyph-name="Aring.ss03" horiz-adv-x="604" 
d="M194 840q0 44 31 74t77 30t77 -29.5t31 -74.5q0 -46 -32 -75t-76 -29q-45 0 -76.5 30t-31.5 74zM272 840q0 -13 8.5 -21.5t21.5 -8.5t21.5 8.5t8.5 21.5t-8.5 21.5t-21.5 8.5t-21.5 -8.5t-8.5 -21.5zM179 700h246l175 -700h-136l-36 154h-252l-36 -154h-136zM205 276h194
l-91 384h-12z" />
    <glyph glyph-name="Aringacute.ss03" horiz-adv-x="604" 
d="M302 736q-45 0 -76.5 30t-31.5 74q0 43 28.5 72t72.5 32l25 56h142l-72 -98q20 -26 20 -62q0 -46 -32 -75t-76 -29zM302 810q13 0 21.5 8.5t8.5 21.5t-8.5 21.5t-21.5 8.5t-21.5 -8.5t-8.5 -21.5t8.5 -21.5t21.5 -8.5zM425 700l175 -700h-136l-36 154h-252l-36 -154h-136
l175 700h246zM205 276h194l-91 384h-12z" />
    <glyph glyph-name="Atilde.ss03" horiz-adv-x="604" 
d="M102 795l56 72q34 44 82 44q44 0 78 -38l4 -4t4 -4.5t3.5 -4t4.5 -4t4.5 -3t5 -2.5t6 -1.5t6.5 -0.5q21 0 39 24l30 38l77 -61l-56 -72q-35 -44 -82 -44q-44 0 -78 38l-4 4t-4 4.5t-3.5 4t-4.5 4t-4.5 3t-5 2.5t-6 1.5t-6.5 0.5q-21 0 -39 -24l-30 -38zM179 700h246
l175 -700h-136l-36 154h-252l-36 -154h-136zM205 276h194l-91 384h-12z" />
    <glyph glyph-name="AE.ss03" horiz-adv-x="548" 
d="M398 120h122v-120h-254v156h-102l-28 -156h-134l137 700h375v-120h-116v-169h90v-120h-90v-171zM266 276v384h-12l-69 -384h81z" />
    <glyph glyph-name="AEacute.ss03" horiz-adv-x="548" 
d="M436 880l-88 -120h-108l54 120h142zM398 120h122v-120h-254v156h-102l-28 -156h-134l137 700h375v-120h-116v-169h90v-120h-90v-171zM266 276v384h-12l-69 -384h81z" />
    <glyph glyph-name="M.ss03" horiz-adv-x="880" 
d="M58 700h252l124 -660h12l124 660h252v-700h-128v660h-12l-124 -660h-236l-124 660h-12v-660h-128v700z" />
    <glyph glyph-name="N.ss03" horiz-adv-x="654" 
d="M58 700h260l134 -660h12v660h132v-700h-260l-134 660h-12v-660h-132v700z" />
    <glyph glyph-name="Nacute.ss03" horiz-adv-x="654" 
d="M304 880h142l-88 -120h-108zM58 700h260l134 -660h12v660h132v-700h-260l-134 660h-12v-660h-132v700z" />
    <glyph glyph-name="Ncaron.ss03" horiz-adv-x="654" 
d="M375 884h123l-94 -120h-156l-94 120h123l43 -60h12zM58 700h260l134 -660h12v660h132v-700h-260l-134 660h-12v-660h-132v700z" />
    <glyph glyph-name="uni0145.ss03" horiz-adv-x="654" 
d="M58 700h260l134 -660h12v660h132v-700h-260l-134 660h-12v-660h-132v700zM233 -146q0 42 27 69t68 27t68 -26.5t27 -67.5v-117q0 -38 -25.5 -64t-63.5 -26h-95v68h77q29 0 29 28v20q-8 -2 -19 -2q-39 0 -66 26t-27 65z" />
    <glyph glyph-name="Eng.ss03" horiz-adv-x="654" 
d="M464 700h132v-798q0 -50 -27 -76t-74 -26h-206v114h145q30 0 30 33v53h-124l-138 640h-12v-640h-132v700h256l138 -640h12v640z" />
    <glyph glyph-name="Ntilde.ss03" horiz-adv-x="654" 
d="M126 795l56 72q34 44 82 44q44 0 78 -38l4 -4t4 -4.5t3.5 -4t4.5 -4t4.5 -3t5 -2.5t6 -1.5t6.5 -0.5q21 0 39 24l30 38l77 -61l-56 -72q-35 -44 -82 -44q-44 0 -78 38l-4 4t-4 4.5t-3.5 4t-4.5 4t-4.5 3t-5 2.5t-6 1.5t-6.5 0.5q-21 0 -39 -24l-30 -38zM58 700h260
l134 -660h12v660h132v-700h-260l-134 660h-12v-660h-132v700z" />
    <glyph glyph-name="V.ss03" horiz-adv-x="600" 
d="M4 700h136l154 -660h12l154 660h136l-173 -700h-246z" />
    <glyph glyph-name="W.ss03" horiz-adv-x="896" 
d="M14 700h132l74 -660h12l97 660h238l97 -660h12l74 660h132l-91 -700h-240l-97 660h-12l-97 -660h-240z" />
    <glyph glyph-name="Wacute.ss03" horiz-adv-x="896" 
d="M426 880h142l-88 -120h-108zM14 700h132l74 -660h12l97 660h238l97 -660h12l74 660h132l-91 -700h-240l-97 660h-12l-97 -660h-240z" />
    <glyph glyph-name="Wcircumflex.ss03" horiz-adv-x="896" 
d="M497 760l-43 60h-12l-43 -60h-123l94 120h156l94 -120h-123zM14 700h132l74 -660h12l97 660h238l97 -660h12l74 660h132l-91 -700h-240l-97 660h-12l-97 -660h-240z" />
    <glyph glyph-name="Wdieresis.ss03" horiz-adv-x="896" 
d="M251 822q0 38 25.5 62t63.5 24t63.5 -24t25.5 -62t-25.5 -62t-63.5 -24t-63.5 24t-25.5 62zM467 822q0 38 25.5 62t63.5 24t63.5 -24t25.5 -62t-25.5 -62t-63.5 -24t-63.5 24t-25.5 62zM14 700h132l74 -660h12l97 660h238l97 -660h12l74 660h132l-91 -700h-240l-97 660
h-12l-97 -660h-240z" />
    <glyph glyph-name="Wgrave.ss03" horiz-adv-x="896" 
d="M470 880l54 -120h-108l-88 120h142zM14 700h132l74 -660h12l97 660h238l97 -660h12l74 660h132l-91 -700h-240l-97 660h-12l-97 -660h-240z" />
    <glyph glyph-name="I.ss04" horiz-adv-x="420" 
d="M30 700h360v-116h-114v-468h114v-116h-360v116h114v468h-114v116z" />
    <glyph glyph-name="IJ.ss04" horiz-adv-x="697" 
d="M30 700h292v-120h-80v-238h-132v238h-80v120zM390 700h292v-120h-80v-370q0 -108 -63 -166t-176 -58q-118 0 -185.5 59.5t-67.5 164.5v50h132v-50q0 -47 30.5 -73.5t86.5 -26.5q53 0 82 26t29 74v370h-80v120z" />
    <glyph glyph-name="Iacute.ss04" horiz-adv-x="420" 
d="M188 880h142l-88 -120h-108zM30 700h360v-116h-114v-468h114v-116h-360v116h114v468h-114v116z" />
    <glyph glyph-name="Icircumflex.ss04" horiz-adv-x="420" 
d="M259 760l-43 60h-12l-43 -60h-123l94 120h156l94 -120h-123zM30 700h360v-116h-114v-468h114v-116h-360v116h114v468h-114v116z" />
    <glyph glyph-name="Idieresis.ss04" horiz-adv-x="420" 
d="M13 822q0 38 25.5 62t63.5 24t63.5 -24t25.5 -62t-25.5 -62t-63.5 -24t-63.5 24t-25.5 62zM229 822q0 38 25.5 62t63.5 24t63.5 -24t25.5 -62t-25.5 -62t-63.5 -24t-63.5 24t-25.5 62zM30 700h360v-116h-114v-468h114v-116h-360v116h114v468h-114v116z" />
    <glyph glyph-name="Idotaccent.ss04" horiz-adv-x="420" 
d="M121 822q0 38 25.5 62t63.5 24t63.5 -24t25.5 -62t-25.5 -62t-63.5 -24t-63.5 24t-25.5 62zM30 700h360v-116h-114v-468h114v-116h-360v116h114v468h-114v116z" />
    <glyph glyph-name="Igrave.ss04" horiz-adv-x="420" 
d="M232 880l54 -120h-108l-88 120h142zM30 700h360v-116h-114v-468h114v-116h-360v116h114v468h-114v116z" />
    <glyph glyph-name="Imacron.ss04" horiz-adv-x="420" 
d="M357 862v-102h-294v102h294zM30 700h360v-116h-114v-468h114v-116h-360v116h114v468h-114v116z" />
    <glyph glyph-name="Iogonek.ss04" horiz-adv-x="420" 
d="M390 584h-114v-468h114v-116h-139l-13 -56q-1 -3 -1 -8q0 -22 23 -22h46v-84h-80q-32 0 -56 20t-24 55q0 9 3 23l16 72h-135v116h114v468h-114v116h360v-116z" />
    <glyph glyph-name="J.ss04" horiz-adv-x="577" 
d="M222 700h340v-116h-80v-374q0 -108 -58.5 -166t-162.5 -58q-109 0 -172 59.5t-63 164.5v66h132v-66q0 -47 26 -73.5t73 -26.5q44 0 68.5 26t24.5 74v374h-128v116z" />
    <glyph glyph-name="R.ss05" horiz-adv-x="616" 
d="M58 700h304q98 0 158 -55t60 -144q0 -115 -108 -162v-12q41 -2 64.5 -27.5t23.5 -67.5v-232h-132v210q0 54 -54 54h-184v-264h-132v700zM190 580v-196h158q47 0 73.5 27t26.5 71t-26.5 71t-73.5 27h-158z" />
    <glyph glyph-name="Racute.ss05" horiz-adv-x="616" 
d="M275 880h142l-88 -120h-108zM58 700h304q98 0 158 -55t60 -144q0 -115 -108 -162v-12q41 -2 64.5 -27.5t23.5 -67.5v-232h-132v210q0 54 -54 54h-184v-264h-132v700zM190 580v-196h158q47 0 73.5 27t26.5 71t-26.5 71t-73.5 27h-158z" />
    <glyph glyph-name="Rcaron.ss05" horiz-adv-x="616" 
d="M346 884h123l-94 -120h-156l-94 120h123l43 -60h12zM58 700h304q98 0 158 -55t60 -144q0 -115 -108 -162v-12q41 -2 64.5 -27.5t23.5 -67.5v-232h-132v210q0 54 -54 54h-184v-264h-132v700zM190 580v-196h158q47 0 73.5 27t26.5 71t-26.5 71t-73.5 27h-158z" />
    <glyph glyph-name="uni0156.ss05" horiz-adv-x="616" 
d="M58 700h304q98 0 158 -55t60 -144q0 -115 -108 -162v-12q41 -2 64.5 -27.5t23.5 -67.5v-232h-132v210q0 54 -54 54h-184v-264h-132v700zM190 580v-196h158q47 0 73.5 27t26.5 71t-26.5 71t-73.5 27h-158zM212 -146q0 42 27 69t68 27t68 -26.5t27 -67.5v-117
q0 -38 -25.5 -64t-63.5 -26h-95v68h77q29 0 29 28v20q-8 -2 -19 -2q-39 0 -66 26t-27 65z" />
    <glyph glyph-name="i.loclTRK" horiz-adv-x="238" 
d="M30 640q0 38 25.5 62t63.5 24t63.5 -24t25.5 -62t-25.5 -62t-63.5 -24t-63.5 24t-25.5 62zM182 496v-496h-126v496h126z" />
    <glyph glyph-name="uni006A0301" horiz-adv-x="242" 
d="M101 700h142l-88 -130h-108zM186 496v-600q0 -42 -28 -69t-70 -27h-142v106h86q28 0 28 30v560h126z" />
    <glyph glyph-name="a.ss01" horiz-adv-x="606" 
d="M550 0h-124v70h-14q-52 -84 -158 -84q-94 0 -161 75t-67 187t67 187t161 75q106 0 158 -84h14v70h124v-496zM288 98q60 0 98 40.5t38 109.5t-38 109.5t-98 40.5q-59 0 -97.5 -40t-38.5 -110t38.5 -110t97.5 -40z" />
    <glyph glyph-name="aacute.ss01" horiz-adv-x="606" 
d="M280 700h142l-88 -130h-108zM550 0h-124v70h-14q-52 -84 -158 -84q-94 0 -161 75t-67 187t67 187t161 75q106 0 158 -84h14v70h124v-496zM288 98q60 0 98 40.5t38 109.5t-38 109.5t-98 40.5q-59 0 -97.5 -40t-38.5 -110t38.5 -110t97.5 -40z" />
    <glyph glyph-name="abreve.ss01" horiz-adv-x="606" 
d="M344 700h90v-20q0 -56 -36 -89t-96 -33t-96 33t-36 89v20h90v-12q0 -19 11 -30.5t31 -11.5t31 11.5t11 30.5v12zM550 0h-124v70h-14q-52 -84 -158 -84q-94 0 -161 75t-67 187t67 187t161 75q106 0 158 -84h14v70h124v-496zM288 98q60 0 98 40.5t38 109.5t-38 109.5
t-98 40.5q-59 0 -97.5 -40t-38.5 -110t38.5 -110t97.5 -40z" />
    <glyph glyph-name="acircumflex.ss01" horiz-adv-x="606" 
d="M351 570l-43 64h-12l-43 -64h-123l94 130h156l94 -130h-123zM550 0h-124v70h-14q-52 -84 -158 -84q-94 0 -161 75t-67 187t67 187t161 75q106 0 158 -84h14v70h124v-496zM288 98q60 0 98 40.5t38 109.5t-38 109.5t-98 40.5q-59 0 -97.5 -40t-38.5 -110t38.5 -110
t97.5 -40z" />
    <glyph glyph-name="adieresis.ss01" horiz-adv-x="606" 
d="M108 640q0 38 25.5 62t63.5 24t63.5 -24t25.5 -62t-25.5 -62t-63.5 -24t-63.5 24t-25.5 62zM318 640q0 38 25.5 62t63.5 24t63.5 -24t25.5 -62t-25.5 -62t-63.5 -24t-63.5 24t-25.5 62zM550 0h-124v70h-14q-52 -84 -158 -84q-94 0 -161 75t-67 187t67 187t161 75
q106 0 158 -84h14v70h124v-496zM288 98q60 0 98 40.5t38 109.5t-38 109.5t-98 40.5q-59 0 -97.5 -40t-38.5 -110t38.5 -110t97.5 -40z" />
    <glyph glyph-name="agrave.ss01" horiz-adv-x="606" 
d="M324 700l54 -130h-108l-88 130h142zM550 0h-124v70h-14q-52 -84 -158 -84q-94 0 -161 75t-67 187t67 187t161 75q106 0 158 -84h14v70h124v-496zM288 98q60 0 98 40.5t38 109.5t-38 109.5t-98 40.5q-59 0 -97.5 -40t-38.5 -110t38.5 -110t97.5 -40z" />
    <glyph glyph-name="amacron.ss01" horiz-adv-x="606" 
d="M449 672v-102h-294v102h294zM550 0h-124v70h-14q-52 -84 -158 -84q-94 0 -161 75t-67 187t67 187t161 75q106 0 158 -84h14v70h124v-496zM288 98q60 0 98 40.5t38 109.5t-38 109.5t-98 40.5q-59 0 -97.5 -40t-38.5 -110t38.5 -110t97.5 -40z" />
    <glyph glyph-name="aogonek.ss01" horiz-adv-x="606" 
d="M538 -86h46v-84h-80q-32 0 -56 20t-24 55q0 9 3 23l16 72h-17v70h-14q-52 -84 -158 -84q-94 0 -161 75t-67 187t67 187t161 75q106 0 158 -84h14v70h124v-496h-21l-13 -56q-1 -3 -1 -8q0 -22 23 -22zM288 98q60 0 98 40.5t38 109.5t-38 109.5t-98 40.5q-59 0 -97.5 -40
t-38.5 -110t38.5 -110t97.5 -40z" />
    <glyph glyph-name="aring.ss01" horiz-adv-x="606" 
d="M194 639q0 44 31 74t77 30t77 -29.5t31 -74.5q0 -46 -32 -75t-76 -29q-45 0 -76.5 30t-31.5 74zM272 639q0 -13 8.5 -21.5t21.5 -8.5t21.5 8.5t8.5 21.5t-8.5 21.5t-21.5 8.5t-21.5 -8.5t-8.5 -21.5zM550 0h-124v70h-14q-52 -84 -158 -84q-94 0 -161 75t-67 187t67 187
t161 75q106 0 158 -84h14v70h124v-496zM288 98q60 0 98 40.5t38 109.5t-38 109.5t-98 40.5q-59 0 -97.5 -40t-38.5 -110t38.5 -110t97.5 -40z" />
    <glyph glyph-name="aringacute.ss01" horiz-adv-x="606" 
d="M302 535q-45 0 -76.5 30t-31.5 74q0 41 27.5 70t68.5 33l36 88h142l-83 -123q25 -27 25 -68q0 -46 -32 -75t-76 -29zM302 669q-13 0 -21.5 -8.5t-8.5 -21.5t8.5 -21.5t21.5 -8.5t21.5 8.5t8.5 21.5t-8.5 21.5t-21.5 8.5zM426 496h124v-496h-124v70h-14q-52 -84 -158 -84
q-94 0 -161 75t-67 187t67 187t161 75q106 0 158 -84h14v70zM288 98q60 0 98 40.5t38 109.5t-38 109.5t-98 40.5q-59 0 -97.5 -40t-38.5 -110t38.5 -110t97.5 -40z" />
    <glyph glyph-name="atilde.ss01" horiz-adv-x="606" 
d="M102 617l56 72q34 44 86 44q39 0 74 -38l4 -4t4 -4.5t3.5 -4t4.5 -4t4.5 -3t5 -2.5t6 -1.5t6.5 -0.5q21 0 39 24l30 38l77 -61l-56 -72q-34 -44 -86 -44q-39 0 -74 38l-4 4t-4 4.5t-3.5 4t-4.5 4t-4.5 3t-5 2.5t-6 1.5t-6.5 0.5q-21 0 -39 -24l-30 -38zM550 0h-124v70
h-14q-52 -84 -158 -84q-94 0 -161 75t-67 187t67 187t161 75q106 0 158 -84h14v70h124v-496zM288 98q60 0 98 40.5t38 109.5t-38 109.5t-98 40.5q-59 0 -97.5 -40t-38.5 -110t38.5 -110t97.5 -40z" />
    <glyph glyph-name="g.ss02" horiz-adv-x="606" 
d="M426 496h124v-600q0 -42 -28 -69t-70 -27h-380v108h324q28 0 28 30v148h-12q-52 -84 -158 -84q-95 0 -161.5 72.5t-66.5 181.5t66.5 181.5t161.5 72.5q106 0 158 -84h14v70zM288 114q60 0 98 38t38 104t-38 104t-98 38q-59 0 -97.5 -37.5t-38.5 -104.5t38.5 -104.5
t97.5 -37.5z" />
    <glyph glyph-name="gbreve.ss02" horiz-adv-x="606" 
d="M306 558q-60 0 -96 33t-36 89v20h90v-12q0 -19 11 -30.5t31 -11.5t31 11.5t11 30.5v12h90v-20q0 -56 -36 -89t-96 -33zM426 496h124v-600q0 -42 -28 -69t-70 -27h-380v108h324q28 0 28 30v148h-12q-52 -84 -158 -84q-95 0 -161.5 72.5t-66.5 181.5t66.5 181.5t161.5 72.5
q106 0 158 -84h14v70zM288 114q60 0 98 38t38 104t-38 104t-98 38q-59 0 -97.5 -37.5t-38.5 -104.5t38.5 -104.5t97.5 -37.5z" />
    <glyph glyph-name="uni0123.ss02" horiz-adv-x="606" 
d="M306 545q-41 0 -68 26.5t-27 67.5v117q0 38 25.5 64t63.5 26h95v-68h-77q-29 0 -29 -28v-20q8 2 19 2q39 0 66 -26t27 -65q0 -42 -27 -69t-68 -27zM426 496h124v-600q0 -42 -28 -69t-70 -27h-380v108h324q28 0 28 30v148h-12q-52 -84 -158 -84q-95 0 -161.5 72.5
t-66.5 181.5t66.5 181.5t161.5 72.5q106 0 158 -84h14v70zM288 114q60 0 98 38t38 104t-38 104t-98 38q-59 0 -97.5 -37.5t-38.5 -104.5t38.5 -104.5t97.5 -37.5z" />
    <glyph glyph-name="gdotaccent.ss02" horiz-adv-x="606" 
d="M306 554q-38 0 -63.5 24t-25.5 62t25.5 62t63.5 24t63.5 -24t25.5 -62t-25.5 -62t-63.5 -24zM426 496h124v-600q0 -42 -28 -69t-70 -27h-380v108h324q28 0 28 30v148h-12q-52 -84 -158 -84q-95 0 -161.5 72.5t-66.5 181.5t66.5 181.5t161.5 72.5q106 0 158 -84h14v70z
M288 114q60 0 98 38t38 104t-38 104t-98 38q-59 0 -97.5 -37.5t-38.5 -104.5t38.5 -104.5t97.5 -37.5z" />
    <glyph glyph-name="v.ss03" horiz-adv-x="536" 
d="M4 496h136l122 -456h12l122 456h136l-150 -496h-228z" />
    <glyph glyph-name="w.ss03" horiz-adv-x="752" 
d="M18 496h126l47 -456h12l63 456h220l63 -456h12l47 456h126l-65 -496h-224l-63 456h-12l-63 -456h-224z" />
    <glyph glyph-name="wacute.ss03" horiz-adv-x="752" 
d="M354 700h142l-88 -130h-108zM18 496h126l47 -456h12l63 456h220l63 -456h12l47 456h126l-65 -496h-224l-63 456h-12l-63 -456h-224z" />
    <glyph glyph-name="wcircumflex.ss03" horiz-adv-x="752" 
d="M425 570l-43 64h-12l-43 -64h-123l94 130h156l94 -130h-123zM18 496h126l47 -456h12l63 456h220l63 -456h12l47 456h126l-65 -496h-224l-63 456h-12l-63 -456h-224z" />
    <glyph glyph-name="wdieresis.ss03" horiz-adv-x="752" 
d="M182 640q0 38 25.5 62t63.5 24t63.5 -24t25.5 -62t-25.5 -62t-63.5 -24t-63.5 24t-25.5 62zM392 640q0 38 25.5 62t63.5 24t63.5 -24t25.5 -62t-25.5 -62t-63.5 -24t-63.5 24t-25.5 62zM18 496h126l47 -456h12l63 456h220l63 -456h12l47 456h126l-65 -496h-224l-63 456
h-12l-63 -456h-224z" />
    <glyph glyph-name="wgrave.ss03" horiz-adv-x="752" 
d="M398 700l54 -130h-108l-88 130h142zM18 496h126l47 -456h12l63 456h220l63 -456h12l47 456h126l-65 -496h-224l-63 456h-12l-63 -456h-224z" />
    <glyph glyph-name="y.ss03" horiz-adv-x="548" 
d="M408 496h136l-213 -696h-136l69 200h-108l-152 496h136l128 -456h12z" />
    <glyph glyph-name="yacute.ss03" horiz-adv-x="548" 
d="M394 700l-88 -130h-108l54 130h142zM408 496h136l-213 -696h-136l69 200h-108l-152 496h136l128 -456h12z" />
    <glyph glyph-name="ycircumflex.ss03" horiz-adv-x="548" 
d="M268 634l-43 -64h-123l94 130h156l94 -130h-123l-43 64h-12zM408 496h136l-213 -696h-136l69 200h-108l-152 496h136l128 -456h12z" />
    <glyph glyph-name="ydieresis.ss03" horiz-adv-x="548" 
d="M169 554q-38 0 -63.5 24t-25.5 62t25.5 62t63.5 24t63.5 -24t25.5 -62t-25.5 -62t-63.5 -24zM379 554q-38 0 -63.5 24t-25.5 62t25.5 62t63.5 24t63.5 -24t25.5 -62t-25.5 -62t-63.5 -24zM408 496h136l-213 -696h-136l69 200h-108l-152 496h136l128 -456h12z" />
    <glyph glyph-name="ygrave.ss03" horiz-adv-x="548" 
d="M350 570h-108l-88 130h142zM408 496h136l-213 -696h-136l69 200h-108l-152 496h136l128 -456h12z" />
    <glyph glyph-name="zero.lf" horiz-adv-x="596" 
d="M30 432q0 132 73 207t195 75t195 -75t73 -207v-164q0 -135 -72.5 -208.5t-195.5 -73.5t-195.5 73.5t-72.5 208.5v164zM162 438v-176q0 -76 34.5 -117t101.5 -41q68 0 102 42t34 116v176q0 73 -37 115.5t-99 42.5q-63 0 -99.5 -43.5t-36.5 -114.5z" />
    <glyph glyph-name="one.lf" horiz-adv-x="438" 
d="M180 700h200v-700h-132v560h-12l-98 -176h-138z" />
    <glyph glyph-name="two.lf" horiz-adv-x="568" 
d="M28 466q0 118 75.5 183t187.5 65q106 0 179.5 -63.5t73.5 -168.5q0 -99 -57 -154.5t-173 -84.5q-82 -21 -116 -43t-34 -68v-12h376v-120h-508v120q0 90 57.5 142.5t162.5 81.5q82 22 121 53t39 89q0 51 -32.5 80.5t-86.5 29.5q-58 0 -95.5 -33.5t-37.5 -98.5v-22h-132v24
z" />
    <glyph glyph-name="three.lf" horiz-adv-x="572" 
d="M38 700h496v-116l-194 -158v-12h26q77 0 130.5 -51.5t53.5 -142.5q0 -106 -73 -170t-191 -64q-123 0 -195.5 66t-72.5 172v28h132v-24q0 -53 36 -88.5t100 -35.5q61 0 96.5 32.5t35.5 83.5q0 49 -31 74.5t-83 25.5h-122v118l173 142h-317v120z" />
    <glyph glyph-name="four.lf" horiz-adv-x="606" 
d="M280 700h206v-442h114v-120h-114v-138h-132v138h-348v116zM342 586l-198 -328h210v328h-12z" />
    <glyph glyph-name="five.lf" horiz-adv-x="568" 
d="M46 700h476v-120h-344v-182h12q52 74 151 74q86 0 146.5 -61t60.5 -162q0 -118 -72 -190.5t-188 -72.5q-119 0 -192.5 67t-73.5 177v18h132v-10q0 -61 34 -97.5t96 -36.5q61 0 96.5 37.5t35.5 101.5q0 54 -30.5 85.5t-78.5 31.5q-64 0 -88 -48h-173v388z" />
    <glyph glyph-name="six.lf" horiz-adv-x="566" 
d="M546 230q0 -108 -72.5 -174.5t-187.5 -68.5q-111 -2 -183.5 64t-72.5 168v245q0 120 73 185t189 65q111 0 179.5 -59.5t68.5 -162.5h-134q0 47 -29.5 75.5t-84.5 28.5q-62 0 -96 -32t-34 -92v-80h12q47 66 150 66q96 0 159 -64.5t63 -163.5zM288 355q-57 0 -91.5 -34
t-34.5 -91q0 -58 35 -91.5t91 -33.5q55 0 90.5 34.5t35.5 90.5q0 57 -34.5 91t-91.5 34z" />
    <glyph glyph-name="seven.lf" horiz-adv-x="528" 
d="M4 700h520v-116l-272 -584h-146l268 580h-370v120z" />
    <glyph glyph-name="eight.lf" horiz-adv-x="568" 
d="M32 523q0 83 70 137t182 54t182 -54t70 -137q0 -109 -112 -156v-12q49 -14 85.5 -57.5t36.5 -108.5q0 -91 -73.5 -147t-188.5 -56t-188.5 56t-73.5 147q0 65 36.5 108.5t85.5 57.5v12q-112 47 -112 156zM164 507q0 -41 33 -65t87 -24t87 24t33 65t-33 65t-87 24t-87 -24
t-33 -65zM154 202q0 -44 34 -71t96 -27t96 27t34 71t-34 71t-96 27t-96 -27t-34 -71z" />
    <glyph glyph-name="nine.lf" horiz-adv-x="568" 
d="M22 471q0 108 72.5 174.5t187.5 68.5q111 2 183.5 -64t72.5 -168v-245q0 -120 -73 -185t-189 -65q-111 0 -179.5 59.5t-68.5 162.5h134q0 -46 29.5 -75t84.5 -29q62 0 96 32t34 92v80h-12q-47 -66 -150 -66q-96 0 -159 64.5t-63 163.5zM280 346q57 0 91.5 34t34.5 91
q0 58 -35 91.5t-91 33.5q-55 0 -90.5 -34.5t-35.5 -90.5q0 -57 34.5 -91t91.5 -34z" />
    <glyph glyph-name="one.lf.ss03" horiz-adv-x="438" 
d="M132 700h248v-700h-132v640h-12l-98 -256h-138z" />
    <glyph glyph-name="zero.lf.zero" horiz-adv-x="596" 
d="M298 714q122 0 195 -75t73 -207v-164q0 -135 -72.5 -208.5t-195.5 -73.5t-195.5 73.5t-72.5 208.5v164q0 132 73 207t195 75zM298 596q-63 0 -99.5 -43.5t-36.5 -114.5v-128l265 186q-13 47 -46.5 73.5t-82.5 26.5zM298 104q68 0 102 42t34 116v128l-266 -187
q25 -99 130 -99z" />
    <glyph glyph-name="zero.osf" horiz-adv-x="584" 
d="M26 248q0 117 76 189.5t190 72.5t190 -72.5t76 -189.5t-76 -189.5t-190 -72.5t-190 72.5t-76 189.5zM158 248q0 -61 38 -102.5t96 -41.5t96 41.5t38 102.5t-38 102.5t-96 41.5t-96 -41.5t-38 -102.5z" />
    <glyph glyph-name="one.osf" horiz-adv-x="400" 
d="M116 496h228v-496h-132v402h-12l-60 -128h-128v12z" />
    <glyph glyph-name="two.osf" horiz-adv-x="564" 
d="M28 367q66 74 136 108.5t159 34.5q103 0 157 -47t54 -122q0 -79 -52.5 -117.5t-148.5 -49.5q-116 -12 -137 -20q-26 -12 -32 -34h366v-120h-500v44q0 109 61.5 160.5t194.5 64.5q63 6 89.5 19.5t26.5 42.5q0 59 -94 59q-50 0 -98.5 -26t-81.5 -71z" />
    <glyph glyph-name="three.osf" horiz-adv-x="580" 
d="M150 30q2 -53 38 -86.5t98 -33.5q61 0 96.5 31.5t35.5 80.5q0 48 -31 74t-83 26h-122v110l168 144h-312v120h496v-112l-186 -156v-12h15q77 0 132 -51.5t55 -140.5q0 -104 -73 -168t-191 -64t-189.5 60.5t-78.5 159.5z" />
    <glyph glyph-name="four.osf" horiz-adv-x="596" 
d="M266 496h214v-376h114v-120h-114v-200h-132v200h-328v112zM336 392l-174 -272h186v272h-12z" />
    <glyph glyph-name="five.osf" horiz-adv-x="580" 
d="M158 28q3 -57 37 -90.5t93 -33.5q61 0 96.5 37.5t35.5 101.5q0 54 -30.5 85.5t-78.5 31.5q-64 0 -88 -48h-173v384h476v-120h-344v-178h12q52 74 151 74q86 0 146.5 -61t60.5 -162q0 -118 -72 -190.5t-188 -72.5q-114 0 -186.5 61.5t-78.5 164.5z" />
    <glyph glyph-name="six.osf" horiz-adv-x="582" 
d="M415 511l133 17q-13 87 -80 136.5t-168 49.5q-116 0 -190 -65t-74 -185v-245q0 -102 72.5 -168t183.5 -64q115 2 187.5 68.5t72.5 174.5q0 99 -63 163.5t-159 64.5q-103 0 -150 -66h-12v80q0 60 34.5 92t97.5 32q50 0 79.5 -23t35.5 -62zM294 355q57 0 91.5 -34t34.5 -91
q0 -56 -35.5 -90.5t-90.5 -34.5q-56 0 -91 33.5t-35 91.5q0 57 34.5 91t91.5 34z" />
    <glyph glyph-name="seven.osf" horiz-adv-x="552" 
d="M16 496h520v-116l-272 -580h-146l268 576h-370v120z" />
    <glyph glyph-name="eight.osf" horiz-adv-x="580" 
d="M38 523q0 83 70 137t182 54t182 -54t70 -137q0 -109 -112 -156v-12q49 -14 85.5 -57.5t36.5 -108.5q0 -91 -73.5 -147t-188.5 -56t-188.5 56t-73.5 147q0 65 36.5 108.5t85.5 57.5v12q-112 47 -112 156zM170 507q0 -41 33 -65t87 -24t87 24t33 65t-33 65t-87 24t-87 -24
t-33 -65zM160 202q0 -44 34 -71t96 -27t96 27t34 71t-34 71t-96 27t-96 -27t-34 -71z" />
    <glyph glyph-name="nine.osf" horiz-adv-x="582" 
d="M172 -13q6 -38 35 -60.5t77 -22.5q62 0 96 32t34 92v77h-12q-47 -66 -150 -66q-96 0 -159 64.5t-63 163.5q0 108 72.5 174.5t187.5 68.5q111 2 183.5 -64t72.5 -168v-242q0 -120 -73 -185t-189 -65q-100 0 -166.5 49t-78.5 136zM288 142q57 0 91.5 34t34.5 91
q0 58 -35 91.5t-91 33.5q-55 0 -90.5 -34.5t-35.5 -90.5q0 -57 34.5 -91t91.5 -34z" />
    <glyph glyph-name="one.osf.ss03" horiz-adv-x="400" 
d="M98 496h246v-496h-132v436h-12l-60 -162h-128z" />
    <glyph glyph-name="zero.osf.zero" horiz-adv-x="584" 
d="M292 510q114 0 190 -72.5t76 -189.5t-76 -189.5t-190 -72.5t-190 72.5t-76 189.5t76 189.5t190 72.5zM292 392q-58 0 -96 -41.5t-38 -102.5q0 -20 4 -36l213 150q-35 30 -83 30zM292 104q58 0 96 41.5t38 102.5q0 20 -4 36l-213 -150q35 -30 83 -30z" />
    <glyph glyph-name="one.ss03" horiz-adv-x="438" 
d="M132 700h248v-700h-132v640h-12l-98 -256h-138z" />
    <glyph glyph-name="zero.tf" 
d="M54 432q0 132 69.5 207t186.5 75t186.5 -75t69.5 -207v-164q0 -135 -69 -208.5t-187 -73.5t-187 73.5t-69 208.5v164zM186 436v-172q0 -158 124 -158t124 158v172q0 73 -33 115.5t-91 42.5q-59 0 -91.5 -43.5t-32.5 -114.5z" />
    <glyph glyph-name="one.tf" 
d="M410 120h162v-120h-504v120h210v440h-12l-58 -176h-134l124 316h212v-580z" />
    <glyph glyph-name="two.tf" 
d="M54 466q0 118 75.5 183t187.5 65q106 0 179.5 -63.5t73.5 -168.5q0 -99 -57 -154.5t-173 -84.5q-82 -21 -116 -43t-34 -68v-12h376v-120h-508v120q0 90 57.5 142.5t162.5 81.5q82 22 121 53t39 89q0 50 -32 78t-87 28q-58 0 -95.5 -32.5t-37.5 -95.5v-22h-132v24z" />
    <glyph glyph-name="three.tf" 
d="M60 700h496v-120l-194 -154v-12h26q77 0 130.5 -51.5t53.5 -142.5q0 -106 -73 -170t-191 -64q-123 0 -195.5 66t-72.5 172v28h132v-22q0 -53 36 -87.5t100 -34.5q61 0 96.5 31t35.5 81q0 49 -31 74.5t-83 25.5h-122v118l171 138h-315v124z" />
    <glyph glyph-name="four.tf" 
d="M288 700h206v-442h114v-120h-114v-138h-132v138h-330v116zM350 586l-182 -328h194v328h-12z" />
    <glyph glyph-name="five.tf" 
d="M68 700h476v-124h-344v-178h12q52 74 151 74q86 0 146.5 -61t60.5 -162q0 -118 -72 -190.5t-188 -72.5q-119 0 -192.5 67t-73.5 177v18h132v-10q0 -60 34 -95t96 -35q61 0 96.5 36.5t35.5 98.5q0 54 -30.5 85.5t-78.5 31.5q-64 0 -88 -48h-173v388z" />
    <glyph glyph-name="six.tf" 
d="M572 230q0 -108 -72.5 -174.5t-187.5 -68.5q-111 -2 -183.5 64t-72.5 168v245q0 120 73 185t189 65q111 0 179.5 -59.5t68.5 -162.5h-134q0 45 -29.5 73.5t-84.5 28.5q-62 0 -96 -32t-34 -90v-80h12q47 66 150 66q96 0 159 -64.5t63 -163.5zM314 351q-57 0 -91.5 -33
t-34.5 -88q0 -56 35 -88.5t91 -32.5q55 0 90.5 33t35.5 88t-34.5 88t-91.5 33z" />
    <glyph glyph-name="seven.tf" 
d="M36 700h548v-118l-286 -582h-146l282 578h-398v122z" />
    <glyph glyph-name="eight.tf" 
d="M58 523q0 83 70 137t182 54t182 -54t70 -137q0 -109 -112 -156v-12q49 -14 85.5 -57.5t36.5 -108.5q0 -91 -73.5 -147t-188.5 -56t-188.5 56t-73.5 147q0 65 36.5 108.5t85.5 57.5v12q-112 47 -112 156zM190 506q0 -40 33 -63t87 -23t87 23t33 63t-33 63t-87 23t-87 -23
t-33 -63zM180 203q0 -43 34 -69t96 -26t96 26t34 69t-34 69t-96 26t-96 -26t-34 -69z" />
    <glyph glyph-name="nine.tf" 
d="M48 471q0 108 72.5 174.5t187.5 68.5q111 2 183.5 -64t72.5 -168v-245q0 -120 -73 -185t-189 -65q-111 0 -179.5 59.5t-68.5 162.5h134q0 -45 29.5 -73.5t84.5 -28.5q62 0 96 32t34 90v80h-12q-47 -66 -150 -66q-96 0 -159 64.5t-63 163.5zM306 350q57 0 91.5 33t34.5 88
q0 56 -35 88.5t-91 32.5q-55 0 -90.5 -33t-35.5 -88t34.5 -88t91.5 -33z" />
    <glyph glyph-name="one.tf.ss03" 
d="M410 120h162v-120h-504v120h210v520h-12l-58 -256h-134l88 316h248v-580z" />
    <glyph glyph-name="zero.tf.zero" 
d="M310 714q117 0 186.5 -75t69.5 -207v-164q0 -135 -69 -208.5t-187 -73.5t-187 73.5t-69 208.5v164q0 132 69.5 207t186.5 75zM310 594q-59 0 -91.5 -43.5t-32.5 -114.5v-117l243 170q-11 50 -42 77.5t-77 27.5zM310 106q124 0 124 158v117l-243 -170q19 -105 119 -105z
" />
    <glyph glyph-name="zero.tosf" 
d="M44 252q0 114 76 186t190 72t190 -72t76 -186v-8q0 -114 -76 -186t-190 -72t-190 72t-76 186v8zM176 255v-14q0 -58 38 -96.5t96 -38.5t96 38.5t38 96.5v14q0 58 -38 96.5t-96 38.5t-96 -38.5t-38 -96.5z" />
    <glyph glyph-name="one.tosf" 
d="M184 496h234v-376h158v-120h-530v120h240v286h-18l-54 -132h-128v12z" />
    <glyph glyph-name="two.tosf" 
d="M54 367q66 74 136 108.5t159 34.5q103 0 157 -47t54 -122q0 -79 -52.5 -117.5t-148.5 -49.5q-116 -12 -137 -20q-26 -12 -32 -34h366v-120h-500v44q0 109 61.5 160.5t194.5 64.5q63 6 89.5 19.5t26.5 42.5q0 59 -94 59q-50 0 -98.5 -26t-81.5 -71z" />
    <glyph glyph-name="three.tosf" 
d="M167 30q2 -53 38 -86.5t98 -33.5q61 0 96.5 31.5t35.5 80.5q0 48 -31 74t-83 26h-122v110l168 144h-312v120h496v-112l-186 -156v-12h15q77 0 132 -51.5t55 -140.5q0 -104 -73 -168t-191 -64t-189.5 60.5t-78.5 159.5z" />
    <glyph glyph-name="four.tosf" 
d="M271 496h214v-376h114v-120h-114v-200h-132v200h-328v112zM341 392l-176 -272h188v272h-12z" />
    <glyph glyph-name="five.tosf" 
d="M180 28q3 -57 37 -90.5t93 -33.5q61 0 96.5 37.5t35.5 101.5q0 54 -30.5 85.5t-78.5 31.5q-64 0 -88 -48h-173v384h476v-120h-344v-178h12q52 74 151 74q86 0 146.5 -61t60.5 -162q0 -118 -72 -190.5t-188 -72.5q-114 0 -186.5 61.5t-78.5 164.5z" />
    <glyph glyph-name="six.tosf" 
d="M435 511l133 17q-13 87 -80 136.5t-168 49.5q-116 0 -190 -65t-74 -185v-245q0 -102 72.5 -168t183.5 -64q115 2 187.5 68.5t72.5 174.5q0 99 -63 163.5t-159 64.5q-103 0 -150 -66h-12v80q0 60 34.5 92t97.5 32q50 0 79.5 -23t35.5 -62zM314 355q57 0 91.5 -34t34.5 -91
q0 -56 -35.5 -90.5t-90.5 -34.5q-56 0 -91 33.5t-35 91.5q0 57 34.5 91t91.5 34z" />
    <glyph glyph-name="seven.tosf" 
d="M32 496h548v-116l-286 -580h-146l282 576h-398v120z" />
    <glyph glyph-name="eight.tosf" 
d="M58 523q0 83 70 137t182 54t182 -54t70 -137q0 -109 -112 -156v-12q49 -14 85.5 -57.5t36.5 -108.5q0 -91 -73.5 -147t-188.5 -56t-188.5 56t-73.5 147q0 65 36.5 108.5t85.5 57.5v12q-112 47 -112 156zM190 507q0 -41 33 -65t87 -24t87 24t33 65t-33 65t-87 24t-87 -24
t-33 -65zM180 202q0 -44 34 -71t96 -27t96 27t34 71t-34 71t-96 27t-96 -27t-34 -71z" />
    <glyph glyph-name="nine.tosf" 
d="M192 -13q6 -38 35 -60.5t77 -22.5q62 0 96 32t34 92v77h-12q-47 -66 -150 -66q-96 0 -159 64.5t-63 163.5q0 108 72.5 174.5t187.5 68.5q111 2 183.5 -64t72.5 -168v-242q0 -120 -73 -185t-189 -65q-100 0 -166.5 49t-78.5 136zM308 142q57 0 91.5 34t34.5 91
q0 58 -35 91.5t-91 33.5q-55 0 -90.5 -34.5t-35.5 -90.5q0 -57 34.5 -91t91.5 -34z" />
    <glyph glyph-name="one.tosf.ss03" 
d="M178 496h240v-376h158v-120h-530v120h240v316h-12l-60 -162h-128z" />
    <glyph glyph-name="zero.tosf.zero" 
d="M310 510q114 0 190 -72.5t76 -189.5t-76 -189.5t-190 -72.5t-190 72.5t-76 189.5t76 189.5t190 72.5zM310 392q-58 0 -96 -41.5t-38 -102.5q0 -20 4 -36l213 150q-35 30 -83 30zM310 104q58 0 96 41.5t38 102.5q0 20 -4 36l-213 -150q35 -30 83 -30z" />
    <glyph glyph-name="zero.zero" horiz-adv-x="596" 
d="M298 714q122 0 195 -75t73 -207v-164q0 -135 -72.5 -208.5t-195.5 -73.5t-195.5 73.5t-72.5 208.5v164q0 132 73 207t195 75zM298 596q-63 0 -99.5 -43.5t-36.5 -114.5v-128l265 186q-13 47 -46.5 73.5t-82.5 26.5zM298 104q68 0 102 42t34 116v128l-266 -187
q25 -99 130 -99z" />
    <glyph glyph-name="zero.subs" horiz-adv-x="360" 
d="M20 4q0 74 42.5 116t117.5 42q74 0 117 -42.5t43 -115.5v-59q0 -74 -42 -115.5t-118 -41.5t-118 41.5t-42 115.5v59zM120 11v-72q0 -67 60 -67t60 67v72q0 67 -60 67t-60 -67z" />
    <glyph glyph-name="one.subs" horiz-adv-x="250" 
d="M69 150h151v-350h-100v246h-10l-18 -52h-88v10z" />
    <glyph glyph-name="two.subs" horiz-adv-x="348" 
d="M179 162q65 0 107 -33t42 -88q0 -53 -34.5 -80t-104.5 -42q-69 -14 -71 -39h208v-80h-308v44q0 60 31.5 94t99.5 50q43 10 61 22t18 32q0 19 -14 29.5t-36 10.5q-25 0 -41.5 -14t-16.5 -40h-98q1 64 44.5 99t112.5 35z" />
    <glyph glyph-name="three.subs" horiz-adv-x="348" 
d="M20 150h308v-68l-102 -61v-10q45 -2 74.5 -27t29.5 -71q0 -54 -44 -89.5t-111 -35.5q-71 0 -114.5 35.5t-46.5 99.5h98q2 -23 18.5 -38t41.5 -15q26 0 42 14t16 33q0 43 -58 43h-66v62l82 48h-168v80z" />
    <glyph glyph-name="four.subs" horiz-adv-x="372" 
d="M148 150h162v-203h60v-76h-60v-71h-100v71h-200v70zM201 78l-87 -131h96v131h-9z" />
    <glyph glyph-name="five.subs" horiz-adv-x="352" 
d="M30 150h294v-80h-196v-61h10q36 23 80 23q50 0 84 -30.5t34 -80.5v-7q0 -54 -43.5 -90t-114.5 -36q-65 0 -107 33t-53 91h98q14 -44 62 -44q26 0 42 13t16 34t-13.5 32.5t-33.5 11.5q-23 0 -44 -18h-115v209z" />
    <glyph glyph-name="six.subs" horiz-adv-x="354" 
d="M20 26q0 60 45.5 98t114.5 38q63 0 104 -31t46 -81h-98q-8 32 -51 32q-28 0 -44.5 -15t-16.5 -39v-29h10q31 25 75 25q56 0 94.5 -28.5t38.5 -81.5q0 -57 -44.5 -91.5t-114.5 -34.5t-114.5 36t-44.5 93v109zM120 -87q0 -21 16 -34t43 -13t43 13t16 34q0 20 -16 32.5
t-43 12.5t-43 -12.5t-16 -32.5z" />
    <glyph glyph-name="seven.subs" horiz-adv-x="314" 
d="M2 150h310v-76l-139 -274h-108l139 270h-202v80z" />
    <glyph glyph-name="eight.subs" horiz-adv-x="352" 
d="M22 64q0 43 43 70.5t111 27.5t111 -27.5t43 -70.5v-3q0 -53 -57 -74v-10q22 -5 42.5 -26.5t20.5 -57.5v-2q0 -45 -43.5 -74t-116.5 -29t-116.5 29t-43.5 74v2q0 38 20 58.5t43 25.5v10q-57 21 -57 74v3zM122 52q0 -15 14.5 -24.5t39.5 -9.5t39.5 9.5t14.5 24.5
q0 32 -54 32t-54 -32zM116 -96q0 -38 60 -38t60 38t-60 38t-60 -38z" />
    <glyph glyph-name="nine.subs" horiz-adv-x="354" 
d="M334 -76q0 -60 -44.5 -98t-112.5 -38q-60 0 -102.5 30t-54.5 78h104q10 -28 54 -28q26 0 41 15t15 39v29h-10q-31 -25 -75 -25q-56 0 -94.5 28.5t-38.5 81.5q0 57 44.5 91.5t114.5 34.5t114.5 -36t44.5 -93v-109zM234 37q0 21 -16 34t-43 13t-43 -13t-16 -34
q0 -20 16 -32.5t43 -12.5t43 12.5t16 32.5z" />
    <glyph glyph-name="zero.dnom" horiz-adv-x="360" 
d="M20 204q0 74 42.5 116t117.5 42q74 0 117 -42.5t43 -115.5v-59q0 -74 -42 -115.5t-118 -41.5t-118 41.5t-42 115.5v59zM120 211v-72q0 -67 60 -67t60 67v72q0 67 -60 67t-60 -67z" />
    <glyph glyph-name="one.dnom" horiz-adv-x="250" 
d="M69 350h151v-350h-100v246h-10l-18 -52h-88v10z" />
    <glyph glyph-name="two.dnom" horiz-adv-x="348" 
d="M179 362q65 0 107 -33t42 -88q0 -53 -34.5 -80t-104.5 -42q-69 -14 -71 -39h208v-80h-308v44q0 60 31.5 94t99.5 50q43 10 61 22t18 32q0 19 -14 29.5t-36 10.5q-25 0 -41.5 -14t-16.5 -40h-98q1 64 44.5 99t112.5 35z" />
    <glyph glyph-name="three.dnom" horiz-adv-x="348" 
d="M20 350h308v-68l-102 -61v-10q45 -2 74.5 -27t29.5 -71q0 -54 -44 -89.5t-111 -35.5q-71 0 -114.5 35.5t-46.5 99.5h98q2 -23 18.5 -38t41.5 -15q26 0 42 14t16 33q0 43 -58 43h-66v62l82 48h-168v80z" />
    <glyph glyph-name="four.dnom" horiz-adv-x="372" 
d="M148 350h162v-203h60v-76h-60v-71h-100v71h-200v70zM201 278l-87 -131h96v131h-9z" />
    <glyph glyph-name="five.dnom" horiz-adv-x="352" 
d="M30 350h294v-80h-196v-61h10q36 23 80 23q50 0 84 -30.5t34 -80.5v-7q0 -54 -43.5 -90t-114.5 -36q-65 0 -107 33t-53 91h98q14 -44 62 -44q26 0 42 13t16 34t-13.5 32.5t-33.5 11.5q-23 0 -44 -18h-115v209z" />
    <glyph glyph-name="six.dnom" horiz-adv-x="354" 
d="M20 226q0 60 45.5 98t114.5 38q63 0 104 -31t46 -81h-98q-8 32 -51 32q-28 0 -44.5 -15t-16.5 -39v-29h10q31 25 75 25q56 0 94.5 -28.5t38.5 -81.5q0 -57 -44.5 -91.5t-114.5 -34.5t-114.5 36t-44.5 93v109zM120 113q0 -21 16 -34t43 -13t43 13t16 34q0 20 -16 32.5
t-43 12.5t-43 -12.5t-16 -32.5z" />
    <glyph glyph-name="seven.dnom" horiz-adv-x="314" 
d="M2 350h310v-76l-139 -274h-108l139 270h-202v80z" />
    <glyph glyph-name="eight.dnom" horiz-adv-x="352" 
d="M22 264q0 43 43 70.5t111 27.5t111 -27.5t43 -70.5v-3q0 -53 -57 -74v-10q22 -5 42.5 -26.5t20.5 -57.5v-2q0 -45 -43.5 -74t-116.5 -29t-116.5 29t-43.5 74v2q0 38 20 58.5t43 25.5v10q-57 21 -57 74v3zM122 252q0 -15 14.5 -24.5t39.5 -9.5t39.5 9.5t14.5 24.5
q0 32 -54 32t-54 -32zM116 104q0 -38 60 -38t60 38t-60 38t-60 -38z" />
    <glyph glyph-name="nine.dnom" horiz-adv-x="354" 
d="M334 124q0 -60 -44.5 -98t-112.5 -38q-60 0 -102.5 30t-54.5 78h104q10 -28 54 -28q26 0 41 15t15 39v29h-10q-31 -25 -75 -25q-56 0 -94.5 28.5t-38.5 81.5q0 57 44.5 91.5t114.5 34.5t114.5 -36t44.5 -93v-109zM234 237q0 21 -16 34t-43 13t-43 -13t-16 -34
q0 -20 16 -32.5t43 -12.5t43 12.5t16 32.5z" />
    <glyph glyph-name="zero.numr" horiz-adv-x="360" 
d="M20 554q0 74 42.5 116t117.5 42q74 0 117 -42.5t43 -115.5v-59q0 -74 -42 -115.5t-118 -41.5t-118 41.5t-42 115.5v59zM120 561v-72q0 -67 60 -67t60 67v72q0 67 -60 67t-60 -67z" />
    <glyph glyph-name="one.numr" horiz-adv-x="250" 
d="M69 700h151v-350h-100v246h-10l-18 -52h-88v10z" />
    <glyph glyph-name="two.numr" horiz-adv-x="348" 
d="M179 712q65 0 107 -33t42 -88q0 -53 -34.5 -80t-104.5 -42q-69 -14 -71 -39h208v-80h-308v44q0 60 31.5 94t99.5 50q43 10 61 22t18 32q0 19 -14 29.5t-36 10.5q-25 0 -41.5 -14t-16.5 -40h-98q1 64 44.5 99t112.5 35z" />
    <glyph glyph-name="three.numr" horiz-adv-x="348" 
d="M20 700h308v-68l-102 -61v-10q45 -2 74.5 -27t29.5 -71q0 -54 -44 -89.5t-111 -35.5q-71 0 -114.5 35.5t-46.5 99.5h98q2 -23 18.5 -38t41.5 -15q26 0 42 14t16 33q0 43 -58 43h-66v62l82 48h-168v80z" />
    <glyph glyph-name="four.numr" horiz-adv-x="372" 
d="M148 700h162v-203h60v-76h-60v-71h-100v71h-200v70zM201 628l-87 -131h96v131h-9z" />
    <glyph glyph-name="five.numr" horiz-adv-x="352" 
d="M30 700h294v-80h-196v-61h10q36 23 80 23q50 0 84 -30.5t34 -80.5v-7q0 -54 -43.5 -90t-114.5 -36q-65 0 -107 33t-53 91h98q14 -44 62 -44q26 0 42 13t16 34t-13.5 32.5t-33.5 11.5q-23 0 -44 -18h-115v209z" />
    <glyph glyph-name="six.numr" horiz-adv-x="354" 
d="M20 576q0 60 45.5 98t114.5 38q63 0 104 -31t46 -81h-98q-8 32 -51 32q-28 0 -44.5 -15t-16.5 -39v-29h10q31 25 75 25q56 0 94.5 -28.5t38.5 -81.5q0 -57 -44.5 -91.5t-114.5 -34.5t-114.5 36t-44.5 93v109zM120 463q0 -21 16 -34t43 -13t43 13t16 34q0 20 -16 32.5
t-43 12.5t-43 -12.5t-16 -32.5z" />
    <glyph glyph-name="seven.numr" horiz-adv-x="314" 
d="M2 700h310v-76l-139 -274h-108l139 270h-202v80z" />
    <glyph glyph-name="eight.numr" horiz-adv-x="352" 
d="M22 614q0 43 43 70.5t111 27.5t111 -27.5t43 -70.5v-3q0 -53 -57 -74v-10q22 -5 42.5 -26.5t20.5 -57.5v-2q0 -45 -43.5 -74t-116.5 -29t-116.5 29t-43.5 74v2q0 38 20 58.5t43 25.5v10q-57 21 -57 74v3zM122 602q0 -15 14.5 -24.5t39.5 -9.5t39.5 9.5t14.5 24.5
q0 32 -54 32t-54 -32zM116 454q0 -38 60 -38t60 38t-60 38t-60 -38z" />
    <glyph glyph-name="nine.numr" horiz-adv-x="380" 
d="M349 474q0 -60 -44.5 -98t-112.5 -38q-60 0 -102.5 30t-54.5 78h104q10 -28 54 -28q26 0 41 15t15 39v29h-10q-31 -25 -75 -25q-56 0 -94.5 28.5t-38.5 81.5q0 57 44.5 91.5t114.5 34.5t114.5 -36t44.5 -93v-109zM249 587q0 21 -16 34t-43 13t-43 -13t-16 -34
q0 -20 16 -32.5t43 -12.5t43 12.5t16 32.5z" />
    <glyph glyph-name="zero.sups" horiz-adv-x="360" 
d="M20 554q0 74 42.5 116t117.5 42q74 0 117 -42.5t43 -115.5v-59q0 -74 -42 -115.5t-118 -41.5t-118 41.5t-42 115.5v59zM120 561v-72q0 -67 60 -67t60 67v72q0 67 -60 67t-60 -67z" />
    <glyph glyph-name="one.sups" horiz-adv-x="250" 
d="M69 700h151v-350h-100v246h-10l-18 -52h-88v10z" />
    <glyph glyph-name="two.sups" horiz-adv-x="348" 
d="M179 712q65 0 107 -33t42 -88q0 -53 -34.5 -80t-104.5 -42q-69 -14 -71 -39h208v-80h-308v44q0 60 31.5 94t99.5 50q43 10 61 22t18 32q0 19 -14 29.5t-36 10.5q-25 0 -41.5 -14t-16.5 -40h-98q1 64 44.5 99t112.5 35z" />
    <glyph glyph-name="three.sups" horiz-adv-x="348" 
d="M20 700h308v-68l-102 -61v-10q45 -2 74.5 -27t29.5 -71q0 -54 -44 -89.5t-111 -35.5q-71 0 -114.5 35.5t-46.5 99.5h98q2 -23 18.5 -38t41.5 -15q26 0 42 14t16 33q0 43 -58 43h-66v62l82 48h-168v80z" />
    <glyph glyph-name="four.sups" horiz-adv-x="372" 
d="M148 700h162v-203h60v-76h-60v-71h-100v71h-200v70zM201 628l-87 -131h96v131h-9z" />
    <glyph glyph-name="five.sups" horiz-adv-x="352" 
d="M30 700h294v-80h-196v-61h10q36 23 80 23q50 0 84 -30.5t34 -80.5v-7q0 -54 -43.5 -90t-114.5 -36q-65 0 -107 33t-53 91h98q14 -44 62 -44q26 0 42 13t16 34t-13.5 32.5t-33.5 11.5q-23 0 -44 -18h-115v209z" />
    <glyph glyph-name="six.sups" horiz-adv-x="354" 
d="M20 576q0 60 45.5 98t114.5 38q63 0 104 -31t46 -81h-98q-8 32 -51 32q-28 0 -44.5 -15t-16.5 -39v-29h10q31 25 75 25q56 0 94.5 -28.5t38.5 -81.5q0 -57 -44.5 -91.5t-114.5 -34.5t-114.5 36t-44.5 93v109zM120 463q0 -21 16 -34t43 -13t43 13t16 34q0 20 -16 32.5
t-43 12.5t-43 -12.5t-16 -32.5z" />
    <glyph glyph-name="seven.sups" horiz-adv-x="314" 
d="M2 700h310v-76l-139 -274h-108l139 270h-202v80z" />
    <glyph glyph-name="eight.sups" horiz-adv-x="352" 
d="M22 614q0 43 43 70.5t111 27.5t111 -27.5t43 -70.5v-3q0 -53 -57 -74v-10q22 -5 42.5 -26.5t20.5 -57.5v-2q0 -45 -43.5 -74t-116.5 -29t-116.5 29t-43.5 74v2q0 38 20 58.5t43 25.5v10q-57 21 -57 74v3zM122 602q0 -15 14.5 -24.5t39.5 -9.5t39.5 9.5t14.5 24.5
q0 32 -54 32t-54 -32zM116 454q0 -38 60 -38t60 38t-60 38t-60 -38z" />
    <glyph glyph-name="nine.sups" horiz-adv-x="380" 
d="M349 474q0 -60 -44.5 -98t-112.5 -38q-60 0 -102.5 30t-54.5 78h104q10 -28 54 -28q26 0 41 15t15 39v29h-10q-31 -25 -75 -25q-56 0 -94.5 28.5t-38.5 81.5q0 57 44.5 91.5t114.5 34.5t114.5 -36t44.5 -93v-109zM249 587q0 21 -16 34t-43 13t-43 -13t-16 -34
q0 -20 16 -32.5t43 -12.5t43 12.5t16 32.5z" />
    <glyph glyph-name="zero.subs.zero" horiz-adv-x="360" 
d="M180 162q74 0 117 -42.5t43 -115.5v-59q0 -74 -42 -115.5t-118 -41.5t-118 41.5t-42 115.5v59q0 74 42.5 116t117.5 42zM180 78q-60 0 -60 -67v-40l114 73q-13 34 -54 34zM180 -128q60 0 60 67v44l-116 -74q13 -37 56 -37z" />
    <glyph glyph-name="zero.dnom.zero" horiz-adv-x="360" 
d="M180 362q74 0 117 -42.5t43 -115.5v-59q0 -74 -42 -115.5t-118 -41.5t-118 41.5t-42 115.5v59q0 74 42.5 116t117.5 42zM180 278q-60 0 -60 -67v-40l114 73q-13 34 -54 34zM180 72q60 0 60 67v44l-116 -74q13 -37 56 -37z" />
    <glyph glyph-name="zero.numr.zero" horiz-adv-x="360" 
d="M180 712q74 0 117 -42.5t43 -115.5v-59q0 -74 -42 -115.5t-118 -41.5t-118 41.5t-42 115.5v59q0 74 42.5 116t117.5 42zM180 628q-60 0 -60 -67v-40l114 73q-13 34 -54 34zM180 422q60 0 60 67v44l-116 -74q13 -37 56 -37z" />
    <glyph glyph-name="zero.sups.zero" horiz-adv-x="360" 
d="M180 712q74 0 117 -42.5t43 -115.5v-59q0 -74 -42 -115.5t-118 -41.5t-118 41.5t-42 115.5v59q0 74 42.5 116t117.5 42zM180 628q-60 0 -60 -67v-40l114 73q-13 34 -54 34zM180 422q60 0 60 67v44l-116 -74q13 -37 56 -37z" />
    <glyph glyph-name="exclamdown.case" horiz-adv-x="282" 
d="M46 605q0 42 27 68.5t68 26.5t68 -26.5t27 -68.5t-27 -68.5t-68 -26.5t-68 26.5t-27 68.5zM75 -14v482h132v-482h-132z" />
    <glyph glyph-name="questiondown.case" horiz-adv-x="592" 
d="M410 619q0 -42 -27 -68.5t-68 -26.5t-68 26.5t-27 68.5t27 68.5t68 26.5t68 -26.5t27 -68.5zM558 208q0 -101 -73.5 -161.5t-184.5 -60.5q-108 0 -178 58t-70 150v4q0 55 23.5 96.5t52.5 61.5t71 39l18 8q18 8 25 19.5t7 33.5v26h132v-36q0 -52 -20.5 -85t-66.5 -54
l-18 -8q-49 -22 -70.5 -43t-21.5 -56q0 -41 32 -65.5t84 -24.5q56 0 91 27t35 77v24h132v-30z" />
    <glyph glyph-name="slash.case" horiz-adv-x="476" 
d="M302 737h132l-260 -778h-132z" />
    <glyph glyph-name="backslash.case" horiz-adv-x="476" 
d="M174 737l260 -778h-132l-260 778h132z" />
    <glyph glyph-name="parenleft.case" horiz-adv-x="422" 
d="M110 142v412q0 152 77.5 225t214.5 73v-120q-83 -2 -122.5 -48.5t-39.5 -141.5v-388q0 -95 39.5 -141.5t122.5 -48.5v-120q-137 0 -214.5 73t-77.5 225z" />
    <glyph glyph-name="parenright.case" horiz-adv-x="422" 
d="M312 142q0 -152 -77.5 -225t-214.5 -73v120q83 2 122.5 48.5t39.5 141.5v388q0 95 -39.5 141.5t-122.5 48.5v120q137 0 214.5 -73t77.5 -225v-412z" />
    <glyph glyph-name="braceleft.case" horiz-adv-x="404" 
d="M60 416h69q27 0 27 29v303q0 45 28.5 73.5t73.5 28.5h126v-120h-71q-27 0 -27 -30v-265q0 -34 -21.5 -57t-56.5 -23h-16v-14h16q35 0 56.5 -23t21.5 -57v-265q0 -30 27 -30h71v-120h-126q-45 0 -73.5 28.5t-28.5 73.5v303q0 29 -27 29h-69v136z" />
    <glyph glyph-name="braceright.case" horiz-adv-x="404" 
d="M344 416v-136h-69q-27 0 -27 -29v-303q0 -45 -28.5 -73.5t-73.5 -28.5h-126v120h71q27 0 27 30v265q0 34 21.5 57t56.5 23h16v14h-16q-35 0 -56.5 23t-21.5 57v265q0 30 -27 30h-71v120h126q45 0 73.5 -28.5t28.5 -73.5v-303q0 -29 27 -29h69z" />
    <glyph glyph-name="bracketleft.case" horiz-adv-x="358" 
d="M110 748q0 45 28.5 73.5t73.5 28.5h126v-120h-71q-27 0 -27 -30v-704q0 -30 27 -30h71v-120h-126q-45 0 -73.5 28.5t-28.5 73.5v800z" />
    <glyph glyph-name="bracketright.case" horiz-adv-x="358" 
d="M248 748v-800q0 -45 -28.5 -73.5t-73.5 -28.5h-126v120h71q27 0 27 30v704q0 30 -27 30h-71v120h126q45 0 73.5 -28.5t28.5 -73.5z" />
    <glyph glyph-name="hyphen.case" horiz-adv-x="460" 
d="M82 298v114h296v-114h-296z" />
    <glyph glyph-name="endash.case" horiz-adv-x="612" 
d="M82 298v114h448v-114h-448z" />
    <glyph glyph-name="emdash.case" horiz-adv-x="916" 
d="M82 298v114h752v-114h-752z" />
    <glyph glyph-name="guillemotleft.case" horiz-adv-x="780" 
d="M58 404l314 176h6v-136l-192 -97v-18l192 -97v-136h-6l-314 176v132zM398 404l314 176h6v-136l-192 -97v-18l192 -97v-136h-6l-314 176v132z" />
    <glyph glyph-name="guillemotright.case" horiz-adv-x="780" 
d="M378 404v-132l-314 -176h-6v136l192 97v18l-192 97v136h6zM718 404v-132l-314 -176h-6v136l192 97v18l-192 97v136h6z" />
    <glyph glyph-name="guilsinglleft.case" horiz-adv-x="480" 
d="M58 410l354 170h6v-136l-234 -97v-18l234 -97v-136h-6l-354 170v144z" />
    <glyph glyph-name="guilsinglright.case" horiz-adv-x="480" 
d="M422 410v-144l-354 -170h-6v136l234 97v18l-234 97v136h6z" />
    <glyph glyph-name="uni2197.case" horiz-adv-x="600" 
d="M157 700h324l69 -69v-324h-116v149l8 39l-9 5l-25 -32l-279 -279l-89 89l278 280l32 25l-5 9l-39 -8h-149v116z" />
    <glyph glyph-name="arrowright.case" horiz-adv-x="800" 
d="M521 635l229 -229v-102l-229 -229l-84 84l108 108l33 22l-3 9l-40 -4h-485v122h485l40 -4l3 9l-33 22l-108 108z" />
    <glyph glyph-name="arrowleft.case" horiz-adv-x="800" 
d="M279 635l84 -84l-108 -108l-33 -22l3 -9l40 4h485v-122h-485l-40 4l-3 -9l33 -22l108 -108l-84 -84l-229 229v102z" />
    <glyph glyph-name="uni2196.case" 
d="M463 700v-116h-149l-39 8l-5 -9l32 -25l278 -280l-89 -89l-279 279l-25 32l-9 -5l8 -39v-149h-116v324l69 69h324z" />
    <glyph glyph-name="arrowboth.case" horiz-adv-x="800" 
d="M531 625l219 -219v-102l-219 -219l-84 84l98 98l33 22l-3 9l-40 -4h-270l-40 4l-3 -9l33 -22l98 -98l-84 -84l-219 219v102l219 219l84 -84l-98 -98l-33 -22l3 -9l40 4h270l40 -4l3 9l-33 22l-98 98z" />
    <glyph glyph-name="at.case" horiz-adv-x="1020" 
d="M76 132v436q0 98 55 153t153 55h472q92 0 140 -47.5t48 -138.5v-386q0 -41 -25 -66.5t-67 -25.5h-158q-34 0 -55.5 19.5t-21.5 50.5v2h-18q-31 -86 -124 -86q-92 0 -147.5 70.5t-55.5 171.5v16q0 102 53.5 172t139.5 70q51 0 78.5 -19.5t46.5 -54.5h18v60h122v-330
q0 -30 27 -30h36q27 0 27 30v336q0 34 -19 53t-53 19h-436q-112 0 -112 -112v-400q0 -112 112 -112h622v-114h-650q-98 0 -153 55t-55 153zM501 482q-48 0 -76.5 -35t-28.5 -93v-12q0 -58 28.5 -93t76.5 -35t77.5 35.5t29.5 92.5v12q0 57 -29.5 92.5t-77.5 35.5z" />
    <glyph glyph-name="bar.case" horiz-adv-x="242" 
d="M184 856v-1012h-126v1012h126z" />
    <glyph glyph-name="brokenbar.case" horiz-adv-x="242" 
d="M184 436h-126v420h126v-420zM58 264h126v-420h-126v420z" />
    <glyph glyph-name="uni0308.case" horiz-adv-x="0" 
d="M-434 822q0 38 25.5 62t63.5 24t63.5 -24t25.5 -62t-25.5 -62t-63.5 -24t-63.5 24t-25.5 62zM-218 822q0 38 25.5 62t63.5 24t63.5 -24t25.5 -62t-25.5 -62t-63.5 -24t-63.5 24t-25.5 62z" />
    <glyph glyph-name="uni0307.case" horiz-adv-x="0" 
d="M-218 822q0 38 25.5 62t63.5 24t63.5 -24t25.5 -62t-25.5 -62t-63.5 -24t-63.5 24t-25.5 62z" />
    <glyph glyph-name="gravecomb.case" horiz-adv-x="0" 
d="M-94 880l54 -120h-108l-88 120h142z" />
    <glyph glyph-name="acutecomb.case" horiz-adv-x="0" 
d="M-182 880h142l-88 -120h-108z" />
    <glyph glyph-name="uni030B.case" horiz-adv-x="0" 
d="M-344 880h138l-88 -120h-104zM-178 880h138l-87 -120h-104z" />
    <glyph glyph-name="uni0302.case" horiz-adv-x="0" 
d="M-163 760l-43 60h-12l-43 -60h-123l94 120h156l94 -120h-123z" />
    <glyph glyph-name="uni030C.case" horiz-adv-x="0" 
d="M-163 884h123l-94 -120h-156l-94 120h123l43 -60h12z" />
    <glyph glyph-name="uni0306.case" horiz-adv-x="0" 
d="M-130 880h90v-8q0 -56 -36 -89t-96 -33t-96 33t-36 89v8h90v-2q0 -40 42 -40t42 40v2z" />
    <glyph glyph-name="uni030A.case" horiz-adv-x="0" 
d="M-256 840q0 44 31 74t77 30t77 -29.5t31 -74.5q0 -46 -32 -75t-76 -29q-45 0 -76.5 30t-31.5 74zM-178 840q0 -13 8.5 -21.5t21.5 -8.5t21.5 8.5t8.5 21.5t-8.5 21.5t-21.5 8.5t-21.5 -8.5t-8.5 -21.5z" />
    <glyph glyph-name="tildecomb.case" horiz-adv-x="0" 
d="M-440 795l56 72q34 44 82 44q44 0 78 -38l4 -4t4 -4.5t3.5 -4t4.5 -4t4.5 -3t5 -2.5t6 -1.5t6.5 -0.5q21 0 39 24l30 38l77 -61l-56 -72q-35 -44 -82 -44q-44 0 -78 38l-4 4t-4 4.5t-3.5 4t-4.5 4t-4.5 3t-5 2.5t-6 1.5t-6.5 0.5q-21 0 -39 -24l-30 -38z" />
    <glyph glyph-name="uni0304.case" horiz-adv-x="0" 
d="M-40 862v-102h-294v102h294z" />
    <glyph glyph-name="ringacutecomb" horiz-adv-x="296" 
d="M314 830l-83 -123q25 -27 25 -68q0 -46 -32 -75t-76 -29q-45 0 -76.5 30t-31.5 74q0 41 27.5 70t68.5 33l36 88h142zM148 609q13 0 21.5 8.5t8.5 21.5t-8.5 21.5t-21.5 8.5t-21.5 -8.5t-8.5 -21.5t8.5 -21.5t21.5 -8.5z" />
    <glyph glyph-name="Omega" 
d="M52 434q0 128 68.5 204t189.5 76t189.5 -76t68.5 -204v-108q0 -133 -92 -182v-18h104v-126h-234v138q58 19 74 63.5t16 142.5v82q0 162 -126 162t-126 -162v-82q0 -99 16 -143t74 -63v-138h-234v126h104v18q-92 45 -92 182v108z" />
    <glyph glyph-name="Delta" 
d="M18 0l179 700h226l179 -700h-584zM185 126h249l-115 476h-18z" />
    </font>
</defs>
</svg>
