<?xml version="1.0" standalone="no"?>
<!DOCTYPE svg PUBLIC "-//W3C//DTD SVG 1.1//EN" "http://www.w3.org/Graphics/SVG/1.1/DTD/svg11.dtd" >
<svg xmlns="http://www.w3.org/2000/svg" xmlns:xlink="http://www.w3.org/1999/xlink" version="1.1">
<metadata>
Created by FontForge 20170731 at Mon Aug 20 19:25:56 2018
 By Aleksey,,,
Copyright 2016 Google Inc. &#38; Colophon Foundry. Copyright 2017 Florian Karsten. All rights reserved.
</metadata>
<defs>
<font id="SpaceGrotesk-Regular" horiz-adv-x="620" >
  <font-face 
    font-family="Space Grotesk"
    font-weight="400"
    font-stretch="normal"
    units-per-em="1000"
    panose-1="0 0 5 0 0 0 0 0 0 0"
    ascent="800"
    descent="-200"
    x-height="488"
    cap-height="700"
    bbox="-666 -284 976 1000"
    underline-thickness="50"
    underline-position="-200"
    unicode-range="U+0020-E133"
  />
<missing-glyph horiz-adv-x="889" 
d="M96 611q0 97 48.5 145.5t139.5 48.5h320q91 0 140 -48.5t49 -145.5v-532q0 -97 -49 -145.5t-140 -48.5h-320q-91 0 -139.5 48.5t-48.5 145.5v532zM170 605v-520q0 -132 121 -132h307q120 0 120 132v520q0 132 -120 132h-307q-121 0 -121 -132zM277 452q0 68 47.5 107.5
t123.5 39.5q72 0 119.5 -38.5t47.5 -96.5v-5q0 -48 -26.5 -77.5t-78.5 -53.5l-15 -7q-22 -10 -22 -39v-39h-68v40q0 33 12.5 53.5t42.5 34.5l15 7q41 18 56.5 35t15.5 49q0 34 -28 55t-71 21q-45 0 -74 -23t-29 -66v-25h-68v28zM390 152q0 21 14.5 35.5t35.5 14.5
q22 0 36 -14.5t14 -35.5q0 -22 -14 -36t-36 -14q-21 0 -35.5 14t-14.5 36z" />
    <glyph glyph-name="f_f.liga" unicode="ff" horiz-adv-x="707" 
d="M535 488h151v-67h-151v-421h-77v421h-216v-421h-76v421h-148v67h148v134q0 36 20.5 57t55.5 21h125v-67h-98q-27 0 -27 -29v-116h216v134q0 36 20.5 57t55.5 21h126v-67h-98q-27 0 -27 -29v-116z" />
    <glyph glyph-name="f_f_i.liga" unicode="ffi" horiz-adv-x="902" 
d="M789 705q28 0 47 -18.5t19 -46.5t-19 -46.5t-47 -18.5t-47 18.5t-19 46.5t19 46.5t47 18.5zM535 488h292v-488h-76v421h-216v-421h-77v421h-216v-421h-76v421h-148v67h148v134q0 36 20.5 57t55.5 21h125v-67h-98q-27 0 -27 -29v-116h216v134q0 36 20.5 57t55.5 21h117
v-67h-89q-27 0 -27 -29v-116z" />
    <glyph glyph-name="f_f_j.liga" unicode="ffj" horiz-adv-x="902" 
d="M789 705q28 0 47 -18.5t19 -46.5t-19 -46.5t-47 -18.5t-47 18.5t-19 46.5t19 46.5t47 18.5zM535 488h292v-611q0 -35 -20.5 -56t-54.5 -21h-122v67h93q28 0 28 30v524h-216v-421h-77v421h-216v-421h-76v421h-148v67h148v134q0 36 20.5 57t55.5 21h125v-67h-98
q-27 0 -27 -29v-116h216v134q0 36 20.5 57t55.5 21h117v-67h-89q-27 0 -27 -29v-116z" />
    <glyph glyph-name="f_i.liga" unicode="fi" horiz-adv-x="610" 
d="M497 705q28 0 47 -18.5t19 -46.5t-19 -46.5t-47 -18.5q-29 0 -48 18.5t-19 46.5t19 46.5t48 18.5zM242 488h293v-488h-77v421h-216v-421h-76v421h-148v67h148v134q0 36 20.5 57t55.5 21h117v-67h-90q-27 0 -27 -29v-116z" />
    <glyph glyph-name="f_j.liga" unicode="fj" horiz-adv-x="610" 
d="M496 705q29 0 48 -18.5t19 -46.5t-19 -46.5t-48 -18.5q-28 0 -47 18.5t-19 46.5t19 46.5t47 18.5zM242 488h293v-611q0 -35 -20.5 -56t-54.5 -21h-122v67h92q28 0 28 30v524h-216v-421h-76v421h-148v67h148v134q0 36 20.5 57t55.5 21h117v-67h-90q-27 0 -27 -29v-116z
" />
    <glyph glyph-name="f_l.liga" unicode="fl" horiz-adv-x="610" 
d="M18 488h148v134q0 36 20.5 57t55.5 21h115v-67h-88q-27 0 -27 -29v-116h137v-67h-137v-421h-76v421h-148v67zM458 700h77v-700h-77v700z" />
    <glyph glyph-name="f_lcaron.liga" unicode="f&#x13e;" horiz-adv-x="657" 
d="M18 488h148v134q0 36 20.5 57t55.5 21h115v-67h-88q-27 0 -27 -29v-116h137v-67h-137v-421h-76v421h-148v67zM535 700v-700h-77v700h77zM603 700h83l-49 -176h-45z" />
    <glyph glyph-name=".notdef" horiz-adv-x="889" 
d="M96 611q0 97 48.5 145.5t139.5 48.5h320q91 0 140 -48.5t49 -145.5v-532q0 -97 -49 -145.5t-140 -48.5h-320q-91 0 -139.5 48.5t-48.5 145.5v532zM170 605v-520q0 -132 121 -132h307q120 0 120 132v520q0 132 -120 132h-307q-121 0 -121 -132zM277 452q0 68 47.5 107.5
t123.5 39.5q72 0 119.5 -38.5t47.5 -96.5v-5q0 -48 -26.5 -77.5t-78.5 -53.5l-15 -7q-22 -10 -22 -39v-39h-68v40q0 33 12.5 53.5t42.5 34.5l15 7q41 18 56.5 35t15.5 49q0 34 -28 55t-71 21q-45 0 -74 -23t-29 -66v-25h-68v28zM390 152q0 21 14.5 35.5t35.5 14.5
q22 0 36 -14.5t14 -35.5q0 -22 -14 -36t-36 -14q-21 0 -35.5 14t-14.5 36z" />
    <glyph glyph-name=".null" horiz-adv-x="0" 
 />
    <glyph glyph-name="nonmarkingreturn" horiz-adv-x="333" 
 />
    <glyph glyph-name="space" unicode=" " horiz-adv-x="312" 
 />
    <glyph glyph-name="exclam" unicode="!" horiz-adv-x="243" 
d="M81 700h81v-515h-81v515zM52 55q0 29 20 49t49 20t49 -20t20 -49t-20 -49t-49 -20t-49 20t-20 49z" />
    <glyph glyph-name="quotedbl" unicode="&#x22;" horiz-adv-x="407" 
d="M52 647q0 31 20 50t49 19q30 0 49.5 -19t19.5 -49v-100q0 -34 -21 -55t-55 -21h-58v48h54q27 0 27 29v34q-8 -2 -17 -2q-29 0 -48.5 18.5t-19.5 47.5zM217 647q0 31 19.5 50t49.5 19t49.5 -19t19.5 -49v-100q0 -34 -21.5 -55t-55.5 -21h-58v48h54q27 0 27 29v34
q-6 -2 -17 -2q-28 0 -47.5 18.5t-19.5 47.5z" />
    <glyph glyph-name="numbersign" unicode="#" horiz-adv-x="659" 
d="M54 496h129v204h77v-204h139v204h76v-204h130v-71h-130v-150h130v-71h-130v-204h-76v204h-139v-204h-77v204h-129v71h129v150h-129v71zM260 425v-150h139v150h-139z" />
    <glyph glyph-name="dollar" unicode="$" horiz-adv-x="608" 
d="M356 390q99 -22 150.5 -68t51.5 -127v-7q0 -84 -58.5 -138t-153.5 -62v-104h-76v104q-109 11 -170 78t-61 176v30h82v-24q0 -81 38.5 -127.5t110.5 -56.5v265q-98 24 -148.5 67t-50.5 126v6q0 75 56 125.5t143 58.5v104h76v-104q94 -11 152 -66.5t58 -146.5v-37h-82v31
q0 60 -35 96.5t-93 46.5v-244zM153 525q0 -47 27.5 -72t89.5 -42v226q-52 -8 -84.5 -37.5t-32.5 -74.5zM346 63q61 8 95.5 42.5t34.5 83.5q0 50 -32 78t-98 45v-249z" />
    <glyph glyph-name="percent" unicode="%" horiz-adv-x="776" 
d="M53 554q0 75 42.5 117.5t117.5 42.5q74 0 117 -43t43 -117v-19q0 -75 -42.5 -117t-117.5 -42t-117.5 42t-42.5 117v19zM436 460l177 249l63 -46l-195 -237zM120 559v-28q0 -44 24 -70t69 -26t68.5 25.5t23.5 70.5v28q0 45 -23.5 70.5t-68.5 25.5t-69 -26t-24 -70z
M403 164q0 75 42.5 117.5t117.5 42.5q74 0 117 -43t43 -117v-19q0 -75 -42.5 -117t-117.5 -42t-117.5 42t-42.5 117v19zM340 240l-177 -249l-63 46l195 237zM471 169v-28q0 -45 23.5 -70.5t68.5 -25.5t69 26t24 70v28q0 44 -24 70t-69 26t-68.5 -25.5t-23.5 -70.5z" />
    <glyph glyph-name="ampersand" unicode="&#x26;" horiz-adv-x="680" 
d="M43 189q0 107 114 190v12q-58 71 -58 141v6q0 78 54.5 127t142.5 49q89 0 144 -50.5t55 -136.5v-31h-82v28q0 55 -32.5 85t-86.5 30q-51 0 -82 -28t-31 -75v-4q0 -31 17.5 -63t37.5 -53t65 -65l141 -138h13l107 194h87l-138 -249v-13l148 -145h-108l-83 81h-13
q-84 -96 -197 -96q-98 0 -156.5 58.5t-58.5 145.5zM125 189q0 -53 36 -91t98 -38q83 0 143 73v13l-182 177h-12q-83 -55 -83 -130v-4z" />
    <glyph glyph-name="quotesingle" unicode="'" horiz-adv-x="243" 
d="M52 647q0 31 20 50t49 19q30 0 49.5 -19t19.5 -49v-100q0 -34 -21 -55t-55 -21h-58v48h54q27 0 27 29v34q-8 -2 -17 -2q-29 0 -48.5 18.5t-19.5 47.5z" />
    <glyph glyph-name="parenleft" unicode="(" horiz-adv-x="403" 
d="M138 16v528q0 137 67.5 200.5t177.5 63.5v-70q-85 -1 -126.5 -50t-41.5 -149v-518q0 -100 41.5 -149t126.5 -50v-70q-110 0 -177.5 63.5t-67.5 200.5z" />
    <glyph glyph-name="parenright" unicode=")" horiz-adv-x="403" 
d="M266 16q0 -137 -67.5 -200.5t-178.5 -63.5v70q86 1 127.5 50t41.5 149v518q0 100 -41.5 149t-127.5 50v70q111 0 178.5 -63.5t67.5 -200.5v-528z" />
    <glyph glyph-name="asterisk" unicode="*" 
d="M62 488h136l44 -14l5 12l-50 28l-88 88l51 51l88 -88l28 -50l12 5l-14 44v136h72v-136l-14 -44l12 -5l28 50l88 88l51 -51l-88 -88l-50 -28l5 -12l44 14h136v-72h-136l-44 14l-5 -12l50 -28l88 -88l-51 -51l-88 88l-28 50l-12 -5l14 -44v-136h-72v136l14 44l-12 5
l-28 -50l-88 -88l-51 51l88 88l50 28l-5 12l-44 -14h-136v72z" />
    <glyph glyph-name="plus" unicode="+" 
d="M101 386h172v173h74v-173h172v-72h-172v-173h-74v173h-172v72z" />
    <glyph glyph-name="comma" unicode="," horiz-adv-x="243" 
d="M52 55q0 31 20 50t49 19q30 0 49.5 -19t19.5 -49v-100q0 -34 -21 -55t-55 -21h-58v48h54q27 0 27 29v34q-8 -2 -17 -2q-29 0 -48.5 18.5t-19.5 47.5z" />
    <glyph glyph-name="hyphen" unicode="-" horiz-adv-x="460" 
d="M82 218v72h296v-72h-296z" />
    <glyph glyph-name="period" unicode="." horiz-adv-x="243" 
d="M52 55q0 29 20 49t49 20t49 -20t20 -49t-20 -49t-49 -20t-49 20t-20 49z" />
    <glyph glyph-name="slash" unicode="/" horiz-adv-x="477" 
d="M344 700h78l-294 -900h-78z" />
    <glyph glyph-name="zero" unicode="0" horiz-adv-x="622" 
d="M54 428q0 137 68 211.5t189 74.5q120 0 188 -75t68 -211v-156q0 -136 -67.5 -211t-188.5 -75t-189 74.5t-68 211.5v156zM136 431v-162q0 -100 44 -154t131 -54q86 0 130 54t44 154v162q0 100 -44 154t-130 54q-87 0 -131 -54t-44 -154z" />
    <glyph glyph-name="one" unicode="1" horiz-adv-x="412" 
d="M206 700h130l-1 -700h-82v620h-12l-142 -222h-93z" />
    <glyph glyph-name="two" unicode="2" horiz-adv-x="584" 
d="M49 476q0 109 70.5 173.5t182.5 64.5q105 0 171.5 -62t66.5 -163q0 -98 -61 -153t-176 -90q-95 -29 -133.5 -58.5t-38.5 -96.5v-16h405v-75h-488v81q0 97 54.5 148t164.5 83q97 29 144 69t47 111q0 68 -43.5 107.5t-112.5 39.5q-80 0 -125.5 -44t-45.5 -124v-21h-82v26z
" />
    <glyph glyph-name="three" unicode="3" horiz-adv-x="584" 
d="M59 700h473v-73l-225 -196v-11h25q89 0 148 -57t59 -152q0 -98 -70.5 -161.5t-173.5 -63.5q-115 0 -186.5 64t-71.5 172v43h82v-40q0 -78 47 -121t128 -43q73 0 118 43t45 109q0 67 -44 104.5t-111 37.5h-100v77l218 192h-361v76z" />
    <glyph glyph-name="four" unicode="4" horiz-adv-x="597" 
d="M326 700h140v-486h120v-75h-120v-139h-82v139h-362v72zM372 632l-259 -418h271v418h-12z" />
    <glyph glyph-name="five" unicode="5" horiz-adv-x="589" 
d="M71 700h459v-75h-378v-247h12q50 93 171 93q92 0 153 -64.5t61 -169.5q0 -109 -69 -180t-181 -71q-114 0 -184 66.5t-70 176.5v18h81v-15q0 -81 46 -126t127 -45q79 0 123 47t44 129q0 75 -40 118t-107 43q-85 0 -123 -72h-125v374z" />
    <glyph glyph-name="six" unicode="6" horiz-adv-x="588" 
d="M548 228q0 -107 -70.5 -174.5t-177.5 -67.5q-106 0 -176 67t-70 174v244q0 108 69.5 175.5t181.5 67.5q109 0 172 -60t63 -156h-82q0 66 -38.5 103.5t-114.5 37.5q-79 0 -124 -44.5t-45 -119.5v-100h12q55 92 176 92q93 0 158.5 -67t65.5 -172zM300 396
q-73 0 -118.5 -46.5t-45.5 -121.5t45.5 -121t118.5 -46q74 0 120 46t46 121t-46 121.5t-120 46.5z" />
    <glyph glyph-name="seven" unicode="7" horiz-adv-x="542" 
d="M19 700h502v-72l-290 -628h-90l288 624h-410v76z" />
    <glyph glyph-name="eight" unicode="8" horiz-adv-x="591" 
d="M56 527q0 83 65.5 135t174.5 52t174.5 -52t65.5 -135q0 -65 -37 -103.5t-85 -53.5v-12q50 -10 92.5 -54t42.5 -117q0 -89 -70.5 -145t-182.5 -56t-182.5 56t-70.5 145q0 73 42.5 117t91.5 54v12q-48 15 -84.5 53.5t-36.5 103.5zM138 520q0 -55 43.5 -87t114.5 -32
t114.5 32t43.5 87t-43.5 87t-114.5 32t-114.5 -32t-43.5 -87zM125 193q0 -63 46.5 -97.5t124.5 -34.5q77 0 124 34.5t47 97.5t-47 98t-124 35q-78 0 -124.5 -35t-46.5 -98z" />
    <glyph glyph-name="nine" unicode="9" horiz-adv-x="588" 
d="M40 472q0 107 70.5 174.5t177.5 67.5q106 0 176 -67t70 -174v-244q0 -108 -69 -175.5t-181 -67.5q-109 0 -172 60t-63 156h82q0 -66 38.5 -103.5t114.5 -37.5q78 0 123 44.5t45 119.5v100h-12q-53 -92 -176 -92q-93 0 -158.5 67t-65.5 172zM288 304q73 0 118.5 46.5
t45.5 121.5t-45.5 121t-118.5 46q-74 0 -120 -46t-46 -121t46 -121.5t120 -46.5z" />
    <glyph glyph-name="colon" unicode=":" horiz-adv-x="243" 
d="M52 441q0 29 20 49t49 20t49 -20t20 -49t-20 -49t-49 -20t-49 20t-20 49zM52 55q0 29 20 49t49 20t49 -20t20 -49t-20 -49t-49 -20t-49 20t-20 49z" />
    <glyph glyph-name="semicolon" unicode=";" horiz-adv-x="243" 
d="M52 441q0 29 20 49t49 20t49 -20t20 -49t-20 -49t-49 -20t-49 20t-20 49zM52 55q0 31 20 50t49 19q30 0 49.5 -19t19.5 -49v-100q0 -34 -21 -55t-55 -21h-58v48h54q27 0 27 29v34q-8 -2 -17 -2q-29 0 -48.5 18.5t-19.5 47.5z" />
    <glyph glyph-name="less" unicode="&#x3c;" 
d="M100 301v98l420 171v-83l-341 -131v-12l341 -131v-83z" />
    <glyph glyph-name="equal" unicode="=" 
d="M101 386v71h418v-71h-418zM101 243v71h418v-71h-418z" />
    <glyph glyph-name="greater" unicode="&#x3e;" 
d="M520 301l-420 -171v83l341 131v12l-341 131v83l420 -171v-98z" />
    <glyph glyph-name="question" unicode="?" horiz-adv-x="581" 
d="M49 503q0 98 67 154.5t177 56.5q105 0 171.5 -55t66.5 -137v-8q0 -73 -37.5 -118t-112.5 -78l-27 -11q-19 -9 -26 -21.5t-7 -36.5v-60h-82v62q0 49 15 75.5t57 44.5l27 12q61 26 86 55.5t25 79.5q0 55 -44 88t-112 33q-71 0 -116.5 -36.5t-45.5 -103.5v-37h-82v41z
M211 55q0 29 20 49t49 20t49 -20t20 -49t-20 -49t-49 -20t-49 20t-20 49z" />
    <glyph glyph-name="at" unicode="@" horiz-adv-x="1025" 
d="M83 -10v520q0 190 191 190h477q94 0 142.5 -48t48.5 -142v-410q0 -47 -27 -73.5t-74 -26.5h-118q-71 0 -71 72v12h-13q-11 -39 -47.5 -68.5t-99.5 -29.5q-87 0 -146.5 68t-59.5 177v16q0 109 59.5 177t146.5 68q63 0 99 -30.5t46 -65.5h12v82h75v-380q0 -31 29 -31h71
q24 0 33 9.5t9 32.5v402q0 120 -120 120h-467q-120 0 -120 -120v-522q0 -120 120 -120h643v-69h-648q-191 0 -191 190zM363 234q0 -81 39.5 -129.5t102.5 -48.5t102.5 48t39.5 130v10q0 83 -39.5 130.5t-102.5 47.5t-102.5 -48t-39.5 -129v-11z" />
    <glyph glyph-name="A" unicode="A" horiz-adv-x="623" 
d="M248 700h127l230 -700h-88l-56 177h-299l-56 -177h-88zM185 251h252l-120 375h-12z" />
    <glyph glyph-name="B" unicode="B" horiz-adv-x="617" 
d="M76 700h284q91 0 148.5 -49.5t57.5 -135.5q0 -63 -33.5 -103t-86.5 -55v-12q52 -13 87 -54.5t35 -103.5q0 -87 -58.5 -137t-150.5 -50h-283v700zM158 625v-236h197q61 0 96.5 32.5t35.5 87.5q0 53 -36.5 84.5t-97.5 31.5h-195zM158 314v-239h197q61 0 97 32.5t36 86.5
q0 56 -35.5 88t-98.5 32h-196z" />
    <glyph glyph-name="C" unicode="C" horiz-adv-x="631" 
d="M54 424q0 137 72.5 213.5t200.5 76.5q122 0 189.5 -68t67.5 -183v-17h-82v14q0 84 -44.5 131.5t-130.5 47.5q-91 0 -141 -55.5t-50 -156.5v-154q0 -101 50 -156.5t141 -55.5q88 0 131.5 46.5t43.5 130.5v16h82v-16q0 -117 -68 -184.5t-189 -67.5q-129 0 -201 76t-72 214
v148z" />
    <glyph glyph-name="D" unicode="D" horiz-adv-x="625" 
d="M76 700h212q136 0 209.5 -68.5t73.5 -206.5v-150q0 -138 -73.5 -206.5t-209.5 -68.5h-212v700zM158 625v-550h128q104 0 153.5 46.5t49.5 152.5v152q0 106 -49.5 152.5t-153.5 46.5h-128z" />
    <glyph glyph-name="E" unicode="E" horiz-adv-x="563" 
d="M76 700h440v-75h-358v-237h330v-74h-330v-239h362v-75h-444v700z" />
    <glyph glyph-name="F" unicode="F" horiz-adv-x="533" 
d="M76 700h430v-75h-348v-237h329v-74h-329v-314h-82v700z" />
    <glyph glyph-name="G" unicode="G" horiz-adv-x="633" 
d="M54 276v148q0 137 72.5 213.5t199.5 76.5q122 0 187.5 -68t65.5 -186v-9h-82v9q0 85 -42.5 132t-128.5 47q-91 0 -140.5 -55.5t-49.5 -156.5v-154q0 -101 49.5 -156.5t139.5 -55.5q87 0 129.5 46.5t42.5 130.5v23h-206v74h288v-97q0 -117 -67 -184.5t-187 -67.5
q-128 0 -199.5 76t-71.5 214z" />
    <glyph glyph-name="H" unicode="H" horiz-adv-x="645" 
d="M76 700h82v-312h329v312h82v-700h-82v314h-329v-314h-82v700z" />
    <glyph glyph-name="I" unicode="I" horiz-adv-x="234" 
d="M76 700h82v-700h-82v700z" />
    <glyph glyph-name="J" unicode="J" horiz-adv-x="545" 
d="M472 700v-490q0 -109 -54.5 -166.5t-161.5 -57.5q-108 0 -167.5 58t-59.5 166v54h82v-54q0 -69 36.5 -109t108.5 -40q134 0 134 149v490h82z" />
    <glyph glyph-name="K" unicode="K" horiz-adv-x="637" 
d="M636 700l-302 -281l297 -419h-99l-257 363l-117 -109v-254h-82v700h82v-331h12l353 331h113z" />
    <glyph glyph-name="L" unicode="L" horiz-adv-x="538" 
d="M76 700h82v-625h359v-75h-441v700z" />
    <glyph glyph-name="M" unicode="M" horiz-adv-x="869" 
d="M76 700h149l203 -612h12l204 612h149v-700h-82v610h-12l-203 -610h-123l-203 610h-12v-610h-82v700z" />
    <glyph glyph-name="N" unicode="N" horiz-adv-x="655" 
d="M76 700h148l261 -621h12v621h82v-700h-149l-260 620h-12v-620h-82v700z" />
    <glyph glyph-name="O" unicode="O" horiz-adv-x="648" 
d="M54 428q0 136 72 211t198 75q125 0 197.5 -75t72.5 -211v-156q0 -136 -72 -211t-198 -75t-198 75t-72 211v156zM136 431v-162q0 -100 48 -154t140 -54t140 54t48 154v162q0 100 -48 154t-140 54t-140 -54t-48 -154z" />
    <glyph glyph-name="P" unicode="P" horiz-adv-x="587" 
d="M76 700h265q96 0 156.5 -56t60.5 -150t-61 -150.5t-156 -56.5h-183v-287h-82v700zM158 625v-263h174q69 0 106.5 34.5t37.5 97.5t-37 97t-107 34h-174z" />
    <glyph glyph-name="Q" unicode="Q" horiz-adv-x="648" 
d="M324 714q125 0 197.5 -75t72.5 -211v-156q0 -125 -60.5 -198.5t-168.5 -85.5v-51q0 -30 28 -30h60v-72h-95q-34 0 -54.5 21t-20.5 56v76q-108 12 -168.5 85.5t-60.5 198.5v156q0 136 72 211t198 75zM512 269v162q0 100 -48 154t-140 54t-140 -54t-48 -154v-162
q0 -100 48 -154t140 -54t140 54t48 154z" />
    <glyph glyph-name="R" unicode="R" horiz-adv-x="615" 
d="M578 497q0 -82 -48.5 -135.5t-128.5 -64.5l162 -297h-91l-154 294h-160v-294h-82v700h285q96 0 156.5 -55.5t60.5 -147.5zM158 625v-256h194q68 0 106 33.5t38 94.5q0 62 -37 95t-107 33h-194z" />
    <glyph glyph-name="S" unicode="S" horiz-adv-x="608" 
d="M303 714q111 0 182 -56.5t71 -158.5v-37h-82v31q0 71 -48 109t-123 38q-65 0 -107.5 -31.5t-42.5 -83.5t34.5 -78.5t113.5 -44.5l55 -13q99 -22 150.5 -68t51.5 -130q0 -93 -69 -149t-177 -56q-127 0 -200 68.5t-73 187.5v30h82v-24q0 -93 50 -140.5t142 -47.5
q75 0 119 36t44 93q0 53 -35.5 81t-108.5 44l-56 13q-100 23 -152.5 66.5t-52.5 130.5q0 85 66.5 137.5t165.5 52.5z" />
    <glyph glyph-name="T" unicode="T" horiz-adv-x="590" 
d="M21 700h549v-75h-234v-625h-82v625h-233v75z" />
    <glyph glyph-name="U" unicode="U" horiz-adv-x="659" 
d="M73 700h82v-468q0 -84 44.5 -127.5t130.5 -43.5q85 0 129.5 43.5t44.5 127.5v468h82v-468q0 -120 -67.5 -183t-188.5 -63t-189 63t-68 183v468z" />
    <glyph glyph-name="V" unicode="V" horiz-adv-x="613" 
d="M16 700h89l195 -623h12l196 623h89l-227 -700h-127z" />
    <glyph glyph-name="W" unicode="W" horiz-adv-x="838" 
d="M32 700h84l97 -620h12l127 620h134l127 -620h12l97 620h84l-113 -700h-141l-127 620h-12l-127 -620h-141z" />
    <glyph glyph-name="X" unicode="X" 
d="M29 700h96l179 -289h12l179 289h96l-216 -341v-12l220 -347h-97l-182 295h-12l-182 -295h-97l220 347v12z" />
    <glyph glyph-name="Y" unicode="Y" horiz-adv-x="613" 
d="M16 700h94l190 -337h12l190 337h95l-250 -434v-266h-82v266z" />
    <glyph glyph-name="Z" unicode="Z" horiz-adv-x="579" 
d="M55 700h476v-71l-387 -554h395v-75h-495v71l387 554h-376v75z" />
    <glyph glyph-name="bracketleft" unicode="[" horiz-adv-x="356" 
d="M138 729q0 33 21.5 55t55.5 22h107v-70h-80q-27 0 -27 -30v-852q0 -30 27 -30h80v-70h-107q-34 0 -55.5 22t-21.5 55v898z" />
    <glyph glyph-name="backslash" unicode="\" horiz-adv-x="479" 
d="M134 700l294 -900h-78l-294 900h78z" />
    <glyph glyph-name="bracketright" unicode="]" horiz-adv-x="356" 
d="M218 729v-898q0 -33 -21.5 -55t-55.5 -22h-107v70h80q27 0 27 30v852q0 30 -27 30h-80v70h107q34 0 55.5 -22t21.5 -55z" />
    <glyph glyph-name="asciicircum" unicode="^" 
d="M371 700l175 -276h-93l-137 222h-12l-137 -222h-93l175 276h122z" />
    <glyph glyph-name="underscore" unicode="_" 
d="M77 -119v71h466v-71h-466z" />
    <glyph glyph-name="grave" unicode="`" horiz-adv-x="265" 
d="M146 700l65 -130h-74l-83 130h92z" />
    <glyph glyph-name="a" unicode="a" horiz-adv-x="573" 
d="M56 355q30 63 90.5 105t145.5 42q98 0 155 -53t57 -141v-308h-75v82h-14q-49 -96 -184 -96q-80 0 -131 39.5t-51 104.5q0 127 186 145l193 18v19q0 56 -36.5 88.5t-101.5 32.5q-119 0 -167 -109zM126 132q0 -39 31.5 -60t83.5 -21q87 0 137 46.5t50 123.5v10l-183 -17
q-119 -10 -119 -82z" />
    <glyph glyph-name="b" unicode="b" horiz-adv-x="615" 
d="M75 700h76v-296h12q56 98 178 98q99 0 165 -72.5t66 -185.5t-66 -185.5t-165 -72.5q-121 0 -178 97h-14v-83h-74v700zM323 433q-78 0 -125 -51.5t-47 -137.5t47 -137.5t125 -51.5t125 50.5t47 138.5q0 87 -47.5 138t-124.5 51z" />
    <glyph glyph-name="c" unicode="c" horiz-adv-x="569" 
d="M43 244q0 112 72 185t180 73q93 0 156 -53t77 -135l-76 -15q-7 59 -48.5 95.5t-108.5 36.5q-76 0 -125.5 -52.5t-49.5 -134.5q0 -83 49.5 -135.5t127.5 -52.5q69 0 107 37t50 96l76 -15q-16 -80 -76 -134t-157 -54q-110 0 -182 73t-72 185z" />
    <glyph glyph-name="d" unicode="d" horiz-adv-x="615" 
d="M540 700v-700h-74v84h-14q-56 -98 -178 -98q-99 0 -165 72.5t-66 185.5t66 185.5t165 72.5q121 0 178 -97h12v295h76zM292 433q-77 0 -124.5 -50.5t-47.5 -138.5q0 -87 47.5 -137.5t124.5 -50.5q78 0 125 51t47 137t-47 137.5t-125 51.5z" />
    <glyph glyph-name="e" unicode="e" horiz-adv-x="561" 
d="M43 248q0 108 69 181.5t174 73.5t170.5 -67.5t65.5 -175.5v-41h-399q4 -76 51 -120.5t121 -44.5q104 0 151 97l67 -35q-72 -130 -217 -130q-112 0 -182.5 74.5t-70.5 187.5zM123 282h319q-1 72 -43.5 112.5t-112.5 40.5q-69 0 -112.5 -40.5t-50.5 -112.5z" />
    <glyph glyph-name="f" unicode="f" horiz-adv-x="414" 
d="M18 488h148v134q0 36 20.5 57t55.5 21h125v-67h-98q-27 0 -27 -29v-116h151v-67h-151v-421h-76v421h-148v67z" />
    <glyph glyph-name="g" unicode="g" horiz-adv-x="615" 
d="M466 488h74v-470q0 -102 -64.5 -167t-172.5 -65q-163 0 -251 136l70 39q55 -106 176 -106q75 0 120.5 43t45.5 125v71h-12q-56 -98 -178 -98q-99 0 -165 70.5t-66 182.5t66 182.5t165 70.5q122 0 178 -98h14v84zM292 66q78 0 125 49.5t47 133.5t-47 134t-125 50
q-77 0 -124.5 -49t-47.5 -135q0 -85 47.5 -134t124.5 -49z" />
    <glyph glyph-name="h" unicode="h" horiz-adv-x="595" 
d="M75 700h76v-299h12q49 95 171 95q82 0 137.5 -52t55.5 -149v-295h-77v289q0 70 -36 105t-101 35q-74 0 -118 -46.5t-44 -131.5v-251h-76v700z" />
    <glyph glyph-name="i" unicode="i" horiz-adv-x="226" 
d="M47 640q0 28 19 46.5t47 18.5t47 -18.5t19 -46.5t-19 -46.5t-47 -18.5t-47 18.5t-19 46.5zM151 488v-488h-76v488h76z" />
    <glyph glyph-name="j" unicode="j" horiz-adv-x="229" 
d="M50 640q0 28 19 46.5t47 18.5t47 -18.5t19 -46.5t-19 -46.5t-47 -18.5t-47 18.5t-19 46.5zM155 488v-611q0 -35 -20.5 -56t-54.5 -21h-122v67h92q28 0 28 30v591h77z" />
    <glyph glyph-name="k" unicode="k" horiz-adv-x="560" 
d="M542 488l-225 -192l221 -296h-93l-184 248l-110 -93v-155h-76v700h76v-440h12l264 228h115z" />
    <glyph glyph-name="l" unicode="l" horiz-adv-x="226" 
d="M151 700v-700h-76v700h76z" />
    <glyph glyph-name="m" unicode="m" horiz-adv-x="837" 
d="M75 488h74v-66h14q43 74 138 74q100 0 139 -86h14q41 86 148 86q71 0 118.5 -44.5t47.5 -116.5v-335h-77v329q0 46 -30.5 73.5t-80.5 27.5q-53 0 -86.5 -33.5t-33.5 -94.5v-302h-77v329q0 46 -29 73.5t-79 27.5q-54 0 -89 -33.5t-35 -94.5v-302h-76v488z" />
    <glyph glyph-name="n" unicode="n" horiz-adv-x="595" 
d="M75 488h74v-87h14q49 95 171 95q82 0 137.5 -52t55.5 -149v-295h-77v289q0 70 -36 105t-101 35q-74 0 -118 -46.5t-44 -131.5v-251h-76v488z" />
    <glyph glyph-name="o" unicode="o" horiz-adv-x="583" 
d="M43 244q0 113 70 185.5t179 72.5t178.5 -72.5t69.5 -185.5t-69.5 -185.5t-178.5 -72.5t-179 72.5t-70 185.5zM119 244q0 -86 47.5 -137t125.5 -51q77 0 124.5 51.5t47.5 136.5t-47 136t-125 51t-125.5 -51.5t-47.5 -135.5z" />
    <glyph glyph-name="p" unicode="p" horiz-adv-x="615" 
d="M75 -200v688h74v-84h14q56 98 178 98q99 0 165 -72.5t66 -185.5t-66 -185.5t-165 -72.5q-121 0 -178 97h-12v-283h-76zM323 55q78 0 125 50.5t47 138.5q0 87 -47.5 138t-124.5 51q-78 0 -125 -51.5t-47 -137.5t47 -137.5t125 -51.5z" />
    <glyph glyph-name="q" unicode="q" horiz-adv-x="615" 
d="M540 -200h-76v283h-12q-57 -97 -178 -97q-99 0 -165 72.5t-66 185.5t66 185.5t165 72.5q122 0 178 -98h14v84h74v-688zM292 55q78 0 125 51.5t47 137.5t-47 137.5t-125 51.5q-77 0 -124.5 -51t-47.5 -138q0 -88 47.5 -138.5t124.5 -50.5z" />
    <glyph glyph-name="r" unicode="r" horiz-adv-x="370" 
d="M148 488v-73h14q28 75 126 75h61v-74h-84q-55 0 -84.5 -31t-29.5 -91v-294h-76v488h73z" />
    <glyph glyph-name="s" unicode="s" horiz-adv-x="531" 
d="M65 361q0 65 53 103t131 38q73 0 129.5 -30.5t112.5 -98.5l-59 -40q-74 104 -182 104q-49 0 -79 -19.5t-30 -55.5q0 -16 6.5 -27.5t15.5 -18.5t26 -12.5t29.5 -8t35.5 -5.5l46 -7q96 -14 144.5 -44.5t48.5 -95.5q0 -70 -59 -113.5t-154 -43.5t-158.5 46.5t-94.5 113.5
l69 35q24 -61 72 -94.5t114 -33.5q60 0 97 24t37 64q0 19 -9.5 32.5t-30.5 21t-37.5 11t-47.5 7.5l-46 7q-88 12 -134 44t-46 97z" />
    <glyph glyph-name="t" unicode="t" horiz-adv-x="427" 
d="M14 488h148v176h77v-176h155v-67h-155v-325q0 -29 26 -29h101v-67h-129q-34 0 -54.5 21t-20.5 56v344h-148v67z" />
    <glyph glyph-name="u" unicode="u" horiz-adv-x="595" 
d="M521 0h-75v87h-14q-50 -96 -171 -96q-82 0 -137 52t-55 149v296h76v-289q0 -70 36 -105t101 -35q74 0 118 46.5t44 131.5v251h77v-488z" />
    <glyph glyph-name="v" unicode="v" horiz-adv-x="534" 
d="M25 488h83l153 -413h12l153 413h83l-188 -488h-108z" />
    <glyph glyph-name="w" unicode="w" horiz-adv-x="770" 
d="M39 488h80l90 -406h13l107 406h113l107 -406h13l90 406h80l-116 -488h-117l-107 406h-13l-109 -406h-115z" />
    <glyph glyph-name="x" unicode="x" horiz-adv-x="572" 
d="M42 488h93l145 -189h12l144 189h94l-187 -238l195 -250h-95l-151 200h-12l-152 -200h-94l195 250z" />
    <glyph glyph-name="y" unicode="y" horiz-adv-x="554" 
d="M446 488h83l-295 -688h-83l86 193l-212 495h83l163 -391h12z" />
    <glyph glyph-name="z" unicode="z" horiz-adv-x="521" 
d="M60 488h411v-61l-321 -361h329v-66h-429v61l321 361h-311v66z" />
    <glyph glyph-name="braceleft" unicode="{" horiz-adv-x="389" 
d="M84 325h60q27 0 27 29v375q0 33 21.5 55t54.5 22h108v-70h-80q-27 0 -27 -30v-344q0 -36 -19.5 -56t-54.5 -20h-9v-12h9q35 0 54.5 -20t19.5 -56v-344q0 -30 27 -30h80v-70h-108q-33 0 -54.5 22t-21.5 55v375q0 29 -27 29h-60v90z" />
    <glyph glyph-name="bar" unicode="|" horiz-adv-x="229" 
d="M153 806v-1052h-77v1052h77z" />
    <glyph glyph-name="braceright" unicode="}" horiz-adv-x="389" 
d="M305 325v-90h-60q-27 0 -27 -29v-375q0 -33 -21.5 -55t-54.5 -22h-108v70h80q27 0 27 30v344q0 36 20 56.5t55 20.5h8v10h-8q-35 0 -55 20.5t-20 56.5v344q0 30 -27 30h-80v70h108q33 0 54.5 -22t21.5 -55v-375q0 -29 27 -29h60z" />
    <glyph glyph-name="asciitilde" unicode="~" 
d="M339 361q1 -2 3 -6.5t3 -6t3 -5t3 -5t3 -4t4 -3.5t4.5 -2t5 -1.5t5.5 -0.5q11 0 29 14l85 70l43 -52l-93 -74q-42 -32 -72 -32q-31 0 -49 15.5t-34 46.5q-1 2 -3 6.5t-3 6t-3 5t-3 5t-3 4t-4 3.5t-4.5 2t-5 1.5t-5.5 0.5q-12 0 -29 -14l-85 -70l-43 52l93 74q42 32 72 32
q31 0 49 -15.5t34 -46.5z" />
    <glyph glyph-name="exclamdown" unicode="&#xa1;" horiz-adv-x="243" 
d="M52 441q0 29 20 49t49 20t49 -20t20 -49t-20 -49t-49 -20t-49 20t-20 49zM81 -200v511h81v-511h-81z" />
    <glyph glyph-name="cent" unicode="&#xa2;" horiz-adv-x="617" 
d="M570 448h-82v12q0 73 -33 119t-97 57v-572q65 10 97.5 55.5t32.5 118.5v16h82v-16q0 -107 -56 -173t-156 -77v-104h-77v104q-108 11 -167.5 86.5t-59.5 201.5v148q0 126 60 201.5t167 86.5v104h77v-104q101 -11 156.5 -77.5t55.5 -171.5v-15zM136 274q0 -90 37.5 -144.5
t107.5 -65.5v572q-70 -11 -107.5 -65.5t-37.5 -144.5v-152z" />
    <glyph glyph-name="sterling" unicode="&#xa3;" horiz-adv-x="632" 
d="M65 376h70v119q0 105 56 162t155 57q101 0 159 -57.5t58 -161.5v-55h-81v55q0 67 -35 105.5t-101 38.5q-62 0 -96 -38.5t-34 -105.5v-119h127v-71h-127v-230h351v-75h-506v75h74v230h-70v71z" />
    <glyph glyph-name="currency" unicode="&#xa4;" 
d="M50 557l53 53l59 -59q67 49 148 49t148 -49l59 59l53 -53l-59 -59q49 -67 49 -148t-49 -148l59 -59l-53 -53l-59 59q-63 -49 -148 -49t-148 49l-59 -59l-53 53l59 59q-49 63 -49 148t49 148zM134 350q0 -76 50.5 -127t125.5 -51t125.5 51t50.5 127t-50.5 127t-125.5 51
t-125.5 -51t-50.5 -127z" />
    <glyph glyph-name="yen" unicode="&#xa5;" 
d="M597 700l-204 -354h113v-68h-159v-59h159v-68h-159v-151h-82v151h-158v68h158v59h-158v68h112l-203 354h94l190 -337h13l189 337h95z" />
    <glyph glyph-name="brokenbar" unicode="&#xa6;" horiz-adv-x="229" 
d="M153 366h-77v440h77v-440zM76 194h77v-440h-77v440z" />
    <glyph glyph-name="section" unicode="&#xa7;" horiz-adv-x="500" 
d="M68 566q0 68 51 108t128 40q86 0 139.5 -43.5t53.5 -118.5v-32h-75v26q0 47 -33.5 73t-84.5 26q-46 0 -75 -21t-29 -60q0 -44 32.5 -64t100.5 -33q87 -16 128.5 -51t41.5 -98q0 -48 -23 -83q22 -35 22 -79v-7q0 -74 -48.5 -118.5t-139.5 -44.5q-98 0 -155.5 53.5
t-57.5 144.5v20h75v-16q0 -62 36 -97.5t103 -35.5q53 0 82.5 25t29.5 68q0 41 -28 62t-97 32q-91 15 -134 52t-43 102q0 46 25 81q-25 34 -25 84v5zM274 309q58 -10 88 -26q9 14 9 31q0 36 -28.5 56t-96.5 31q-54 10 -94 29q-9 -15 -9 -34q0 -37 29.5 -56.5t101.5 -30.5z
" />
    <glyph glyph-name="dieresis" unicode="&#xa8;" horiz-adv-x="419" 
d="M54 640q0 28 19 46.5t47 18.5t47 -18.5t19 -46.5t-19 -46.5t-47 -18.5t-47 18.5t-19 46.5zM232 640q0 28 19 46.5t47 18.5q29 0 48 -18.5t19 -46.5t-19 -46.5t-48 -18.5q-28 0 -47 18.5t-19 46.5z" />
    <glyph glyph-name="copyright" unicode="&#xa9;" horiz-adv-x="734" 
d="M76 506q0 97 48.5 145.5t139.5 48.5h206q91 0 139.5 -48.5t48.5 -145.5v-312q0 -97 -48.5 -145.5t-139.5 -48.5h-206q-91 0 -139.5 48.5t-48.5 145.5v312zM150 500v-300q0 -132 121 -132h193q119 0 119 132v300q0 132 -119 132h-193q-121 0 -121 -132zM224 405
q0 80 39 122t108 42t105 -40t36 -108v-15h-73v22q0 73 -68 73q-33 0 -52.5 -21.5t-19.5 -61.5v-139q0 -36 20.5 -57t51.5 -21q68 0 68 73v21h73v-15q0 -70 -35.5 -108.5t-103.5 -38.5q-72 0 -110.5 40t-38.5 119v113z" />
    <glyph glyph-name="guillemotleft" unicode="&#xab;" horiz-adv-x="780" 
d="M69 289l314 182h6v-87l-244 -133v-11l244 -133v-87h-6l-314 182v87zM387 289l314 182h6v-87l-243 -133v-11l243 -133v-87h-6l-314 182v87z" />
    <glyph glyph-name="logicalnot" unicode="&#xac;" 
d="M101 314v72h418v-154h-71v82h-347z" />
    <glyph glyph-name="registered" unicode="&#xae;" horiz-adv-x="545" 
d="M62 506q0 91 59.5 149.5t150.5 58.5t150.5 -58.5t59.5 -149.5t-59.5 -149.5t-150.5 -58.5t-150.5 58.5t-59.5 149.5zM103 506q0 -76 46.5 -122.5t122.5 -46.5q77 0 123 46t46 123t-46 123t-123 46q-76 0 -122.5 -46.5t-46.5 -122.5zM200 619h85q35 0 55 -18t20 -44
q0 -42 -40 -56v-6q32 -3 32 -34v-64h-39v61q0 21 -21 21h-53v-82h-39v222zM239 584v-69h48q16 0 25 9.5t9 24.5t-9 25t-25 10h-48z" />
    <glyph glyph-name="macron" unicode="&#xaf;" horiz-adv-x="390" 
d="M336 635v-65h-282v65h282z" />
    <glyph glyph-name="degree" unicode="&#xb0;" horiz-adv-x="389" 
d="M52 580q0 59 41 97.5t102 38.5q62 0 102 -38t40 -98t-41.5 -98t-100.5 -38q-60 0 -101.5 39.5t-41.5 96.5zM122 580q0 -33 20.5 -52.5t52.5 -19.5q31 0 51.5 20t20.5 52t-20 52t-52 20t-52.5 -20t-20.5 -52z" />
    <glyph glyph-name="plusminus" unicode="&#xb1;" 
d="M101 314v72h173v173h72v-173h173v-72h-173v-173h-72v173h-173zM101 0v71h418v-71h-418z" />
    <glyph glyph-name="acute" unicode="&#xb4;" horiz-adv-x="265" 
d="M116 700h93l-78 -130h-75z" />
    <glyph glyph-name="uni00B5" unicode="&#xb5;" horiz-adv-x="595" 
d="M75 -200v696h76v-295q0 -147 137 -147q76 0 119 46.5t43 131.5v264h77v-496h-75v84h-13q-42 -98 -152 -98q-76 0 -123 51h-13v-237h-76z" />
    <glyph glyph-name="paragraph" unicode="&#xb6;" horiz-adv-x="589" 
d="M29 504q0 89 61.5 141.5t158.5 52.5h264v-698h-75v629h-94v-629h-75v300h-22q-97 0 -157.5 52.5t-60.5 140.5v11zM104 502v-6q0 -58 37 -92.5t107 -34.5h21v260h-21q-70 0 -107 -35t-37 -92z" />
    <glyph glyph-name="periodcentered" unicode="&#xb7;" horiz-adv-x="243" 
d="M52 350q0 29 20 49t49 20t49 -20t20 -49t-20 -49t-49 -20t-49 20t-20 49z" />
    <glyph glyph-name="cedilla" unicode="&#xb8;" horiz-adv-x="301" 
d="M81 32h50l-20 -94h6q17 24 52 24q34 0 56 -23t22 -59q0 -42 -27 -67t-68 -25q-67 0 -93 55l47 32q8 -37 44 -37q17 0 29 10.5t12 29.5q0 17 -10.5 27.5t-25.5 10.5q-17 0 -28 -14h-73v6z" />
    <glyph glyph-name="guillemotright" unicode="&#xbb;" horiz-adv-x="780" 
d="M389 289v-87l-314 -182h-6v87l243 133v11l-243 133v87h6zM707 289v-87l-314 -182h-6v87l244 133v11l-244 133v87h6z" />
    <glyph glyph-name="onequarter" unicode="&#xbc;" horiz-adv-x="701" 
d="M365 460l177 249l63 -46l-195 -237zM116 700h91v-350h-68v269h-10l-51 -75h-66v10zM512 350h108v-211h74v-58h-74v-81h-67v81h-210v52zM543 294l-122 -155h132v155h-10zM269 240l-177 -249l-63 46l195 237z" />
    <glyph glyph-name="onehalf" unicode="&#xbd;" horiz-adv-x="713" 
d="M365 460l177 249l63 -46l-195 -237zM116 700h91v-350h-68v269h-10l-51 -75h-66v10zM540 364q68 0 109.5 -32.5t41.5 -87.5q0 -53 -33.5 -81t-101.5 -43q-53 -12 -75.5 -26t-25.5 -36h234v-58h-308v35q0 55 34 87.5t103 47.5q56 12 80.5 28.5t24.5 45.5q0 28 -23 44.5
t-60 16.5q-42 0 -66.5 -21.5t-25.5 -60.5h-67q1 64 45.5 102.5t113.5 38.5zM269 240l-177 -249l-63 46l195 237z" />
    <glyph glyph-name="threequarters" unicode="&#xbe;" horiz-adv-x="777" 
d="M441 460l177 249l63 -46l-195 -237zM26 700h304v-46l-117 -81v-10q54 -2 86 -28t32 -76q0 -54 -45 -88.5t-110 -34.5q-71 0 -114.5 36.5t-43.5 98.5h67q0 -37 24.5 -56.5t65.5 -19.5q40 0 64.5 18.5t24.5 47.5q0 58 -89 58h-60v46l108 77h-197v58zM588 350h108v-211h74
v-58h-74v-81h-67v81h-210v52zM619 294l-122 -155h132v155h-10zM345 240l-177 -249l-63 46l195 237z" />
    <glyph glyph-name="questiondown" unicode="&#xbf;" horiz-adv-x="581" 
d="M231 441q0 29 20 49t49 20t49 -20t20 -49t-20 -49t-49 -20t-49 20t-20 49zM531 -3q0 -98 -67.5 -154.5t-177.5 -56.5q-105 0 -171 55t-66 137v8q0 73 37 118t112 78l27 11q34 16 34 58v56h82v-58q0 -48 -15.5 -75t-57.5 -45l-27 -12q-61 -26 -85.5 -55t-24.5 -80
q0 -55 43.5 -88t111.5 -33q71 0 117 36.5t46 103.5v37h82v-41z" />
    <glyph glyph-name="Agrave" unicode="&#xc0;" horiz-adv-x="623" 
d="M309 880l60 -113h-78l-80 113h98zM248 700h127l230 -700h-88l-56 177h-299l-56 -177h-88zM185 251h252l-120 375h-12z" />
    <glyph glyph-name="Aacute" unicode="&#xc1;" horiz-adv-x="623" 
d="M312 880h99l-77 -113h-79zM248 700h127l230 -700h-88l-56 177h-299l-56 -177h-88zM185 251h252l-120 375h-12z" />
    <glyph glyph-name="Acircumflex" unicode="&#xc2;" horiz-adv-x="623" 
d="M371 767l-54 62h-11l-54 -62h-91l102 113h97l103 -113h-92zM248 700h127l230 -700h-88l-56 177h-299l-56 -177h-88zM185 251h252l-120 375h-12z" />
    <glyph glyph-name="Atilde" unicode="&#xc3;" horiz-adv-x="623" 
d="M149 803l38 49q33 44 71 44q43 0 78 -53q10 -14 15.5 -19t14.5 -5q15 0 28 18l33 44l49 -37l-38 -49q-33 -44 -71 -44q-26 0 -42.5 12.5t-36.5 39.5q-16 24 -30 24t-27 -18l-33 -43zM248 700h127l230 -700h-88l-56 177h-299l-56 -177h-88zM185 251h252l-120 375h-12z" />
    <glyph glyph-name="Adieresis" unicode="&#xc4;" horiz-adv-x="623" 
d="M152 818q0 28 19 46.5t47 18.5t47 -18.5t19 -46.5t-19 -46.5t-47 -18.5t-47 18.5t-19 46.5zM339 818q0 28 19 46.5t47 18.5t47 -18.5t19 -46.5t-19 -46.5t-47 -18.5t-47 18.5t-19 46.5zM248 700h127l230 -700h-88l-56 177h-299l-56 -177h-88zM185 251h252l-120 375h-12z
" />
    <glyph glyph-name="Aring" unicode="&#xc5;" horiz-adv-x="623" 
d="M210 839q0 43 29 70.5t72 27.5q44 0 73 -27.5t29 -70.5q0 -42 -29 -69.5t-73 -27.5q-43 0 -72 27.5t-29 69.5zM269 839q0 -18 11.5 -30t30.5 -12t31 12t12 30q0 19 -12 31t-31 12t-30.5 -12t-11.5 -31zM248 700h127l230 -700h-88l-56 177h-299l-56 -177h-88zM185 251h252
l-120 375h-12z" />
    <glyph glyph-name="AE" unicode="&#xc6;" horiz-adv-x="570" 
d="M376 75h151v-75h-233v177h-138l-52 -177h-86l207 700h296v-75h-145v-237h121v-74h-121v-239zM294 251v374h-12l-106 -374h118z" />
    <glyph glyph-name="Ccedilla" unicode="&#xc7;" horiz-adv-x="631" 
d="M584 446h-82v14q0 84 -44.5 131.5t-130.5 47.5q-91 0 -141 -55.5t-50 -156.5v-154q0 -101 50 -156.5t141 -55.5q88 0 131.5 46.5t43.5 130.5v16h82v-16q0 -112 -63 -179t-176 -73l-10 -48h6q17 24 52 24q34 0 56 -23t22 -59q0 -42 -27 -67t-68 -25q-67 0 -93 55l47 32
q8 -37 44 -37q17 0 29 10.5t12 29.5q0 17 -10.5 27.5t-25.5 10.5q-17 0 -28 -14h-73v6l17 79q-114 10 -177.5 85t-63.5 204v148q0 137 72.5 213.5t200.5 76.5q122 0 189.5 -68t67.5 -183v-17z" />
    <glyph glyph-name="Egrave" unicode="&#xc8;" horiz-adv-x="563" 
d="M301 880l60 -113h-78l-80 113h98zM76 700h440v-75h-358v-237h330v-74h-330v-239h362v-75h-444v700z" />
    <glyph glyph-name="Eacute" unicode="&#xc9;" horiz-adv-x="563" 
d="M303 880h99l-77 -113h-79zM76 700h440v-75h-358v-237h330v-74h-330v-239h362v-75h-444v700z" />
    <glyph glyph-name="Ecircumflex" unicode="&#xca;" horiz-adv-x="563" 
d="M362 767l-54 62h-11l-54 -62h-91l102 113h97l103 -113h-92zM76 700h440v-75h-358v-237h330v-74h-330v-239h362v-75h-444v700z" />
    <glyph glyph-name="Edieresis" unicode="&#xcb;" horiz-adv-x="563" 
d="M144 818q0 28 19 46.5t47 18.5t47 -18.5t19 -46.5t-19 -46.5t-47 -18.5t-47 18.5t-19 46.5zM331 818q0 28 19 46.5t47 18.5t47 -18.5t19 -46.5t-19 -46.5t-47 -18.5t-47 18.5t-19 46.5zM76 700h440v-75h-358v-237h330v-74h-330v-239h362v-75h-444v700z" />
    <glyph glyph-name="Igrave" unicode="&#xcc;" horiz-adv-x="234" 
d="M114 880l60 -113h-78l-80 113h98zM76 700h82v-700h-82v700z" />
    <glyph glyph-name="Iacute" unicode="&#xcd;" horiz-adv-x="234" 
d="M117 880h99l-77 -113h-79zM76 700h82v-700h-82v700z" />
    <glyph glyph-name="Icircumflex" unicode="&#xce;" horiz-adv-x="234" 
d="M176 767l-54 62h-11l-54 -62h-91l102 113h97l103 -113h-92zM76 700h82v-700h-82v700z" />
    <glyph glyph-name="Idieresis" unicode="&#xcf;" horiz-adv-x="234" 
d="M-43 818q0 28 19 46.5t47 18.5t47 -18.5t19 -46.5t-19 -46.5t-47 -18.5t-47 18.5t-19 46.5zM144 818q0 28 19 46.5t47 18.5t47 -18.5t19 -46.5t-19 -46.5t-47 -18.5t-47 18.5t-19 46.5zM76 700h82v-700h-82v700z" />
    <glyph glyph-name="Eth" unicode="&#xd0;" horiz-adv-x="625" 
d="M288 700q136 0 209.5 -68.5t73.5 -206.5v-150q0 -138 -73.5 -206.5t-209.5 -68.5h-212v320h-82v68h82v312h212zM489 274v152q0 106 -49.5 152.5t-153.5 46.5h-128v-237h128v-68h-128v-245h128q104 0 153.5 46.5t49.5 152.5z" />
    <glyph glyph-name="Ntilde" unicode="&#xd1;" horiz-adv-x="655" 
d="M165 803l38 49q33 44 71 44q43 0 78 -53q10 -14 15.5 -19t14.5 -5q15 0 28 18l33 44l49 -37l-38 -49q-33 -44 -71 -44q-26 0 -42.5 12.5t-36.5 39.5q-16 24 -30 24t-27 -18l-33 -43zM76 700h148l261 -621h12v621h82v-700h-149l-260 620h-12v-620h-82v700z" />
    <glyph glyph-name="Ograve" unicode="&#xd2;" horiz-adv-x="648" 
d="M321 880l60 -113h-78l-80 113h98zM54 428q0 136 72 211t198 75q125 0 197.5 -75t72.5 -211v-156q0 -136 -72 -211t-198 -75t-198 75t-72 211v156zM136 431v-162q0 -100 48 -154t140 -54t140 54t48 154v162q0 100 -48 154t-140 54t-140 -54t-48 -154z" />
    <glyph glyph-name="Oacute" unicode="&#xd3;" horiz-adv-x="648" 
d="M324 880h99l-77 -113h-79zM54 428q0 136 72 211t198 75q125 0 197.5 -75t72.5 -211v-156q0 -136 -72 -211t-198 -75t-198 75t-72 211v156zM136 431v-162q0 -100 48 -154t140 -54t140 54t48 154v162q0 100 -48 154t-140 54t-140 -54t-48 -154z" />
    <glyph glyph-name="Ocircumflex" unicode="&#xd4;" horiz-adv-x="648" 
d="M383 767l-54 62h-11l-54 -62h-91l102 113h97l103 -113h-92zM54 428q0 136 72 211t198 75q125 0 197.5 -75t72.5 -211v-156q0 -136 -72 -211t-198 -75t-198 75t-72 211v156zM136 431v-162q0 -100 48 -154t140 -54t140 54t48 154v162q0 100 -48 154t-140 54t-140 -54
t-48 -154z" />
    <glyph glyph-name="Otilde" unicode="&#xd5;" horiz-adv-x="648" 
d="M161 803l38 49q33 44 71 44q43 0 78 -53q10 -14 15.5 -19t14.5 -5q15 0 28 18l33 44l49 -37l-38 -49q-33 -44 -71 -44q-26 0 -42.5 12.5t-36.5 39.5q-16 24 -30 24t-27 -18l-33 -43zM54 428q0 136 72 211t198 75q125 0 197.5 -75t72.5 -211v-156q0 -136 -72 -211
t-198 -75t-198 75t-72 211v156zM136 431v-162q0 -100 48 -154t140 -54t140 54t48 154v162q0 100 -48 154t-140 54t-140 -54t-48 -154z" />
    <glyph glyph-name="Odieresis" unicode="&#xd6;" horiz-adv-x="648" 
d="M164 818q0 28 19 46.5t47 18.5t47 -18.5t19 -46.5t-19 -46.5t-47 -18.5t-47 18.5t-19 46.5zM351 818q0 28 19 46.5t47 18.5t47 -18.5t19 -46.5t-19 -46.5t-47 -18.5t-47 18.5t-19 46.5zM54 428q0 136 72 211t198 75q125 0 197.5 -75t72.5 -211v-156q0 -136 -72 -211
t-198 -75t-198 75t-72 211v156zM136 431v-162q0 -100 48 -154t140 -54t140 54t48 154v162q0 100 -48 154t-140 54t-140 -54t-48 -154z" />
    <glyph glyph-name="multiply" unicode="&#xd7;" 
d="M112 497l51 51l147 -148l147 148l51 -51l-148 -147l148 -147l-51 -51l-147 148l-147 -148l-51 51l148 147z" />
    <glyph glyph-name="Oslash" unicode="&#xd8;" horiz-adv-x="648" 
d="M472 677q122 -71 122 -249v-156q0 -136 -72 -211t-198 -75q-39 0 -77 8l-26 -80l-70 22l28 84q-125 69 -125 252v156q0 136 72 211t198 75q44 0 81 -9l23 69l69 -22zM136 269q0 -121 68 -172l177 536q-25 6 -57 6q-92 0 -140 -54t-48 -154v-162zM512 269v162
q0 117 -65 170l-176 -535q27 -5 53 -5q92 0 140 54t48 154z" />
    <glyph glyph-name="Ugrave" unicode="&#xd9;" horiz-adv-x="659" 
d="M327 880l60 -113h-78l-80 113h98zM73 700h82v-468q0 -84 44.5 -127.5t130.5 -43.5q85 0 129.5 43.5t44.5 127.5v468h82v-468q0 -120 -67.5 -183t-188.5 -63t-189 63t-68 183v468z" />
    <glyph glyph-name="Uacute" unicode="&#xda;" horiz-adv-x="659" 
d="M330 880h99l-77 -113h-79zM73 700h82v-468q0 -84 44.5 -127.5t130.5 -43.5q85 0 129.5 43.5t44.5 127.5v468h82v-468q0 -120 -67.5 -183t-188.5 -63t-189 63t-68 183v468z" />
    <glyph glyph-name="Ucircumflex" unicode="&#xdb;" horiz-adv-x="659" 
d="M389 767l-54 62h-11l-54 -62h-91l102 113h97l103 -113h-92zM73 700h82v-468q0 -84 44.5 -127.5t130.5 -43.5q85 0 129.5 43.5t44.5 127.5v468h82v-468q0 -120 -67.5 -183t-188.5 -63t-189 63t-68 183v468z" />
    <glyph glyph-name="Udieresis" unicode="&#xdc;" horiz-adv-x="659" 
d="M170 818q0 28 19 46.5t47 18.5t47 -18.5t19 -46.5t-19 -46.5t-47 -18.5t-47 18.5t-19 46.5zM357 818q0 28 19 46.5t47 18.5t47 -18.5t19 -46.5t-19 -46.5t-47 -18.5t-47 18.5t-19 46.5zM73 700h82v-468q0 -84 44.5 -127.5t130.5 -43.5q85 0 129.5 43.5t44.5 127.5v468h82
v-468q0 -120 -67.5 -183t-188.5 -63t-189 63t-68 183v468z" />
    <glyph glyph-name="Yacute" unicode="&#xdd;" horiz-adv-x="613" 
d="M307 880h99l-77 -113h-79zM16 700h94l190 -337h12l190 337h95l-250 -434v-266h-82v266z" />
    <glyph glyph-name="Thorn" unicode="&#xde;" horiz-adv-x="587" 
d="M76 700h82v-134h183q96 0 156.5 -56t60.5 -150t-61 -150t-156 -56h-183v-154h-82v700zM158 492v-264h174q68 0 106 34.5t38 97.5t-37 97.5t-107 34.5h-174z" />
    <glyph glyph-name="germandbls" unicode="&#xdf;" horiz-adv-x="609" 
d="M69 0v441q0 124 68 198.5t181 74.5q84 0 137.5 -44.5t53.5 -108.5q0 -55 -27.5 -91.5t-84.5 -78.5q-23 -16 -23 -32q0 -18 32 -31l23 -10q70 -31 111.5 -69.5t41.5 -102.5q0 -69 -50 -114.5t-131 -45.5q-72 0 -128 36.5t-87 89.5l64 41q22 -41 62.5 -70t87.5 -29
q46 0 75.5 23.5t29.5 66.5q0 36 -25.5 58t-75.5 46l-35 15q-74 33 -74 91q0 22 11.5 41.5t23 29.5t35.5 28q68 50 68 104q0 39 -32.5 64t-82.5 25q-66 0 -119.5 -49.5t-53.5 -150.5v-446h-76z" />
    <glyph glyph-name="agrave" unicode="&#xe0;" horiz-adv-x="573" 
d="M280 700l65 -130h-74l-83 130h92zM56 355q30 63 90.5 105t145.5 42q98 0 155 -53t57 -141v-308h-75v82h-14q-49 -96 -184 -96q-80 0 -131 39.5t-51 104.5q0 127 186 145l193 18v19q0 56 -36.5 88.5t-101.5 32.5q-119 0 -167 -109zM126 132q0 -39 31.5 -60t83.5 -21
q87 0 137 46.5t50 123.5v10l-183 -17q-119 -10 -119 -82z" />
    <glyph glyph-name="aacute" unicode="&#xe1;" horiz-adv-x="573" 
d="M292 700h93l-78 -130h-75zM56 355q30 63 90.5 105t145.5 42q98 0 155 -53t57 -141v-308h-75v82h-14q-49 -96 -184 -96q-80 0 -131 39.5t-51 104.5q0 127 186 145l193 18v19q0 56 -36.5 88.5t-101.5 32.5q-119 0 -167 -109zM126 132q0 -39 31.5 -60t83.5 -21
q87 0 137 46.5t50 123.5v10l-183 -17q-119 -10 -119 -82z" />
    <glyph glyph-name="acircumflex" unicode="&#xe2;" horiz-adv-x="573" 
d="M351 570l-57 78h-12l-56 -78h-85l97 130h100l97 -130h-84zM56 355q30 63 90.5 105t145.5 42q98 0 155 -53t57 -141v-308h-75v82h-14q-49 -96 -184 -96q-80 0 -131 39.5t-51 104.5q0 127 186 145l193 18v19q0 56 -36.5 88.5t-101.5 32.5q-119 0 -167 -109zM126 132
q0 -39 31.5 -60t83.5 -21q87 0 137 46.5t50 123.5v10l-183 -17q-119 -10 -119 -82z" />
    <glyph glyph-name="atilde" unicode="&#xe3;" horiz-adv-x="573" 
d="M121 612l41 53q33 44 73 44q25 0 41.5 -12.5t35.5 -41.5q17 -26 31 -26q13 0 28 18l36 48l48 -37l-41 -53q-33 -44 -72 -44q-25 0 -41.5 12.5t-36.5 41.5q-17 26 -31 26t-27 -18l-36 -48zM56 355q30 63 90.5 105t145.5 42q98 0 155 -53t57 -141v-308h-75v82h-14
q-49 -96 -184 -96q-80 0 -131 39.5t-51 104.5q0 127 186 145l193 18v19q0 56 -36.5 88.5t-101.5 32.5q-119 0 -167 -109zM126 132q0 -39 31.5 -60t83.5 -21q87 0 137 46.5t50 123.5v10l-183 -17q-119 -10 -119 -82z" />
    <glyph glyph-name="adieresis" unicode="&#xe4;" horiz-adv-x="573" 
d="M132 640q0 28 19 46.5t47 18.5t47 -18.5t19 -46.5t-19 -46.5t-47 -18.5t-47 18.5t-19 46.5zM310 640q0 28 19 46.5t47 18.5q29 0 48 -18.5t19 -46.5t-19 -46.5t-48 -18.5q-28 0 -47 18.5t-19 46.5zM56 355q30 63 90.5 105t145.5 42q98 0 155 -53t57 -141v-308h-75v82h-14
q-49 -96 -184 -96q-80 0 -131 39.5t-51 104.5q0 127 186 145l193 18v19q0 56 -36.5 88.5t-101.5 32.5q-119 0 -167 -109zM126 132q0 -39 31.5 -60t83.5 -21q87 0 137 46.5t50 123.5v10l-183 -17q-119 -10 -119 -82z" />
    <glyph glyph-name="aring" unicode="&#xe5;" horiz-adv-x="573" 
d="M186 639q0 43 29 70.5t72 27.5q44 0 73 -27.5t29 -70.5t-29 -70.5t-73 -27.5q-43 0 -72 27.5t-29 70.5zM245 639q0 -19 11.5 -30.5t30.5 -11.5t31 11.5t12 30.5t-12 30.5t-31 11.5t-30.5 -11.5t-11.5 -30.5zM56 355q30 63 90.5 105t145.5 42q98 0 155 -53t57 -141v-308
h-75v82h-14q-49 -96 -184 -96q-80 0 -131 39.5t-51 104.5q0 127 186 145l193 18v19q0 56 -36.5 88.5t-101.5 32.5q-119 0 -167 -109zM126 132q0 -39 31.5 -60t83.5 -21q87 0 137 46.5t50 123.5v10l-183 -17q-119 -10 -119 -82z" />
    <glyph glyph-name="ae" unicode="&#xe6;" horiz-adv-x="572" 
d="M534 219h-212v-163q93 13 133 94l61 -39q-78 -125 -235 -125q-106 0 -169 40.5t-63 114.5q0 69 55 105t137 36h6v149q-41 -4 -76.5 -32t-52.5 -75l-64 35q29 62 86 102.5t141 40.5q110 0 181.5 -68t71.5 -174v-41zM454 282q-2 62 -37.5 101t-94.5 48v-149h132zM236 58h11
v161h-11q-50 0 -80.5 -19.5t-30.5 -60.5q0 -40 32 -60.5t79 -20.5z" />
    <glyph glyph-name="ccedilla" unicode="&#xe7;" horiz-adv-x="569" 
d="M530 174q-16 -75 -71 -128t-143 -59l-10 -49h6q17 24 52 24q34 0 56 -23t22 -59q0 -42 -27 -67t-68 -25q-67 0 -93 55l47 32q8 -37 44 -37q17 0 29 10.5t12 29.5q0 17 -10.5 27.5t-25.5 10.5q-17 0 -28 -14h-73v6l17 80q-98 11 -160.5 81.5t-62.5 174.5q0 112 72 185
t180 73q93 0 156 -53t77 -135l-76 -15q-7 59 -48.5 95.5t-108.5 36.5q-76 0 -125.5 -52.5t-49.5 -134.5q0 -83 49.5 -135.5t127.5 -52.5q69 0 107 37t50 96z" />
    <glyph glyph-name="egrave" unicode="&#xe8;" horiz-adv-x="561" 
d="M279 700l65 -130h-74l-83 130h92zM43 248q0 108 69 181.5t174 73.5t170.5 -67.5t65.5 -175.5v-41h-399q4 -76 51 -120.5t121 -44.5q104 0 151 97l67 -35q-72 -130 -217 -130q-112 0 -182.5 74.5t-70.5 187.5zM123 282h319q-1 72 -43.5 112.5t-112.5 40.5
q-69 0 -112.5 -40.5t-50.5 -112.5z" />
    <glyph glyph-name="eacute" unicode="&#xe9;" horiz-adv-x="561" 
d="M291 700h93l-78 -130h-75zM43 248q0 108 69 181.5t174 73.5t170.5 -67.5t65.5 -175.5v-41h-399q4 -76 51 -120.5t121 -44.5q104 0 151 97l67 -35q-72 -130 -217 -130q-112 0 -182.5 74.5t-70.5 187.5zM123 282h319q-1 72 -43.5 112.5t-112.5 40.5q-69 0 -112.5 -40.5
t-50.5 -112.5z" />
    <glyph glyph-name="ecircumflex" unicode="&#xea;" horiz-adv-x="561" 
d="M349 570l-57 78h-12l-56 -78h-85l97 130h100l97 -130h-84zM43 248q0 108 69 181.5t174 73.5t170.5 -67.5t65.5 -175.5v-41h-399q4 -76 51 -120.5t121 -44.5q104 0 151 97l67 -35q-72 -130 -217 -130q-112 0 -182.5 74.5t-70.5 187.5zM123 282h319q-1 72 -43.5 112.5
t-112.5 40.5q-69 0 -112.5 -40.5t-50.5 -112.5z" />
    <glyph glyph-name="edieresis" unicode="&#xeb;" horiz-adv-x="561" 
d="M131 640q0 28 19 46.5t47 18.5t47 -18.5t19 -46.5t-19 -46.5t-47 -18.5t-47 18.5t-19 46.5zM309 640q0 28 19 46.5t47 18.5q29 0 48 -18.5t19 -46.5t-19 -46.5t-48 -18.5q-28 0 -47 18.5t-19 46.5zM43 248q0 108 69 181.5t174 73.5t170.5 -67.5t65.5 -175.5v-41h-399
q4 -76 51 -120.5t121 -44.5q104 0 151 97l67 -35q-72 -130 -217 -130q-112 0 -182.5 74.5t-70.5 187.5zM123 282h319q-1 72 -43.5 112.5t-112.5 40.5q-69 0 -112.5 -40.5t-50.5 -112.5z" />
    <glyph glyph-name="igrave" unicode="&#xec;" horiz-adv-x="226" 
d="M105 700l65 -130h-74l-83 130h92zM151 488v-488h-76v488h76z" />
    <glyph glyph-name="iacute" unicode="&#xed;" horiz-adv-x="226" 
d="M118 700h93l-78 -130h-75zM151 488v-488h-76v488h76z" />
    <glyph glyph-name="icircumflex" unicode="&#xee;" horiz-adv-x="226" 
d="M176 570l-57 78h-12l-56 -78h-85l97 130h100l97 -130h-84zM151 488v-488h-76v488h76z" />
    <glyph glyph-name="idieresis" unicode="&#xef;" horiz-adv-x="226" 
d="M-42 640q0 28 19 46.5t47 18.5t47 -18.5t19 -46.5t-19 -46.5t-47 -18.5t-47 18.5t-19 46.5zM136 640q0 28 19 46.5t47 18.5q29 0 48 -18.5t19 -46.5t-19 -46.5t-48 -18.5q-28 0 -47 18.5t-19 46.5zM151 488v-488h-76v488h76z" />
    <glyph glyph-name="eth" unicode="&#xf0;" horiz-adv-x="587" 
d="M148 643l16 71q54 -7 113 -29l25 49l61 -26l-24 -50q98 -52 151 -155.5t53 -243.5q0 -125 -70.5 -199t-181.5 -74q-109 0 -178.5 72.5t-69.5 185.5t65.5 185.5t168.5 72.5q99 0 148 -66h12q-32 104 -127 157l-25 -48l-61 27l24 48q-48 17 -100 23zM119 244
q0 -86 47.5 -137t125.5 -51q77 0 124.5 51.5t47.5 136.5t-47 136t-125 51t-125.5 -51.5t-47.5 -135.5z" />
    <glyph glyph-name="ntilde" unicode="&#xf1;" horiz-adv-x="595" 
d="M135 612l41 53q33 44 73 44q25 0 41.5 -12.5t35.5 -41.5q17 -26 31 -26q13 0 28 18l36 48l48 -37l-41 -53q-33 -44 -72 -44q-25 0 -41.5 12.5t-36.5 41.5q-17 26 -31 26t-27 -18l-36 -48zM75 488h74v-87h14q49 95 171 95q82 0 137.5 -52t55.5 -149v-295h-77v289
q0 70 -36 105t-101 35q-74 0 -118 -46.5t-44 -131.5v-251h-76v488z" />
    <glyph glyph-name="ograve" unicode="&#xf2;" horiz-adv-x="583" 
d="M284 700l65 -130h-74l-83 130h92zM43 244q0 113 70 185.5t179 72.5t178.5 -72.5t69.5 -185.5t-69.5 -185.5t-178.5 -72.5t-179 72.5t-70 185.5zM119 244q0 -86 47.5 -137t125.5 -51q77 0 124.5 51.5t47.5 136.5t-47 136t-125 51t-125.5 -51.5t-47.5 -135.5z" />
    <glyph glyph-name="oacute" unicode="&#xf3;" horiz-adv-x="583" 
d="M296 700h93l-78 -130h-75zM43 244q0 113 70 185.5t179 72.5t178.5 -72.5t69.5 -185.5t-69.5 -185.5t-178.5 -72.5t-179 72.5t-70 185.5zM119 244q0 -86 47.5 -137t125.5 -51q77 0 124.5 51.5t47.5 136.5t-47 136t-125 51t-125.5 -51.5t-47.5 -135.5z" />
    <glyph glyph-name="ocircumflex" unicode="&#xf4;" horiz-adv-x="583" 
d="M354 570l-57 78h-12l-56 -78h-85l97 130h100l97 -130h-84zM43 244q0 113 70 185.5t179 72.5t178.5 -72.5t69.5 -185.5t-69.5 -185.5t-178.5 -72.5t-179 72.5t-70 185.5zM119 244q0 -86 47.5 -137t125.5 -51q77 0 124.5 51.5t47.5 136.5t-47 136t-125 51t-125.5 -51.5
t-47.5 -135.5z" />
    <glyph glyph-name="otilde" unicode="&#xf5;" horiz-adv-x="583" 
d="M124 612l41 53q33 44 73 44q25 0 41.5 -12.5t35.5 -41.5q17 -26 31 -26q13 0 28 18l36 48l48 -37l-41 -53q-33 -44 -72 -44q-25 0 -41.5 12.5t-36.5 41.5q-17 26 -31 26t-27 -18l-36 -48zM43 244q0 113 70 185.5t179 72.5t178.5 -72.5t69.5 -185.5t-69.5 -185.5
t-178.5 -72.5t-179 72.5t-70 185.5zM119 244q0 -86 47.5 -137t125.5 -51q77 0 124.5 51.5t47.5 136.5t-47 136t-125 51t-125.5 -51.5t-47.5 -135.5z" />
    <glyph glyph-name="odieresis" unicode="&#xf6;" horiz-adv-x="583" 
d="M136 640q0 28 19 46.5t47 18.5t47 -18.5t19 -46.5t-19 -46.5t-47 -18.5t-47 18.5t-19 46.5zM314 640q0 28 19 46.5t47 18.5q29 0 48 -18.5t19 -46.5t-19 -46.5t-48 -18.5q-28 0 -47 18.5t-19 46.5zM43 244q0 113 70 185.5t179 72.5t178.5 -72.5t69.5 -185.5t-69.5 -185.5
t-178.5 -72.5t-179 72.5t-70 185.5zM119 244q0 -86 47.5 -137t125.5 -51q77 0 124.5 51.5t47.5 136.5t-47 136t-125 51t-125.5 -51.5t-47.5 -135.5z" />
    <glyph glyph-name="divide" unicode="&#xf7;" 
d="M240 515q0 29 20.5 49.5t49.5 20.5t49.5 -20.5t20.5 -49.5t-20.5 -49t-49.5 -20t-49.5 20t-20.5 49zM101 386h418v-72h-418v72zM240 185q0 29 20.5 49t49.5 20t49.5 -20t20.5 -49t-20.5 -49.5t-49.5 -20.5t-49.5 20.5t-20.5 49.5z" />
    <glyph glyph-name="oslash" unicode="&#xf8;" horiz-adv-x="583" 
d="M412 474q60 -32 94 -92t34 -138q0 -113 -69.5 -185.5t-178.5 -72.5q-25 0 -53 5l-24 -66l-67 23l24 66q-60 31 -94.5 91.5t-34.5 138.5q0 113 70 185.5t179 72.5q25 0 55 -5l21 59l65 -23zM119 244q0 -114 77 -162l126 347q-20 2 -30 2q-78 0 -125.5 -51.5t-47.5 -135.5z
M292 56q77 0 124.5 51.5t47.5 136.5q0 111 -77 161l-124 -347q18 -2 29 -2z" />
    <glyph glyph-name="ugrave" unicode="&#xf9;" horiz-adv-x="595" 
d="M288 700l65 -130h-74l-83 130h92zM521 0h-75v87h-14q-50 -96 -171 -96q-82 0 -137 52t-55 149v296h76v-289q0 -70 36 -105t101 -35q74 0 118 46.5t44 131.5v251h77v-488z" />
    <glyph glyph-name="uacute" unicode="&#xfa;" horiz-adv-x="595" 
d="M300 700h93l-78 -130h-75zM521 0h-75v87h-14q-50 -96 -171 -96q-82 0 -137 52t-55 149v296h76v-289q0 -70 36 -105t101 -35q74 0 118 46.5t44 131.5v251h77v-488z" />
    <glyph glyph-name="ucircumflex" unicode="&#xfb;" horiz-adv-x="595" 
d="M358 570l-57 78h-12l-56 -78h-85l97 130h100l97 -130h-84zM521 0h-75v87h-14q-50 -96 -171 -96q-82 0 -137 52t-55 149v296h76v-289q0 -70 36 -105t101 -35q74 0 118 46.5t44 131.5v251h77v-488z" />
    <glyph glyph-name="udieresis" unicode="&#xfc;" horiz-adv-x="595" 
d="M140 640q0 28 19 46.5t47 18.5t47 -18.5t19 -46.5t-19 -46.5t-47 -18.5t-47 18.5t-19 46.5zM318 640q0 28 19 46.5t47 18.5q29 0 48 -18.5t19 -46.5t-19 -46.5t-48 -18.5q-28 0 -47 18.5t-19 46.5zM521 0h-75v87h-14q-50 -96 -171 -96q-82 0 -137 52t-55 149v296h76v-289
q0 -70 36 -105t101 -35q74 0 118 46.5t44 131.5v251h77v-488z" />
    <glyph glyph-name="yacute" unicode="&#xfd;" horiz-adv-x="554" 
d="M377 700l-78 -130h-75l60 130h93zM446 488h83l-295 -688h-83l86 193l-212 495h83l163 -391h12z" />
    <glyph glyph-name="thorn" unicode="&#xfe;" horiz-adv-x="615" 
d="M75 -200v900h76v-296h12q56 98 178 98q99 0 165 -72.5t66 -185.5t-66 -185.5t-165 -72.5q-121 0 -178 97h-12v-283h-76zM323 55q78 0 125 50.5t47 138.5q0 87 -47.5 138t-124.5 51q-78 0 -125 -51.5t-47 -137.5t47 -137.5t125 -51.5z" />
    <glyph glyph-name="ydieresis" unicode="&#xff;" horiz-adv-x="554" 
d="M190 575q-28 0 -47 18.5t-19 46.5t19 46.5t47 18.5t47 -18.5t19 -46.5t-19 -46.5t-47 -18.5zM368 575q-28 0 -47 18.5t-19 46.5t19 46.5t47 18.5q29 0 48 -18.5t19 -46.5t-19 -46.5t-48 -18.5zM446 488h83l-295 -688h-83l86 193l-212 495h83l163 -391h12z" />
    <glyph glyph-name="Amacron" unicode="&#x100;" horiz-adv-x="623" 
d="M453 832v-65h-282v65h282zM248 700h127l230 -700h-88l-56 177h-299l-56 -177h-88zM185 251h252l-120 375h-12z" />
    <glyph glyph-name="amacron" unicode="&#x101;" horiz-adv-x="573" 
d="M429 635v-65h-282v65h282zM56 355q30 63 90.5 105t145.5 42q98 0 155 -53t57 -141v-308h-75v82h-14q-49 -96 -184 -96q-80 0 -131 39.5t-51 104.5q0 127 186 145l193 18v19q0 56 -36.5 88.5t-101.5 32.5q-119 0 -167 -109zM126 132q0 -39 31.5 -60t83.5 -21
q87 0 137 46.5t50 123.5v10l-183 -17q-119 -10 -119 -82z" />
    <glyph glyph-name="Abreve" unicode="&#x102;" horiz-adv-x="623" 
d="M359 880h65v-10q0 -50 -31 -79.5t-82 -29.5t-82 29.5t-31 79.5v10h65v-7q0 -21 12.5 -34.5t35.5 -13.5t35.5 13.5t12.5 34.5v7zM248 700h127l230 -700h-88l-56 177h-299l-56 -177h-88zM185 251h252l-120 375h-12z" />
    <glyph glyph-name="abreve" unicode="&#x103;" horiz-adv-x="573" 
d="M336 700h65v-25q0 -51 -31 -81t-82 -30t-82 30t-31 81v25h65v-23q0 -22 12.5 -35.5t35.5 -13.5t35.5 13.5t12.5 35.5v23zM56 355q30 63 90.5 105t145.5 42q98 0 155 -53t57 -141v-308h-75v82h-14q-49 -96 -184 -96q-80 0 -131 39.5t-51 104.5q0 127 186 145l193 18v19
q0 56 -36.5 88.5t-101.5 32.5q-119 0 -167 -109zM126 132q0 -39 31.5 -60t83.5 -21q87 0 137 46.5t50 123.5v10l-183 -17q-119 -10 -119 -82z" />
    <glyph glyph-name="Aogonek" unicode="&#x104;" horiz-adv-x="623" 
d="M592 -102h43v-62h-56q-32 0 -53 18.5t-21 51.5q0 13 5 36l13 58h-6l-56 177h-299l-56 -177h-88l230 700h127l230 -700h-19l-14 -66q-2 -7 -2 -15q0 -21 22 -21zM185 251h252l-120 375h-12z" />
    <glyph glyph-name="aogonek" unicode="&#x105;" horiz-adv-x="573" 
d="M505 -102h43v-62h-56q-32 0 -53 18.5t-21 51.5q0 13 5 36l13 58h-7v82h-14q-49 -96 -184 -96q-80 0 -131 39.5t-51 104.5q0 127 186 145l193 18v19q0 56 -36.5 88.5t-101.5 32.5q-119 0 -167 -109l-67 31q30 63 90.5 105t145.5 42q98 0 155 -53t57 -141v-308h-5l-14 -66
q-2 -7 -2 -15q0 -21 22 -21zM428 221v10l-183 -17q-119 -10 -119 -82q0 -39 31.5 -60t83.5 -21q87 0 137 46.5t50 123.5z" />
    <glyph glyph-name="Cacute" unicode="&#x106;" horiz-adv-x="631" 
d="M326 880h99l-77 -113h-79zM54 424q0 137 72.5 213.5t200.5 76.5q122 0 189.5 -68t67.5 -183v-17h-82v14q0 84 -44.5 131.5t-130.5 47.5q-91 0 -141 -55.5t-50 -156.5v-154q0 -101 50 -156.5t141 -55.5q88 0 131.5 46.5t43.5 130.5v16h82v-16q0 -117 -68 -184.5
t-189 -67.5q-129 0 -201 76t-72 214v148z" />
    <glyph glyph-name="cacute" unicode="&#x107;" horiz-adv-x="569" 
d="M300 700h93l-78 -130h-75zM43 244q0 112 72 185t180 73q93 0 156 -53t77 -135l-76 -15q-7 59 -48.5 95.5t-108.5 36.5q-76 0 -125.5 -52.5t-49.5 -134.5q0 -83 49.5 -135.5t127.5 -52.5q69 0 107 37t50 96l76 -15q-16 -80 -76 -134t-157 -54q-110 0 -182 73t-72 185z" />
    <glyph glyph-name="Cdotaccent" unicode="&#x10a;" horiz-adv-x="631" 
d="M259 818q0 28 19 46.5t47 18.5t47 -18.5t19 -46.5t-19 -46.5t-47 -18.5t-47 18.5t-19 46.5zM54 424q0 137 72.5 213.5t200.5 76.5q122 0 189.5 -68t67.5 -183v-17h-82v14q0 84 -44.5 131.5t-130.5 47.5q-91 0 -141 -55.5t-50 -156.5v-154q0 -101 50 -156.5t141 -55.5
q88 0 131.5 46.5t43.5 130.5v16h82v-16q0 -117 -68 -184.5t-189 -67.5q-129 0 -201 76t-72 214v148z" />
    <glyph glyph-name="cdotaccent" unicode="&#x10b;" horiz-adv-x="569" 
d="M229 640q0 28 19 46.5t47 18.5t47 -18.5t19 -46.5t-19 -46.5t-47 -18.5t-47 18.5t-19 46.5zM43 244q0 112 72 185t180 73q93 0 156 -53t77 -135l-76 -15q-7 59 -48.5 95.5t-108.5 36.5q-76 0 -125.5 -52.5t-49.5 -134.5q0 -83 49.5 -135.5t127.5 -52.5q69 0 107 37t50 96
l76 -15q-16 -80 -76 -134t-157 -54q-110 0 -182 73t-72 185z" />
    <glyph glyph-name="Ccaron" unicode="&#x10c;" horiz-adv-x="631" 
d="M385 880h92l-103 -113h-97l-102 113h91l54 -62h11zM54 424q0 137 72.5 213.5t200.5 76.5q122 0 189.5 -68t67.5 -183v-17h-82v14q0 84 -44.5 131.5t-130.5 47.5q-91 0 -141 -55.5t-50 -156.5v-154q0 -101 50 -156.5t141 -55.5q88 0 131.5 46.5t43.5 130.5v16h82v-16
q0 -117 -68 -184.5t-189 -67.5q-129 0 -201 76t-72 214v148z" />
    <glyph glyph-name="ccaron" unicode="&#x10d;" horiz-adv-x="569" 
d="M358 700h84l-97 -130h-100l-97 130h85l56 -78h12zM43 244q0 112 72 185t180 73q93 0 156 -53t77 -135l-76 -15q-7 59 -48.5 95.5t-108.5 36.5q-76 0 -125.5 -52.5t-49.5 -134.5q0 -83 49.5 -135.5t127.5 -52.5q69 0 107 37t50 96l76 -15q-16 -80 -76 -134t-157 -54
q-110 0 -182 73t-72 185z" />
    <glyph glyph-name="Dcaron" unicode="&#x10e;" horiz-adv-x="625" 
d="M348 880h92l-103 -113h-97l-102 113h91l54 -62h11zM76 700h212q136 0 209.5 -68.5t73.5 -206.5v-150q0 -138 -73.5 -206.5t-209.5 -68.5h-212v700zM158 625v-550h128q104 0 153.5 46.5t49.5 152.5v152q0 106 -49.5 152.5t-153.5 46.5h-128z" />
    <glyph glyph-name="dcaron" unicode="&#x10f;" horiz-adv-x="666" 
d="M540 700v-700h-74v84h-14q-56 -98 -178 -98q-99 0 -165 72.5t-66 185.5t66 185.5t165 72.5q121 0 178 -97h12v295h76zM612 700h83l-49 -176h-45zM292 433q-77 0 -124.5 -50.5t-47.5 -138.5q0 -87 47.5 -137.5t124.5 -50.5q78 0 125 51t47 137t-47 137.5t-125 51.5z" />
    <glyph glyph-name="Dcroat" unicode="&#x110;" horiz-adv-x="625" 
d="M288 700q136 0 209.5 -68.5t73.5 -206.5v-150q0 -138 -73.5 -206.5t-209.5 -68.5h-212v320h-82v68h82v312h212zM489 274v152q0 106 -49.5 152.5t-153.5 46.5h-128v-237h128v-68h-128v-245h128q104 0 153.5 46.5t49.5 152.5z" />
    <glyph glyph-name="dcroat" unicode="&#x111;" horiz-adv-x="615" 
d="M628 628v-61h-88v-567h-74v84h-14q-56 -98 -178 -98q-99 0 -165 72.5t-66 185.5t66 185.5t165 72.5q121 0 178 -97h12v162h-134v61h134v72h76v-72h88zM292 56q78 0 125 51t47 137t-47 137.5t-125 51.5q-77 0 -124.5 -50.5t-47.5 -138.5q0 -87 47.5 -137.5t124.5 -50.5z
" />
    <glyph glyph-name="Emacron" unicode="&#x112;" horiz-adv-x="563" 
d="M444 832v-65h-282v65h282zM76 700h440v-75h-358v-237h330v-74h-330v-239h362v-75h-444v700z" />
    <glyph glyph-name="emacron" unicode="&#x113;" horiz-adv-x="561" 
d="M428 635v-65h-282v65h282zM43 248q0 108 69 181.5t174 73.5t170.5 -67.5t65.5 -175.5v-41h-399q4 -76 51 -120.5t121 -44.5q104 0 151 97l67 -35q-72 -130 -217 -130q-112 0 -182.5 74.5t-70.5 187.5zM123 282h319q-1 72 -43.5 112.5t-112.5 40.5q-69 0 -112.5 -40.5
t-50.5 -112.5z" />
    <glyph glyph-name="Edotaccent" unicode="&#x116;" horiz-adv-x="563" 
d="M237 818q0 28 19 46.5t47 18.5t47 -18.5t19 -46.5t-19 -46.5t-47 -18.5t-47 18.5t-19 46.5zM76 700h440v-75h-358v-237h330v-74h-330v-239h362v-75h-444v700z" />
    <glyph glyph-name="edotaccent" unicode="&#x117;" horiz-adv-x="561" 
d="M220 640q0 28 19 46.5t47 18.5t47 -18.5t19 -46.5t-19 -46.5t-47 -18.5t-47 18.5t-19 46.5zM43 248q0 108 69 181.5t174 73.5t170.5 -67.5t65.5 -175.5v-41h-399q4 -76 51 -120.5t121 -44.5q104 0 151 97l67 -35q-72 -130 -217 -130q-112 0 -182.5 74.5t-70.5 187.5z
M123 282h319q-1 72 -43.5 112.5t-112.5 40.5q-69 0 -112.5 -40.5t-50.5 -112.5z" />
    <glyph glyph-name="Eogonek" unicode="&#x118;" horiz-adv-x="563" 
d="M341 0l-14 -66q-2 -7 -2 -15q0 -21 22 -21h43v-62h-56q-32 0 -53 18.5t-21 51.5q0 13 5 36l13 58h-202v700h440v-75h-358v-237h330v-74h-330v-239h362v-75h-179z" />
    <glyph glyph-name="eogonek" unicode="&#x119;" horiz-adv-x="561" 
d="M522 260v-41h-399q4 -76 51 -120.5t121 -44.5q104 0 151 97l67 -35q-67 -119 -194 -129l-11 -53q-2 -7 -2 -15q0 -21 22 -21h43v-62h-56q-32 0 -53 18.5t-21 51.5q0 13 5 36l10 47q-96 13 -154.5 85t-58.5 174q0 108 69 181.5t174 73.5t170.5 -67.5t65.5 -175.5zM123 282
h319q-1 72 -43.5 112.5t-112.5 40.5q-69 0 -112.5 -40.5t-50.5 -112.5z" />
    <glyph glyph-name="Ecaron" unicode="&#x11a;" horiz-adv-x="563" 
d="M362 880h92l-103 -113h-97l-102 113h91l54 -62h11zM76 700h440v-75h-358v-237h330v-74h-330v-239h362v-75h-444v700z" />
    <glyph glyph-name="ecaron" unicode="&#x11b;" horiz-adv-x="561" 
d="M349 700h84l-97 -130h-100l-97 130h85l56 -78h12zM43 248q0 108 69 181.5t174 73.5t170.5 -67.5t65.5 -175.5v-41h-399q4 -76 51 -120.5t121 -44.5q104 0 151 97l67 -35q-72 -130 -217 -130q-112 0 -182.5 74.5t-70.5 187.5zM123 282h319q-1 72 -43.5 112.5t-112.5 40.5
q-69 0 -112.5 -40.5t-50.5 -112.5z" />
    <glyph glyph-name="Gbreve" unicode="&#x11e;" horiz-adv-x="633" 
d="M370 880h65v-10q0 -50 -31 -79.5t-82 -29.5t-82 29.5t-31 79.5v10h65v-7q0 -21 12.5 -34.5t35.5 -13.5t35.5 13.5t12.5 34.5v7zM54 276v148q0 137 72.5 213.5t199.5 76.5q122 0 187.5 -68t65.5 -186v-9h-82v9q0 85 -42.5 132t-128.5 47q-91 0 -140.5 -55.5t-49.5 -156.5
v-154q0 -101 49.5 -156.5t139.5 -55.5q87 0 129.5 46.5t42.5 130.5v23h-206v74h288v-97q0 -117 -67 -184.5t-187 -67.5q-128 0 -199.5 76t-71.5 214z" />
    <glyph glyph-name="gbreve" unicode="&#x11f;" horiz-adv-x="615" 
d="M308 569q-51 0 -82 30t-31 81v25h65v-23q0 -22 12.5 -35.5t35.5 -13.5t35.5 13.5t12.5 35.5v23h65v-25q0 -51 -31 -81t-82 -30zM466 488h74v-470q0 -102 -64.5 -167t-172.5 -65q-163 0 -251 136l70 39q55 -106 176 -106q75 0 120.5 43t45.5 125v71h-12q-56 -98 -178 -98
q-99 0 -165 70.5t-66 182.5t66 182.5t165 70.5q122 0 178 -98h14v84zM292 66q78 0 125 49.5t47 133.5t-47 134t-125 50q-77 0 -124.5 -49t-47.5 -135q0 -85 47.5 -134t124.5 -49z" />
    <glyph glyph-name="Gdotaccent" unicode="&#x120;" horiz-adv-x="633" 
d="M256 818q0 28 19 46.5t47 18.5t47 -18.5t19 -46.5t-19 -46.5t-47 -18.5t-47 18.5t-19 46.5zM54 276v148q0 137 72.5 213.5t199.5 76.5q122 0 187.5 -68t65.5 -186v-9h-82v9q0 85 -42.5 132t-128.5 47q-91 0 -140.5 -55.5t-49.5 -156.5v-154q0 -101 49.5 -156.5
t139.5 -55.5q87 0 129.5 46.5t42.5 130.5v23h-206v74h288v-97q0 -117 -67 -184.5t-187 -67.5q-128 0 -199.5 76t-71.5 214z" />
    <glyph glyph-name="gdotaccent" unicode="&#x121;" horiz-adv-x="615" 
d="M308 580q-28 0 -47 18.5t-19 46.5t19 46.5t47 18.5t47 -18.5t19 -46.5t-19 -46.5t-47 -18.5zM466 488h74v-470q0 -102 -64.5 -167t-172.5 -65q-163 0 -251 136l70 39q55 -106 176 -106q75 0 120.5 43t45.5 125v71h-12q-56 -98 -178 -98q-99 0 -165 70.5t-66 182.5
t66 182.5t165 70.5q122 0 178 -98h14v84zM292 66q78 0 125 49.5t47 133.5t-47 134t-125 50q-77 0 -124.5 -49t-47.5 -135q0 -85 47.5 -134t124.5 -49z" />
    <glyph glyph-name="uni0122" unicode="&#x122;" horiz-adv-x="633" 
d="M54 276v148q0 137 72.5 213.5t199.5 76.5q122 0 187.5 -68t65.5 -186v-9h-82v9q0 85 -42.5 132t-128.5 47q-91 0 -140.5 -55.5t-49.5 -156.5v-154q0 -101 49.5 -156.5t139.5 -55.5q87 0 129.5 46.5t42.5 130.5v23h-206v74h288v-97q0 -117 -67 -184.5t-187 -67.5
q-128 0 -199.5 76t-71.5 214zM258 -119q0 31 19.5 50t49.5 19t49.5 -19t19.5 -49v-90q0 -34 -21 -55t-55 -21h-59v48h55q27 0 27 29v24q-8 -2 -17 -2q-29 0 -48.5 18.5t-19.5 47.5z" />
    <glyph glyph-name="uni0123" unicode="&#x123;" horiz-adv-x="615" 
d="M308 576q-30 0 -49.5 19t-19.5 49v91q0 34 21 54.5t55 20.5h59v-48h-55q-27 0 -27 -28v-24q8 2 17 2q29 0 48.5 -18.5t19.5 -48.5t-19.5 -49.5t-49.5 -19.5zM466 488h74v-470q0 -102 -64.5 -167t-172.5 -65q-163 0 -251 136l70 39q55 -106 176 -106q75 0 120.5 43
t45.5 125v71h-12q-56 -98 -178 -98q-99 0 -165 70.5t-66 182.5t66 182.5t165 70.5q122 0 178 -98h14v84zM292 66q78 0 125 49.5t47 133.5t-47 134t-125 50q-77 0 -124.5 -49t-47.5 -135q0 -85 47.5 -134t124.5 -49z" />
    <glyph glyph-name="Hbar" unicode="&#x126;" horiz-adv-x="645" 
d="M628 583v-69h-59v-514h-82v314h-329v-314h-82v514h-60v69h60v117h82v-117h329v117h82v-117h59zM487 388v126h-329v-126h329z" />
    <glyph glyph-name="hbar" unicode="&#x127;" horiz-adv-x="595" 
d="M334 496q82 0 137.5 -52t55.5 -149v-295h-77v289q0 70 -36 105t-101 35q-74 0 -118 -46.5t-44 -131.5v-251h-76v567h-87v61h87v72h76v-72h135v-61h-135v-166h12q49 95 171 95z" />
    <glyph glyph-name="Imacron" unicode="&#x12a;" horiz-adv-x="234" 
d="M258 832v-65h-282v65h282zM76 700h82v-700h-82v700z" />
    <glyph glyph-name="imacron" unicode="&#x12b;" horiz-adv-x="226" 
d="M255 635v-65h-282v65h282zM151 488v-488h-76v488h76z" />
    <glyph glyph-name="Iogonek" unicode="&#x12e;" horiz-adv-x="234" 
d="M155 -102h43v-62h-56q-32 0 -53 18.5t-21 51.5q0 13 5 36l13 58h-10v700h82v-700h-9l-14 -66q-2 -7 -2 -15q0 -21 22 -21z" />
    <glyph glyph-name="iogonek" unicode="&#x12f;" horiz-adv-x="226" 
d="M113 575q-28 0 -47 18.5t-19 46.5t19 46.5t47 18.5t47 -18.5t19 -46.5t-19 -46.5t-47 -18.5zM151 -102h43v-62h-56q-32 0 -53 18.5t-21 51.5q0 13 5 36l13 58h-7v488h76v-488h-6l-14 -66q-2 -7 -2 -15q0 -21 22 -21z" />
    <glyph glyph-name="Idotaccent" unicode="&#x130;" horiz-adv-x="234" 
d="M51 818q0 28 19 46.5t47 18.5t47 -18.5t19 -46.5t-19 -46.5t-47 -18.5t-47 18.5t-19 46.5zM76 700h82v-700h-82v700z" />
    <glyph glyph-name="dotlessi" unicode="&#x131;" horiz-adv-x="226" 
d="M151 488v-488h-76v488h76z" />
    <glyph glyph-name="IJ" unicode="&#x132;" horiz-adv-x="578" 
d="M73 700h82v-338h-82v338zM423 700h82v-490q0 -109 -54 -166.5t-157 -57.5t-162 58.5t-59 165.5v42h82v-42q0 -69 35.5 -109t104.5 -40q128 0 128 149v490z" />
    <glyph glyph-name="ij" unicode="&#x133;" horiz-adv-x="455" 
d="M47 640q0 28 19 46.5t47 18.5t47 -18.5t19 -46.5t-19 -46.5t-47 -18.5t-47 18.5t-19 46.5zM276 640q0 28 19 46.5t47 18.5t47 -18.5t19 -46.5t-19 -46.5t-47 -18.5t-47 18.5t-19 46.5zM151 488v-488h-76v488h76zM381 488v-611q0 -35 -20.5 -56t-54.5 -21h-122v67h92
q28 0 28 30v591h77z" />
    <glyph glyph-name="uni0136" unicode="&#x136;" horiz-adv-x="637" 
d="M636 700l-302 -281l297 -419h-99l-257 363l-117 -109v-254h-82v700h82v-331h12l353 331h113zM322 -50q30 0 49.5 -19t19.5 -49v-90q0 -34 -21 -55t-55 -21h-59v48h55q27 0 27 29v24q-8 -2 -17 -2q-29 0 -48.5 18.5t-19.5 47.5q0 31 19.5 50t49.5 19z" />
    <glyph glyph-name="uni0137" unicode="&#x137;" horiz-adv-x="560" 
d="M542 488l-225 -192l221 -296h-93l-184 248l-110 -93v-155h-76v700h76v-440h12l264 228h115zM296 -50q30 0 49.5 -19t19.5 -49v-90q0 -34 -21 -55t-55 -21h-59v48h55q27 0 27 29v24q-8 -2 -17 -2q-29 0 -48.5 18.5t-19.5 47.5q0 31 19.5 50t49.5 19z" />
    <glyph glyph-name="Lacute" unicode="&#x139;" horiz-adv-x="538" 
d="M117 880h99l-77 -113h-79zM76 700h82v-625h359v-75h-441v700z" />
    <glyph glyph-name="lacute" unicode="&#x13a;" horiz-adv-x="226" 
d="M113 880h99l-77 -113h-79zM151 700v-700h-76v700h76z" />
    <glyph glyph-name="uni013B" unicode="&#x13b;" horiz-adv-x="538" 
d="M76 700h82v-625h359v-75h-441v700zM235 -119q0 31 19.5 50t49.5 19t49.5 -19t19.5 -49v-90q0 -34 -21 -55t-55 -21h-59v48h55q27 0 27 29v24q-8 -2 -17 -2q-29 0 -48.5 18.5t-19.5 47.5z" />
    <glyph glyph-name="uni013C" unicode="&#x13c;" horiz-adv-x="226" 
d="M151 700v-700h-76v700h76zM44 -119q0 31 19.5 50t49.5 19t49.5 -19t19.5 -49v-90q0 -34 -21 -55t-55 -21h-59v48h55q27 0 27 29v24q-8 -2 -17 -2q-29 0 -48.5 18.5t-19.5 47.5z" />
    <glyph glyph-name="Lcaron" unicode="&#x13d;" horiz-adv-x="538" 
d="M76 700h82v-625h359v-75h-441v700zM232 700h83l-49 -176h-45z" />
    <glyph glyph-name="lcaron" unicode="&#x13e;" horiz-adv-x="274" 
d="M151 700v-700h-76v700h76zM219 700h84l-50 -176h-45z" />
    <glyph glyph-name="Ldot" unicode="&#x13f;" horiz-adv-x="538" 
d="M76 700h82v-625h359v-75h-441v700zM312 350q0 29 20 49t49 20t49 -20t20 -49t-20 -49t-49 -20t-49 20t-20 49z" />
    <glyph glyph-name="ldot" unicode="&#x140;" horiz-adv-x="364" 
d="M151 700v-700h-76v700h76zM226 263q0 29 20 49t49 20t49 -20t20 -49t-20 -49t-49 -20t-49 20t-20 49z" />
    <glyph glyph-name="Lslash" unicode="&#x141;" 
d="M125 700h83v-299l61 31l33 -66l-94 -49v-240h348v-77h-431v275l-62 -31l-34 67l96 48v341z" />
    <glyph glyph-name="lslash" unicode="&#x142;" horiz-adv-x="311" 
d="M295 358l-101 -48v-310h-77v273l-72 -35l-29 59l101 48v355h77v-318l72 35z" />
    <glyph glyph-name="Nacute" unicode="&#x143;" horiz-adv-x="655" 
d="M328 880h99l-77 -113h-79zM76 700h148l261 -621h12v621h82v-700h-149l-260 620h-12v-620h-82v700z" />
    <glyph glyph-name="nacute" unicode="&#x144;" horiz-adv-x="595" 
d="M307 700h93l-78 -130h-75zM75 488h74v-87h14q49 95 171 95q82 0 137.5 -52t55.5 -149v-295h-77v289q0 70 -36 105t-101 35q-74 0 -118 -46.5t-44 -131.5v-251h-76v488z" />
    <glyph glyph-name="uni0145" unicode="&#x145;" horiz-adv-x="655" 
d="M76 700h148l261 -621h12v621h82v-700h-149l-260 620h-12v-620h-82v700zM258 -119q0 31 19.5 50t49.5 19t49.5 -19t19.5 -49v-90q0 -34 -21 -55t-55 -21h-59v48h55q27 0 27 29v24q-8 -2 -17 -2q-29 0 -48.5 18.5t-19.5 47.5z" />
    <glyph glyph-name="uni0146" unicode="&#x146;" horiz-adv-x="595" 
d="M75 488h74v-87h14q49 95 171 95q82 0 137.5 -52t55.5 -149v-295h-77v289q0 70 -36 105t-101 35q-74 0 -118 -46.5t-44 -131.5v-251h-76v488zM231 -119q0 31 19.5 50t49.5 19t49.5 -19t19.5 -49v-90q0 -34 -21 -55t-55 -21h-59v48h55q27 0 27 29v24q-8 -2 -17 -2
q-29 0 -48.5 18.5t-19.5 47.5z" />
    <glyph glyph-name="Ncaron" unicode="&#x147;" horiz-adv-x="655" 
d="M387 880h92l-103 -113h-97l-102 113h91l54 -62h11zM76 700h148l261 -621h12v621h82v-700h-149l-260 620h-12v-620h-82v700z" />
    <glyph glyph-name="ncaron" unicode="&#x148;" horiz-adv-x="595" 
d="M365 700h84l-97 -130h-100l-97 130h85l56 -78h12zM75 488h74v-87h14q49 95 171 95q82 0 137.5 -52t55.5 -149v-295h-77v289q0 70 -36 105t-101 35q-74 0 -118 -46.5t-44 -131.5v-251h-76v488z" />
    <glyph glyph-name="Eng" unicode="&#x14a;" horiz-adv-x="655" 
d="M497 700h82v-797q0 -49 -26 -76t-75 -27h-162v70h138q43 0 43 45v85h-67l-260 620h-12v-620h-82v700h148l261 -621h12v621z" />
    <glyph glyph-name="eng" unicode="&#x14b;" horiz-adv-x="595" 
d="M336 502q83 0 137 -53.5t54 -154.5v-417q0 -33 -21.5 -55t-55.5 -22h-121v68h94q27 0 27 30v389q0 147 -137 147q-76 0 -119 -47t-43 -131v-256h-76v488h74v-85h13q47 99 174 99z" />
    <glyph glyph-name="Omacron" unicode="&#x14c;" horiz-adv-x="648" 
d="M465 832v-65h-282v65h282zM54 428q0 136 72 211t198 75q125 0 197.5 -75t72.5 -211v-156q0 -136 -72 -211t-198 -75t-198 75t-72 211v156zM136 431v-162q0 -100 48 -154t140 -54t140 54t48 154v162q0 100 -48 154t-140 54t-140 -54t-48 -154z" />
    <glyph glyph-name="omacron" unicode="&#x14d;" horiz-adv-x="583" 
d="M433 635v-65h-282v65h282zM43 244q0 113 70 185.5t179 72.5t178.5 -72.5t69.5 -185.5t-69.5 -185.5t-178.5 -72.5t-179 72.5t-70 185.5zM119 244q0 -86 47.5 -137t125.5 -51q77 0 124.5 51.5t47.5 136.5t-47 136t-125 51t-125.5 -51.5t-47.5 -135.5z" />
    <glyph glyph-name="Ohungarumlaut" unicode="&#x150;" horiz-adv-x="648" 
d="M265 880h98l-80 -113h-78zM402 880h98l-80 -113h-78zM54 428q0 136 72 211t198 75q125 0 197.5 -75t72.5 -211v-156q0 -136 -72 -211t-198 -75t-198 75t-72 211v156zM136 431v-162q0 -100 48 -154t140 -54t140 54t48 154v162q0 100 -48 154t-140 54t-140 -54t-48 -154z
" />
    <glyph glyph-name="ohungarumlaut" unicode="&#x151;" horiz-adv-x="583" 
d="M236 700h92l-83 -130h-74zM367 700h92l-83 -130h-74zM43 244q0 113 70 185.5t179 72.5t178.5 -72.5t69.5 -185.5t-69.5 -185.5t-178.5 -72.5t-179 72.5t-70 185.5zM119 244q0 -86 47.5 -137t125.5 -51q77 0 124.5 51.5t47.5 136.5t-47 136t-125 51t-125.5 -51.5
t-47.5 -135.5z" />
    <glyph glyph-name="OE" unicode="&#x152;" horiz-adv-x="570" 
d="M377 75h150v-75h-232q-113 0 -177 74t-64 210v132q0 136 64 210t177 74h227v-75h-145v-237h121v-74h-121v-239zM295 73v554q-78 0 -118.5 -53t-40.5 -152v-144q0 -99 40.5 -152t118.5 -53z" />
    <glyph glyph-name="oe" unicode="&#x153;" horiz-adv-x="591" 
d="M552 219h-212v-163q94 13 133 95l61 -39q-77 -126 -230 -126q-115 0 -188 72.5t-73 185.5t72.5 185.5t187.5 72.5q109 0 179 -67.5t70 -174.5v-41zM472 282q-2 62 -37.5 101t-94.5 48v-149h132zM119 244q0 -78 39 -127t108 -60v374q-68 -11 -107.5 -61.5t-39.5 -125.5z
" />
    <glyph glyph-name="Racute" unicode="&#x154;" horiz-adv-x="615" 
d="M407 880l-77 -113h-79l57 113h99zM578 497q0 -82 -48.5 -135.5t-128.5 -64.5l162 -297h-91l-154 294h-160v-294h-82v700h285q96 0 156.5 -55.5t60.5 -147.5zM158 625v-256h194q68 0 106 33.5t38 94.5q0 62 -37 95t-107 33h-194z" />
    <glyph glyph-name="racute" unicode="&#x155;" horiz-adv-x="370" 
d="M221 700h93l-78 -130h-75zM148 488v-73h14q28 75 126 75h61v-74h-84q-55 0 -84.5 -31t-29.5 -91v-294h-76v488h73z" />
    <glyph glyph-name="uni0156" unicode="&#x156;" horiz-adv-x="615" 
d="M578 497q0 -82 -48.5 -135.5t-128.5 -64.5l162 -297h-91l-154 294h-160v-294h-82v700h285q96 0 156.5 -55.5t60.5 -147.5zM158 625v-256h194q68 0 106 33.5t38 94.5q0 62 -37 95t-107 33h-194zM312 -50q30 0 49.5 -19t19.5 -49v-90q0 -34 -21 -55t-55 -21h-59v48h55
q27 0 27 29v24q-8 -2 -17 -2q-29 0 -48.5 18.5t-19.5 47.5q0 31 19.5 50t49.5 19z" />
    <glyph glyph-name="uni0157" unicode="&#x157;" horiz-adv-x="370" 
d="M148 488v-73h14q28 75 126 75h61v-74h-84q-55 0 -84.5 -31t-29.5 -91v-294h-76v488h73zM44 -119q0 31 19.5 50t49.5 19t49.5 -19t19.5 -49v-90q0 -34 -21 -55t-55 -21h-59v48h55q27 0 27 29v24q-8 -2 -17 -2q-29 0 -48.5 18.5t-19.5 47.5z" />
    <glyph glyph-name="Rcaron" unicode="&#x158;" horiz-adv-x="615" 
d="M356 767h-97l-102 113h91l54 -62h11l54 62h92zM578 497q0 -82 -48.5 -135.5t-128.5 -64.5l162 -297h-91l-154 294h-160v-294h-82v700h285q96 0 156.5 -55.5t60.5 -147.5zM158 625v-256h194q68 0 106 33.5t38 94.5q0 62 -37 95t-107 33h-194z" />
    <glyph glyph-name="rcaron" unicode="&#x159;" horiz-adv-x="370" 
d="M279 700h84l-97 -130h-100l-97 130h85l56 -78h12zM148 488v-73h14q28 75 126 75h61v-74h-84q-55 0 -84.5 -31t-29.5 -91v-294h-76v488h73z" />
    <glyph glyph-name="Sacute" unicode="&#x15a;" horiz-adv-x="608" 
d="M302 880h99l-77 -113h-79zM303 714q111 0 182 -56.5t71 -158.5v-37h-82v31q0 71 -48 109t-123 38q-65 0 -107.5 -31.5t-42.5 -83.5t34.5 -78.5t113.5 -44.5l55 -13q99 -22 150.5 -68t51.5 -130q0 -93 -69 -149t-177 -56q-127 0 -200 68.5t-73 187.5v30h82v-24
q0 -93 50 -140.5t142 -47.5q75 0 119 36t44 93q0 53 -35.5 81t-108.5 44l-56 13q-100 23 -152.5 66.5t-52.5 130.5q0 85 66.5 137.5t165.5 52.5z" />
    <glyph glyph-name="sacute" unicode="&#x15b;" horiz-adv-x="531" 
d="M268 700h93l-78 -130h-75zM65 361q0 65 53 103t131 38q73 0 129.5 -30.5t112.5 -98.5l-59 -40q-74 104 -182 104q-49 0 -79 -19.5t-30 -55.5q0 -16 6.5 -27.5t15.5 -18.5t26 -12.5t29.5 -8t35.5 -5.5l46 -7q96 -14 144.5 -44.5t48.5 -95.5q0 -70 -59 -113.5t-154 -43.5
t-158.5 46.5t-94.5 113.5l69 35q24 -61 72 -94.5t114 -33.5q60 0 97 24t37 64q0 19 -9.5 32.5t-30.5 21t-37.5 11t-47.5 7.5l-46 7q-88 12 -134 44t-46 97z" />
    <glyph glyph-name="Scedilla" unicode="&#x15e;" horiz-adv-x="608" 
d="M558 191q0 -88 -61.5 -143t-160.5 -61l-10 -49h6q17 24 52 24q34 0 56 -23t22 -59q0 -42 -27 -67t-68 -25q-67 0 -93 55l47 32q8 -37 44 -37q17 0 29 10.5t12 29.5q0 17 -10.5 27.5t-25.5 10.5q-17 0 -28 -14h-73v6l17 79q-116 7 -181.5 74.5t-65.5 180.5v30h82v-24
q0 -93 50 -140.5t142 -47.5q75 0 119 36t44 93q0 53 -35.5 81t-108.5 44l-56 13q-100 23 -152.5 66.5t-52.5 130.5q0 85 66.5 137.5t165.5 52.5q111 0 182 -56.5t71 -158.5v-37h-82v31q0 71 -48 109t-123 38q-65 0 -107.5 -31.5t-42.5 -83.5t34.5 -78.5t113.5 -44.5l55 -13
q99 -22 150.5 -68t51.5 -130z" />
    <glyph glyph-name="scedilla" unicode="&#x15f;" horiz-adv-x="531" 
d="M493 143q0 -67 -53 -109.5t-141 -47.5l-10 -48h6q17 24 52 24q34 0 56 -23t22 -59q0 -42 -27 -67t-68 -25q-67 0 -93 55l47 32q8 -37 44 -37q17 0 29 10.5t12 29.5q0 17 -10.5 27.5t-25.5 10.5q-17 0 -28 -14h-73v6l17 79q-82 8 -138 53t-84 106l69 35q24 -61 72 -94.5
t114 -33.5q60 0 97 24t37 64q0 19 -9.5 32.5t-30.5 21t-37.5 11t-47.5 7.5l-46 7q-88 12 -134 44t-46 97t53 103t131 38q73 0 129.5 -30.5t112.5 -98.5l-59 -40q-74 104 -182 104q-49 0 -79 -19.5t-30 -55.5q0 -16 6.5 -27.5t15.5 -18.5t26 -12.5t29.5 -8t35.5 -5.5l46 -7
q96 -14 144.5 -44.5t48.5 -95.5z" />
    <glyph glyph-name="Scaron" unicode="&#x160;" horiz-adv-x="608" 
d="M361 880h92l-103 -113h-97l-102 113h91l54 -62h11zM303 714q111 0 182 -56.5t71 -158.5v-37h-82v31q0 71 -48 109t-123 38q-65 0 -107.5 -31.5t-42.5 -83.5t34.5 -78.5t113.5 -44.5l55 -13q99 -22 150.5 -68t51.5 -130q0 -93 -69 -149t-177 -56q-127 0 -200 68.5
t-73 187.5v30h82v-24q0 -93 50 -140.5t142 -47.5q75 0 119 36t44 93q0 53 -35.5 81t-108.5 44l-56 13q-100 23 -152.5 66.5t-52.5 130.5q0 85 66.5 137.5t165.5 52.5z" />
    <glyph glyph-name="scaron" unicode="&#x161;" horiz-adv-x="531" 
d="M326 700h84l-97 -130h-100l-97 130h85l56 -78h12zM65 361q0 65 53 103t131 38q73 0 129.5 -30.5t112.5 -98.5l-59 -40q-74 104 -182 104q-49 0 -79 -19.5t-30 -55.5q0 -16 6.5 -27.5t15.5 -18.5t26 -12.5t29.5 -8t35.5 -5.5l46 -7q96 -14 144.5 -44.5t48.5 -95.5
q0 -70 -59 -113.5t-154 -43.5t-158.5 46.5t-94.5 113.5l69 35q24 -61 72 -94.5t114 -33.5q60 0 97 24t37 64q0 19 -9.5 32.5t-30.5 21t-37.5 11t-47.5 7.5l-46 7q-88 12 -134 44t-46 97z" />
    <glyph glyph-name="uni0162" unicode="&#x162;" horiz-adv-x="590" 
d="M336 0h-17l-13 -62h6q17 24 52 24q34 0 56 -23t22 -59q0 -42 -27 -67t-68 -25q-67 0 -93 55l47 32q8 -37 44 -37q17 0 29 10.5t12 29.5q0 17 -10.5 27.5t-25.5 10.5q-17 0 -28 -14h-73v6l20 92h-15v625h-233v75h549v-75h-234v-625z" />
    <glyph glyph-name="uni0163" unicode="&#x163;" horiz-adv-x="427" 
d="M394 421h-155v-325q0 -29 26 -29h101v-67h-101l-13 -62h6q17 24 52 24q34 0 56 -23t22 -59q0 -42 -27 -67t-68 -25q-67 0 -93 55l47 32q8 -37 44 -37q17 0 29 10.5t12 29.5q0 17 -10.5 27.5t-25.5 10.5q-17 0 -28 -14h-73v6l21 94q-54 15 -54 75v344h-148v67h148v176h77
v-176h155v-67z" />
    <glyph glyph-name="Tcaron" unicode="&#x164;" horiz-adv-x="590" 
d="M354 880h92l-103 -113h-97l-102 113h91l54 -62h11zM21 700h549v-75h-234v-625h-82v625h-233v75z" />
    <glyph glyph-name="tcaron" unicode="&#x165;" horiz-adv-x="427" 
d="M323 749h83l-49 -176h-45zM14 488h148v176h77v-176h155v-67h-155v-325q0 -29 26 -29h101v-67h-129q-34 0 -54.5 21t-20.5 56v344h-148v67z" />
    <glyph glyph-name="Tbar" unicode="&#x166;" horiz-adv-x="590" 
d="M570 625h-234v-237h105v-68h-105v-320h-82v320h-105v68h105v237h-233v75h549v-75z" />
    <glyph glyph-name="tbar" unicode="&#x167;" horiz-adv-x="427" 
d="M394 421h-155v-126h155v-67h-155v-132q0 -29 26 -29h101v-67h-129q-34 0 -54.5 21t-20.5 56v151h-148v67h148v126h-148v67h148v212h77v-212h155v-67z" />
    <glyph glyph-name="Umacron" unicode="&#x16a;" horiz-adv-x="659" 
d="M471 832v-65h-282v65h282zM73 700h82v-468q0 -84 44.5 -127.5t130.5 -43.5q85 0 129.5 43.5t44.5 127.5v468h82v-468q0 -120 -67.5 -183t-188.5 -63t-189 63t-68 183v468z" />
    <glyph glyph-name="umacron" unicode="&#x16b;" horiz-adv-x="595" 
d="M437 635v-65h-282v65h282zM521 0h-75v87h-14q-50 -96 -171 -96q-82 0 -137 52t-55 149v296h76v-289q0 -70 36 -105t101 -35q74 0 118 46.5t44 131.5v251h77v-488z" />
    <glyph glyph-name="Ubreve" unicode="&#x16c;" horiz-adv-x="659" 
d="M377 880h65v-10q0 -50 -31 -79.5t-82 -29.5t-82 29.5t-31 79.5v10h65v-7q0 -21 12.5 -34.5t35.5 -13.5t35.5 13.5t12.5 34.5v7zM73 700h82v-468q0 -84 44.5 -127.5t130.5 -43.5q85 0 129.5 43.5t44.5 127.5v468h82v-468q0 -120 -67.5 -183t-188.5 -63t-189 63t-68 183
v468z" />
    <glyph glyph-name="ubreve" unicode="&#x16d;" horiz-adv-x="595" 
d="M343 700h65v-25q0 -51 -31 -81t-82 -30t-82 30t-31 81v25h65v-23q0 -22 12.5 -35.5t35.5 -13.5t35.5 13.5t12.5 35.5v23zM521 0h-75v87h-14q-50 -96 -171 -96q-82 0 -137 52t-55 149v296h76v-289q0 -70 36 -105t101 -35q74 0 118 46.5t44 131.5v251h77v-488z" />
    <glyph glyph-name="Uring" unicode="&#x16e;" horiz-adv-x="659" 
d="M228 839q0 43 29 70.5t72 27.5q44 0 73 -27.5t29 -70.5q0 -42 -29 -69.5t-73 -27.5q-43 0 -72 27.5t-29 69.5zM287 839q0 -18 11.5 -30t30.5 -12t31 12t12 30q0 19 -12 31t-31 12t-30.5 -12t-11.5 -31zM73 700h82v-468q0 -84 44.5 -127.5t130.5 -43.5q85 0 129.5 43.5
t44.5 127.5v468h82v-468q0 -120 -67.5 -183t-188.5 -63t-189 63t-68 183v468z" />
    <glyph glyph-name="uring" unicode="&#x16f;" horiz-adv-x="595" 
d="M194 639q0 43 29 70.5t72 27.5q44 0 73 -27.5t29 -70.5t-29 -70.5t-73 -27.5q-43 0 -72 27.5t-29 70.5zM253 639q0 -19 11.5 -30.5t30.5 -11.5t31 11.5t12 30.5t-12 30.5t-31 11.5t-30.5 -11.5t-11.5 -30.5zM521 0h-75v87h-14q-50 -96 -171 -96q-82 0 -137 52t-55 149
v296h76v-289q0 -70 36 -105t101 -35q74 0 118 46.5t44 131.5v251h77v-488z" />
    <glyph glyph-name="Uhungarumlaut" unicode="&#x170;" horiz-adv-x="659" 
d="M271 880h98l-80 -113h-78zM408 880h98l-80 -113h-78zM73 700h82v-468q0 -84 44.5 -127.5t130.5 -43.5q85 0 129.5 43.5t44.5 127.5v468h82v-468q0 -120 -67.5 -183t-188.5 -63t-189 63t-68 183v468z" />
    <glyph glyph-name="uhungarumlaut" unicode="&#x171;" horiz-adv-x="595" 
d="M240 700h92l-83 -130h-74zM371 700h92l-83 -130h-74zM521 0h-75v87h-14q-50 -96 -171 -96q-82 0 -137 52t-55 149v296h76v-289q0 -70 36 -105t101 -35q74 0 118 46.5t44 131.5v251h77v-488z" />
    <glyph glyph-name="Uogonek" unicode="&#x172;" horiz-adv-x="659" 
d="M504 700h82v-468q0 -112 -59.5 -174.5t-166.5 -70.5l-11 -53q-2 -7 -2 -15q0 -21 22 -21h43v-62h-56q-32 0 -53 18.5t-21 51.5q0 13 5 36l10 45q-107 8 -165.5 70.5t-58.5 174.5v468h82v-468q0 -84 44.5 -127.5t130.5 -43.5q85 0 129.5 43.5t44.5 127.5v468z" />
    <glyph glyph-name="uogonek" unicode="&#x173;" horiz-adv-x="595" 
d="M521 -102h43v-62h-56q-32 0 -53 18.5t-21 51.5q0 13 5 36l13 58h-6v87h-14q-50 -96 -171 -96q-82 0 -137 52t-55 149v296h76v-289q0 -70 36 -105t101 -35q74 0 118 46.5t44 131.5v251h77v-488h-6l-14 -66q-2 -7 -2 -15q0 -21 22 -21z" />
    <glyph glyph-name="Wcircumflex" unicode="&#x174;" horiz-adv-x="838" 
d="M478 767l-54 62h-11l-54 -62h-91l102 113h97l103 -113h-92zM32 700h84l97 -620h12l127 620h134l127 -620h12l97 620h84l-113 -700h-141l-127 620h-12l-127 -620h-141z" />
    <glyph glyph-name="wcircumflex" unicode="&#x175;" horiz-adv-x="770" 
d="M448 570l-57 78h-12l-56 -78h-85l97 130h100l97 -130h-84zM39 488h80l90 -406h13l107 406h113l107 -406h13l90 406h80l-116 -488h-117l-107 406h-13l-109 -406h-115z" />
    <glyph glyph-name="Ycircumflex" unicode="&#x176;" horiz-adv-x="613" 
d="M366 767l-54 62h-11l-54 -62h-91l102 113h97l103 -113h-92zM16 700h94l190 -337h12l190 337h95l-250 -434v-266h-82v266z" />
    <glyph glyph-name="ycircumflex" unicode="&#x177;" horiz-adv-x="554" 
d="M273 648l-56 -78h-85l97 130h100l97 -130h-84l-57 78h-12zM446 488h83l-295 -688h-83l86 193l-212 495h83l163 -391h12z" />
    <glyph glyph-name="Ydieresis" unicode="&#x178;" horiz-adv-x="613" 
d="M147 818q0 28 19 46.5t47 18.5t47 -18.5t19 -46.5t-19 -46.5t-47 -18.5t-47 18.5t-19 46.5zM334 818q0 28 19 46.5t47 18.5t47 -18.5t19 -46.5t-19 -46.5t-47 -18.5t-47 18.5t-19 46.5zM16 700h94l190 -337h12l190 337h95l-250 -434v-266h-82v266z" />
    <glyph glyph-name="Zacute" unicode="&#x179;" horiz-adv-x="579" 
d="M289 880h99l-77 -113h-79zM55 700h476v-71l-387 -554h395v-75h-495v71l387 554h-376v75z" />
    <glyph glyph-name="zacute" unicode="&#x17a;" horiz-adv-x="521" 
d="M267 700h93l-78 -130h-75zM60 488h411v-61l-321 -361h329v-66h-429v61l321 361h-311v66z" />
    <glyph glyph-name="Zdotaccent" unicode="&#x17b;" horiz-adv-x="579" 
d="M223 818q0 28 19 46.5t47 18.5t47 -18.5t19 -46.5t-19 -46.5t-47 -18.5t-47 18.5t-19 46.5zM55 700h476v-71l-387 -554h395v-75h-495v71l387 554h-376v75z" />
    <glyph glyph-name="zdotaccent" unicode="&#x17c;" horiz-adv-x="521" 
d="M196 640q0 28 19 46.5t47 18.5t47 -18.5t19 -46.5t-19 -46.5t-47 -18.5t-47 18.5t-19 46.5zM60 488h411v-61l-321 -361h329v-66h-429v61l321 361h-311v66z" />
    <glyph glyph-name="Zcaron" unicode="&#x17d;" horiz-adv-x="579" 
d="M348 880h92l-103 -113h-97l-102 113h91l54 -62h11zM55 700h476v-71l-387 -554h395v-75h-495v71l387 554h-376v75z" />
    <glyph glyph-name="zcaron" unicode="&#x17e;" horiz-adv-x="521" 
d="M325 700h84l-97 -130h-100l-97 130h85l56 -78h12zM60 488h411v-61l-321 -361h329v-66h-429v61l321 361h-311v66z" />
    <glyph glyph-name="florin" unicode="&#x192;" 
d="M134 437h135v186q0 33 21.5 55t54.5 22h177v-71h-149q-27 0 -27 -30v-162h140v-70h-140v-290q0 -33 -21.5 -55t-55.5 -22h-171v71h144q27 0 27 30v266h-135v70z" />
    <glyph glyph-name="Aringacute" unicode="&#x1fa;" horiz-adv-x="623" 
d="M311 742q-43 0 -72 27.5t-29 69.5q0 43 29 70.5t72 27.5h7l31 63h100l-63 -92q27 -27 27 -69t-29 -69.5t-73 -27.5zM311 882q-19 0 -30.5 -12t-11.5 -31q0 -18 11.5 -30t30.5 -12t31 12t12 30q0 19 -12 31t-31 12zM375 700l230 -700h-88l-56 177h-299l-56 -177h-88
l230 700h127zM185 251h252l-120 375h-12z" />
    <glyph glyph-name="aringacute" unicode="&#x1fb;" horiz-adv-x="573" 
d="M287 541q-43 0 -72 27.5t-29 70.5t29 70.5t72 27.5h6l43 93h94l-72 -119q31 -28 31 -72q0 -43 -29 -70.5t-73 -27.5zM287 681q-19 0 -30.5 -11.5t-11.5 -30.5t11.5 -30.5t30.5 -11.5t31 11.5t12 30.5t-12 30.5t-31 11.5zM292 502q98 0 155 -53t57 -141v-308h-75v82h-14
q-49 -96 -184 -96q-80 0 -131 39.5t-51 104.5q0 127 186 145l193 18v19q0 56 -36.5 88.5t-101.5 32.5q-119 0 -167 -109l-67 31q30 63 90.5 105t145.5 42zM428 221v10l-183 -17q-119 -10 -119 -82q0 -39 31.5 -60t83.5 -21q87 0 137 46.5t50 123.5z" />
    <glyph glyph-name="AEacute" unicode="&#x1fc;" horiz-adv-x="570" 
d="M437 880l-77 -113h-79l57 113h99zM376 75h151v-75h-233v177h-138l-52 -177h-86l207 700h296v-75h-145v-237h121v-74h-121v-239zM294 251v374h-12l-106 -374h118z" />
    <glyph glyph-name="aeacute" unicode="&#x1fd;" horiz-adv-x="572" 
d="M382 700l-78 -130h-75l60 130h93zM534 219h-212v-163q93 13 133 94l61 -39q-78 -125 -235 -125q-106 0 -169 40.5t-63 114.5q0 69 55 105t137 36h6v149q-41 -4 -76.5 -32t-52.5 -75l-64 35q29 62 86 102.5t141 40.5q110 0 181.5 -68t71.5 -174v-41zM454 282
q-2 62 -37.5 101t-94.5 48v-149h132zM236 58h11v161h-11q-50 0 -80.5 -19.5t-30.5 -60.5q0 -40 32 -60.5t79 -20.5z" />
    <glyph glyph-name="Oslashacute" unicode="&#x1fe;" horiz-adv-x="648" 
d="M423 880l-77 -113h-79l57 113h99zM472 677q122 -71 122 -249v-156q0 -136 -72 -211t-198 -75q-39 0 -77 8l-26 -80l-70 22l28 84q-125 69 -125 252v156q0 136 72 211t198 75q44 0 81 -9l23 69l69 -22zM136 269q0 -121 68 -172l177 536q-25 6 -57 6q-92 0 -140 -54
t-48 -154v-162zM512 269v162q0 117 -65 170l-176 -535q27 -5 53 -5q92 0 140 54t48 154z" />
    <glyph glyph-name="oslashacute" unicode="&#x1ff;" horiz-adv-x="583" 
d="M389 700l-78 -130h-75l60 130h93zM412 474q60 -32 94 -92t34 -138q0 -113 -69.5 -185.5t-178.5 -72.5q-25 0 -53 5l-24 -66l-67 23l24 66q-60 31 -94.5 91.5t-34.5 138.5q0 113 70 185.5t179 72.5q25 0 55 -5l21 59l65 -23zM119 244q0 -114 77 -162l126 347q-20 2 -30 2
q-78 0 -125.5 -51.5t-47.5 -135.5zM292 56q77 0 124.5 51.5t47.5 136.5q0 111 -77 161l-124 -347q18 -2 29 -2z" />
    <glyph glyph-name="uni0218" unicode="&#x218;" horiz-adv-x="608" 
d="M303 714q111 0 182 -56.5t71 -158.5v-37h-82v31q0 71 -48 109t-123 38q-65 0 -107.5 -31.5t-42.5 -83.5t34.5 -78.5t113.5 -44.5l55 -13q99 -22 150.5 -68t51.5 -130q0 -93 -69 -149t-177 -56q-127 0 -200 68.5t-73 187.5v30h82v-24q0 -93 50 -140.5t142 -47.5
q75 0 119 36t44 93q0 53 -35.5 81t-108.5 44l-56 13q-100 23 -152.5 66.5t-52.5 130.5q0 85 66.5 137.5t165.5 52.5zM246 -119q0 31 19.5 50t49.5 19t49.5 -19t19.5 -49v-90q0 -34 -21 -55t-55 -21h-59v48h55q27 0 27 29v24q-8 -2 -17 -2q-29 0 -48.5 18.5t-19.5 47.5z" />
    <glyph glyph-name="uni0219" unicode="&#x219;" horiz-adv-x="531" 
d="M65 361q0 65 53 103t131 38q73 0 129.5 -30.5t112.5 -98.5l-59 -40q-74 104 -182 104q-49 0 -79 -19.5t-30 -55.5q0 -16 6.5 -27.5t15.5 -18.5t26 -12.5t29.5 -8t35.5 -5.5l46 -7q96 -14 144.5 -44.5t48.5 -95.5q0 -70 -59 -113.5t-154 -43.5t-158.5 46.5t-94.5 113.5
l69 35q24 -61 72 -94.5t114 -33.5q60 0 97 24t37 64q0 19 -9.5 32.5t-30.5 21t-37.5 11t-47.5 7.5l-46 7q-88 12 -134 44t-46 97zM210 -119q0 31 19.5 50t49.5 19t49.5 -19t19.5 -49v-90q0 -34 -21 -55t-55 -21h-59v48h55q27 0 27 29v24q-8 -2 -17 -2q-29 0 -48.5 18.5
t-19.5 47.5z" />
    <glyph glyph-name="uni021A" unicode="&#x21a;" horiz-adv-x="590" 
d="M21 700h549v-75h-234v-625h-82v625h-233v75zM227 -119q0 31 19.5 50t49.5 19t49.5 -19t19.5 -49v-90q0 -34 -21 -55t-55 -21h-59v48h55q27 0 27 29v24q-8 -2 -17 -2q-29 0 -48.5 18.5t-19.5 47.5z" />
    <glyph glyph-name="uni021B" unicode="&#x21b;" horiz-adv-x="427" 
d="M14 488h148v176h77v-176h155v-67h-155v-325q0 -29 26 -29h101v-67h-129q-34 0 -54.5 21t-20.5 56v344h-148v67zM173 -119q0 31 19.5 50t49.5 19t49.5 -19t19.5 -49v-90q0 -34 -21 -55t-55 -21h-59v48h55q27 0 27 29v24q-8 -2 -17 -2q-29 0 -48.5 18.5t-19.5 47.5z" />
    <glyph glyph-name="uni0237" unicode="&#x237;" horiz-adv-x="229" 
d="M155 488v-611q0 -35 -20.5 -56t-54.5 -21h-122v67h92q28 0 28 30v591h77z" />
    <glyph glyph-name="circumflex" unicode="&#x2c6;" horiz-adv-x="402" 
d="M264 570l-57 78h-12l-56 -78h-85l97 130h100l97 -130h-84z" />
    <glyph glyph-name="caron" unicode="&#x2c7;" horiz-adv-x="402" 
d="M264 700h84l-97 -130h-100l-97 130h85l56 -78h12z" />
    <glyph glyph-name="breve" unicode="&#x2d8;" horiz-adv-x="334" 
d="M215 700h65v-25q0 -51 -31 -81t-82 -30t-82 30t-31 81v25h65v-23q0 -22 12.5 -35.5t35.5 -13.5t35.5 13.5t12.5 35.5v23z" />
    <glyph glyph-name="dotaccent" unicode="&#x2d9;" horiz-adv-x="240" 
d="M54 640q0 28 19 46.5t47 18.5t47 -18.5t19 -46.5t-19 -46.5t-47 -18.5t-47 18.5t-19 46.5z" />
    <glyph glyph-name="ring" unicode="&#x2da;" horiz-adv-x="311" 
d="M54 639q0 43 29 70.5t72 27.5q44 0 73 -27.5t29 -70.5t-29 -70.5t-73 -27.5q-43 0 -72 27.5t-29 70.5zM113 639q0 -19 11.5 -30.5t30.5 -11.5t31 11.5t12 30.5t-12 30.5t-31 11.5t-30.5 -11.5t-11.5 -30.5z" />
    <glyph glyph-name="ogonek" unicode="&#x2db;" horiz-adv-x="238" 
d="M77 25l62 -7l-18 -84q-2 -7 -2 -15q0 -21 22 -21h43v-62h-56q-32 0 -53 18.5t-21 51.5q0 13 5 36z" />
    <glyph glyph-name="tilde" unicode="&#x2dc;" horiz-adv-x="442" 
d="M54 612l41 53q33 44 73 44q25 0 41.5 -12.5t35.5 -41.5q17 -26 31 -26q13 0 28 18l36 48l48 -37l-41 -53q-33 -44 -72 -44q-25 0 -41.5 12.5t-36.5 41.5q-17 26 -31 26t-27 -18l-36 -48z" />
    <glyph glyph-name="hungarumlaut" unicode="&#x2dd;" horiz-adv-x="396" 
d="M119 700h92l-83 -130h-74zM250 700h92l-83 -130h-74z" />
    <glyph glyph-name="gravecomb" unicode="&#x300;" horiz-adv-x="0" 
d="M-119 700l65 -130h-74l-83 130h92z" />
    <glyph glyph-name="acutecomb" unicode="&#x301;" horiz-adv-x="0" 
d="M-149 700h93l-78 -130h-75z" />
    <glyph glyph-name="uni0302" unicode="&#x302;" horiz-adv-x="0" 
d="M-138 570l-57 78h-12l-56 -78h-85l97 130h100l97 -130h-84z" />
    <glyph glyph-name="tildecomb" unicode="&#x303;" horiz-adv-x="0" 
d="M-388 612l41 53q33 44 73 44q25 0 41.5 -12.5t35.5 -41.5q17 -26 31 -26q13 0 28 18l36 48l48 -37l-41 -53q-33 -44 -72 -44q-25 0 -41.5 12.5t-36.5 41.5q-17 26 -31 26t-27 -18l-36 -48z" />
    <glyph glyph-name="uni0304" unicode="&#x304;" horiz-adv-x="0" 
d="M-54 635v-65h-282v65h282z" />
    <glyph glyph-name="uni0306" unicode="&#x306;" horiz-adv-x="0" 
d="M-119 700h65v-25q0 -51 -31 -81t-82 -30t-82 30t-31 81v25h65v-23q0 -22 12.5 -35.5t35.5 -13.5t35.5 13.5t12.5 35.5v23z" />
    <glyph glyph-name="uni0307" unicode="&#x307;" horiz-adv-x="0" 
d="M-186 640q0 28 19 46.5t47 18.5t47 -18.5t19 -46.5t-19 -46.5t-47 -18.5t-47 18.5t-19 46.5z" />
    <glyph glyph-name="uni0308" unicode="&#x308;" horiz-adv-x="0" 
d="M-365 640q0 28 19 46.5t47 18.5t47 -18.5t19 -46.5t-19 -46.5t-47 -18.5t-47 18.5t-19 46.5zM-187 640q0 28 19 46.5t47 18.5q29 0 48 -18.5t19 -46.5t-19 -46.5t-48 -18.5q-28 0 -47 18.5t-19 46.5z" />
    <glyph glyph-name="uni030A" unicode="&#x30a;" horiz-adv-x="0" 
d="M-257 639q0 43 29 70.5t72 27.5q44 0 73 -27.5t29 -70.5t-29 -70.5t-73 -27.5q-43 0 -72 27.5t-29 70.5zM-198 639q0 -19 11.5 -30.5t30.5 -11.5t31 11.5t12 30.5t-12 30.5t-31 11.5t-30.5 -11.5t-11.5 -30.5z" />
    <glyph glyph-name="uni030B" unicode="&#x30b;" horiz-adv-x="0" 
d="M-277 700h92l-83 -130h-74zM-146 700h92l-83 -130h-74z" />
    <glyph glyph-name="uni030C" unicode="&#x30c;" horiz-adv-x="0" 
d="M-138 700h84l-97 -130h-100l-97 130h85l56 -78h12z" />
    <glyph glyph-name="uni0312" unicode="&#x312;" horiz-adv-x="0" 
d="M-54 640q0 -30 -19.5 -49.5t-49.5 -19.5t-49.5 19t-19.5 49v91q0 34 21 54.5t55 20.5h59v-48h-55q-27 0 -27 -28v-24q8 2 17 2q29 0 48.5 -18.5t19.5 -48.5z" />
    <glyph glyph-name="uni0326" unicode="&#x326;" horiz-adv-x="0" 
d="M-192 -119q0 31 19.5 50t49.5 19t49.5 -19t19.5 -49v-90q0 -34 -21 -55t-55 -21h-59v48h55q27 0 27 29v24q-8 -2 -17 -2q-29 0 -48.5 18.5t-19.5 47.5z" />
    <glyph glyph-name="uni0327" unicode="&#x327;" horiz-adv-x="0" 
d="M-220 32h50l-20 -94h6q17 24 52 24q34 0 56 -23t22 -59q0 -42 -27 -67t-68 -25q-67 0 -93 55l47 32q8 -37 44 -37q17 0 29 10.5t12 29.5q0 17 -10.5 27.5t-25.5 10.5q-17 0 -28 -14h-73v6z" />
    <glyph glyph-name="uni0328" unicode="&#x328;" horiz-adv-x="0" 
d="M-161 25l62 -7l-18 -84q-2 -7 -2 -15q0 -21 22 -21h43v-62h-56q-32 0 -53 18.5t-21 51.5q0 13 5 36z" />
    <glyph glyph-name="uni0335" unicode="&#x335;" horiz-adv-x="0" 
d="M-352 628h298v-61h-298v61z" />
    <glyph glyph-name="uni0336" unicode="&#x336;" horiz-adv-x="0" 
d="M-54 575v-69h-612v69h612z" />
    <glyph glyph-name="uni0337" unicode="&#x337;" horiz-adv-x="0" 
d="M-119 556l65 -23l-218 -608l-67 23z" />
    <glyph glyph-name="uni0338" unicode="&#x338;" horiz-adv-x="0" 
d="M-123 774l69 -22l-276 -838l-70 22z" />
    <glyph glyph-name="pi" unicode="&#x3c0;" 
d="M221 0h-77v425h-71v71h477v-71h-72v-324q0 -30 27 -30h45v-71h-73q-33 0 -54.5 22t-21.5 56v347h-180v-425z" />
    <glyph glyph-name="Wgrave" unicode="&#x1e80;" horiz-adv-x="838" 
d="M416 880l60 -113h-78l-80 113h98zM32 700h84l97 -620h12l127 620h134l127 -620h12l97 620h84l-113 -700h-141l-127 620h-12l-127 -620h-141z" />
    <glyph glyph-name="wgrave" unicode="&#x1e81;" horiz-adv-x="770" 
d="M378 700l65 -130h-74l-83 130h92zM39 488h80l90 -406h13l107 406h113l107 -406h13l90 406h80l-116 -488h-117l-107 406h-13l-109 -406h-115z" />
    <glyph glyph-name="Wacute" unicode="&#x1e82;" horiz-adv-x="838" 
d="M419 880h99l-77 -113h-79zM32 700h84l97 -620h12l127 620h134l127 -620h12l97 620h84l-113 -700h-141l-127 620h-12l-127 -620h-141z" />
    <glyph glyph-name="wacute" unicode="&#x1e83;" horiz-adv-x="770" 
d="M390 700h93l-78 -130h-75zM39 488h80l90 -406h13l107 406h113l107 -406h13l90 406h80l-116 -488h-117l-107 406h-13l-109 -406h-115z" />
    <glyph glyph-name="Wdieresis" unicode="&#x1e84;" horiz-adv-x="838" 
d="M259 818q0 28 19 46.5t47 18.5t47 -18.5t19 -46.5t-19 -46.5t-47 -18.5t-47 18.5t-19 46.5zM446 818q0 28 19 46.5t47 18.5t47 -18.5t19 -46.5t-19 -46.5t-47 -18.5t-47 18.5t-19 46.5zM32 700h84l97 -620h12l127 620h134l127 -620h12l97 620h84l-113 -700h-141l-127 620
h-12l-127 -620h-141z" />
    <glyph glyph-name="wdieresis" unicode="&#x1e85;" horiz-adv-x="770" 
d="M230 640q0 28 19 46.5t47 18.5t47 -18.5t19 -46.5t-19 -46.5t-47 -18.5t-47 18.5t-19 46.5zM408 640q0 28 19 46.5t47 18.5q29 0 48 -18.5t19 -46.5t-19 -46.5t-48 -18.5q-28 0 -47 18.5t-19 46.5zM39 488h80l90 -406h13l107 406h113l107 -406h13l90 406h80l-116 -488
h-117l-107 406h-13l-109 -406h-115z" />
    <glyph glyph-name="uni1E9E" unicode="&#x1e9e;" horiz-adv-x="622" 
d="M73 0v442q0 127 66.5 192.5t181.5 65.5h248v-69l-166 -210q-21 -27 -21 -45q0 -25 41 -45l35 -15q61 -28 98 -66.5t37 -98.5q0 -71 -48.5 -118t-131.5 -47q-88 0 -140 50t-52 132h83q0 -47 28.5 -76.5t80.5 -29.5q46 0 73 26t27 63q0 34 -21.5 53.5t-59.5 36.5l-47 22
q-83 36 -83 107q0 23 9.5 45t18.5 35t31 40l111 135h-151q-74 0 -120 -43.5t-46 -135.5v-446h-82z" />
    <glyph glyph-name="Ygrave" unicode="&#x1ef2;" horiz-adv-x="613" 
d="M304 880l60 -113h-78l-80 113h98zM16 700h94l190 -337h12l190 337h95l-250 -434v-266h-82v266z" />
    <glyph glyph-name="ygrave" unicode="&#x1ef3;" horiz-adv-x="554" 
d="M336 570h-74l-83 130h92zM446 488h83l-295 -688h-83l86 193l-212 495h83l163 -391h12z" />
    <glyph glyph-name="endash" unicode="&#x2013;" horiz-adv-x="612" 
d="M82 218v72h448v-72h-448z" />
    <glyph glyph-name="emdash" unicode="&#x2014;" horiz-adv-x="916" 
d="M82 218v72h752v-72h-752z" />
    <glyph glyph-name="quoteleft" unicode="&#x2018;" horiz-adv-x="243" 
d="M190 541q0 -30 -19.5 -49.5t-49.5 -19.5t-49.5 19t-19.5 49v101q0 34 21.5 54.5t55.5 20.5h58v-48h-54q-27 0 -27 -29v-33q6 2 17 2q28 0 47.5 -18.5t19.5 -48.5z" />
    <glyph glyph-name="quoteright" unicode="&#x2019;" horiz-adv-x="243" 
d="M52 647q0 31 20 50t49 19q30 0 49.5 -19t19.5 -49v-100q0 -34 -21 -55t-55 -21h-58v48h54q27 0 27 29v34q-8 -2 -17 -2q-29 0 -48.5 18.5t-19.5 47.5z" />
    <glyph glyph-name="quotesinglbase" unicode="&#x201a;" horiz-adv-x="243" 
d="M52 55q0 31 20 50t49 19q30 0 49.5 -19t19.5 -49v-100q0 -34 -21 -55t-55 -21h-58v48h54q27 0 27 29v34q-8 -2 -17 -2q-29 0 -48.5 18.5t-19.5 47.5z" />
    <glyph glyph-name="quotedblleft" unicode="&#x201c;" horiz-adv-x="407" 
d="M190 541q0 -30 -19.5 -49.5t-49.5 -19.5t-49.5 19t-19.5 49v101q0 34 21.5 54.5t55.5 20.5h58v-48h-54q-27 0 -27 -29v-33q6 2 17 2q28 0 47.5 -18.5t19.5 -48.5zM355 541q0 -30 -20 -49.5t-49 -19.5q-30 0 -49.5 19t-19.5 49v101q0 34 21 54.5t55 20.5h58v-48h-54
q-27 0 -27 -29v-33q8 2 17 2q29 0 48.5 -18.5t19.5 -48.5z" />
    <glyph glyph-name="quotedblright" unicode="&#x201d;" horiz-adv-x="407" 
d="M52 647q0 31 20 50t49 19q30 0 49.5 -19t19.5 -49v-100q0 -34 -21 -55t-55 -21h-58v48h54q27 0 27 29v34q-8 -2 -17 -2q-29 0 -48.5 18.5t-19.5 47.5zM217 647q0 31 19.5 50t49.5 19t49.5 -19t19.5 -49v-100q0 -34 -21.5 -55t-55.5 -21h-58v48h54q27 0 27 29v34
q-6 -2 -17 -2q-28 0 -47.5 18.5t-19.5 47.5z" />
    <glyph glyph-name="quotedblbase" unicode="&#x201e;" horiz-adv-x="407" 
d="M52 55q0 31 20 50t49 19q30 0 49.5 -19t19.5 -49v-100q0 -34 -21 -55t-55 -21h-58v48h54q27 0 27 29v34q-8 -2 -17 -2q-29 0 -48.5 18.5t-19.5 47.5zM217 55q0 31 19.5 50t49.5 19t49.5 -19t19.5 -49v-100q0 -34 -21.5 -55t-55.5 -21h-58v48h54q27 0 27 29v34
q-6 -2 -17 -2q-28 0 -47.5 18.5t-19.5 47.5z" />
    <glyph glyph-name="dagger" unicode="&#x2020;" 
d="M95 435v75h174v190h82v-190h174v-75h-174v-435h-82v435h-174z" />
    <glyph glyph-name="daggerdbl" unicode="&#x2021;" 
d="M95 190v77h174v168h-174v75h174v190h82v-190h174v-75h-174v-168h174v-77h-174v-190h-82v190h-174z" />
    <glyph glyph-name="bullet" unicode="&#x2022;" horiz-adv-x="310" 
d="M37 350q0 48 35 83t83 35t83 -35t35 -83q0 -47 -35 -82.5t-83 -35.5q-47 0 -82.5 35t-35.5 83z" />
    <glyph glyph-name="ellipsis" unicode="&#x2026;" horiz-adv-x="587" 
d="M52 55q0 29 20 49t49 20t49 -20t20 -49t-20 -49t-49 -20t-49 20t-20 49zM225 55q0 29 20 49t49 20t49 -20t20 -49t-20 -49t-49 -20t-49 20t-20 49zM397 55q0 29 20 49t49 20t49 -20t20 -49t-20 -49t-49 -20t-49 20t-20 49z" />
    <glyph glyph-name="perthousand" unicode="&#x2030;" horiz-adv-x="1028" 
d="M213 714q74 0 117 -43t43 -117v-19q0 -75 -42.5 -117t-117.5 -42t-117.5 42t-42.5 117v19q0 75 42.5 117.5t117.5 42.5zM676 663l-195 -237l-45 34l177 249zM305 531v28q0 45 -23.5 70.5t-68.5 25.5t-69 -26t-24 -70v-28q0 -44 24 -70t69 -26t68.5 25.5t23.5 70.5z
M820 324q71 0 113.5 -43t42.5 -117v-19q0 -74 -41.5 -116.5t-114.5 -42.5q-90 0 -130 62q-42 -62 -131 -62q-73 0 -114.5 42.5t-41.5 116.5v19q0 74 41.5 117t114.5 43q88 0 130 -64q41 64 131 64zM100 37l195 237l45 -34l-177 -249zM656 141v28q0 44 -24 70t-69 26
t-68.5 -25.5t-23.5 -70.5v-28q0 -45 23.5 -70.5t68.5 -25.5t69 26t24 70zM908 141v28q0 44 -24 70t-68 26q-45 0 -69 -26t-24 -70v-28q0 -44 24 -70t69 -26q44 0 68 26t24 70z" />
    <glyph glyph-name="prime" unicode="&#x2032;" horiz-adv-x="310" 
d="M115 700h95l-51 -252h-55z" />
    <glyph glyph-name="primedbl" unicode="&#x2033;" horiz-adv-x="440" 
d="M111 700h93l-50 -252h-54zM251 700h93l-50 -252h-55z" />
    <glyph glyph-name="guilsinglleft" unicode="&#x2039;" horiz-adv-x="480" 
d="M69 291l332 180h6v-87l-266 -133v-11l266 -133v-87h-6l-332 180v91z" />
    <glyph glyph-name="guilsinglright" unicode="&#x203a;" horiz-adv-x="480" 
d="M411 291v-91l-332 -180h-6v87l266 133v11l-266 133v87h6z" />
    <glyph glyph-name="fraction" unicode="&#x2044;" 
d="M358 460l177 249l63 -46l-195 -237zM262 240l-177 -249l-63 46l195 237z" />
    <glyph glyph-name="Euro" unicode="&#x20ac;" horiz-adv-x="669" 
d="M622 448h-82v12q0 84 -43 131.5t-126 47.5q-82 0 -129.5 -49t-52.5 -141h182v-68h-183v-59h183v-68h-182q4 -93 51.5 -143t130.5 -50q85 0 127 46.5t42 130.5v16h82v-16q0 -117 -66.5 -184.5t-184.5 -67.5q-119 0 -189 70.5t-76 197.5h-74v68h74v59h-74v68h75
q6 126 76 195.5t188 69.5q119 0 185 -68t66 -183v-15z" />
    <glyph glyph-name="trademark" unicode="&#x2122;" horiz-adv-x="592" 
d="M51 700h190v-35h-75v-187h-39v187h-76v35zM271 700h71l54 -187h4l55 187h70v-222h-39v187h-4l-55 -187h-58l-54 187h-4v-187h-40v222z" />
    <glyph glyph-name="oneeighth" unicode="&#x215b;" horiz-adv-x="722" 
d="M365 460l177 249l63 -46l-195 -237zM116 700h91v-350h-68v269h-10l-51 -75h-66v10zM385 268q0 43 43 69.5t111 26.5t111 -26.5t43 -69.5v-3q0 -33 -19.5 -53.5t-44.5 -26.5v-10q28 -6 49 -26.5t21 -56.5v-2q0 -45 -43.5 -74.5t-116.5 -29.5t-116.5 29.5t-43.5 74.5v2
q0 36 21.5 56.5t50.5 26.5v10q-26 6 -46 26.5t-20 53.5v3zM453 258q0 -22 23.5 -35.5t62.5 -13.5q40 0 63.5 13.5t23.5 35.5t-23 35t-64 13q-40 0 -63 -13t-23 -35zM269 240l-177 -249l-63 46l195 237zM447 97q0 -25 24.5 -39t67.5 -14q44 0 68.5 14t24.5 39q0 54 -93 54
q-43 0 -67.5 -14t-24.5 -40z" />
    <glyph glyph-name="threeeighths" unicode="&#x215c;" horiz-adv-x="798" 
d="M441 460l177 249l63 -46l-195 -237zM26 700h304v-46l-117 -81v-10q54 -2 86 -28t32 -76q0 -54 -45 -88.5t-110 -34.5q-71 0 -114.5 36.5t-43.5 98.5h67q0 -37 24.5 -56.5t65.5 -19.5q40 0 64.5 18.5t24.5 47.5q0 58 -89 58h-60v46l108 77h-197v58zM461 268q0 43 43 69.5
t111 26.5t111 -26.5t43 -69.5v-3q0 -33 -19.5 -53.5t-44.5 -26.5v-10q28 -6 49 -26.5t21 -56.5v-2q0 -45 -43.5 -74.5t-116.5 -29.5t-116.5 29.5t-43.5 74.5v2q0 36 21.5 56.5t50.5 26.5v10q-26 6 -46 26.5t-20 53.5v3zM529 258q0 -22 23.5 -35.5t62.5 -13.5q40 0 63.5 13.5
t23.5 35.5t-23 35t-64 13q-40 0 -63 -13t-23 -35zM345 240l-177 -249l-63 46l195 237zM523 97q0 -25 24.5 -39t67.5 -14q44 0 68.5 14t24.5 39q0 54 -93 54q-43 0 -67.5 -14t-24.5 -40z" />
    <glyph glyph-name="fiveeighths" unicode="&#x215d;" horiz-adv-x="802" 
d="M445 460l177 249l63 -46l-195 -237zM36 700h290v-58h-225v-87h10q45 33 95 33q56 0 93.5 -32t37.5 -87v-5q0 -55 -42 -91.5t-112 -36.5q-68 0 -110.5 36t-48.5 93h69q2 -29 27 -49.5t63 -20.5q39 0 63 20t24 51t-22 49t-55 18q-42 0 -76 -28h-81v195zM465 268
q0 43 43 69.5t111 26.5t111 -26.5t43 -69.5v-3q0 -33 -19.5 -53.5t-44.5 -26.5v-10q28 -6 49 -26.5t21 -56.5v-2q0 -45 -43.5 -74.5t-116.5 -29.5t-116.5 29.5t-43.5 74.5v2q0 36 21.5 56.5t50.5 26.5v10q-26 6 -46 26.5t-20 53.5v3zM533 258q0 -22 23.5 -35.5t62.5 -13.5
q40 0 63.5 13.5t23.5 35.5t-23 35t-64 13q-40 0 -63 -13t-23 -35zM349 240l-177 -249l-63 46l195 237zM527 97q0 -25 24.5 -39t67.5 -14q44 0 68.5 14t24.5 39q0 54 -93 54q-43 0 -67.5 -14t-24.5 -40z" />
    <glyph glyph-name="seveneighths" unicode="&#x215e;" horiz-adv-x="728" 
d="M371 460l177 249l63 -46l-195 -237zM8 700h298v-54l-151 -296h-72l148 292h-223v58zM391 268q0 43 43 69.5t111 26.5t111 -26.5t43 -69.5v-3q0 -33 -19.5 -53.5t-44.5 -26.5v-10q28 -6 49 -26.5t21 -56.5v-2q0 -45 -43.5 -74.5t-116.5 -29.5t-116.5 29.5t-43.5 74.5v2
q0 36 21.5 56.5t50.5 26.5v10q-26 6 -46 26.5t-20 53.5v3zM459 258q0 -22 23.5 -35.5t62.5 -13.5q40 0 63.5 13.5t23.5 35.5t-23 35t-64 13q-40 0 -63 -13t-23 -35zM275 240l-177 -249l-63 46l195 237zM453 97q0 -25 24.5 -39t67.5 -14q44 0 68.5 14t24.5 39q0 54 -93 54
q-43 0 -67.5 -14t-24.5 -40z" />
    <glyph glyph-name="arrowleft" unicode="&#x2190;" horiz-adv-x="800" 
d="M285 515l50 -51l-149 -149l-29 -21l3 -9l36 3h554v-73h-554l-36 3l-3 -9l29 -21l149 -149l-50 -51l-235 235v57z" />
    <glyph glyph-name="arrowup" unicode="&#x2191;" 
d="M44 468l238 238h57l239 -238l-52 -52l-150 150l-21 29l-9 -3l3 -36v-556h-76v556l3 36l-9 3l-21 -29l-150 -150z" />
    <glyph glyph-name="arrowright" unicode="&#x2192;" horiz-adv-x="800" 
d="M515 515l235 -235v-57l-235 -235l-50 51l149 149l29 21l-3 9l-36 -3h-554v73h554l36 -3l3 9l-29 21l-149 149z" />
    <glyph glyph-name="arrowdown" unicode="&#x2193;" 
d="M45 231l51 51l150 -150l21 -29l9 3l-3 36v558h76v-558l-3 -36l9 -3l21 29l150 150l50 -51l-237 -237h-57z" />
    <glyph glyph-name="arrowboth" unicode="&#x2194;" horiz-adv-x="800" 
d="M515 512l235 -235v-57l-235 -235l-50 51l149 149l29 21l-3 9l-36 -3h-408l-36 3l-3 -9l29 -21l149 -149l-50 -51l-235 235v57l235 235l50 -51l-149 -149l-29 -21l3 -9l36 3h408l36 -3l3 9l-29 21l-149 149z" />
    <glyph glyph-name="arrowupdn" unicode="&#x2195;" 
d="M376 138l150 150l52 -52l-239 -238h-57l-238 238l52 52l150 -150l21 -29l9 3l-3 36v404l3 36l-9 3l-21 -29l-150 -150l-52 52l238 238h57l239 -238l-52 -52l-150 150l-21 29l-9 -3l3 -36v-404l-3 -36l9 -3z" />
    <glyph glyph-name="uni2196" unicode="&#x2196;" horiz-adv-x="615" 
d="M442 491v-69h-214l-35 5l-4 -8l27 -24l356 -356l-52 -53l-356 357l-24 28l-8 -5l5 -35v-214h-69v333l41 41h333z" />
    <glyph glyph-name="uni2197" unicode="&#x2197;" horiz-adv-x="615" 
d="M173 491h333l41 -41v-333h-69v214l5 35l-8 5l-24 -28l-355 -357l-53 53l356 356l28 24l-5 8l-35 -5h-214v69z" />
    <glyph glyph-name="uni2198" unicode="&#x2198;" horiz-adv-x="615" 
d="M173 0v69h214l35 -5l5 8l-28 24l-356 356l53 53l355 -357l24 -27l8 4l-5 35v214l69 1v-334l-41 -41h-333z" />
    <glyph glyph-name="uni2199" unicode="&#x2199;" horiz-adv-x="615" 
d="M442 0h-333l-41 41v334l69 -1v-214l-5 -35l8 -4l24 27l356 357l52 -53l-356 -356l-27 -24l4 -8l35 5h214v-69z" />
    <glyph glyph-name="partialdiff" unicode="&#x2202;" 
d="M62 254q0 110 67.5 183t169.5 73q100 0 142 -71h12q-22 84 -102.5 136.5t-185.5 64.5l17 74q183 -25 279.5 -139t96.5 -300q0 -132 -65.5 -210.5t-182.5 -78.5q-110 0 -179 72t-69 184v12zM310 59q78 0 124 54t46 141q0 80 -48.5 131.5t-121.5 51.5t-121.5 -52.5
t-48.5 -130.5v-12q0 -81 48 -132t122 -51z" />
    <glyph glyph-name="emptyset" unicode="&#x2205;" horiz-adv-x="640" 
d="M460 473q57 -33 90 -90.5t33 -129.5v-10q0 -112 -75.5 -184.5t-187.5 -72.5q-33 0 -68 8l-40 -93l-72 30l40 92q-57 33 -90 90.5t-33 129.5v10q0 112 75.5 184.5t187.5 72.5q33 0 68 -8l40 93l72 -30zM134 242q0 -101 75 -152l149 345q-18 3 -38 3q-81 0 -133.5 -51.5
t-52.5 -132.5v-12zM506 242v12q0 100 -75 152l-149 -345q18 -3 38 -3q81 0 133.5 51t52.5 133z" />
    <glyph glyph-name="product" unicode="&#x220f;" 
d="M77 0v700h466v-700h-83v623h-300v-623h-83z" />
    <glyph glyph-name="summation" unicode="&#x2211;" 
d="M76 628v72h468v-75h-354v-11l201 -235v-58l-201 -234v-12h354v-75h-468v72l232 272v12z" />
    <glyph glyph-name="minus" unicode="&#x2212;" 
d="M101 386h418v-72h-418v72z" />
    <glyph glyph-name="radical" unicode="&#x221a;" 
d="M48 314v72h159l85 -320h12l197 790h80l-215 -856h-138l-84 314h-96z" />
    <glyph glyph-name="infinity" unicode="&#x221e;" 
d="M57 350q0 58 41.5 101.5t99.5 43.5q69 0 103 -55h18q34 55 103 55q58 0 100 -43t42 -102q0 -60 -43 -102t-99 -42q-69 0 -103 54h-18q-34 -54 -103 -54q-57 0 -99 43t-42 101zM275 350q0 30 -22 52t-52 22t-51.5 -22t-21.5 -52t21.5 -51.5t51.5 -21.5t52 21.5t22 51.5z
M346 350q0 -30 21.5 -51.5t51.5 -21.5t52 21.5t22 51.5t-22 52t-52 22t-51.5 -22t-21.5 -52z" />
    <glyph glyph-name="integral" unicode="&#x222b;" 
d="M348 599v-722q0 -33 -21.5 -55t-54.5 -22h-120v71h93q27 0 27 30v722q0 33 21.5 55t54.5 22h121v-71h-94q-27 0 -27 -30z" />
    <glyph glyph-name="approxequal" unicode="&#x2248;" 
d="M339 462q7 -14 10 -18.5t9.5 -10t15.5 -5.5q12 0 29 14l84 70l43 -52l-92 -74q-40 -32 -73 -32q-31 0 -49 15.5t-34 46.5q-7 14 -10 18.5t-9.5 10t-15.5 5.5q-11 0 -29 -14l-84 -70l-43 52l92 74q42 32 73 32q30 0 48.5 -15.5t34.5 -46.5zM339 287q6 -13 9.5 -18t10 -10
t15.5 -5q12 0 29 14l84 69l43 -52l-92 -73q-41 -33 -73 -33q-30 0 -48.5 15.5t-34.5 46.5q-7 14 -10 18.5t-9.5 10t-15.5 5.5q-11 0 -29 -14l-84 -70l-43 52l92 74q41 33 73 33q30 0 48.5 -15.5t34.5 -47.5z" />
    <glyph glyph-name="notequal" unicode="&#x2260;" 
d="M101 386v71h206l36 109l69 -21l-29 -88h136v-71h-158l-25 -72h183v-71h-205l-38 -115l-70 22l31 93h-136v71h159l24 72h-183z" />
    <glyph glyph-name="lessequal" unicode="&#x2264;" 
d="M100 301v98l420 171v-83l-341 -131v-12l341 -131v-83zM100 0v71h420v-71h-420z" />
    <glyph glyph-name="greaterequal" unicode="&#x2265;" 
d="M520 301l-420 -171v83l341 131v12l-341 131v83l420 -171v-98zM520 0h-420v71h420v-71z" />
    <glyph glyph-name="lozenge" unicode="&#x25ca;" 
d="M58 350l191 350h122l191 -350l-191 -350h-122zM147 350l157 -291h12l157 291l-157 291h-12z" />
    <glyph glyph-name="uniE132" unicode="&#xe132;" horiz-adv-x="455" 
d="M118 700h93l-78 -130h-75zM347 700h93l-78 -130h-75zM151 488v-488h-76v488h76zM381 488v-611q0 -35 -20.5 -56t-54.5 -21h-122v67h92q28 0 28 30v591h77z" />
    <glyph glyph-name="uniE133" unicode="&#xe133;" horiz-adv-x="581" 
d="M119 880h97l-80 -113h-78zM468 880h98l-80 -113h-79zM75 700h82v-338h-82v338zM424 700h82v-490q0 -109 -53.5 -166.5t-156.5 -57.5q-104 0 -162.5 58t-58.5 166v42h82v-42q0 -69 35.5 -109t103.5 -40q128 0 128 149v490z" />
    <glyph glyph-name="A.ss03" horiz-adv-x="623" 
d="M232 700h159l212 -700h-88l-52 177h-304l-52 -177h-88zM182 251h259l-124 416h-12z" />
    <glyph glyph-name="Aacute.ss03" horiz-adv-x="623" 
d="M312 880h99l-77 -113h-79zM232 700h159l212 -700h-88l-52 177h-304l-52 -177h-88zM182 251h259l-124 416h-12z" />
    <glyph glyph-name="Abreve.ss03" horiz-adv-x="623" 
d="M359 880h65v-10q0 -50 -31 -79.5t-82 -29.5t-82 29.5t-31 79.5v10h65v-7q0 -21 12.5 -34.5t35.5 -13.5t35.5 13.5t12.5 34.5v7zM232 700h159l212 -700h-88l-52 177h-304l-52 -177h-88zM182 251h259l-124 416h-12z" />
    <glyph glyph-name="Acircumflex.ss03" horiz-adv-x="623" 
d="M371 767l-54 62h-11l-54 -62h-91l102 113h97l103 -113h-92zM232 700h159l212 -700h-88l-52 177h-304l-52 -177h-88zM182 251h259l-124 416h-12z" />
    <glyph glyph-name="Adieresis.ss03" horiz-adv-x="623" 
d="M152 818q0 28 19 46.5t47 18.5t47 -18.5t19 -46.5t-19 -46.5t-47 -18.5t-47 18.5t-19 46.5zM339 818q0 28 19 46.5t47 18.5t47 -18.5t19 -46.5t-19 -46.5t-47 -18.5t-47 18.5t-19 46.5zM232 700h159l212 -700h-88l-52 177h-304l-52 -177h-88zM182 251h259l-124 416h-12z
" />
    <glyph glyph-name="Agrave.ss03" horiz-adv-x="623" 
d="M309 880l60 -113h-78l-80 113h98zM232 700h159l212 -700h-88l-52 177h-304l-52 -177h-88zM182 251h259l-124 416h-12z" />
    <glyph glyph-name="Amacron.ss03" horiz-adv-x="623" 
d="M453 832v-65h-282v65h282zM232 700h159l212 -700h-88l-52 177h-304l-52 -177h-88zM182 251h259l-124 416h-12z" />
    <glyph glyph-name="Aogonek.ss03" horiz-adv-x="623" 
d="M592 -102h43v-62h-56q-32 0 -53 18.5t-21 51.5q0 13 5 36l13 58h-8l-52 177h-304l-52 -177h-88l213 700h159l212 -700h-17l-14 -66q-2 -7 -2 -15q0 -21 22 -21zM182 251h259l-124 416h-12z" />
    <glyph glyph-name="Aring.ss03" horiz-adv-x="623" 
d="M210 839q0 43 29 70.5t72 27.5q44 0 73 -27.5t29 -70.5q0 -42 -29 -69.5t-73 -27.5q-43 0 -72 27.5t-29 69.5zM269 839q0 -18 11.5 -30t30.5 -12t31 12t12 30q0 19 -12 31t-31 12t-30.5 -12t-11.5 -31zM232 700h159l212 -700h-88l-52 177h-304l-52 -177h-88zM182 251h259
l-124 416h-12z" />
    <glyph glyph-name="Aringacute.ss03" horiz-adv-x="623" 
d="M311 742q-43 0 -72 27.5t-29 69.5q0 43 29 70.5t72 27.5h7l31 63h100l-63 -92q27 -27 27 -69t-29 -69.5t-73 -27.5zM311 882q-19 0 -30.5 -12t-11.5 -31q0 -18 11.5 -30t30.5 -12t31 12t12 30q0 19 -12 31t-31 12zM391 700l212 -700h-88l-52 177h-304l-52 -177h-88
l213 700h159zM182 251h259l-124 416h-12z" />
    <glyph glyph-name="Atilde.ss03" horiz-adv-x="623" 
d="M149 803l38 49q33 44 71 44q43 0 78 -53q10 -14 15.5 -19t14.5 -5q15 0 28 18l33 44l49 -37l-38 -49q-33 -44 -71 -44q-26 0 -42.5 12.5t-36.5 39.5q-16 24 -30 24t-27 -18l-33 -43zM232 700h159l212 -700h-88l-52 177h-304l-52 -177h-88zM182 251h259l-124 416h-12z" />
    <glyph glyph-name="AE.ss03" horiz-adv-x="571" 
d="M377 75h151v-75h-233v177h-142l-48 -177h-87l193 700h312v-75h-146v-237h122v-74h-122v-239zM295 251v416h-12l-111 -416h123z" />
    <glyph glyph-name="AEacute.ss03" horiz-adv-x="571" 
d="M439 880l-77 -113h-79l57 113h99zM377 75h151v-75h-233v177h-142l-48 -177h-87l193 700h312v-75h-146v-237h122v-74h-122v-239zM295 251v416h-12l-111 -416h123z" />
    <glyph glyph-name="M.ss03" horiz-adv-x="869" 
d="M76 700h167l185 -667h12l186 667h167v-700h-82v667h-12l-184 -667h-161l-184 667h-12v-667h-82v700z" />
    <glyph glyph-name="N.ss03" horiz-adv-x="655" 
d="M76 700h168l241 -667h12v667h82v-700h-169l-240 667h-12v-667h-82v700z" />
    <glyph glyph-name="Nacute.ss03" horiz-adv-x="655" 
d="M328 880h99l-77 -113h-79zM76 700h168l241 -667h12v667h82v-700h-169l-240 667h-12v-667h-82v700z" />
    <glyph glyph-name="Ncaron.ss03" horiz-adv-x="655" 
d="M387 880h92l-103 -113h-97l-102 113h91l54 -62h11zM76 700h168l241 -667h12v667h82v-700h-169l-240 667h-12v-667h-82v700z" />
    <glyph glyph-name="uni0145.ss03" horiz-adv-x="655" 
d="M76 700h168l241 -667h12v667h82v-700h-169l-240 667h-12v-667h-82v700zM258 -119q0 31 19.5 50t49.5 19t49.5 -19t19.5 -49v-90q0 -34 -21 -55t-55 -21h-59v48h55q27 0 27 29v24q-8 -2 -17 -2q-29 0 -48.5 18.5t-19.5 47.5z" />
    <glyph glyph-name="Eng.ss03" horiz-adv-x="655" 
d="M497 700h82v-797q0 -49 -27 -76t-76 -27h-160v71h137q43 0 43 44v85h-81l-245 654h-12v-654h-82v700h163l246 -655h12v655z" />
    <glyph glyph-name="Ntilde.ss03" horiz-adv-x="655" 
d="M165 803l38 49q33 44 71 44q43 0 78 -53q10 -14 15.5 -19t14.5 -5q15 0 28 18l33 44l49 -37l-38 -49q-33 -44 -71 -44q-26 0 -42.5 12.5t-36.5 39.5q-16 24 -30 24t-27 -18l-33 -43zM76 700h168l241 -667h12v667h82v-700h-169l-240 667h-12v-667h-82v700z" />
    <glyph glyph-name="V.ss03" horiz-adv-x="613" 
d="M18 700h88l194 -667h12l195 667h88l-209 -700h-159z" />
    <glyph glyph-name="W.ss03" horiz-adv-x="838" 
d="M35 700h84l93 -667h12l115 667h160l115 -667h12l93 667h84l-99 -700h-164l-115 667h-12l-115 -667h-164z" />
    <glyph glyph-name="Wacute.ss03" horiz-adv-x="838" 
d="M419 880h99l-77 -113h-79zM35 700h84l93 -667h12l115 667h160l115 -667h12l93 667h84l-99 -700h-164l-115 667h-12l-115 -667h-164z" />
    <glyph glyph-name="Wcircumflex.ss03" horiz-adv-x="838" 
d="M478 767l-54 62h-11l-54 -62h-91l102 113h97l103 -113h-92zM35 700h84l93 -667h12l115 667h160l115 -667h12l93 667h84l-99 -700h-164l-115 667h-12l-115 -667h-164z" />
    <glyph glyph-name="Wdieresis.ss03" horiz-adv-x="838" 
d="M259 818q0 28 19 46.5t47 18.5t47 -18.5t19 -46.5t-19 -46.5t-47 -18.5t-47 18.5t-19 46.5zM446 818q0 28 19 46.5t47 18.5t47 -18.5t19 -46.5t-19 -46.5t-47 -18.5t-47 18.5t-19 46.5zM35 700h84l93 -667h12l115 667h160l115 -667h12l93 667h84l-99 -700h-164l-115 667
h-12l-115 -667h-164z" />
    <glyph glyph-name="Wgrave.ss03" horiz-adv-x="838" 
d="M416 880l60 -113h-78l-80 113h98zM35 700h84l93 -667h12l115 667h160l115 -667h12l93 667h84l-99 -700h-164l-115 667h-12l-115 -667h-164z" />
    <glyph glyph-name="I.ss04" horiz-adv-x="396" 
d="M42 700h312v-72h-115v-556h115v-72h-312v72h115v556h-115v72z" />
    <glyph glyph-name="IJ.ss04" horiz-adv-x="672" 
d="M42 700h245v-72h-82v-289h-82v289h-81v72zM381 700h267v-72h-81v-418q0 -109 -54.5 -166.5t-161.5 -57.5q-108 0 -168 58t-60 166v30h82v-30q0 -69 36.5 -109t109.5 -40q134 0 134 149v418h-104v72z" />
    <glyph glyph-name="Iacute.ss04" horiz-adv-x="396" 
d="M198 880h99l-77 -113h-79zM42 700h312v-72h-115v-556h115v-72h-312v72h115v556h-115v72z" />
    <glyph glyph-name="Icircumflex.ss04" horiz-adv-x="396" 
d="M257 767l-54 62h-11l-54 -62h-91l102 113h97l103 -113h-92zM42 700h312v-72h-115v-556h115v-72h-312v72h115v556h-115v72z" />
    <glyph glyph-name="Idieresis.ss04" horiz-adv-x="396" 
d="M38 818q0 28 19 46.5t47 18.5t47 -18.5t19 -46.5t-19 -46.5t-47 -18.5t-47 18.5t-19 46.5zM225 818q0 28 19 46.5t47 18.5t47 -18.5t19 -46.5t-19 -46.5t-47 -18.5t-47 18.5t-19 46.5zM42 700h312v-72h-115v-556h115v-72h-312v72h115v556h-115v72z" />
    <glyph glyph-name="Idotaccent.ss04" horiz-adv-x="396" 
d="M132 818q0 28 19 46.5t47 18.5t47 -18.5t19 -46.5t-19 -46.5t-47 -18.5t-47 18.5t-19 46.5zM42 700h312v-72h-115v-556h115v-72h-312v72h115v556h-115v72z" />
    <glyph glyph-name="Igrave.ss04" horiz-adv-x="396" 
d="M195 880l60 -113h-78l-80 113h98zM42 700h312v-72h-115v-556h115v-72h-312v72h115v556h-115v72z" />
    <glyph glyph-name="Imacron.ss04" horiz-adv-x="396" 
d="M339 832v-65h-282v65h282zM42 700h312v-72h-115v-556h115v-72h-312v72h115v556h-115v72z" />
    <glyph glyph-name="Iogonek.ss04" horiz-adv-x="396" 
d="M354 628h-115v-556h115v-72h-124l-14 -66q-2 -7 -2 -15q0 -21 22 -21h43v-62h-56q-32 0 -53 18.5t-21 51.5q0 13 5 36l13 58h-125v72h115v556h-115v72h312v-72z" />
    <glyph glyph-name="J.ss04" horiz-adv-x="570" 
d="M281 700h265v-72h-74v-418q0 -109 -54.5 -166.5t-161.5 -57.5q-108 0 -167.5 58t-59.5 166v54h82v-54q0 -69 36.5 -109t108.5 -40q134 0 134 149v418h-109v72z" />
    <glyph glyph-name="R.ss05" horiz-adv-x="622" 
d="M76 700h286q97 0 156 -54t59 -142q0 -122 -108 -164v-12q35 -2 58.5 -25t23.5 -61v-242h-82v229q0 60 -62 60h-249v-289h-82v700zM158 625v-262h193q70 0 106.5 35t36.5 96t-36.5 96t-106.5 35h-193z" />
    <glyph glyph-name="Racute.ss05" horiz-adv-x="622" 
d="M306 880h99l-77 -113h-79zM76 700h286q97 0 156 -54t59 -142q0 -122 -108 -164v-12q35 -2 58.5 -25t23.5 -61v-242h-82v229q0 60 -62 60h-249v-289h-82v700zM158 625v-262h193q70 0 106.5 35t36.5 96t-36.5 96t-106.5 35h-193z" />
    <glyph glyph-name="Rcaron.ss05" horiz-adv-x="622" 
d="M365 880h92l-103 -113h-97l-102 113h91l54 -62h11zM76 700h286q97 0 156 -54t59 -142q0 -122 -108 -164v-12q35 -2 58.5 -25t23.5 -61v-242h-82v229q0 60 -62 60h-249v-289h-82v700zM158 625v-262h193q70 0 106.5 35t36.5 96t-36.5 96t-106.5 35h-193z" />
    <glyph glyph-name="uni0156.ss05" horiz-adv-x="622" 
d="M76 700h286q97 0 156 -54t59 -142q0 -122 -108 -164v-12q35 -2 58.5 -25t23.5 -61v-242h-82v229q0 60 -62 60h-249v-289h-82v700zM158 625v-262h193q70 0 106.5 35t36.5 96t-36.5 96t-106.5 35h-193zM243 -119q0 31 19.5 50t49.5 19t49.5 -19t19.5 -49v-90q0 -34 -21 -55
t-55 -21h-59v48h55q27 0 27 29v24q-8 -2 -17 -2q-29 0 -48.5 18.5t-19.5 47.5z" />
    <glyph glyph-name="i.loclTRK" horiz-adv-x="226" 
d="M47 640q0 28 19 46.5t47 18.5t47 -18.5t19 -46.5t-19 -46.5t-47 -18.5t-47 18.5t-19 46.5zM151 488v-488h-76v488h76z" />
    <glyph glyph-name="uni006A0301" horiz-adv-x="229" 
d="M121 700h93l-78 -130h-75zM155 488v-611q0 -35 -20.5 -56t-54.5 -21h-122v67h92q28 0 28 30v591h77z" />
    <glyph glyph-name="a.ss01" horiz-adv-x="615" 
d="M540 0h-74v83h-14q-57 -97 -178 -97q-99 0 -165 72.5t-66 185.5t66 186t165 73q121 0 178 -99h14v84h74v-488zM292 55q78 0 125 51.5t47 137.5t-47.5 138t-124.5 52t-124.5 -51.5t-47.5 -138.5q0 -88 47.5 -138.5t124.5 -50.5z" />
    <glyph glyph-name="aacute.ss01" horiz-adv-x="615" 
d="M313 700h93l-78 -130h-75zM540 0h-74v83h-14q-57 -97 -178 -97q-99 0 -165 72.5t-66 185.5t66 186t165 73q121 0 178 -99h14v84h74v-488zM292 55q78 0 125 51.5t47 137.5t-47.5 138t-124.5 52t-124.5 -51.5t-47.5 -138.5q0 -88 47.5 -138.5t124.5 -50.5z" />
    <glyph glyph-name="abreve.ss01" horiz-adv-x="615" 
d="M356 700h65v-25q0 -51 -31 -81t-82 -30t-82 30t-31 81v25h65v-23q0 -22 12.5 -35.5t35.5 -13.5t35.5 13.5t12.5 35.5v23zM540 0h-74v83h-14q-57 -97 -178 -97q-99 0 -165 72.5t-66 185.5t66 186t165 73q121 0 178 -99h14v84h74v-488zM292 55q78 0 125 51.5t47 137.5
t-47.5 138t-124.5 52t-124.5 -51.5t-47.5 -138.5q0 -88 47.5 -138.5t124.5 -50.5z" />
    <glyph glyph-name="acircumflex.ss01" horiz-adv-x="615" 
d="M371 570l-57 78h-12l-56 -78h-85l97 130h100l97 -130h-84zM540 0h-74v83h-14q-57 -97 -178 -97q-99 0 -165 72.5t-66 185.5t66 186t165 73q121 0 178 -99h14v84h74v-488zM292 55q78 0 125 51.5t47 137.5t-47.5 138t-124.5 52t-124.5 -51.5t-47.5 -138.5
q0 -88 47.5 -138.5t124.5 -50.5z" />
    <glyph glyph-name="adieresis.ss01" horiz-adv-x="615" 
d="M153 640q0 28 19 46.5t47 18.5t47 -18.5t19 -46.5t-19 -46.5t-47 -18.5t-47 18.5t-19 46.5zM331 640q0 28 19 46.5t47 18.5q29 0 48 -18.5t19 -46.5t-19 -46.5t-48 -18.5q-28 0 -47 18.5t-19 46.5zM540 0h-74v83h-14q-57 -97 -178 -97q-99 0 -165 72.5t-66 185.5t66 186
t165 73q121 0 178 -99h14v84h74v-488zM292 55q78 0 125 51.5t47 137.5t-47.5 138t-124.5 52t-124.5 -51.5t-47.5 -138.5q0 -88 47.5 -138.5t124.5 -50.5z" />
    <glyph glyph-name="agrave.ss01" horiz-adv-x="615" 
d="M301 700l65 -130h-74l-83 130h92zM540 0h-74v83h-14q-57 -97 -178 -97q-99 0 -165 72.5t-66 185.5t66 186t165 73q121 0 178 -99h14v84h74v-488zM292 55q78 0 125 51.5t47 137.5t-47.5 138t-124.5 52t-124.5 -51.5t-47.5 -138.5q0 -88 47.5 -138.5t124.5 -50.5z" />
    <glyph glyph-name="amacron.ss01" horiz-adv-x="615" 
d="M450 635v-65h-282v65h282zM540 0h-74v83h-14q-57 -97 -178 -97q-99 0 -165 72.5t-66 185.5t66 186t165 73q121 0 178 -99h14v84h74v-488zM292 55q78 0 125 51.5t47 137.5t-47.5 138t-124.5 52t-124.5 -51.5t-47.5 -138.5q0 -88 47.5 -138.5t124.5 -50.5z" />
    <glyph glyph-name="aogonek.ss01" horiz-adv-x="615" 
d="M542 -102h43v-62h-56q-32 0 -53 18.5t-21 51.5q0 13 5 36l13 58h-7v83h-14q-57 -97 -178 -97q-99 0 -165 72.5t-66 185.5t66 186t165 73q121 0 178 -99h14v84h74v-488h-4l-14 -66q-2 -7 -2 -15q0 -21 22 -21zM292 55q78 0 125 51.5t47 137.5t-47.5 138t-124.5 52
t-124.5 -51.5t-47.5 -138.5q0 -88 47.5 -138.5t124.5 -50.5z" />
    <glyph glyph-name="aring.ss01" horiz-adv-x="615" 
d="M207 639q0 43 29 70.5t72 27.5q44 0 73 -27.5t29 -70.5t-29 -70.5t-73 -27.5q-43 0 -72 27.5t-29 70.5zM266 639q0 -19 11.5 -30.5t30.5 -11.5t31 11.5t12 30.5t-12 30.5t-31 11.5t-30.5 -11.5t-11.5 -30.5zM540 0h-74v83h-14q-57 -97 -178 -97q-99 0 -165 72.5
t-66 185.5t66 186t165 73q121 0 178 -99h14v84h74v-488zM292 55q78 0 125 51.5t47 137.5t-47.5 138t-124.5 52t-124.5 -51.5t-47.5 -138.5q0 -88 47.5 -138.5t124.5 -50.5z" />
    <glyph glyph-name="aringacute.ss01" horiz-adv-x="615" 
d="M308 541q-43 0 -72 27.5t-29 70.5t29 70.5t72 27.5h6l43 93h94l-72 -119q31 -28 31 -72q0 -43 -29 -70.5t-73 -27.5zM308 681q-19 0 -30.5 -11.5t-11.5 -30.5t11.5 -30.5t30.5 -11.5t31 11.5t12 30.5t-12 30.5t-31 11.5zM466 488h74v-488h-74v83h-14q-57 -97 -178 -97
q-99 0 -165 72.5t-66 185.5t66 186t165 73q121 0 178 -99h14v84zM292 55q78 0 125 51.5t47 137.5t-47.5 138t-124.5 52t-124.5 -51.5t-47.5 -138.5q0 -88 47.5 -138.5t124.5 -50.5z" />
    <glyph glyph-name="atilde.ss01" horiz-adv-x="615" 
d="M141 612l41 53q33 44 73 44q25 0 41.5 -12.5t35.5 -41.5q17 -26 31 -26q13 0 28 18l36 48l48 -37l-41 -53q-33 -44 -72 -44q-25 0 -41.5 12.5t-36.5 41.5q-17 26 -31 26t-27 -18l-36 -48zM540 0h-74v83h-14q-57 -97 -178 -97q-99 0 -165 72.5t-66 185.5t66 186t165 73
q121 0 178 -99h14v84h74v-488zM292 55q78 0 125 51.5t47 137.5t-47.5 138t-124.5 52t-124.5 -51.5t-47.5 -138.5q0 -88 47.5 -138.5t124.5 -50.5z" />
    <glyph glyph-name="g.ss02" horiz-adv-x="615" 
d="M466 488h74v-611q0 -35 -20.5 -56t-54.5 -21h-381v67h352q28 0 28 30v197h-12q-56 -98 -178 -98q-99 0 -165 70.5t-66 182.5t66 182.5t165 70.5q122 0 178 -98h14v84zM292 66q78 0 125 49.5t47 133.5t-47 134t-125 50q-77 0 -124.5 -49t-47.5 -135q0 -85 47.5 -134
t124.5 -49z" />
    <glyph glyph-name="gbreve.ss02" horiz-adv-x="615" 
d="M308 564q-51 0 -82 30t-31 81v25h65v-23q0 -22 12.5 -35.5t35.5 -13.5t35.5 13.5t12.5 35.5v23h65v-25q0 -51 -31 -81t-82 -30zM466 488h74v-611q0 -35 -20.5 -56t-54.5 -21h-381v67h352q28 0 28 30v197h-12q-56 -98 -178 -98q-99 0 -165 70.5t-66 182.5t66 182.5
t165 70.5q122 0 178 -98h14v84zM292 66q78 0 125 49.5t47 133.5t-47 134t-125 50q-77 0 -124.5 -49t-47.5 -135q0 -85 47.5 -134t124.5 -49z" />
    <glyph glyph-name="uni0123.ss02" horiz-adv-x="615" 
d="M308 571q-30 0 -49.5 19t-19.5 49v91q0 34 21 54.5t55 20.5h59v-48h-55q-27 0 -27 -28v-24q8 2 17 2q29 0 48.5 -18.5t19.5 -48.5t-19.5 -49.5t-49.5 -19.5zM466 488h74v-611q0 -35 -20.5 -56t-54.5 -21h-381v67h352q28 0 28 30v197h-12q-56 -98 -178 -98
q-99 0 -165 70.5t-66 182.5t66 182.5t165 70.5q122 0 178 -98h14v84zM292 66q78 0 125 49.5t47 133.5t-47 134t-125 50q-77 0 -124.5 -49t-47.5 -135q0 -85 47.5 -134t124.5 -49z" />
    <glyph glyph-name="gdotaccent.ss02" horiz-adv-x="615" 
d="M308 575q-28 0 -47 18.5t-19 46.5t19 46.5t47 18.5t47 -18.5t19 -46.5t-19 -46.5t-47 -18.5zM466 488h74v-611q0 -35 -20.5 -56t-54.5 -21h-381v67h352q28 0 28 30v197h-12q-56 -98 -178 -98q-99 0 -165 70.5t-66 182.5t66 182.5t165 70.5q122 0 178 -98h14v84zM292 66
q78 0 125 49.5t47 133.5t-47 134t-125 50q-77 0 -124.5 -49t-47.5 -135q0 -85 47.5 -134t124.5 -49z" />
    <glyph glyph-name="v.ss03" horiz-adv-x="534" 
d="M27 488h83l151 -455h12l151 455h83l-168 -488h-144z" />
    <glyph glyph-name="w.ss03" horiz-adv-x="770" 
d="M40 488h80l81 -455h14l98 455h145l98 -455h13l82 455h80l-92 -488h-149l-98 455h-13l-100 -455h-147z" />
    <glyph glyph-name="wacute.ss03" horiz-adv-x="770" 
d="M390 700h93l-78 -130h-75zM40 488h80l81 -455h14l98 455h145l98 -455h13l82 455h80l-92 -488h-149l-98 455h-13l-100 -455h-147z" />
    <glyph glyph-name="wcircumflex.ss03" horiz-adv-x="770" 
d="M448 570l-57 78h-12l-56 -78h-85l97 130h100l97 -130h-84zM40 488h80l81 -455h14l98 455h145l98 -455h13l82 455h80l-92 -488h-149l-98 455h-13l-100 -455h-147z" />
    <glyph glyph-name="wdieresis.ss03" horiz-adv-x="770" 
d="M230 640q0 28 19 46.5t47 18.5t47 -18.5t19 -46.5t-19 -46.5t-47 -18.5t-47 18.5t-19 46.5zM408 640q0 28 19 46.5t47 18.5q29 0 48 -18.5t19 -46.5t-19 -46.5t-48 -18.5q-28 0 -47 18.5t-19 46.5zM40 488h80l81 -455h14l98 455h145l98 -455h13l82 455h80l-92 -488h-149
l-98 455h-13l-100 -455h-147z" />
    <glyph glyph-name="wgrave.ss03" horiz-adv-x="770" 
d="M378 700l65 -130h-74l-83 130h92zM40 488h80l81 -455h14l98 455h145l98 -455h13l82 455h80l-92 -488h-149l-98 455h-13l-100 -455h-147z" />
    <glyph glyph-name="y.ss03" horiz-adv-x="554" 
d="M444 488h83l-250 -688h-83l75 200h-65l-177 488h83l161 -455h12z" />
    <glyph glyph-name="yacute.ss03" horiz-adv-x="554" 
d="M377 700l-78 -130h-75l60 130h93zM444 488h83l-250 -688h-83l75 200h-65l-177 488h83l161 -455h12z" />
    <glyph glyph-name="ycircumflex.ss03" horiz-adv-x="554" 
d="M273 648l-56 -78h-85l97 130h100l97 -130h-84l-57 78h-12zM444 488h83l-250 -688h-83l75 200h-65l-177 488h83l161 -455h12z" />
    <glyph glyph-name="ydieresis.ss03" horiz-adv-x="554" 
d="M190 575q-28 0 -47 18.5t-19 46.5t19 46.5t47 18.5t47 -18.5t19 -46.5t-19 -46.5t-47 -18.5zM368 575q-28 0 -47 18.5t-19 46.5t19 46.5t47 18.5q29 0 48 -18.5t19 -46.5t-19 -46.5t-48 -18.5zM444 488h83l-250 -688h-83l75 200h-65l-177 488h83l161 -455h12z" />
    <glyph glyph-name="ygrave.ss03" horiz-adv-x="554" 
d="M336 570h-74l-83 130h92zM444 488h83l-250 -688h-83l75 200h-65l-177 488h83l161 -455h12z" />
    <glyph glyph-name="zero.lf" horiz-adv-x="622" 
d="M54 428q0 137 68 211.5t189 74.5q120 0 188 -75t68 -211v-156q0 -136 -67.5 -211t-188.5 -75t-189 74.5t-68 211.5v156zM136 431v-162q0 -100 44 -154t131 -54q86 0 130 54t44 154v162q0 100 -44 154t-130 54q-87 0 -131 -54t-44 -154z" />
    <glyph glyph-name="one.lf" horiz-adv-x="412" 
d="M206 700h130l-1 -700h-82v620h-12l-142 -222h-93z" />
    <glyph glyph-name="two.lf" horiz-adv-x="584" 
d="M49 476q0 109 70.5 173.5t182.5 64.5q105 0 171.5 -62t66.5 -163q0 -98 -61 -153t-176 -90q-95 -29 -133.5 -58.5t-38.5 -96.5v-16h405v-75h-488v81q0 97 54.5 148t164.5 83q97 29 144 69t47 111q0 68 -43.5 107.5t-112.5 39.5q-80 0 -125.5 -44t-45.5 -124v-21h-82v26z
" />
    <glyph glyph-name="three.lf" horiz-adv-x="584" 
d="M59 700h473v-73l-225 -196v-11h25q89 0 148 -57t59 -152q0 -98 -70.5 -161.5t-173.5 -63.5q-115 0 -186.5 64t-71.5 172v43h82v-40q0 -78 47 -121t128 -43q73 0 118 43t45 109q0 67 -44 104.5t-111 37.5h-100v77l218 192h-361v76z" />
    <glyph glyph-name="four.lf" horiz-adv-x="597" 
d="M326 700h140v-486h120v-75h-120v-139h-82v139h-362v72zM372 632l-259 -418h271v418h-12z" />
    <glyph glyph-name="five.lf" horiz-adv-x="589" 
d="M71 700h459v-75h-378v-247h12q50 93 171 93q92 0 153 -64.5t61 -169.5q0 -109 -69 -180t-181 -71q-114 0 -184 66.5t-70 176.5v18h81v-15q0 -81 46 -126t127 -45q79 0 123 47t44 129q0 75 -40 118t-107 43q-85 0 -123 -72h-125v374z" />
    <glyph glyph-name="six.lf" horiz-adv-x="588" 
d="M548 228q0 -107 -70.5 -174.5t-177.5 -67.5q-106 0 -176 67t-70 174v244q0 108 69.5 175.5t181.5 67.5q109 0 172 -60t63 -156h-82q0 66 -38.5 103.5t-114.5 37.5q-79 0 -124 -44.5t-45 -119.5v-100h12q55 92 176 92q93 0 158.5 -67t65.5 -172zM300 396
q-73 0 -118.5 -46.5t-45.5 -121.5t45.5 -121t118.5 -46q74 0 120 46t46 121t-46 121.5t-120 46.5z" />
    <glyph glyph-name="seven.lf" horiz-adv-x="542" 
d="M19 700h502v-72l-290 -628h-90l288 624h-410v76z" />
    <glyph glyph-name="eight.lf" horiz-adv-x="591" 
d="M56 527q0 83 65.5 135t174.5 52t174.5 -52t65.5 -135q0 -65 -37 -103.5t-85 -53.5v-12q50 -10 92.5 -54t42.5 -117q0 -89 -70.5 -145t-182.5 -56t-182.5 56t-70.5 145q0 73 42.5 117t91.5 54v12q-48 15 -84.5 53.5t-36.5 103.5zM138 520q0 -55 43.5 -87t114.5 -32
t114.5 32t43.5 87t-43.5 87t-114.5 32t-114.5 -32t-43.5 -87zM125 193q0 -63 46.5 -97.5t124.5 -34.5q77 0 124 34.5t47 97.5t-47 98t-124 35q-78 0 -124.5 -35t-46.5 -98z" />
    <glyph glyph-name="nine.lf" horiz-adv-x="588" 
d="M40 472q0 107 70.5 174.5t177.5 67.5q106 0 176 -67t70 -174v-244q0 -108 -69 -175.5t-181 -67.5q-109 0 -172 60t-63 156h82q0 -66 38.5 -103.5t114.5 -37.5q78 0 123 44.5t45 119.5v100h-12q-53 -92 -176 -92q-93 0 -158.5 67t-65.5 172zM288 304q73 0 118.5 46.5
t45.5 121.5t-45.5 121t-118.5 46q-74 0 -120 -46t-46 -121t46 -121.5t120 -46.5z" />
    <glyph glyph-name="one.lf.ss03" horiz-adv-x="412" 
d="M177 700h159l-1 -700h-82v661h-12l-142 -263h-93z" />
    <glyph glyph-name="zero.lf.zero" horiz-adv-x="622" 
d="M311 714q120 0 188 -75t68 -211v-156q0 -136 -67.5 -211t-188.5 -75t-189 74.5t-68 211.5v156q0 137 68 211.5t189 74.5zM311 639q-87 0 -131 -54t-44 -154v-161l340 242q-31 127 -165 127zM311 61q86 0 130 54t44 154v160l-340 -241q33 -127 166 -127z" />
    <glyph glyph-name="zero.osf" horiz-adv-x="593" 
d="M43 248q0 113 71.5 187.5t181.5 74.5t182 -74.5t72 -187.5t-72 -187.5t-182 -74.5t-181.5 74.5t-71.5 187.5zM125 248q0 -83 47.5 -135t123.5 -52q78 0 125 52t47 135t-47.5 135t-124.5 52q-76 0 -123.5 -52.5t-47.5 -134.5z" />
    <glyph glyph-name="one.osf" horiz-adv-x="401" 
d="M181 488h145v-488h-82v427h-12l-121 -155h-91v6z" />
    <glyph glyph-name="two.osf" horiz-adv-x="563" 
d="M34 354q114 148 283 148q92 0 149 -42.5t57 -114.5q0 -81 -61.5 -117t-194.5 -53q-80 -10 -111.5 -32.5t-34.5 -67.5h400v-75h-484v40q0 94 52 140.5t173 67.5q98 17 138 36.5t40 62.5q0 39 -35.5 60t-91.5 21q-125 0 -211 -114z" />
    <glyph glyph-name="three.osf" horiz-adv-x="564" 
d="M106 23q3 -79 49 -121t125 -42q74 0 118.5 42.5t44.5 108.5t-44 103.5t-110 37.5h-101v73l217 187h-359v76h473v-74l-220 -185v-12h20q89 0 147.5 -56.5t58.5 -150.5q0 -99 -70 -162t-174 -63q-111 0 -180 59t-77 166z" />
    <glyph glyph-name="four.osf" horiz-adv-x="608" 
d="M324 488h143v-413h132v-75h-132v-200h-82v200h-365v72zM373 426l-261 -351h273v351h-12z" />
    <glyph glyph-name="five.osf" horiz-adv-x="576" 
d="M120 21q3 -75 48.5 -117.5t123.5 -42.5q79 0 123 47t44 128q0 74 -40 117t-107 43q-86 0 -122 -72h-126v364h459v-75h-377v-237h12q51 93 171 93q92 0 152.5 -64.5t60.5 -168.5q0 -109 -69 -179.5t-181 -70.5q-109 0 -178.5 62t-74.5 166z" />
    <glyph glyph-name="six.osf" horiz-adv-x="584" 
d="M454 518l81 11q-11 84 -73 134.5t-162 50.5q-112 0 -182.5 -67.5t-70.5 -175.5v-244q0 -107 70 -174t176 -67q107 0 177.5 67.5t70.5 174.5q0 106 -65 172.5t-159 66.5q-121 0 -176 -92h-12v100q0 75 46 119.5t125 44.5q70 0 109 -32t45 -89zM293 396q74 0 120 -46.5
t46 -121.5t-46 -121t-120 -46q-73 0 -118.5 46t-45.5 121t45.5 121.5t118.5 46.5z" />
    <glyph glyph-name="seven.osf" horiz-adv-x="544" 
d="M21 488h502v-72l-290 -616h-90l288 612h-410v76z" />
    <glyph glyph-name="eight.osf" horiz-adv-x="594" 
d="M57 527q0 83 65.5 135t174.5 52t174.5 -52t65.5 -135q0 -65 -36.5 -103.5t-85.5 -53.5v-12q50 -10 92.5 -54t42.5 -117q0 -89 -70.5 -145t-182.5 -56t-182.5 56t-70.5 145q0 73 42.5 117t92.5 54v12q-48 15 -85 53.5t-37 103.5zM139 520q0 -55 43.5 -87t114.5 -32
t114.5 32t43.5 87t-43.5 87t-114.5 32t-114.5 -32t-43.5 -87zM126 193q0 -63 47 -97.5t124 -34.5q78 0 124.5 34.5t46.5 97.5t-46.5 98t-124.5 35q-77 0 -124 -35t-47 -98z" />
    <glyph glyph-name="nine.osf" horiz-adv-x="589" 
d="M135 -20q15 -119 152 -119q79 0 124 44.5t45 119.5v88h-12q-55 -92 -176 -92q-93 0 -158.5 66.5t-65.5 172.5q0 107 70.5 174.5t177.5 67.5q106 0 176 -67t70 -175v-231q0 -108 -69.5 -175.5t-181.5 -67.5q-100 0 -161 50t-72 135zM292 91q73 0 118.5 46.5t45.5 122.5
q0 75 -45.5 121t-118.5 46q-74 0 -120 -46t-46 -121q0 -76 46 -122.5t120 -46.5z" />
    <glyph glyph-name="one.osf.ss03" horiz-adv-x="401" 
d="M169 488h157v-488h-82v449h-12l-121 -177h-91z" />
    <glyph glyph-name="zero.osf.zero" horiz-adv-x="593" 
d="M296 502q110 0 182 -73.5t72 -184.5t-72 -184.5t-182 -73.5t-181.5 73.5t-71.5 184.5t71.5 184.5t181.5 73.5zM296 427q-76 0 -123.5 -51.5t-47.5 -131.5q0 -35 10 -68l287 199q-49 52 -126 52zM296 61q78 0 125 51t47 132q0 34 -10 67l-287 -198q47 -52 125 -52z" />
    <glyph glyph-name="one.ss03" horiz-adv-x="412" 
d="M177 700h159l-1 -700h-82v661h-12l-142 -263h-93z" />
    <glyph glyph-name="zero.tf" 
d="M61 428q0 137 65.5 211.5t183.5 74.5q116 0 182.5 -75t66.5 -211v-156q0 -137 -65.5 -211.5t-183.5 -74.5t-183.5 74.5t-65.5 211.5v156zM143 431v-162q0 -101 42 -154.5t125 -53.5t125 53.5t42 154.5v162q0 101 -42 154.5t-125 53.5t-125 -53.5t-42 -154.5z" />
    <glyph glyph-name="one.tf" 
d="M387 75h184v-75h-505v75h239v545h-12l-113 -222h-92l162 302h138z" />
    <glyph glyph-name="two.tf" 
d="M71 476q0 109 70.5 173.5t183.5 64.5q104 0 171 -62.5t67 -162.5q0 -98 -61 -153t-177 -90q-95 -29 -133.5 -59t-38.5 -96v-16h405v-75h-488v81q0 97 54.5 148t164.5 83q97 29 144.5 69t47.5 111q0 68 -43.5 107.5t-112.5 39.5q-80 0 -126 -44t-46 -124v-21h-82v26z" />
    <glyph glyph-name="three.tf" 
d="M77 700h473v-73l-225 -196v-11h25q89 0 147.5 -57t58.5 -152q0 -98 -70.5 -161.5t-173.5 -63.5q-114 0 -185.5 64t-71.5 172v43h82v-40q0 -78 47 -121t127 -43q74 0 118.5 43t44.5 109q0 67 -44 104.5t-110 37.5h-100v77l217 192h-360v76z" />
    <glyph glyph-name="four.tf" 
d="M342 700h139v-486h121v-75h-121v-139h-82v139h-348v72zM387 632l-246 -418h258v418h-12z" />
    <glyph glyph-name="five.tf" 
d="M85 700h459v-75h-377v-247h12q50 93 171 93q92 0 152.5 -64.5t60.5 -169.5q0 -110 -69 -180.5t-181 -70.5q-113 0 -183 66.5t-70 176.5v18h81v-15q0 -81 46 -126t126 -45q79 0 123.5 47t44.5 129q0 75 -40.5 118t-107.5 43q-84 0 -122 -72h-126v374z" />
    <glyph glyph-name="six.tf" 
d="M561 228q0 -107 -70.5 -174.5t-177.5 -67.5q-106 0 -175.5 67t-69.5 174v244q0 108 69 175.5t181 67.5q108 0 171.5 -60t63.5 -156h-82q0 66 -38.5 103.5t-114.5 37.5q-79 0 -123.5 -44.5t-44.5 -119.5v-100h12q53 92 175 92q94 0 159 -66.5t65 -172.5zM313 396
q-73 0 -118 -46.5t-45 -121.5t45 -121t118 -46q74 0 120 46t46 121t-46 121.5t-120 46.5z" />
    <glyph glyph-name="seven.tf" 
d="M40 700h536v-72l-309 -628h-91l307 624h-443v76z" />
    <glyph glyph-name="eight.tf" 
d="M70 527q0 83 65.5 135t174.5 52t174.5 -52t65.5 -135q0 -65 -36.5 -103.5t-85.5 -53.5v-12q50 -10 92.5 -54t42.5 -117q0 -89 -70.5 -145t-182.5 -56t-182.5 56t-70.5 145q0 73 42.5 117t92.5 54v12q-49 15 -85.5 53.5t-36.5 103.5zM152 520q0 -55 43.5 -87t114.5 -32
t114.5 32t43.5 87t-43.5 87t-114.5 32t-114.5 -32t-43.5 -87zM139 193q0 -63 46.5 -97.5t124.5 -34.5t124.5 34.5t46.5 97.5t-46.5 98t-124.5 35t-124.5 -35t-46.5 -98z" />
    <glyph glyph-name="nine.tf" 
d="M62 472q0 107 70.5 174.5t177.5 67.5q106 0 176 -67t70 -174v-244q0 -108 -69.5 -175.5t-181.5 -67.5q-109 0 -172 60t-63 156h82q0 -66 38.5 -103.5t114.5 -37.5q79 0 124 44.5t45 119.5v100h-12q-55 -92 -176 -92q-94 0 -159 66.5t-65 172.5zM310 304q73 0 118.5 46.5
t45.5 121.5t-45.5 121t-118.5 46q-74 0 -120 -46t-46 -121t46 -121.5t120 -46.5z" />
    <glyph glyph-name="one.tf.ss03" 
d="M387 75h184v-75h-505v75h239v586h-12l-113 -263h-92l142 302h158z" />
    <glyph glyph-name="zero.tf.zero" 
d="M310 714q116 0 182.5 -75t66.5 -211v-156q0 -137 -65.5 -211.5t-183.5 -74.5t-183.5 74.5t-65.5 211.5v156q0 137 65.5 211.5t183.5 74.5zM310 639q-83 0 -125 -53.5t-42 -154.5v-155l327 232q-30 131 -160 131zM310 61q83 0 125 53.5t42 154.5v155l-327 -232
q30 -131 160 -131z" />
    <glyph glyph-name="zero.tosf" 
d="M56 253q0 112 72 184.5t182 72.5t182 -72.5t72 -184.5v-10q0 -112 -72 -184.5t-182 -72.5t-182 72.5t-72 184.5v10zM138 254v-12q0 -83 47 -132t125 -49t125 49.5t47 131.5v12q0 82 -47 131.5t-125 49.5q-77 0 -124.5 -50t-47.5 -131z" />
    <glyph glyph-name="one.tosf" 
d="M261 488h136v-413h187v-75h-520v75h251v342h-13l-101 -145h-88v6z" />
    <glyph glyph-name="two.tosf" 
d="M63 354q114 148 283 148q92 0 149 -42.5t57 -114.5q0 -80 -62 -116.5t-194 -53.5q-80 -10 -111.5 -32.5t-34.5 -67.5h399v-75h-483v40q0 94 52 140.5t173 67.5q98 17 138 36.5t40 62.5q0 39 -35.5 60t-91.5 21q-126 0 -211 -114z" />
    <glyph glyph-name="three.tosf" 
d="M131 23q3 -79 49.5 -121t125.5 -42q73 0 117.5 42.5t44.5 108.5t-44 103.5t-110 37.5h-101v73l217 187h-359v76h473v-74l-220 -185v-12h20q89 0 147.5 -56.5t58.5 -150.5q0 -99 -69.5 -162t-173.5 -63q-112 0 -181 59t-77 166z" />
    <glyph glyph-name="four.tosf" 
d="M338 488h143v-413h121v-75h-121v-200h-82v200h-371v72zM387 426l-266 -351h278v351h-12z" />
    <glyph glyph-name="five.tosf" 
d="M144 21q4 -76 50 -118t123 -42q78 0 122.5 47t44.5 128q0 74 -40 117t-107 43q-85 0 -123 -72h-125v364h459v-75h-378v-237h12q51 93 171 93q92 0 153 -64.5t61 -168.5q0 -109 -69 -179.5t-181 -70.5q-110 0 -179.5 62t-73.5 166z" />
    <glyph glyph-name="six.tosf" 
d="M472 518l81 11q-11 84 -73 134.5t-162 50.5q-112 0 -182 -67.5t-70 -175.5v-244q0 -107 69.5 -174t175.5 -67q107 0 177.5 67.5t70.5 174.5q0 106 -65 172.5t-159 66.5q-122 0 -175 -92h-12v100q0 75 45.5 119.5t124.5 44.5q70 0 109 -32t45 -89zM311 396q74 0 120 -46.5
t46 -121.5t-46 -121t-120 -46q-73 0 -118 46t-45 121t45 121.5t118 46.5z" />
    <glyph glyph-name="seven.tosf" 
d="M34 488h536v-72l-309 -616h-91l307 612h-443v76z" />
    <glyph glyph-name="eight.tosf" 
d="M70 527q0 83 65.5 135t174.5 52t174.5 -52t65.5 -135q0 -65 -36.5 -103.5t-85.5 -53.5v-12q50 -10 92.5 -54t42.5 -117q0 -89 -70.5 -145t-182.5 -56t-182.5 56t-70.5 145q0 73 42.5 117t92.5 54v12q-49 15 -85.5 53.5t-36.5 103.5zM152 520q0 -55 43.5 -87t114.5 -32
t114.5 32t43.5 87t-43.5 87t-114.5 32t-114.5 -32t-43.5 -87zM139 193q0 -63 46.5 -97.5t124.5 -34.5t124.5 34.5t46.5 97.5t-46.5 98t-124.5 35t-124.5 -35t-46.5 -98z" />
    <glyph glyph-name="nine.tosf" 
d="M151 -20q15 -119 152 -119q79 0 124 44.5t45 119.5v91h-12q-55 -92 -176 -92q-93 0 -158.5 67t-65.5 172q0 107 70.5 174.5t177.5 67.5q106 0 176 -67t70 -174v-235q0 -108 -69.5 -175.5t-181.5 -67.5q-100 0 -161 50t-72 135zM308 95q73 0 118.5 46.5t45.5 121.5
t-45.5 121.5t-118.5 46.5q-74 0 -120 -46t-46 -122q0 -75 46 -121.5t120 -46.5z" />
    <glyph glyph-name="one.tosf.ss03" 
d="M240 488h157v-413h187v-75h-520v75h251v374h-12l-102 -177h-88z" />
    <glyph glyph-name="zero.tosf.zero" 
d="M310 502q110 0 182 -73.5t72 -184.5t-72 -184.5t-182 -73.5t-182 73.5t-72 184.5t72 184.5t182 73.5zM310 427q-77 0 -124.5 -51.5t-47.5 -131.5q0 -34 10 -69l288 200q-49 52 -126 52zM310 61q78 0 125 51t47 132q0 33 -10 68l-288 -199q47 -52 126 -52z" />
    <glyph glyph-name="zero.zero" horiz-adv-x="622" 
d="M311 714q120 0 188 -75t68 -211v-156q0 -136 -67.5 -211t-188.5 -75t-189 74.5t-68 211.5v156q0 137 68 211.5t189 74.5zM311 639q-87 0 -131 -54t-44 -154v-161l340 242q-31 127 -165 127zM311 61q86 0 130 54t44 154v160l-340 -241q33 -127 166 -127z" />
    <glyph glyph-name="zero.subs" horiz-adv-x="371" 
d="M26 4q0 75 42.5 117.5t117.5 42.5q74 0 117 -43t43 -117v-59q0 -75 -42 -117t-118 -42t-118 42t-42 117v59zM93 9v-68q0 -44 24 -70t69 -26q44 0 68 26t24 70v68q0 44 -24 70t-68 26q-45 0 -69 -26t-24 -70z" />
    <glyph glyph-name="one.subs" horiz-adv-x="257" 
d="M116 150h91v-350h-68v269h-10l-51 -75h-66v10z" />
    <glyph glyph-name="two.subs" horiz-adv-x="356" 
d="M183 164q68 0 109.5 -32.5t41.5 -87.5q0 -53 -33.5 -81t-101.5 -43q-53 -12 -75.5 -26t-25.5 -36h234v-58h-308v35q0 55 34 87.5t103 47.5q56 12 80.5 28.5t24.5 45.5q0 28 -23 44.5t-60 16.5q-42 0 -66.5 -21.5t-25.5 -60.5h-67q1 64 45.5 102.5t113.5 38.5z" />
    <glyph glyph-name="three.subs" horiz-adv-x="353" 
d="M26 150h304v-46l-117 -81v-10q54 -2 86 -28t32 -76q0 -54 -45 -88.5t-110 -34.5q-71 0 -114.5 36.5t-43.5 98.5h67q0 -37 24.5 -56.5t65.5 -19.5q40 0 64.5 18.5t24.5 47.5q0 58 -89 58h-60v46l108 77h-197v58z" />
    <glyph glyph-name="four.subs" horiz-adv-x="374" 
d="M185 150h108v-211h74v-58h-74v-81h-67v81h-210v52zM216 94l-122 -155h132v155h-10z" />
    <glyph glyph-name="five.subs" horiz-adv-x="357" 
d="M36 150h290v-58h-225v-87h10q45 33 95 33q56 0 93.5 -32t37.5 -87v-5q0 -55 -42 -91.5t-112 -36.5q-68 0 -110.5 36t-48.5 93h69q2 -29 27 -49.5t63 -20.5q39 0 63 20t24 51t-22 49t-55 18q-42 0 -76 -28h-81v195z" />
    <glyph glyph-name="six.subs" horiz-adv-x="360" 
d="M26 30q0 59 45 96.5t114 37.5q66 0 108 -31t43 -81h-68q-1 23 -22.5 38.5t-60.5 15.5q-42 0 -67 -21t-25 -55v-33h10q39 35 97 35t98.5 -32.5t40.5 -86.5q0 -57 -44 -92t-113 -35t-112.5 34.5t-43.5 90.5v119zM93 -88q0 -29 24.5 -48.5t64.5 -19.5t64.5 19.5t24.5 48.5
t-24 47.5t-65 18.5t-65 -18.5t-24 -47.5z" />
    <glyph glyph-name="seven.subs" horiz-adv-x="313" 
d="M8 150h298v-54l-151 -296h-72l148 292h-223v58z" />
    <glyph glyph-name="eight.subs" horiz-adv-x="365" 
d="M28 68q0 43 43 69.5t111 26.5t111 -26.5t43 -69.5v-3q0 -33 -19.5 -53.5t-44.5 -26.5v-10q28 -6 49 -26.5t21 -56.5v-2q0 -45 -43.5 -74.5t-116.5 -29.5t-116.5 29.5t-43.5 74.5v2q0 36 21.5 56.5t50.5 26.5v10q-26 6 -46 26.5t-20 53.5v3zM96 58q0 -22 23.5 -35.5
t62.5 -13.5q40 0 63.5 13.5t23.5 35.5t-23 35t-64 13q-40 0 -63 -13t-23 -35zM90 -103q0 -25 24.5 -39t67.5 -14q44 0 68.5 14t24.5 39q0 54 -93 54q-43 0 -67.5 -14t-24.5 -40z" />
    <glyph glyph-name="nine.subs" horiz-adv-x="360" 
d="M335 -80q0 -59 -44 -96.5t-112 -37.5q-63 0 -104 28.5t-49 78.5h70q13 -49 82 -49q41 0 65 21t24 55v33h-10q-39 -35 -97 -35t-98 32.5t-40 86.5q0 57 43.5 92t112.5 35t113 -34.5t44 -90.5v-119zM267 38q0 29 -24.5 48.5t-64.5 19.5t-64.5 -19.5t-24.5 -48.5t24 -47.5
t65 -18.5t65 18.5t24 47.5z" />
    <glyph glyph-name="zero.dnom" horiz-adv-x="371" 
d="M26 204q0 75 42.5 117.5t117.5 42.5q74 0 117 -43t43 -117v-59q0 -75 -42 -117t-118 -42t-118 42t-42 117v59zM93 209v-68q0 -44 24 -70t69 -26q44 0 68 26t24 70v68q0 44 -24 70t-68 26q-45 0 -69 -26t-24 -70z" />
    <glyph glyph-name="one.dnom" horiz-adv-x="257" 
d="M116 350h91v-350h-68v269h-10l-51 -75h-66v10z" />
    <glyph glyph-name="two.dnom" horiz-adv-x="356" 
d="M183 364q68 0 109.5 -32.5t41.5 -87.5q0 -53 -33.5 -81t-101.5 -43q-53 -12 -75.5 -26t-25.5 -36h234v-58h-308v35q0 55 34 87.5t103 47.5q56 12 80.5 28.5t24.5 45.5q0 28 -23 44.5t-60 16.5q-42 0 -66.5 -21.5t-25.5 -60.5h-67q1 64 45.5 102.5t113.5 38.5z" />
    <glyph glyph-name="three.dnom" horiz-adv-x="353" 
d="M26 350h304v-46l-117 -81v-10q54 -2 86 -28t32 -76q0 -54 -45 -88.5t-110 -34.5q-71 0 -114.5 36.5t-43.5 98.5h67q0 -37 24.5 -56.5t65.5 -19.5q40 0 64.5 18.5t24.5 47.5q0 58 -89 58h-60v46l108 77h-197v58z" />
    <glyph glyph-name="four.dnom" horiz-adv-x="374" 
d="M185 350h108v-211h74v-58h-74v-81h-67v81h-210v52zM216 294l-122 -155h132v155h-10z" />
    <glyph glyph-name="five.dnom" horiz-adv-x="357" 
d="M36 350h290v-58h-225v-87h10q45 33 95 33q56 0 93.5 -32t37.5 -87v-5q0 -55 -42 -91.5t-112 -36.5q-68 0 -110.5 36t-48.5 93h69q2 -29 27 -49.5t63 -20.5q39 0 63 20t24 51t-22 49t-55 18q-42 0 -76 -28h-81v195z" />
    <glyph glyph-name="six.dnom" horiz-adv-x="360" 
d="M26 230q0 59 45 96.5t114 37.5q66 0 108 -31t43 -81h-68q-1 23 -22.5 38.5t-60.5 15.5q-42 0 -67 -21t-25 -55v-33h10q39 35 97 35t98.5 -32.5t40.5 -86.5q0 -57 -44 -92t-113 -35t-112.5 34.5t-43.5 90.5v119zM93 112q0 -29 24.5 -48.5t64.5 -19.5t64.5 19.5t24.5 48.5
t-24 47.5t-65 18.5t-65 -18.5t-24 -47.5z" />
    <glyph glyph-name="seven.dnom" horiz-adv-x="313" 
d="M8 350h298v-54l-151 -296h-72l148 292h-223v58z" />
    <glyph glyph-name="eight.dnom" horiz-adv-x="365" 
d="M28 268q0 43 43 69.5t111 26.5t111 -26.5t43 -69.5v-3q0 -33 -19.5 -53.5t-44.5 -26.5v-10q28 -6 49 -26.5t21 -56.5v-2q0 -45 -43.5 -74.5t-116.5 -29.5t-116.5 29.5t-43.5 74.5v2q0 36 21.5 56.5t50.5 26.5v10q-26 6 -46 26.5t-20 53.5v3zM96 258q0 -22 23.5 -35.5
t62.5 -13.5q40 0 63.5 13.5t23.5 35.5t-23 35t-64 13q-40 0 -63 -13t-23 -35zM90 97q0 -25 24.5 -39t67.5 -14q44 0 68.5 14t24.5 39q0 54 -93 54q-43 0 -67.5 -14t-24.5 -40z" />
    <glyph glyph-name="nine.dnom" horiz-adv-x="360" 
d="M335 120q0 -59 -44 -96.5t-112 -37.5q-63 0 -104 28.5t-49 78.5h70q13 -49 82 -49q41 0 65 21t24 55v33h-10q-39 -35 -97 -35t-98 32.5t-40 86.5q0 57 43.5 92t112.5 35t113 -34.5t44 -90.5v-119zM267 238q0 29 -24.5 48.5t-64.5 19.5t-64.5 -19.5t-24.5 -48.5t24 -47.5
t65 -18.5t65 18.5t24 47.5z" />
    <glyph glyph-name="zero.numr" horiz-adv-x="371" 
d="M26 554q0 75 42.5 117.5t117.5 42.5q74 0 117 -43t43 -117v-59q0 -75 -42 -117t-118 -42t-118 42t-42 117v59zM93 559v-68q0 -44 24 -70t69 -26q44 0 68 26t24 70v68q0 44 -24 70t-68 26q-45 0 -69 -26t-24 -70z" />
    <glyph glyph-name="one.numr" horiz-adv-x="257" 
d="M116 700h91v-350h-68v269h-10l-51 -75h-66v10z" />
    <glyph glyph-name="two.numr" horiz-adv-x="356" 
d="M183 705q68 0 109.5 -32.5t41.5 -87.5q0 -53 -33.5 -81t-101.5 -43q-53 -11 -75.5 -25t-25.5 -37h234v-58h-308v36q0 55 34 86.5t103 47.5q56 12 80.5 29t24.5 46q0 27 -23 43.5t-60 16.5q-43 0 -67 -21t-25 -61h-67q1 65 45.5 103t113.5 38z" />
    <glyph glyph-name="three.numr" horiz-adv-x="353" 
d="M26 700h304v-46l-117 -81v-10q54 -2 86 -28t32 -76q0 -54 -45 -88.5t-110 -34.5q-71 0 -114.5 36.5t-43.5 98.5h67q0 -37 24.5 -56.5t65.5 -19.5q40 0 64.5 18.5t24.5 47.5q0 58 -89 58h-60v46l108 77h-197v58z" />
    <glyph glyph-name="four.numr" horiz-adv-x="374" 
d="M185 700h108v-211h74v-58h-74v-81h-67v81h-210v52zM216 644l-122 -155h132v155h-10z" />
    <glyph glyph-name="five.numr" horiz-adv-x="357" 
d="M36 700h290v-58h-225v-87h10q45 33 95 33q56 0 93.5 -32t37.5 -87v-5q0 -55 -42 -91.5t-112 -36.5q-68 0 -110.5 36t-48.5 93h69q2 -29 27 -49.5t63 -20.5q39 0 63 20t24 51t-22 49t-55 18q-42 0 -76 -28h-81v195z" />
    <glyph glyph-name="six.numr" horiz-adv-x="360" 
d="M26 580q0 59 45 96.5t114 37.5q66 0 108 -31t43 -81h-68q-1 23 -22.5 38.5t-60.5 15.5q-42 0 -67 -21t-25 -55v-33h10q39 35 97 35t98.5 -32.5t40.5 -86.5q0 -57 -44 -92t-113 -35t-112.5 34.5t-43.5 90.5v119zM93 462q0 -29 24.5 -48.5t64.5 -19.5t64.5 19.5t24.5 48.5
t-24 47.5t-65 18.5t-65 -18.5t-24 -47.5z" />
    <glyph glyph-name="seven.numr" horiz-adv-x="313" 
d="M8 700h298v-54l-151 -296h-72l148 292h-223v58z" />
    <glyph glyph-name="eight.numr" horiz-adv-x="365" 
d="M28 618q0 43 43 69.5t111 26.5t111 -26.5t43 -69.5v-3q0 -33 -19.5 -53.5t-44.5 -26.5v-10q28 -6 49 -26.5t21 -56.5v-2q0 -45 -43.5 -74.5t-116.5 -29.5t-116.5 29.5t-43.5 74.5v2q0 36 21.5 56.5t50.5 26.5v10q-26 6 -46 26.5t-20 53.5v3zM96 608q0 -22 23.5 -35.5
t62.5 -13.5q40 0 63.5 13.5t23.5 35.5t-23 35t-64 13q-40 0 -63 -13t-23 -35zM90 447q0 -25 24.5 -39t67.5 -14q44 0 68.5 14t24.5 39q0 54 -93 54q-43 0 -67.5 -14t-24.5 -40z" />
    <glyph glyph-name="nine.numr" horiz-adv-x="380" 
d="M338 470q0 -59 -44 -96.5t-111 -37.5q-64 0 -105 28.5t-49 78.5h70q15 -49 83 -49q41 0 65 21t24 55v33h-10q-39 -35 -97 -35t-98.5 32.5t-40.5 86.5q0 57 44 92t113 35q68 0 112 -34.5t44 -90.5v-119zM271 588q0 29 -24.5 48.5t-64.5 19.5q-41 0 -65 -19.5t-24 -48.5
t24 -47.5t65 -18.5t65 18.5t24 47.5z" />
    <glyph glyph-name="zero.sups" horiz-adv-x="371" 
d="M26 554q0 75 42.5 117.5t117.5 42.5q74 0 117 -43t43 -117v-59q0 -75 -42 -117t-118 -42t-118 42t-42 117v59zM93 559v-68q0 -44 24 -70t69 -26q44 0 68 26t24 70v68q0 44 -24 70t-68 26q-45 0 -69 -26t-24 -70z" />
    <glyph glyph-name="one.sups" horiz-adv-x="257" 
d="M116 700h91v-350h-68v269h-10l-51 -75h-66v10z" />
    <glyph glyph-name="two.sups" horiz-adv-x="356" 
d="M183 705q68 0 109.5 -32.5t41.5 -87.5q0 -53 -33.5 -81t-101.5 -43q-53 -11 -75.5 -25t-25.5 -37h234v-58h-308v36q0 55 34 86.5t103 47.5q56 12 80.5 29t24.5 46q0 27 -23 43.5t-60 16.5q-43 0 -67 -21t-25 -61h-67q1 65 45.5 103t113.5 38z" />
    <glyph glyph-name="three.sups" horiz-adv-x="353" 
d="M26 700h304v-46l-117 -81v-10q54 -2 86 -28t32 -76q0 -54 -45 -88.5t-110 -34.5q-71 0 -114.5 36.5t-43.5 98.5h67q0 -37 24.5 -56.5t65.5 -19.5q40 0 64.5 18.5t24.5 47.5q0 58 -89 58h-60v46l108 77h-197v58z" />
    <glyph glyph-name="four.sups" horiz-adv-x="374" 
d="M185 700h108v-211h74v-58h-74v-81h-67v81h-210v52zM216 644l-122 -155h132v155h-10z" />
    <glyph glyph-name="five.sups" horiz-adv-x="357" 
d="M36 700h290v-58h-225v-87h10q45 33 95 33q56 0 93.5 -32t37.5 -87v-5q0 -55 -42 -91.5t-112 -36.5q-68 0 -110.5 36t-48.5 93h69q2 -29 27 -49.5t63 -20.5q39 0 63 20t24 51t-22 49t-55 18q-42 0 -76 -28h-81v195z" />
    <glyph glyph-name="six.sups" horiz-adv-x="360" 
d="M26 580q0 59 45 96.5t114 37.5q66 0 108 -31t43 -81h-68q-1 23 -22.5 38.5t-60.5 15.5q-42 0 -67 -21t-25 -55v-33h10q39 35 97 35t98.5 -32.5t40.5 -86.5q0 -57 -44 -92t-113 -35t-112.5 34.5t-43.5 90.5v119zM93 462q0 -29 24.5 -48.5t64.5 -19.5t64.5 19.5t24.5 48.5
t-24 47.5t-65 18.5t-65 -18.5t-24 -47.5z" />
    <glyph glyph-name="seven.sups" horiz-adv-x="313" 
d="M8 700h298v-54l-151 -296h-72l148 292h-223v58z" />
    <glyph glyph-name="eight.sups" horiz-adv-x="365" 
d="M28 618q0 43 43 69.5t111 26.5t111 -26.5t43 -69.5v-3q0 -33 -19.5 -53.5t-44.5 -26.5v-10q28 -6 49 -26.5t21 -56.5v-2q0 -45 -43.5 -74.5t-116.5 -29.5t-116.5 29.5t-43.5 74.5v2q0 36 21.5 56.5t50.5 26.5v10q-26 6 -46 26.5t-20 53.5v3zM96 608q0 -22 23.5 -35.5
t62.5 -13.5q40 0 63.5 13.5t23.5 35.5t-23 35t-64 13q-40 0 -63 -13t-23 -35zM90 447q0 -25 24.5 -39t67.5 -14q44 0 68.5 14t24.5 39q0 54 -93 54q-43 0 -67.5 -14t-24.5 -40z" />
    <glyph glyph-name="nine.sups" horiz-adv-x="380" 
d="M338 470q0 -59 -44 -96.5t-111 -37.5q-64 0 -105 28.5t-49 78.5h70q15 -49 83 -49q41 0 65 21t24 55v33h-10q-39 -35 -97 -35t-98.5 32.5t-40.5 86.5q0 57 44 92t113 35q68 0 112 -34.5t44 -90.5v-119zM271 588q0 29 -24.5 48.5t-64.5 19.5q-41 0 -65 -19.5t-24 -48.5
t24 -47.5t65 -18.5t65 18.5t24 47.5z" />
    <glyph glyph-name="zero.subs.zero" horiz-adv-x="371" 
d="M186 164q74 0 117 -43t43 -117v-59q0 -75 -42 -117t-118 -42t-118 42t-42 117v59q0 75 42.5 117.5t117.5 42.5zM186 105q-45 0 -69 -26t-24 -70v-62l175 112q-22 46 -82 46zM186 -155q44 0 68 26t24 70v66l-176 -113q21 -49 84 -49z" />
    <glyph glyph-name="zero.dnom.zero" horiz-adv-x="371" 
d="M186 364q74 0 117 -43t43 -117v-59q0 -75 -42 -117t-118 -42t-118 42t-42 117v59q0 75 42.5 117.5t117.5 42.5zM186 305q-45 0 -69 -26t-24 -70v-62l175 112q-22 46 -82 46zM186 45q44 0 68 26t24 70v66l-176 -113q21 -49 84 -49z" />
    <glyph glyph-name="zero.numr.zero" horiz-adv-x="371" 
d="M186 714q74 0 117 -43t43 -117v-59q0 -75 -42 -117t-118 -42t-118 42t-42 117v59q0 75 42.5 117.5t117.5 42.5zM186 655q-45 0 -69 -26t-24 -70v-62l175 112q-22 46 -82 46zM186 395q44 0 68 26t24 70v66l-176 -113q21 -49 84 -49z" />
    <glyph glyph-name="zero.sups.zero" horiz-adv-x="371" 
d="M186 714q74 0 117 -43t43 -117v-59q0 -75 -42 -117t-118 -42t-118 42t-42 117v59q0 75 42.5 117.5t117.5 42.5zM186 655q-45 0 -69 -26t-24 -70v-62l175 112q-22 46 -82 46zM186 395q44 0 68 26t24 70v66l-176 -113q21 -49 84 -49z" />
    <glyph glyph-name="exclamdown.case" horiz-adv-x="243" 
d="M52 631q0 29 20 49t49 20t49 -20t20 -49t-20 -49t-49 -20t-49 20t-20 49zM81 -14v515h81v-515h-81z" />
    <glyph glyph-name="questiondown.case" horiz-adv-x="581" 
d="M369 645q0 -29 -20 -49t-49 -20t-49 20t-20 49t20 49t49 20t49 -20t20 -49zM531 197q0 -98 -67.5 -154.5t-177.5 -56.5q-105 0 -171 55t-66 137v8q0 73 37 118t112 78l27 11q34 16 34 58v60h82v-62q0 -48 -15.5 -75t-57.5 -45l-27 -12q-61 -26 -85.5 -55t-24.5 -80
q0 -55 43.5 -88t111.5 -33q71 0 117 36.5t46 103.5v37h82v-41z" />
    <glyph glyph-name="slash.case" horiz-adv-x="442" 
d="M310 737h82l-260 -778h-82z" />
    <glyph glyph-name="backslash.case" horiz-adv-x="442" 
d="M132 737l260 -778h-82l-260 778h82z" />
    <glyph glyph-name="parenleft.case" horiz-adv-x="403" 
d="M138 105v483q0 137 67.5 200.5t177.5 63.5v-74q-84 -1 -124 -49t-40 -146v-473q0 -98 40 -146.5t124 -49.5v-73q-110 0 -177.5 63.5t-67.5 200.5z" />
    <glyph glyph-name="parenright.case" horiz-adv-x="403" 
d="M266 105q0 -137 -67.5 -200.5t-178.5 -63.5v73q85 1 125 49.5t40 146.5v473q0 98 -40 146t-125 49v74q111 0 178.5 -63.5t67.5 -200.5v-483z" />
    <glyph glyph-name="braceleft.case" horiz-adv-x="389" 
d="M84 390h60q27 0 27 29v354q0 33 21.5 55t54.5 22h108v-74h-76q-27 0 -27 -30v-319q0 -36 -19.5 -56t-54.5 -20h-9v-11h9q35 0 54.5 -20t19.5 -57v-319q0 -30 27 -30h76v-74h-108q-33 0 -54.5 22t-21.5 56v353q0 29 -27 29h-60v90z" />
    <glyph glyph-name="braceright.case" horiz-adv-x="389" 
d="M305 390v-90h-60q-27 0 -27 -29v-353q0 -34 -21.5 -56t-54.5 -22h-108v74h76q27 0 27 30v319q0 37 20 57t55 20h8v11h-8q-35 0 -55 20t-20 56v319q0 30 -27 30h-76v74h108q33 0 54.5 -22t21.5 -55v-354q0 -29 27 -29h60z" />
    <glyph glyph-name="bracketleft.case" horiz-adv-x="356" 
d="M138 773q0 33 21.5 55t55.5 22h107v-74h-76q-27 0 -27 -30v-800q0 -30 27 -30h76v-73h-107q-34 0 -55.5 22t-21.5 55v853z" />
    <glyph glyph-name="bracketright.case" horiz-adv-x="356" 
d="M218 773v-853q0 -33 -21.5 -55t-55.5 -22h-107v73h76q27 0 27 30v800q0 30 -27 30h-76v74h107q34 0 55.5 -22t21.5 -55z" />
    <glyph glyph-name="hyphen.case" horiz-adv-x="460" 
d="M82 314v72h296v-72h-296z" />
    <glyph glyph-name="endash.case" horiz-adv-x="612" 
d="M82 314v72h448v-72h-448z" />
    <glyph glyph-name="emdash.case" horiz-adv-x="916" 
d="M82 314v72h752v-72h-752z" />
    <glyph glyph-name="guillemotleft.case" horiz-adv-x="780" 
d="M69 381l314 183h6v-87l-244 -133v-12l244 -133v-87h-6l-314 183v86zM387 381l314 183h6v-87l-243 -133v-12l243 -133v-87h-6l-314 183v86z" />
    <glyph glyph-name="guillemotright.case" horiz-adv-x="780" 
d="M389 381v-86l-314 -183h-6v87l243 133v12l-243 133v87h6zM707 381v-86l-314 -183h-6v87l244 133v12l-244 133v87h6z" />
    <glyph glyph-name="guilsinglleft.case" horiz-adv-x="480" 
d="M69 384l332 180h6v-87l-266 -133v-12l266 -133v-87h-6l-332 180v92z" />
    <glyph glyph-name="guilsinglright.case" horiz-adv-x="480" 
d="M411 384v-92l-332 -180h-6v87l266 133v12l-266 133v87h6z" />
    <glyph glyph-name="uni2197.case" 
d="M178 700h333l41 -41v-334l-69 1v214l5 35l-8 4l-24 -27l-360 -362l-53 53l361 361l27 24l-4 8l-35 -5h-214v69z" />
    <glyph glyph-name="arrowright.case" horiz-adv-x="800" 
d="M515 613l235 -234v-57l-235 -235l-50 50l149 149l29 21l-3 9l-36 -3h-554v74h554l36 -3l3 9l-29 21l-149 149z" />
    <glyph glyph-name="arrowleft.case" horiz-adv-x="800" 
d="M285 613l50 -50l-149 -149l-29 -21l3 -9l36 3h554v-74h-554l-36 3l-3 -9l29 -21l149 -149l-50 -50l-235 235v57z" />
    <glyph glyph-name="uni2196.case" horiz-adv-x="612" 
d="M442 700v-69h-214l-35 5l-4 -8l27 -24l361 -361l-53 -53l-360 362l-24 27l-8 -4l5 -35v-214l-69 -1v334l41 41h333z" />
    <glyph glyph-name="arrowboth.case" horiz-adv-x="800" 
d="M515 613l235 -234v-57l-235 -235l-50 50l149 149l29 21l-3 9l-36 -3h-408l-36 3l-3 -9l29 -21l149 -149l-50 -50l-235 235v57l235 234l50 -50l-149 -149l-29 -21l3 -9l36 3h408l36 -3l3 9l-29 21l-149 149z" />
    <glyph glyph-name="at.case" horiz-adv-x="1002" 
d="M89 120v460q0 190 190 190h446q190 0 190 -190v-365q0 -47 -26.5 -73.5t-73.5 -26.5h-104q-34 0 -53 19t-19 52v14h-13q-10 -39 -46.5 -69t-100.5 -30q-87 0 -146.5 68t-59.5 174v16q0 106 59.5 173.5t146.5 67.5q63 0 99.5 -31t45.5 -65h12v82h75v-373q0 -31 29 -31h57
q24 0 33.5 9.5t9.5 33.5v356q0 120 -120 120h-436q-120 0 -120 -120v-462q0 -120 120 -120h614v-69h-619q-190 0 -190 190zM492 530q-63 0 -102.5 -47.5t-39.5 -126.5v-11q0 -79 39.5 -126t102.5 -47t102.5 47t39.5 127v10q0 80 -39.5 127t-102.5 47z" />
    <glyph glyph-name="bar.case" horiz-adv-x="229" 
d="M153 856v-1012h-77v1012h77z" />
    <glyph glyph-name="brokenbar.case" horiz-adv-x="229" 
d="M153 436h-77v420h77v-420zM76 264h77v-420h-77v420z" />
    <glyph glyph-name="uni0308.case" horiz-adv-x="0" 
d="M-373 818q0 28 19 46.5t47 18.5t47 -18.5t19 -46.5t-19 -46.5t-47 -18.5t-47 18.5t-19 46.5zM-186 818q0 28 19 46.5t47 18.5t47 -18.5t19 -46.5t-19 -46.5t-47 -18.5t-47 18.5t-19 46.5z" />
    <glyph glyph-name="uni0307.case" horiz-adv-x="0" 
d="M-186 818q0 28 19 46.5t47 18.5t47 -18.5t19 -46.5t-19 -46.5t-47 -18.5t-47 18.5t-19 46.5z" />
    <glyph glyph-name="gravecomb.case" horiz-adv-x="0" 
d="M-114 880l60 -113h-78l-80 113h98z" />
    <glyph glyph-name="acutecomb.case" horiz-adv-x="0" 
d="M-154 880h99l-77 -113h-79z" />
    <glyph glyph-name="uni030B.case" horiz-adv-x="0" 
d="M-289 880h98l-80 -113h-78zM-152 880h98l-80 -113h-78z" />
    <glyph glyph-name="uni0302.case" horiz-adv-x="0" 
d="M-145 767l-54 62h-11l-54 -62h-91l102 113h97l103 -113h-92z" />
    <glyph glyph-name="uni030C.case" horiz-adv-x="0" 
d="M-145 880h92l-103 -113h-97l-102 113h91l54 -62h11z" />
    <glyph glyph-name="uni0306.case" horiz-adv-x="0" 
d="M-119 880h65v-10q0 -50 -31 -79.5t-82 -29.5t-82 29.5t-31 79.5v10h65v-7q0 -21 12.5 -34.5t35.5 -13.5t35.5 13.5t12.5 34.5v7z" />
    <glyph glyph-name="uni030A.case" horiz-adv-x="0" 
d="M-257 839q0 43 29 70.5t72 27.5q44 0 73 -27.5t29 -70.5q0 -42 -29 -69.5t-73 -27.5q-43 0 -72 27.5t-29 69.5zM-198 839q0 -18 11.5 -30t30.5 -12t31 12t12 30q0 19 -12 31t-31 12t-30.5 -12t-11.5 -31z" />
    <glyph glyph-name="tildecomb.case" horiz-adv-x="0" 
d="M-381 803l38 49q33 44 71 44q43 0 78 -53q10 -14 15.5 -19t14.5 -5q15 0 28 18l33 44l49 -37l-38 -49q-33 -44 -71 -44q-26 0 -42.5 12.5t-36.5 39.5q-16 24 -30 24t-27 -18l-33 -43z" />
    <glyph glyph-name="uni0304.case" horiz-adv-x="0" 
d="M-54 832v-65h-282v65h282z" />
    <glyph glyph-name="ringacutecomb" horiz-adv-x="311" 
d="M226 711q31 -28 31 -72q0 -43 -29 -70.5t-73 -27.5q-43 0 -72 27.5t-29 70.5t29 70.5t72 27.5h6l43 93h93zM155 597q19 0 31 11.5t12 30.5t-12 30.5t-31 11.5t-30.5 -11.5t-11.5 -30.5t11.5 -30.5t30.5 -11.5z" />
    <glyph glyph-name="Omega" 
d="M64 434q0 127 66 203.5t180 76.5q115 0 180.5 -77t65.5 -203v-151q0 -151 -86 -194v-12h98v-77h-216v83q67 22 94 71.5t27 134.5v137q0 97 -41.5 154t-121.5 57t-121.5 -58.5t-41.5 -152.5v-137q0 -85 27 -134.5t94 -71.5v-83h-216v77h98v12q-86 45 -86 194v151z" />
    <glyph glyph-name="Delta" 
d="M18 0l219 700h146l219 -700h-584zM131 77h359l-174 564h-12z" />
    </font>
</defs>
</svg>
